<svg width="51" height="24" viewBox="0 0 51 24" fill="none" xmlns="http://www.w3.org/2000/svg">
<path d="M15.9716 6.75239C15.7868 6.91281 15.6005 7.07176 15.4181 7.23513C14.7729 7.81355 14.2885 8.48616 14.1177 9.32508C13.9947 9.87607 13.9989 10.4457 14.1298 10.9951C14.2607 11.5444 14.5153 12.0605 14.8762 12.5078C15.248 12.9854 15.6913 13.3821 16.2813 13.6117C16.3504 13.6382 16.4203 13.6617 16.5049 13.6926C16.4273 13.8906 16.3605 14.0856 16.2775 14.2755C15.7969 15.3793 15.172 16.4007 14.3188 17.2868C14.1575 17.4506 13.9833 17.6026 13.7978 17.7415C13.1768 18.2199 12.4781 18.4039 11.6901 18.1831C11.2973 18.0742 10.9091 17.952 10.5178 17.8379C10.1192 17.7102 9.70377 17.6359 9.28347 17.6172C8.75712 17.6054 8.27424 17.7548 7.78515 17.924C7.41906 18.061 7.04473 18.1772 6.66412 18.2721C6.06401 18.4083 5.52058 18.2331 5.02373 17.9137C4.53477 17.586 4.1137 17.1756 3.78159 16.7032C2.91625 15.5482 2.26635 14.2611 1.86017 12.8979C1.49567 11.6882 1.40806 10.4186 1.6032 9.17422C1.77865 8.06523 2.21495 7.06441 3.03631 6.23726C3.89028 5.38067 4.94221 5.02818 6.17348 5.14445C6.78678 5.20185 7.37214 5.37037 7.95905 5.53227C8.20359 5.59997 8.45357 5.65075 8.70122 5.71035C9.04803 5.78443 9.4096 5.76739 9.74694 5.66105C10.2306 5.52712 10.708 5.37478 11.1878 5.24012C11.8939 5.03058 12.6434 4.98813 13.3709 5.11648C14.3273 5.29163 15.0835 5.77879 15.7162 6.46171C15.7938 6.54707 15.8714 6.63391 15.9491 6.72074C15.9576 6.73063 15.9651 6.74122 15.9716 6.75239Z" fill="#292B2E"/>
<path d="M12.375 1.16748C12.3955 1.35743 12.4043 1.54835 12.4014 1.73927C12.3356 2.71983 11.9 3.64524 11.174 4.34656C10.8425 4.67624 10.4753 4.96545 10.0235 5.13544C9.63534 5.28262 9.22932 5.31058 8.82019 5.33928C8.81398 5.33928 8.80699 5.33266 8.80078 5.32972C8.85901 3.07713 10.0569 1.62006 12.375 1.16748Z" fill="#292B2E"/>
<path d="M21.0801 3.84515C22.3271 3.65298 23.5889 3.55969 24.8523 3.56624C26.7931 3.56624 28.2169 3.99453 29.1221 4.76502C29.9574 5.45014 30.4543 6.49953 30.4543 7.7822C30.4543 9.08768 30.0475 10.1157 29.2797 10.8649C28.2386 11.915 26.5455 12.4515 24.6256 12.4515C24.0387 12.4515 23.4968 12.4301 23.045 12.3234V18.1032H21.0801V3.84515ZM23.045 10.8016C23.4735 10.909 24.0162 10.9488 24.6706 10.9488C27.0415 10.9488 28.4871 9.85743 28.4871 7.86609C28.4871 5.96085 27.0648 5.04098 24.8965 5.04098C24.0387 5.04098 23.3835 5.105 23.045 5.18816V10.8016Z" fill="#292B2E"/>
<path d="M37.5406 18.102L37.3854 16.7958H37.3178C36.7076 17.6097 35.5323 18.3375 33.9749 18.3375C31.7624 18.3375 30.6328 16.8606 30.6328 15.3616C30.6328 12.8595 32.982 11.4871 37.2045 11.5084V11.2943C37.2045 10.4384 36.956 8.89671 34.7202 8.89671C33.704 8.89671 32.6427 9.19695 31.8749 9.66793L31.4231 8.42647C32.3268 7.86939 33.6364 7.50586 35.0137 7.50586C38.3566 7.50586 39.1694 9.66793 39.1694 11.7439V15.6162C39.1694 16.5155 39.2144 17.3934 39.3495 18.0998L37.5406 18.102ZM37.2472 12.8146C35.0796 12.7719 32.6179 13.1355 32.6179 15.1474C32.6179 16.3675 33.4757 16.946 34.4927 16.946C35.915 16.946 36.8217 16.0894 37.1323 15.2122C37.2023 15.019 37.2403 14.8167 37.2448 14.6124L37.2472 12.8146Z" fill="#292B2E"/>
<path d="M41.8062 7.74219L44.1996 13.8641C44.448 14.5492 44.719 15.3624 44.8983 15.9835H44.9434C45.1467 15.3624 45.3727 14.5706 45.642 13.8214L47.8135 7.74219H49.9134L46.9323 15.1269C45.5093 18.6806 44.5389 20.499 43.1834 21.6131C42.213 22.427 41.2426 22.7479 40.7449 22.8332L40.2481 21.2496C40.8845 21.0495 41.4747 20.736 41.9871 20.326C42.7083 19.7592 43.2803 19.0409 43.6577 18.228C43.7486 18.0352 43.813 17.8858 43.813 17.7784C43.813 17.6709 43.768 17.5215 43.6772 17.286L39.6387 7.74219H41.8062Z" fill="#292B2E"/>
</svg>
