<svg width="101" height="22" viewBox="0 0 101 22" fill="none" xmlns="http://www.w3.org/2000/svg">
<path d="M14.9495 11.6994C14.9604 10.8562 15.1844 10.0294 15.6007 9.29594C16.0169 8.56252 16.6119 7.94631 17.3304 7.50464C16.874 6.85284 16.2719 6.31644 15.5719 5.93803C14.872 5.55962 14.0934 5.34964 13.2981 5.32476C11.6016 5.14669 9.95692 6.33993 9.0924 6.33993C8.21116 6.33993 6.8801 5.34244 5.44678 5.37193C4.51966 5.40188 3.61612 5.67148 2.82417 6.15446C2.03223 6.63743 1.3789 7.31732 0.927841 8.12786C-1.02606 11.5107 0.431375 16.4824 2.30304 19.2169C3.23948 20.5558 4.33391 22.0515 5.76594 21.9985C7.16727 21.9404 7.69064 21.1049 9.38216 21.1049C11.058 21.1049 11.549 21.9985 13.0101 21.9648C14.5138 21.9404 15.4612 20.6198 16.3648 19.2682C17.0376 18.3141 17.5553 17.2596 17.8988 16.1438C17.0252 15.7743 16.2797 15.1559 15.7552 14.3655C15.2308 13.5752 14.9506 12.6479 14.9495 11.6994Z" fill="white"/>
<path d="M12.1901 3.52653C13.01 2.5423 13.4139 1.27724 13.3161 0C12.0635 0.13156 10.9065 0.730215 10.0755 1.67668C9.66924 2.13906 9.35808 2.67697 9.15981 3.25968C8.96155 3.84238 8.88007 4.45845 8.92004 5.07266C9.54656 5.07911 10.1664 4.94331 10.7328 4.6755C11.2992 4.40768 11.7975 4.01483 12.1901 3.52653Z" fill="white"/>
<path d="M32.663 14.688H27.881L26.7325 18.079H24.707L29.2366 5.5332H31.341L35.8705 18.079H33.8105L32.663 14.688ZM28.3762 13.1232H32.1668L30.2982 7.6199H30.2459L28.3762 13.1232Z" fill="white"/>
<path d="M45.6532 13.5063C45.6532 16.3487 44.1318 18.1749 41.836 18.1749C41.2544 18.2053 40.676 18.0714 40.1671 17.7883C39.6581 17.5053 39.2391 17.0847 38.9581 16.5746H38.9146V21.1051H37.0371V8.93235H38.8545V10.4537H38.889C39.183 9.94607 39.609 9.52762 40.1219 9.24287C40.6347 8.95813 41.2152 8.81774 41.8015 8.83665C44.1229 8.83666 45.6532 10.6717 45.6532 13.5063ZM43.7234 13.5063C43.7234 11.6544 42.7664 10.4369 41.3062 10.4369C39.8717 10.4369 38.9068 11.6801 38.9068 13.5063C38.9068 15.3493 39.8717 16.5835 41.3062 16.5835C42.7664 16.5835 43.7234 15.3749 43.7234 13.5063Z" fill="white"/>
<path d="M55.7216 13.5063C55.7216 16.3487 54.2002 18.1749 51.9044 18.1749C51.3228 18.2053 50.7444 18.0714 50.2354 17.7883C49.7264 17.5053 49.3075 17.0847 49.0264 16.5746H48.983V21.1051H47.1055V8.93234H48.9228V10.4537H48.9573C49.2513 9.94606 49.6773 9.52761 50.1902 9.24287C50.7031 8.95812 51.2835 8.81774 51.8698 8.83665C54.1913 8.83665 55.7216 10.6717 55.7216 13.5063ZM53.7917 13.5063C53.7917 11.6544 52.8347 10.4369 51.3746 10.4369C49.94 10.4369 48.9751 11.6801 48.9751 13.5063C48.9751 15.3493 49.94 16.5835 51.3746 16.5835C52.8347 16.5835 53.7917 15.3749 53.7917 13.5063Z" fill="white"/>
<path d="M62.3751 14.5836C62.5142 15.8277 63.7228 16.6446 65.3744 16.6446C66.9569 16.6446 68.0954 15.8277 68.0954 14.7059C68.0954 13.7321 67.4087 13.149 65.7828 12.7495L64.1569 12.3578C61.8532 11.8013 60.7837 10.7239 60.7837 8.97566C60.7837 6.81104 62.6701 5.32422 65.3487 5.32422C67.9997 5.32422 69.8171 6.81104 69.8782 8.97566H67.9829C67.8695 7.72365 66.8345 6.96792 65.322 6.96792C63.8096 6.96792 62.7746 7.73254 62.7746 8.84544C62.7746 9.7324 63.4357 10.2543 65.0527 10.6539L66.4349 10.9932C69.009 11.602 70.0785 12.636 70.0785 14.471C70.0785 16.8182 68.2089 18.2882 65.2352 18.2882C62.453 18.2882 60.5745 16.8527 60.4531 14.5835L62.3751 14.5836Z" fill="white"/>
<path d="M74.1284 6.76758V8.9322H75.8678V10.419H74.1284V15.4616C74.1284 16.2449 74.4767 16.61 75.2413 16.61C75.4478 16.6064 75.654 16.5919 75.859 16.5666V18.0445C75.5152 18.1087 75.1658 18.1378 74.8161 18.1313C72.9643 18.1313 72.2421 17.4358 72.2421 15.6618V10.419H70.9121V8.9322H72.242V6.76758H74.1284Z" fill="white"/>
<path d="M76.875 13.5067C76.875 10.6288 78.57 8.82031 81.2131 8.82031C83.8651 8.82031 85.5522 10.6287 85.5522 13.5067C85.5522 16.3925 83.874 18.1931 81.2131 18.1931C78.5532 18.1931 76.875 16.3925 76.875 13.5067ZM83.6392 13.5067C83.6392 11.5325 82.7345 10.3673 81.2131 10.3673C79.6918 10.3673 78.788 11.5414 78.788 13.5067C78.788 15.4888 79.6918 16.6451 81.2131 16.6451C82.7345 16.6451 83.6392 15.4888 83.6392 13.5067Z" fill="white"/>
<path d="M87.1016 8.93227H88.8923V10.4891H88.9357C89.0569 10.0029 89.3417 9.57318 89.7424 9.27223C90.1431 8.97128 90.6351 8.81743 91.1358 8.83655C91.3522 8.8358 91.568 8.85929 91.7791 8.90661V10.6628C91.506 10.5793 91.221 10.541 90.9355 10.5493C90.6628 10.5382 90.3909 10.5863 90.1384 10.6903C89.886 10.7942 89.6591 10.9516 89.4732 11.1515C89.2874 11.3514 89.147 11.5892 89.0617 11.8485C88.9764 12.1078 88.9482 12.3825 88.9791 12.6537V18.0791H87.1016L87.1016 8.93227Z" fill="white"/>
<path d="M100.435 15.3931C100.182 17.0536 98.565 18.1931 96.4961 18.1931C93.8352 18.1931 92.1836 16.4103 92.1836 13.5501C92.1836 10.6811 93.8441 8.82031 96.4171 8.82031C98.9478 8.82031 100.539 10.5587 100.539 13.3321V13.9753H94.0789V14.0888C94.0491 14.4254 94.0912 14.7646 94.2025 15.0836C94.3138 15.4027 94.4918 15.6945 94.7245 15.9395C94.9572 16.1846 95.2394 16.3773 95.5523 16.5049C95.8653 16.6325 96.2018 16.6921 96.5395 16.6796C96.9832 16.7212 97.4284 16.6184 97.809 16.3866C98.1896 16.1548 98.4852 15.8064 98.6518 15.3931L100.435 15.3931ZM94.0877 12.6632H98.6607C98.6775 12.3605 98.6317 12.0576 98.5259 11.7735C98.4201 11.4894 98.2568 11.2302 98.0461 11.0122C97.8355 10.7942 97.582 10.6221 97.3017 10.5067C97.0214 10.3914 96.7202 10.3352 96.4171 10.3417C96.1114 10.3398 95.8083 10.3986 95.5254 10.5145C95.2425 10.6304 94.9853 10.8012 94.7687 11.0171C94.5522 11.2329 94.3805 11.4895 94.2636 11.772C94.1467 12.0545 94.087 12.3574 94.0877 12.6632Z" fill="white"/>
</svg>
