<svg width="53" height="22" viewBox="0 0 53 22" fill="none" xmlns="http://www.w3.org/2000/svg">
<path fill-rule="evenodd" clip-rule="evenodd" d="M24.5351 16.8778V10.7655H27.694C28.9885 10.7655 30.0811 10.3323 30.9718 9.47803L31.1855 9.26145C32.8125 7.49272 32.7056 4.73734 30.9718 3.10097C30.1048 2.23465 28.9172 1.76539 27.694 1.78946H22.623V16.8778H24.5351ZM24.5354 8.91268V3.64258H27.7423C28.4312 3.64258 29.0845 3.90728 29.5715 4.38857C30.6049 5.39928 30.6286 7.08378 29.6309 8.13059C29.1439 8.64797 28.455 8.93674 27.7423 8.91268H24.5354ZM40.105 7.36083C39.2855 6.6028 38.1692 6.21777 36.756 6.21777C34.939 6.21777 33.5733 6.89158 32.6707 8.22715L34.3571 9.29802C34.9746 8.38357 35.8178 7.92635 36.8866 7.92635C37.5636 7.92635 38.2167 8.17902 38.7274 8.63624C39.2262 9.0694 39.5112 9.69508 39.5112 10.3568V10.802C38.7749 10.3929 37.8486 10.1764 36.7085 10.1764C35.3784 10.1764 34.3096 10.4892 33.5139 11.1269C32.7182 11.7646 32.3144 12.6069 32.3144 13.6777C32.2907 14.6523 32.7063 15.5788 33.4426 16.2045C34.1908 16.8783 35.1409 17.2152 36.2572 17.2152C37.5754 17.2152 38.6205 16.6256 39.4162 15.4465H39.4993V16.8783H41.3282V10.5133C41.3282 9.17769 40.9244 8.11886 40.105 7.36083ZM34.9156 14.9771C34.5236 14.6883 34.2861 14.219 34.2861 13.7137C34.2861 13.1482 34.5474 12.6789 35.0581 12.3059C35.5808 11.9329 36.234 11.7404 37.0061 11.7404C38.0751 11.7284 38.9065 11.969 39.5004 12.4503C39.5004 13.2685 39.1797 13.9784 38.5502 14.58C37.98 15.1575 37.208 15.4824 36.4003 15.4824C35.8658 15.4944 35.3432 15.314 34.9156 14.9771ZM45.4368 21.4144L51.826 6.55469H49.7477L46.7907 13.9665H46.755L43.7267 6.55469H41.6484L45.8406 16.2165L43.4654 21.4144H45.4368Z" fill="#3C4043"/>
<path d="M17.9337 9.44225C17.9337 8.85267 17.8862 8.26309 17.7912 7.68555H9.72754V11.0185H14.3472C14.1572 12.0893 13.5397 13.0519 12.6371 13.6535V15.8193H15.3923C17.0074 14.3153 17.9337 12.0893 17.9337 9.44225Z" fill="#4285F4"/>
<path d="M9.72795 17.9129C12.0319 17.9129 13.9795 17.1428 15.3927 15.8193L12.6375 13.6535C11.8656 14.1829 10.8799 14.4837 9.72795 14.4837C7.4953 14.4837 5.60704 12.9556 4.93012 10.9102H2.0918V13.1481C3.54065 16.072 6.49773 17.9129 9.72795 17.9129Z" fill="#34A853"/>
<path d="M4.93016 10.9101C4.57382 9.83926 4.57382 8.67214 4.93016 7.58924V5.36328H2.09138C0.867977 7.80582 0.867977 10.6935 2.09138 13.1361L4.93016 10.9101Z" fill="#FBBC04"/>
<path d="M9.72795 4.01564C10.9512 3.99157 12.1269 4.46083 13.0057 5.31511L15.4521 2.83648C13.8964 1.36855 11.8537 0.562397 9.72795 0.586461C6.49773 0.586461 3.54065 2.43942 2.0918 5.36324L4.93012 7.60123C5.60704 5.54373 7.4953 4.01564 9.72795 4.01564Z" fill="#EA4335"/>
</svg>
