<svg width="107" height="22" viewBox="0 0 107 22" fill="none" xmlns="http://www.w3.org/2000/svg">
<path d="M88.4878 16.1701H90.241V4.42384H88.4878V16.1701ZM104.279 8.65534L102.27 13.7478H102.209L100.124 8.65534H98.235L101.364 15.7727L99.5795 19.7321H101.408L106.229 8.65534H104.279ZM94.3357 14.836C93.7626 14.836 92.9611 14.5486 92.9611 13.8384C92.9611 12.9318 93.9589 12.5843 94.8196 12.5843C95.5901 12.5843 95.9537 12.7502 96.4216 12.977C96.2853 14.0653 95.3486 14.836 94.3357 14.836ZM94.5481 8.39837C93.2787 8.39837 91.9642 8.9577 91.4202 10.1968L92.9761 10.8464C93.3088 10.1968 93.9279 9.98541 94.5781 9.98541C95.4848 9.98541 96.4066 10.529 96.4216 11.4964V11.6172C96.104 11.4358 95.4237 11.1639 94.5932 11.1639C92.9151 11.1639 91.2079 12.0855 91.2079 13.8083C91.2079 15.3799 92.5834 16.3925 94.1243 16.3925C95.3025 16.3925 95.9537 15.8636 96.3605 15.2438H96.4216V16.151H98.1147V11.6472C98.1147 9.56185 96.5569 8.39837 94.5481 8.39837ZM83.7128 10.0852H81.2192V6.059H83.7128C85.0235 6.059 85.7677 7.14393 85.7677 8.07205C85.7677 8.98231 85.0235 10.0852 83.7128 10.0852ZM83.6677 4.42384H79.4667V16.1701H81.2192V11.72H83.6677C85.6108 11.72 87.5209 10.3135 87.5209 8.07205C87.5209 5.83105 85.6108 4.42384 83.6677 4.42384ZM60.7594 14.8382C59.5482 14.8382 58.5345 13.8237 58.5345 12.4316C58.5345 11.0234 59.5482 9.99452 60.7594 9.99452C61.9552 9.99452 62.8937 11.0234 62.8937 12.4316C62.8937 13.8237 61.9552 14.8382 60.7594 14.8382ZM62.7726 9.31305H62.712C62.3186 8.84391 61.5614 8.42007 60.6082 8.42007C58.6098 8.42007 56.7783 10.1762 56.7783 12.4316C56.7783 14.6716 58.6098 16.4123 60.6082 16.4123C61.5614 16.4123 62.3186 15.9884 62.712 15.5043H62.7726V16.0791C62.7726 17.6085 61.9552 18.4255 60.6383 18.4255C59.564 18.4255 58.8979 17.6536 58.6252 17.0029L57.0966 17.6386C57.5352 18.6978 58.7004 20 60.6383 20C62.6973 20 64.4381 18.7888 64.4381 15.8368V8.66229H62.7726V9.31305ZM65.6493 16.1701H67.4044V4.42384H65.6493V16.1701ZM69.9931 12.2951C69.9479 10.751 71.1895 9.96408 72.0821 9.96408C72.7787 9.96408 73.3685 10.3124 73.566 10.8116L69.9931 12.2951ZM75.4422 10.9628C75.1094 10.0702 74.0953 8.42007 72.0215 8.42007C69.9625 8.42007 68.2522 10.0397 68.2522 12.4162C68.2522 14.6565 69.9479 16.4123 72.2179 16.4123C74.0493 16.4123 75.1094 15.2925 75.5486 14.6414L74.1862 13.733C73.7319 14.3992 73.1116 14.8382 72.2179 14.8382C71.3253 14.8382 70.6893 14.4293 70.2811 13.627L75.6239 11.4171L75.4422 10.9628ZM32.8719 9.64622V11.3415H36.9285C36.8074 12.2951 36.4896 12.9913 36.0051 13.4758C35.4146 14.0659 34.4912 14.717 32.8719 14.717C30.3742 14.717 28.4217 12.7039 28.4217 10.2063C28.4217 7.70871 30.3742 5.69529 32.8719 5.69529C34.2192 5.69529 35.2028 6.22521 35.9295 6.90641L37.1257 5.71032C36.1112 4.7417 34.7642 4 32.8719 4C29.4504 4 26.5745 6.78529 26.5745 10.2063C26.5745 13.627 29.4504 16.4123 32.8719 16.4123C34.7184 16.4123 36.1112 15.8068 37.2009 14.6716C38.3211 13.5514 38.6694 11.9772 38.6694 10.7055C38.6694 10.3124 38.6389 9.94905 38.5784 9.64622H32.8719ZM43.2814 14.8382C42.0702 14.8382 41.0257 13.8391 41.0257 12.4162C41.0257 10.9782 42.0702 9.99452 43.2814 9.99452C44.4922 9.99452 45.5367 10.9782 45.5367 12.4162C45.5367 13.8391 44.4922 14.8382 43.2814 14.8382ZM43.2814 8.42007C41.0708 8.42007 39.2698 10.1002 39.2698 12.4162C39.2698 14.717 41.0708 16.4123 43.2814 16.4123C45.4912 16.4123 47.2926 14.717 47.2926 12.4162C47.2926 10.1002 45.4912 8.42007 43.2814 8.42007ZM52.0316 14.8382C50.8212 14.8382 49.7763 13.8391 49.7763 12.4162C49.7763 10.9782 50.8212 9.99452 52.0316 9.99452C53.2428 9.99452 54.2869 10.9782 54.2869 12.4162C54.2869 13.8391 53.2428 14.8382 52.0316 14.8382ZM52.0316 8.42007C49.8218 8.42007 48.0208 10.1002 48.0208 12.4162C48.0208 14.717 49.8218 16.4123 52.0316 16.4123C54.2422 16.4123 56.0432 14.717 56.0432 12.4162C56.0432 10.1002 54.2422 8.42007 52.0316 8.42007Z" fill="white"/>
<path d="M9.19013 10.5067L0.0837402 20.172C0.0840824 20.174 0.0847665 20.1757 0.0851087 20.1777C0.364378 21.2272 1.32296 22 2.46065 22C2.91543 22 3.34242 21.877 3.70859 21.6612L3.73767 21.6442L13.9881 15.7293L9.19013 10.5067Z" fill="#EB3131"/>
<path d="M18.4022 8.86107L18.3935 8.85508L13.9681 6.28966L8.98242 10.7261L13.9855 15.7285L18.3875 13.1886C19.1593 12.7719 19.6832 11.9583 19.6832 11.0201C19.6832 10.0887 19.1663 9.27907 18.4022 8.86107Z" fill="#F6B60B"/>
<path d="M0.0835157 1.82744C0.0287739 2.0293 0 2.24074 0 2.46031V19.5394C0 19.7586 0.0284315 19.9707 0.0838576 20.1719L9.50364 10.7538L0.0835157 1.82744Z" fill="#5778C5"/>
<path d="M9.25786 11L13.9713 6.28793L3.73253 0.351688C3.36037 0.128786 2.92603 0.000144135 2.46123 0.000144135C1.32354 0.000144135 0.363681 0.774313 0.0843263 1.8251C0.0839842 1.82613 0.0839844 1.82681 0.0839844 1.82775L9.25786 11Z" fill="#3BAD49"/>
</svg>
