<svg width="48" height="30" viewBox="0 0 48 30" fill="none" xmlns="http://www.w3.org/2000/svg">
<path d="M30.3547 3.58228H17.6462V26.4169H30.3547V3.58228Z" fill="#FF5F00"/>
<path d="M18.4525 15.0001C18.4525 10.3606 20.6313 6.24564 23.98 3.58234C21.5194 1.64619 18.4125 0.476318 15.0238 0.476318C6.99561 0.476318 0.5 6.97191 0.5 15.0001C0.5 23.0282 6.99561 29.5238 15.0238 29.5238C18.4125 29.5238 21.5194 28.354 23.98 26.4169C20.6313 23.7945 18.4525 19.6395 18.4525 15.0001Z" fill="#EB001B"/>
<path d="M47.5 15.0001C47.5 23.0282 41.0053 29.5238 32.9763 29.5238C29.5876 29.5238 26.4815 28.354 24.02 26.4169C27.4096 23.7545 29.5475 19.6395 29.5475 15.0001C29.5475 10.3606 27.3687 6.24564 24.02 3.58234C26.4815 1.64619 29.5876 0.476318 32.9763 0.476318C41.0053 0.476318 47.5 7.01192 47.5 15.0001Z" fill="#F79E1B"/>
</svg>
