<svg width="151" height="40" viewBox="0 0 151 40" fill="none" xmlns="http://www.w3.org/2000/svg">
<mask id="mask0_3193_13499" style="mask-type:alpha" maskUnits="userSpaceOnUse" x="0" y="0" width="41" height="40">
<rect x="0.5" width="40" height="40" fill="#D9D9D9"/>
</mask>
<g mask="url(#mask0_3193_13499)">
<path d="M18.7563 22.5128L15.4882 19.2414C15.3315 19.0847 15.1614 19.0064 14.978 19.0064C14.7946 19.0064 14.6246 19.0847 14.4679 19.2414C14.3112 19.3981 14.2376 19.5735 14.2473 19.7676C14.2569 19.9616 14.3293 20.1264 14.4647 20.2617L17.8824 23.6581C18.1246 23.9145 18.407 24.0427 18.7296 24.0427C19.0523 24.0427 19.3418 23.9145 19.5982 23.6581L26.5106 16.7456C26.6488 16.6075 26.7179 16.4431 26.7179 16.2526C26.7179 16.0621 26.6488 15.8906 26.5106 15.7382C26.3724 15.6 26.2074 15.5362 26.0154 15.5469C25.8235 15.5576 25.662 15.6214 25.5309 15.7382L18.7563 22.5128ZM20.4999 34.8109C20.3796 34.8109 20.2692 34.8062 20.1687 34.7969C20.0683 34.7877 19.9825 34.7645 19.9113 34.7275C16.7154 33.6143 14.0701 31.5489 11.9753 28.5315C9.88061 25.514 8.83325 22.141 8.83325 18.4123V11.1869C8.83325 10.6748 8.98264 10.2058 9.28142 9.77985C9.58022 9.35391 9.95789 9.0487 10.4144 8.86423L19.6452 5.44331C19.9429 5.33006 20.2278 5.27344 20.4999 5.27344C20.772 5.27344 21.0569 5.33006 21.3546 5.44331L30.5854 8.86423C31.0419 9.0487 31.4196 9.35391 31.7184 9.77985C32.0172 10.2058 32.1666 10.6748 32.1666 11.1869V18.4123C32.1666 22.141 31.1192 25.514 29.0245 28.5315C26.9298 31.5489 24.2916 33.6143 21.11 34.7275C21.028 34.7603 20.8247 34.788 20.4999 34.8109Z" fill="#1C1B1F"/>
</g>
<path d="M50.6305 12.1H55.8225C57.3772 12.1 58.6312 12.5107 59.5845 13.332C60.5525 14.1387 61.0365 15.3193 61.0365 16.874C61.0365 17.886 60.8092 18.7513 60.3545 19.47C59.9145 20.1887 59.3059 20.7313 58.5285 21.098C57.7512 21.4647 56.8785 21.648 55.9105 21.648H52.8305V27.5H50.6305V12.1ZM55.6685 19.668C56.6805 19.668 57.4579 19.426 58.0005 18.942C58.5579 18.458 58.8365 17.7613 58.8365 16.852C58.8365 15.9573 58.5579 15.2753 58.0005 14.806C57.4432 14.322 56.6659 14.08 55.6685 14.08H52.8305V19.668H55.6685ZM65.976 27.808C65.228 27.808 64.568 27.6687 63.996 27.39C63.424 27.0967 62.984 26.7007 62.676 26.202C62.368 25.6887 62.214 25.1167 62.214 24.486C62.214 23.5473 62.5367 22.7773 63.182 22.176C63.842 21.56 64.9347 21.142 66.46 20.922L69.078 20.548V20.306C69.078 18.8247 68.3007 18.084 66.746 18.084C65.998 18.084 65.426 18.26 65.03 18.612C64.6487 18.9493 64.4067 19.4333 64.304 20.064L62.39 19.602C62.918 17.4167 64.3847 16.324 66.79 16.324C68.1247 16.324 69.1954 16.6613 70.002 17.336C70.8234 18.0107 71.234 18.9933 71.234 20.284V27.5H69.408L69.188 26.444C68.528 27.3533 67.4574 27.808 65.976 27.808ZM66.504 26.026C67.2227 26.026 67.8314 25.8207 68.33 25.41C68.8287 24.9993 69.078 24.4053 69.078 23.628V22.198L66.636 22.572C65.8587 22.6893 65.272 22.8873 64.876 23.166C64.4947 23.43 64.304 23.8333 64.304 24.376C64.304 24.8747 64.502 25.278 64.898 25.586C65.294 25.8793 65.8294 26.026 66.504 26.026ZM83.5284 16.61V27.302C83.5284 28.2407 83.3451 29.084 82.9784 29.832C82.6118 30.5947 82.0544 31.196 81.3064 31.636C80.5731 32.076 79.6564 32.296 78.5564 32.296C77.2804 32.296 76.2538 31.9807 75.4764 31.35C74.6991 30.734 74.1638 29.8907 73.8704 28.82L75.8944 28.38C76.2171 29.744 77.1044 30.426 78.5564 30.426C79.4804 30.426 80.1771 30.1547 80.6464 29.612C81.1304 29.0693 81.3724 28.314 81.3724 27.346V25.85C80.9324 26.3927 80.4411 26.8033 79.8984 27.082C79.3558 27.346 78.6738 27.478 77.8524 27.478C76.6938 27.478 75.7478 27.126 75.0144 26.422C74.2811 25.7033 73.9144 24.6253 73.9144 23.188V16.61H76.0704V22.704C76.0704 23.7013 76.2831 24.4127 76.7084 24.838C77.1338 25.2633 77.7351 25.476 78.5124 25.476C79.3484 25.476 80.0304 25.2047 80.5584 24.662C81.1011 24.1047 81.3724 23.3347 81.3724 22.352V16.61H83.5284ZM96.5438 27.808C95.3705 27.808 94.4025 27.5293 93.6398 26.972C92.8772 26.4 92.3492 25.5787 92.0558 24.508L93.9918 23.914C94.1678 24.53 94.4392 25.0287 94.8058 25.41C95.1872 25.7913 95.7665 25.982 96.5438 25.982C97.2185 25.982 97.7612 25.85 98.1718 25.586C98.5972 25.3073 98.8098 24.9333 98.8098 24.464C98.8098 24.112 98.6558 23.8113 98.3478 23.562C98.0398 23.298 97.4312 23.0853 96.5218 22.924C95.2312 22.6893 94.2265 22.3373 93.5078 21.868C92.7892 21.384 92.4298 20.636 92.4298 19.624C92.4298 18.6413 92.8112 17.8493 93.5738 17.248C94.3512 16.632 95.3412 16.324 96.5438 16.324C97.6438 16.324 98.5458 16.6027 99.2498 17.16C99.9685 17.7027 100.438 18.4727 100.658 19.47L98.7438 20.02C98.6118 19.4627 98.3698 19.0153 98.0178 18.678C97.6805 18.326 97.1892 18.15 96.5438 18.15C95.8398 18.15 95.3192 18.2893 94.9818 18.568C94.6445 18.832 94.4758 19.1547 94.4758 19.536C94.4758 19.9613 94.6738 20.284 95.0698 20.504C95.4658 20.7093 96.0745 20.8853 96.8958 21.032C98.1865 21.2813 99.1692 21.6627 99.8438 22.176C100.519 22.6747 100.856 23.43 100.856 24.442C100.856 25.0873 100.673 25.6667 100.306 26.18C99.9392 26.6933 99.4258 27.0967 98.7658 27.39C98.1058 27.6687 97.3652 27.808 96.5438 27.808ZM106.474 27.808C105.726 27.808 105.066 27.6687 104.494 27.39C103.922 27.0967 103.482 26.7007 103.174 26.202C102.866 25.6887 102.712 25.1167 102.712 24.486C102.712 23.5473 103.035 22.7773 103.68 22.176C104.34 21.56 105.433 21.142 106.958 20.922L109.576 20.548V20.306C109.576 18.8247 108.799 18.084 107.244 18.084C106.496 18.084 105.924 18.26 105.528 18.612C105.147 18.9493 104.905 19.4333 104.802 20.064L102.888 19.602C103.416 17.4167 104.883 16.324 107.288 16.324C108.623 16.324 109.693 16.6613 110.5 17.336C111.321 18.0107 111.732 18.9933 111.732 20.284V27.5H109.906L109.686 26.444C109.026 27.3533 107.955 27.808 106.474 27.808ZM107.002 26.026C107.721 26.026 108.329 25.8207 108.828 25.41C109.327 24.9993 109.576 24.4053 109.576 23.628V22.198L107.134 22.572C106.357 22.6893 105.77 22.8873 105.374 23.166C104.993 23.43 104.802 23.8333 104.802 24.376C104.802 24.8747 105 25.278 105.396 25.586C105.792 25.8793 106.327 26.026 107.002 26.026ZM115.292 18.546H113.378V16.61H115.292V14.806C115.292 13.882 115.564 13.1487 116.106 12.606C116.649 12.0487 117.346 11.77 118.196 11.77C118.9 11.77 119.45 11.8727 119.846 12.078C120.257 12.2687 120.55 12.4667 120.726 12.672L119.67 14.146C119.597 14.058 119.465 13.97 119.274 13.882C119.098 13.7793 118.878 13.728 118.614 13.728C117.837 13.728 117.448 14.168 117.448 15.048V16.61H120.418V18.546H117.448V27.5H115.292V18.546ZM123.128 22.726C123.172 23.3127 123.334 23.8553 123.612 24.354C123.906 24.8527 124.302 25.256 124.8 25.564C125.299 25.8573 125.864 26.004 126.494 26.004C127.257 26.004 127.895 25.8207 128.408 25.454C128.936 25.0727 129.288 24.6253 129.464 24.112L131.312 24.706C130.99 25.6153 130.418 26.3633 129.596 26.95C128.775 27.522 127.741 27.808 126.494 27.808C125.438 27.808 124.492 27.5587 123.656 27.06C122.835 26.5467 122.19 25.85 121.72 24.97C121.266 24.09 121.038 23.1147 121.038 22.044C121.038 20.988 121.273 20.0273 121.742 19.162C122.226 18.282 122.879 17.5927 123.7 17.094C124.536 16.5807 125.46 16.324 126.472 16.324C127.499 16.324 128.394 16.5587 129.156 17.028C129.934 17.4827 130.535 18.128 130.96 18.964C131.386 19.8 131.598 20.768 131.598 21.868V22.726H123.128ZM129.662 21.032C129.604 20.2547 129.288 19.58 128.716 19.008C128.159 18.4213 127.418 18.128 126.494 18.128C125.57 18.128 124.815 18.4067 124.228 18.964C123.642 19.5213 123.282 20.2107 123.15 21.032H129.662ZM133.962 12.1H136.118V27.5H133.962V12.1ZM148.626 16.61V27.302C148.626 28.2407 148.443 29.084 148.076 29.832C147.709 30.5947 147.152 31.196 146.404 31.636C145.671 32.076 144.754 32.296 143.654 32.296C142.378 32.296 141.351 31.9807 140.574 31.35C139.797 30.734 139.261 29.8907 138.968 28.82L140.992 28.38C141.315 29.744 142.202 30.426 143.654 30.426C144.578 30.426 145.275 30.1547 145.744 29.612C146.228 29.0693 146.47 28.314 146.47 27.346V25.85C146.03 26.3927 145.539 26.8033 144.996 27.082C144.453 27.346 143.771 27.478 142.95 27.478C141.791 27.478 140.845 27.126 140.112 26.422C139.379 25.7033 139.012 24.6253 139.012 23.188V16.61H141.168V22.704C141.168 23.7013 141.381 24.4127 141.806 24.838C142.231 25.2633 142.833 25.476 143.61 25.476C144.446 25.476 145.128 25.2047 145.656 24.662C146.199 24.1047 146.47 23.3347 146.47 22.352V16.61H148.626Z" fill="#292B2E"/>
</svg>
