<svg width="89" height="22" viewBox="0 0 89 22" fill="none" xmlns="http://www.w3.org/2000/svg">
<g clip-path="url(#clip0_3193_13526)">
<path d="M16.5026 1.87678C15.474 0.804133 13.617 0.344727 11.2423 0.344727H4.35058C4.11551 0.345022 3.88824 0.42195 3.70947 0.561733C3.53069 0.701517 3.4121 0.895021 3.37492 1.10759L0.498571 17.7768C0.484156 17.8546 0.488474 17.9344 0.511224 18.0105C0.533973 18.0866 0.574606 18.1572 0.630277 18.2174C0.685948 18.2776 0.755314 18.326 0.833522 18.3591C0.91173 18.3922 0.996891 18.4092 1.08305 18.409H5.34005L6.41465 12.186L6.38244 12.3799C6.41865 12.1679 6.53642 11.9747 6.71448 11.8352C6.89254 11.6957 7.11917 11.6191 7.35349 11.6191H9.37384C13.3478 11.6191 16.4566 10.144 17.3655 5.86602C17.3931 5.73958 17.4161 5.61735 17.4368 5.49723C17.7061 3.91671 17.4368 2.84195 16.5026 1.86835" fill="#8A9099"/>
<path d="M68.5958 9.80902C68.3358 11.3727 67.0311 11.3727 65.7701 11.3727H65.0521L65.5561 8.45187C65.5704 8.36644 65.6178 8.28858 65.6896 8.23249C65.7615 8.17639 65.8529 8.14581 65.9473 8.14631H66.2763C67.1346 8.14631 67.9469 8.1463 68.3657 8.59307C68.6142 8.8607 68.6902 9.25899 68.5958 9.80902ZM68.0459 5.72705H63.2895C63.1318 5.72685 62.9791 5.77838 62.8593 5.87231C62.7394 5.96624 62.6602 6.09637 62.636 6.23914L60.7123 17.4082C60.703 17.4601 60.7061 17.5133 60.7214 17.564C60.7368 17.6148 60.764 17.6618 60.8012 17.7019C60.8385 17.742 60.8848 17.7742 60.937 17.7963C60.9892 17.8184 61.046 17.8297 61.1035 17.8296H63.5495C63.6602 17.8309 63.7676 17.7955 63.8521 17.7301C63.9367 17.6647 63.9926 17.5736 64.0098 17.4735L64.5574 14.3125C64.5816 14.1702 64.6605 14.0406 64.78 13.9471C64.8994 13.8536 65.0515 13.8023 65.2086 13.8025H66.7158C69.8499 13.8025 71.6586 12.4116 72.1303 9.65939C72.3443 8.45609 72.1303 7.50988 71.5251 6.84606C70.8463 6.11902 69.6474 5.73337 68.0551 5.73337" fill="#179BD7"/>
<path d="M34.6573 9.80868C34.3973 11.3723 33.0926 11.3723 31.8316 11.3723H31.1045L31.6084 8.45154C31.6228 8.36611 31.6702 8.28824 31.742 8.23215C31.8138 8.17606 31.9052 8.14547 31.9996 8.14597H32.3286C33.187 8.14597 33.9992 8.14597 34.418 8.59273C34.6688 8.86037 34.7425 9.25866 34.6481 9.80868H34.6573ZM34.1005 5.72672H29.351C29.1933 5.72652 29.0407 5.77805 28.9208 5.87198C28.8009 5.96591 28.7217 6.09604 28.6975 6.23881L26.7738 17.4078C26.7645 17.4598 26.7676 17.513 26.7829 17.5637C26.7983 17.6144 26.8255 17.6615 26.8628 17.7016C26.9 17.7417 26.9463 17.7739 26.9985 17.796C27.0507 17.818 27.1075 17.8294 27.165 17.8293H29.4362C29.5936 17.8296 29.746 17.7783 29.8658 17.6848C29.9856 17.5913 30.065 17.4617 30.0897 17.3193L30.6097 14.3037C30.634 14.1611 30.7133 14.0312 30.8332 13.9377C30.9531 13.8441 31.1057 13.793 31.2632 13.7937H32.7682C35.9022 13.7937 37.7109 12.4028 38.1826 9.65063C38.3966 8.44732 38.1826 7.50112 37.5774 6.8373C36.9009 6.11026 35.702 5.72461 34.1097 5.72461" fill="#253B80"/>
<path d="M45.1543 13.8194C45.0675 14.3826 44.7577 14.8969 44.2837 15.2645C43.8098 15.6321 43.2048 15.8273 42.5839 15.8129C42.2991 15.8396 42.0114 15.8026 41.7457 15.7049C41.4799 15.6072 41.2441 15.4518 41.0584 15.2522C40.8728 15.0525 40.7429 14.8145 40.6799 14.5587C40.617 14.3028 40.6229 14.0368 40.6971 13.7835C40.7832 13.2219 41.0897 12.7082 41.5594 12.3386C42.0291 11.969 42.6297 11.7687 43.249 11.7752C43.5323 11.7615 43.8154 11.8054 44.078 11.9038C44.3406 12.0022 44.5761 12.1526 44.7677 12.3442C44.9462 12.5491 45.0733 12.7875 45.1401 13.0424C45.2069 13.2973 45.2118 13.5626 45.1543 13.8194ZM48.3298 9.75848H46.0609C45.9665 9.75798 45.8751 9.78857 45.8033 9.84466C45.7315 9.90076 45.684 9.97862 45.6697 10.0641L45.5685 10.6478L45.4097 10.4371C44.9172 9.78166 43.8173 9.5625 42.7174 9.5625C40.2 9.5625 38.0508 11.3095 37.632 13.7583C37.4157 14.9826 37.7241 16.1501 38.4811 16.9657C39.1714 17.7138 40.1678 18.0193 41.3506 18.0193C41.9369 18.0244 42.5183 17.9215 43.0603 17.7165C43.6023 17.5116 44.0937 17.209 44.5054 16.8266L44.4018 17.4061C44.3928 17.4582 44.3963 17.5114 44.4119 17.5621C44.4276 17.6128 44.455 17.6599 44.4924 17.6999C44.5298 17.74 44.5763 17.7721 44.6286 17.7942C44.6809 17.8162 44.7377 17.8276 44.7953 17.8276H46.8456C47.003 17.8279 47.1553 17.7766 47.2751 17.6831C47.395 17.5896 47.4744 17.46 47.4991 17.3176L48.7324 10.1736C48.7414 10.1216 48.738 10.0683 48.7223 10.0176C48.7067 9.96689 48.6792 9.91988 48.6418 9.87982C48.6044 9.83975 48.558 9.8076 48.5057 9.78556C48.4534 9.76352 48.3965 9.75212 48.339 9.75216" fill="#253B80"/>
<path d="M79.094 13.8194C79.0072 14.383 78.6971 14.8976 78.2226 15.2652C77.7482 15.6329 77.1427 15.8278 76.5214 15.8129C76.2367 15.8391 75.9493 15.8017 75.6838 15.7039C75.4183 15.606 75.1827 15.4507 74.9972 15.2511C74.8117 15.0516 74.6818 14.8138 74.6186 14.5582C74.5555 14.3026 74.5609 14.0368 74.6345 13.7835C74.7212 13.2217 75.0282 12.708 75.4983 12.3384C75.9683 11.9688 76.5692 11.7686 77.1887 11.7752C77.472 11.7618 77.755 11.8058 78.0176 11.9042C78.2801 12.0026 78.5157 12.1528 78.7074 12.3442C78.886 12.5492 79.0131 12.7875 79.0799 13.0424C79.1467 13.2973 79.1515 13.5626 79.094 13.8194ZM82.2695 9.75848H79.9915C79.8971 9.75798 79.8056 9.78857 79.7338 9.84466C79.662 9.90076 79.6146 9.97862 79.6003 10.0641L79.499 10.6478L79.3402 10.4371C78.8455 9.78166 77.7456 9.5625 76.648 9.5625C74.1306 9.5625 71.9814 11.3095 71.5626 13.7583C71.344 14.9826 71.6547 16.1501 72.4117 16.9657C73.102 17.7138 74.0984 18.0193 75.2811 18.0193C75.8672 18.025 76.4485 17.9223 76.9902 17.7173C77.5318 17.5124 78.0228 17.2094 78.4336 16.8266L78.3324 17.4061C78.3234 17.4582 78.3268 17.5114 78.3425 17.5621C78.3581 17.6128 78.3856 17.6599 78.423 17.6999C78.4604 17.74 78.5069 17.7721 78.5591 17.7942C78.6114 17.8162 78.6683 17.8276 78.7259 17.8276H80.7761C80.9335 17.8279 81.0859 17.7766 81.2057 17.6831C81.3255 17.5896 81.4049 17.46 81.4296 17.3176L82.6607 10.1736C82.6701 10.1217 82.6669 10.0685 82.6516 10.0178C82.6362 9.96705 82.609 9.91999 82.5718 9.87988C82.5345 9.83977 82.4882 9.80756 82.436 9.78551C82.3838 9.76345 82.327 9.75207 82.2695 9.75216" fill="#179BD7"/>
<path d="M60.4663 9.7583H58.1653C58.0573 9.75834 57.9509 9.78256 57.8554 9.82883C57.76 9.87511 57.6783 9.94205 57.6176 10.0238L54.4697 14.2933L53.1305 10.1987C53.0902 10.0738 53.0067 9.96411 52.8926 9.88622C52.7786 9.80833 52.64 9.76641 52.4977 9.76673H50.2472C50.1841 9.76661 50.1219 9.78031 50.0657 9.80669C50.0096 9.83307 49.9611 9.87137 49.9244 9.91839C49.8877 9.96542 49.8638 10.0198 49.8547 10.077C49.8456 10.1342 49.8516 10.1926 49.8721 10.2472L52.3918 17.0266L50.0217 20.0907C49.9794 20.1449 49.9543 20.2087 49.949 20.2752C49.9437 20.3416 49.9585 20.4081 49.9918 20.4673C50.0251 20.5265 50.0756 20.5762 50.1377 20.6109C50.1998 20.6456 50.2711 20.6639 50.3439 20.6639H52.6334C52.7401 20.6639 52.8451 20.6403 52.9396 20.5952C53.0342 20.5501 53.1154 20.4847 53.1765 20.4047L60.7885 10.3294C60.8295 10.2747 60.8535 10.2109 60.8578 10.1447C60.8621 10.0785 60.8467 10.0124 60.813 9.95366C60.7794 9.89491 60.729 9.84567 60.667 9.81125C60.6051 9.77682 60.5342 9.75852 60.4617 9.7583" fill="#253B80"/>
<path d="M84.9498 6.0346L82.9984 17.4144C82.9891 17.4663 82.9922 17.5195 83.0076 17.5702C83.0229 17.621 83.0502 17.668 83.0874 17.7081C83.1246 17.7482 83.1709 17.7804 83.2231 17.8025C83.2753 17.8245 83.3321 17.8359 83.3896 17.8358H85.3524C85.5099 17.8361 85.6622 17.7849 85.782 17.6914C85.9019 17.5979 85.9813 17.4682 86.006 17.3259L87.932 6.15682C87.9409 6.10476 87.9375 6.05153 87.9218 6.00081C87.9062 5.95008 87.8787 5.90307 87.8413 5.86301C87.8039 5.82294 87.7575 5.79078 87.7052 5.76875C87.6529 5.74671 87.596 5.73532 87.5385 5.73535H85.3409C85.2464 5.73536 85.1549 5.7664 85.0831 5.82284C85.0114 5.87928 84.9641 5.9574 84.9498 6.04303" fill="#179BD7"/>
<path d="M16.5026 1.87678C15.474 0.804133 13.617 0.344727 11.2423 0.344727H4.35058C4.11551 0.345022 3.88824 0.42195 3.70947 0.561733C3.53069 0.701517 3.4121 0.895021 3.37492 1.10759L0.498571 17.7768C0.484156 17.8546 0.488474 17.9344 0.511224 18.0105C0.533973 18.0866 0.574606 18.1572 0.630277 18.2174C0.685948 18.2776 0.755314 18.326 0.833522 18.3591C0.91173 18.3922 0.996891 18.4092 1.08305 18.409H5.34005L6.41465 12.186L6.38244 12.3799C6.41865 12.1679 6.53642 11.9747 6.71448 11.8352C6.89254 11.6957 7.11917 11.6191 7.35349 11.6191H9.37384C13.3478 11.6191 16.4566 10.144 17.3655 5.86602C17.3931 5.73958 17.4161 5.61735 17.4368 5.49723C17.7061 3.91671 17.4368 2.84195 16.5026 1.86835" fill="#8A9099"/>
<path d="M7.56289 5.52673C7.58455 5.39996 7.63968 5.27994 7.72349 5.17711C7.8073 5.07428 7.91726 4.99174 8.04382 4.93667C8.15921 4.88517 8.28593 4.85849 8.41429 4.8587H13.8195C14.4157 4.85498 15.0112 4.89444 15.6006 4.97671C15.757 4.99989 15.9089 5.02729 16.0608 5.05679C16.2127 5.08629 16.3507 5.12001 16.4888 5.15794L16.6936 5.21484C16.9512 5.29266 17.2014 5.38994 17.4414 5.50566C17.7107 3.92514 17.4414 2.85038 16.5072 1.87678C15.4786 0.804133 13.6239 0.344727 11.2469 0.344727H4.35058C4.11551 0.345022 3.88824 0.42195 3.70947 0.561733C3.53069 0.701516 3.4121 0.895021 3.37492 1.10759L0.498571 17.7747C0.484156 17.8525 0.488474 17.9323 0.511224 18.0084C0.533973 18.0845 0.574606 18.1551 0.630277 18.2153C0.685948 18.2755 0.755314 18.3239 0.833522 18.357C0.91173 18.3901 0.996891 18.4071 1.08305 18.4069H5.34005L6.41465 12.186L7.56289 5.52673Z" fill="#253B80"/>
<path d="M17.438 5.50586C17.4173 5.62598 17.3943 5.74821 17.3667 5.87465C16.4462 10.1484 13.349 11.6278 9.37501 11.6278H7.35236C7.11694 11.6281 6.8895 11.7059 6.71162 11.8472C6.53375 11.9884 6.41731 12.1836 6.3836 12.3969L5.34811 18.4114L5.05358 20.1162C5.04154 20.1839 5.04575 20.2532 5.06591 20.3192C5.08608 20.3852 5.12171 20.4465 5.17033 20.4986C5.21895 20.5508 5.27939 20.5926 5.34744 20.6212C5.4155 20.6497 5.48954 20.6644 5.56442 20.6641H9.1518C9.357 20.664 9.55541 20.5968 9.71145 20.4748C9.86748 20.3528 9.97092 20.1838 10.0032 19.9982L10.0377 19.8296L10.7142 15.9057L10.758 15.695C10.7902 15.5094 10.8937 15.3404 11.0497 15.2184C11.2057 15.0963 11.4042 15.0292 11.6094 15.029H12.1478C15.6224 15.029 18.3423 13.7351 19.1385 9.99665C19.4699 8.43509 19.2973 7.13064 18.4206 6.21393C18.1421 5.92969 17.8091 5.69468 17.438 5.52061" fill="#179BD7"/>
<path d="M16.4869 5.15788C16.3488 5.11995 16.2061 5.08623 16.0589 5.05673C15.9116 5.02723 15.7597 4.99983 15.5986 4.97665C15.0093 4.89438 14.4138 4.85492 13.8176 4.85864H8.41697C8.2886 4.85843 8.16188 4.88511 8.0465 4.93661C7.91994 4.99168 7.80998 5.07422 7.72617 5.17705C7.64236 5.27988 7.58723 5.3999 7.56557 5.52667L6.41503 12.1944L6.38281 12.3882C6.41853 12.1764 6.53583 11.9833 6.71351 11.8437C6.89118 11.7042 7.11751 11.6275 7.35157 11.6275H9.37422C13.3482 11.6275 16.4569 10.1523 17.3659 5.87439C17.3935 5.74795 17.4165 5.62572 17.4372 5.5056C17.1975 5.38971 16.9473 5.2931 16.6894 5.21689L16.4846 5.15788" fill="#222D65"/>
</g>
<defs>
<clipPath id="clip0_3193_13526">
<rect width="88" height="21" fill="white" transform="translate(0.5 0.5)"/>
</clipPath>
</defs>
</svg>
