<svg width="360" height="360" viewBox="0 0 360 360" fill="none" xmlns="http://www.w3.org/2000/svg">
<rect x="60.45" y="87.45" width="101.1" height="194.1" rx="14.55" fill="#292B2E" stroke="#292B2E" stroke-width="0.9"/>
<rect x="54.45" y="87.45" width="101.1" height="194.1" rx="14.55" fill="white" stroke="#292B2E" stroke-width="0.9"/>
<rect x="91.95" y="93.45" width="27.6" height="8.1" rx="4.05" fill="#292B2E" stroke="#292B2E" stroke-width="0.9"/>
<path fill-rule="evenodd" clip-rule="evenodd" d="M255.206 227.431C251.912 224.97 247.226 225.8 244.977 229.242L215.162 274.877C214.709 275.571 213.779 275.766 213.086 275.313L212.458 274.902C211.764 274.449 211.569 273.52 212.023 272.826L241.838 227.191C245.27 221.938 252.423 220.671 257.45 224.427L310.807 264.287C311.471 264.783 311.607 265.723 311.111 266.387L310.662 266.988C310.166 267.651 309.226 267.787 308.563 267.292L255.206 227.431Z" fill="white" stroke="#292B2E" stroke-width="0.9" stroke-linecap="round" stroke-linejoin="round"/>
<circle cx="214.272" cy="274.741" r="7.6881" fill="#BFEBFF"/>
<circle cx="214.272" cy="274.741" r="3.2949" fill="#292B2E"/>
<path d="M214.272 265.625V271.358C214.272 272.659 215.816 273.343 216.78 272.469L223.106 266.736C224.123 265.815 223.471 264.125 222.099 264.125H215.772C214.944 264.125 214.272 264.796 214.272 265.625Z" fill="white" stroke="#292B2E" stroke-width="0.9" stroke-linecap="round" stroke-linejoin="round"/>
<circle cx="304.297" cy="274.741" r="7.6881" fill="#BFEBFF"/>
<circle cx="304.296" cy="274.741" r="3.2949" fill="#292B2E"/>
<path d="M304.296 265.625V271.358C304.296 272.659 305.84 273.343 306.804 272.469L313.13 266.736C314.147 265.815 313.495 264.125 312.123 264.125H305.796C304.968 264.125 304.296 264.796 304.296 265.625Z" fill="white" stroke="#292B2E" stroke-width="0.9" stroke-linecap="round" stroke-linejoin="round"/>
<path fill-rule="evenodd" clip-rule="evenodd" d="M223.722 227.431C220.428 224.97 215.741 225.8 213.493 229.242L183.678 274.877C183.224 275.571 182.295 275.766 181.601 275.313L180.974 274.902C180.28 274.449 180.085 273.52 180.538 272.826L210.353 227.191C213.785 221.938 220.939 220.671 225.966 224.427L279.323 264.287C279.986 264.783 280.123 265.723 279.627 266.387L279.178 266.988C278.682 267.651 277.742 267.787 277.078 267.292L223.722 227.431Z" fill="white" stroke="#292B2E" stroke-width="0.9" stroke-linecap="round" stroke-linejoin="round"/>
<circle cx="182.788" cy="274.741" r="7.6881" fill="#BFEBFF"/>
<circle cx="182.788" cy="274.741" r="3.2949" fill="#292B2E"/>
<path d="M182.788 265.625V271.358C182.788 272.659 184.331 273.343 185.295 272.469L191.621 266.736C192.638 265.815 191.986 264.125 190.614 264.125H184.288C183.459 264.125 182.788 264.796 182.788 265.625Z" fill="white" stroke="#292B2E" stroke-width="0.9" stroke-linecap="round" stroke-linejoin="round"/>
<circle cx="272.812" cy="274.741" r="7.6881" fill="#BFEBFF"/>
<circle cx="272.812" cy="274.741" r="3.2949" fill="#292B2E"/>
<path d="M272.812 265.625V271.358C272.812 272.659 274.356 273.343 275.32 272.469L281.646 266.736C282.663 265.815 282.011 264.125 280.639 264.125H274.312C273.484 264.125 272.812 264.796 272.812 265.625Z" fill="white" stroke="#292B2E" stroke-width="0.9" stroke-linecap="round" stroke-linejoin="round"/>
<path fill-rule="evenodd" clip-rule="evenodd" d="M210.651 162.19C210.614 161.982 210.535 161.785 210.417 161.61L198.074 143.292C197.612 142.605 197.793 141.672 198.48 141.21L199.102 140.79C199.789 140.328 200.722 140.509 201.184 141.196L213.75 159.846C214.015 160.239 214.194 160.683 214.276 161.15L224.608 220.199C224.75 221.015 224.205 221.793 223.389 221.935L222.65 222.065C221.834 222.207 221.056 221.662 220.914 220.846L210.651 162.19Z" fill="#292B2E" stroke="#292B2E" stroke-width="0.9" stroke-linecap="round" stroke-linejoin="round"/>
<path fill-rule="evenodd" clip-rule="evenodd" d="M160.372 162.189C160.334 161.991 160.256 161.803 160.143 161.635L147.783 143.292C147.321 142.605 147.502 141.672 148.189 141.21L148.811 140.79C149.498 140.328 150.431 140.509 150.893 141.196L162.634 158.622C162.913 159.035 163.379 159.283 163.878 159.283H320.446C322.732 159.283 324.357 161.509 323.66 163.686L305.164 221.528C304.717 222.926 303.417 223.875 301.949 223.875H175.067C173.45 223.875 172.06 222.728 171.754 221.14L160.372 162.189ZM166.172 163.033C165.229 163.033 164.52 163.892 164.699 164.818L167.146 177.493C167.282 178.199 167.9 178.709 168.619 178.709H277.07C277.71 178.709 278.28 178.302 278.488 177.697L282.847 165.021C283.182 164.047 282.459 163.033 281.429 163.033H166.172ZM288.567 163.033C287.926 163.033 287.357 163.44 287.148 164.046L282.789 176.721C282.454 177.695 283.178 178.709 284.208 178.709H313.824C314.477 178.709 315.054 178.287 315.253 177.666L319.306 164.99C319.616 164.022 318.894 163.033 317.878 163.033H288.567ZM313.095 184.416C313.404 183.448 312.682 182.459 311.666 182.459H281.886C281.246 182.459 280.676 182.865 280.468 183.471L275.667 197.429C275.333 198.403 276.056 199.417 277.086 199.417H307.202C307.855 199.417 308.432 198.995 308.631 198.374L313.095 184.416ZM306.473 205.124C306.782 204.156 306.06 203.167 305.044 203.167H274.765C274.124 203.167 273.554 203.573 273.346 204.179L268.546 218.137C268.211 219.111 268.934 220.125 269.964 220.125H300.58C301.233 220.125 301.81 219.703 302.009 219.082L306.473 205.124ZM262.826 220.125C263.467 220.125 264.036 219.718 264.245 219.113L269.045 205.155C269.38 204.181 268.656 203.167 267.626 203.167H173.92C172.978 203.167 172.269 204.026 172.447 204.951L175.142 218.909C175.279 219.615 175.896 220.125 176.615 220.125H262.826ZM171.144 198.201C171.28 198.907 171.898 199.417 172.617 199.417H269.948C270.588 199.417 271.158 199.01 271.366 198.405L276.167 184.447C276.502 183.473 275.778 182.459 274.748 182.459H169.922C168.98 182.459 168.271 183.318 168.449 184.243L171.144 198.201Z" fill="white" stroke="#292B2E" stroke-width="0.9" stroke-linecap="round" stroke-linejoin="round"/>
<path d="M138 139.5C138 137.843 139.343 136.5 141 136.5H207C208.657 136.5 210 137.843 210 139.5C210 141.157 208.657 142.5 207 142.5H141C139.343 142.5 138 141.157 138 139.5Z" fill="white" stroke="#292B2E" stroke-width="0.9" stroke-linecap="round"/>
<circle cx="141" cy="139.5" r="3" fill="white" stroke="#292B2E" stroke-width="0.9" stroke-linecap="round"/>
<circle cx="105" cy="183" r="31.5" fill="#BFEBFF"/>
<path d="M91.5 185.759L99.7975 195L120 172.5" stroke="#292B2E" stroke-width="1.5" stroke-linecap="round" stroke-linejoin="round"/>
</svg>
