<svg width="25" height="18" viewBox="0 0 25 18" fill="none" xmlns="http://www.w3.org/2000/svg">
<path d="M24.5939 1.15594C24.5939 1.58206 24.3278 1.90007 23.9557 2.0082C20.0707 2.96647 18.1565 5.307 18.1565 9.08609C18.1565 10.4705 18.5827 11.2146 19.3809 11.2146C19.5409 11.2146 19.807 11.1606 20.0731 11.1086C20.6052 10.9486 21.0313 10.8966 21.4034 10.8966C22.4677 10.8966 23.3719 11.2167 24.01 11.9068C24.6481 12.599 24.9683 13.3972 24.9683 14.2473C24.9683 15.0996 24.6481 15.8978 24.01 16.5879C23.3719 17.2801 22.5196 17.5981 21.4553 17.5981C20.019 17.5981 18.7947 16.9059 17.7304 15.5755C16.6661 14.2452 16.134 12.4368 16.134 10.1999C16.134 7.64526 16.8782 5.41073 18.3685 3.60254C19.6448 2.06021 21.4013 0.941883 23.5839 0.355686C24.01 0.199787 24.5941 0.571866 24.5941 1.15596L24.5939 1.15594ZM9.42809 1.15594C9.42809 1.58206 9.16203 1.90007 8.78996 2.0082C4.90497 2.96646 2.99079 5.307 2.99079 9.08609C2.99079 10.4705 3.41691 11.2146 4.26705 11.2146C4.42711 11.2146 4.63913 11.1606 4.95925 11.1086C5.49138 10.9486 5.91751 10.8966 6.28958 10.8966C7.35384 10.8966 8.2061 11.2167 8.89617 11.9068C9.53431 12.599 9.85444 13.3972 9.85444 14.2473C9.85444 15.0455 9.53433 15.8437 8.89617 16.5359C8.25804 17.2281 7.40578 17.6002 6.28958 17.6002C4.85325 17.6002 3.62892 16.908 2.56466 15.5777C1.50039 14.2473 0.968261 12.4389 0.968261 10.2021C0.968261 7.64739 1.71239 5.41286 3.20279 3.60467C4.47905 2.06234 6.18358 0.944011 8.36404 0.357814C8.89617 0.199835 9.42831 0.571912 9.42831 1.15601L9.42809 1.15594Z" fill="#292B2E"/>
</svg>
