<svg width="360" height="360" viewBox="0 0 360 360" fill="none" xmlns="http://www.w3.org/2000/svg">
<rect x="-0.45" y="0.45" width="96.6" height="27.6" transform="matrix(-1 0 0 1 259.35 108)" fill="white" stroke="#292B2E" stroke-width="0.9"/>
<path d="M186.75 117.75C185.646 111.678 182.342 104.718 180.457 101.307C180.182 100.808 179.64 100.525 179.071 100.563L149.513 102.579C148.379 102.656 147.739 103.917 148.348 104.878L160.823 124.575C161.09 124.997 161.547 125.259 162.047 125.268C171.251 125.429 187.916 124.16 186.75 117.75Z" fill="#292B2E"/>
<rect x="205.2" y="63.45" width="90.6" height="27.6" fill="white" stroke="#292B2E" stroke-width="0.9"/>
<path d="M288.75 63H305.25L317.25 77.25L305.25 91.5H288.75V63Z" fill="#BFEBFF"/>
<path d="M184.97 102.93C189.905 102.333 193.281 96.6914 192.512 90.3281C191.743 83.9649 187.119 79.2901 182.184 79.8866L114.214 85.7631C109.28 86.3597 105.903 92.0017 106.672 98.3649C107.441 104.728 112.065 109.403 117 108.806L184.97 102.93Z" fill="#BFEBFF"/>
<path d="M184.739 102.124C180.167 102.677 175.882 98.3451 175.169 92.4483C174.456 86.5514 177.585 81.323 182.158 80.7702" stroke="#292B2E" stroke-width="0.9" stroke-linecap="round"/>
<path d="M180.795 91.9496C180.437 88.9913 182.007 86.3682 184.301 86.0909C186.595 85.8135 188.745 87.9869 189.103 90.9453C189.29 92.4972 188.947 93.9569 188.248 95.034" stroke="#292B2E" stroke-width="0.9" stroke-linecap="round"/>
<path d="M116.131 294.727C119.758 295.699 123.169 296.176 125.76 296.152C127.051 296.14 128.17 296.004 129.017 295.724C129.841 295.451 130.555 294.991 130.76 294.228C130.964 293.464 130.576 292.708 129.999 292.061C129.405 291.394 128.504 290.717 127.392 290.061C125.16 288.745 121.968 287.452 118.341 286.481C114.714 285.509 111.303 285.032 108.713 285.056C107.421 285.068 106.303 285.204 105.455 285.484C104.632 285.757 103.917 286.217 103.713 286.98C103.508 287.744 103.897 288.5 104.474 289.147C105.068 289.814 105.968 290.491 107.08 291.147C109.312 292.463 112.505 293.756 116.131 294.727Z" fill="#292B2E" stroke="white" stroke-width="1.05"/>
<path d="M181.243 291.162C185.002 290.958 188.398 290.241 190.855 289.23C192.081 288.726 193.101 288.137 193.814 287.479C194.523 286.825 194.987 286.045 194.94 285.176C194.893 284.308 194.348 283.583 193.572 283.009C192.792 282.432 191.714 281.956 190.441 281.587C187.89 280.847 184.436 280.501 180.677 280.704C176.919 280.908 173.522 281.625 171.066 282.636C169.84 283.14 168.82 283.729 168.107 284.387C167.397 285.041 166.933 285.821 166.98 286.69C167.027 287.558 167.573 288.284 168.349 288.858C169.129 289.434 170.206 289.91 171.48 290.279C174.031 291.019 177.485 291.365 181.243 291.162Z" fill="#292B2E" stroke="white" stroke-width="1.05"/>
<path d="M86.25 315L93 282L120 283.5L104.25 315H86.25Z" fill="white" stroke="#292B2E" stroke-width="0.9"/>
<path d="M156 315L153.75 276.75H180.75L178.5 312L156 315Z" fill="white" stroke="#292B2E" stroke-width="0.9"/>
<rect x="225.75" y="49.5" width="9" height="261" fill="#BFEBFF"/>
<path d="M224.25 34.5H236.25V49.5H224.25V34.5Z" fill="#BFEBFF"/>
<path d="M224.25 49.5H236.25" stroke="#292B2E" stroke-width="0.9" stroke-linecap="round"/>
<path d="M221.25 292.5C215.25 292.5 214.25 299 214.5 302.25C209.25 296.25 193.5 288 186 299.25C180 308.25 183 319.5 185.25 324H292.5C294.5 323.5 298.5 321.3 298.5 316.5C298.5 311.7 291 311 287.25 311.25C288 310 289.05 306.45 287.25 302.25C285.45 298.05 279.5 298.5 276.75 299.25C282.75 282 267.75 273 252 278.25C239.4 282.45 233.25 295 231.75 300.75C230.75 298 227.25 292.5 221.25 292.5Z" fill="white"/>
<path d="M214.5 302.25C214.25 299 215.25 292.5 221.25 292.5C227.25 292.5 230.75 298 231.75 300.75C233.25 295 239.4 282.45 252 278.25C267.75 273 282.75 282 276.75 299.25M214.5 302.25C209.25 296.25 193.5 288 186 299.25C180 308.25 183 319.5 185.25 324H292.5C294.5 323.5 298.5 321.3 298.5 316.5C298.5 311.7 291 311 287.25 311.25C288 310 289.05 306.45 287.25 302.25C285.45 298.05 279.5 298.5 276.75 299.25M214.5 302.25L219.75 308.25M276.75 299.25C271.35 301.65 269 304.25 268.5 305.25" stroke="#292B2E" stroke-width="1.05" stroke-linecap="round"/>
<path d="M163.5 194.25L141.75 237.75C138 249.75 136.299 255.037 134.25 265.5C131.931 277.341 130.5 294 130.5 294C124.5 289.5 118.21 287.941 111 286.5C104.01 285.337 97.1672 285.893 90 288L103.5 230.25L117 180L141 174L145.591 178.132C147.51 175.176 147.848 177.556 147.667 180L163.5 194.25Z" fill="#292B2E"/>
<path d="M111 286.5C119.893 254.25 135 203.85 141 188.25C147 172.65 147.944 176.25 147.667 180M111 286.5C104.01 285.337 97.1672 285.893 90 288L103.5 230.25L117 180L141 174L147.667 180M111 286.5C118.21 287.941 124.5 289.5 130.5 294C130.5 294 131.931 277.341 134.25 265.5C136.299 255.037 138 249.75 141.75 237.75L163.5 194.25L147.667 180" stroke="white" stroke-width="0.9" stroke-linecap="round" stroke-linejoin="round"/>
<path d="M121.5 184.896L135.75 169.896L150 165.75L166.5 160.95L172.5 157.896C183.483 181.326 189.329 210.099 192.522 235.179C192.6 235.788 192.676 236.395 192.75 237C195.079 255.915 195.924 276.282 195 285.75C195 285.75 190.5 282 175.082 282C159.75 285 151.5 289.501 151.5 289.501C149.365 275.623 149.112 264.148 146.744 238.5C145.118 220.9 141.166 199.938 140.25 188.646L121.5 184.896Z" fill="#292B2E"/>
<path d="M175.082 282C159.75 285 151.5 289.501 151.5 289.501C149.365 275.623 149.112 264.148 146.744 238.5C145.118 220.9 141.166 199.938 140.25 188.646L121.5 184.896L135.75 169.896L150 165.75M175.082 282C190.5 282 195 285.75 195 285.75C195.924 276.282 195.079 255.915 192.75 237C192.676 236.395 192.6 235.788 192.522 235.179C189.329 210.099 183.483 181.326 172.5 157.896L166.5 160.95M175.082 282C176.205 252.763 176.205 266.237 175.082 237C174.457 220.7 170.817 199.124 168.955 181.896M166.5 160.95C167.433 167.345 168.247 175.353 168.955 181.896M166.5 160.95L150 165.75M168.955 181.896C165.136 183.146 156.75 184.596 153.75 180.396C150.75 176.196 150 168.382 150 165.75" stroke="white" stroke-width="0.9" stroke-linecap="round" stroke-linejoin="round"/>
<path d="M138.75 315C136.95 315.6 137 317.75 137.25 318.75C150 318.25 176.7 316.65 181.5 314.25C186.3 311.85 182.5 304.75 180 301.5C181.75 299.5 184.2 295.5 180 295.5C174.75 295.5 172.5 311.25 171 310.5C169.8 309.9 164 309.75 161.25 309.75C161.25 308.5 160.8 305.85 159 305.25C156.75 304.5 154.5 304.5 154.5 306C154.5 307.2 152.5 308.5 151.5 309C148 310.75 140.55 314.4 138.75 315Z" fill="#BFEBFF"/>
<path d="M141 314.25C141.75 314.5 144.6 314.85 150 314.25C155.4 313.65 159.25 311 160.5 309.75" stroke="#292B2E" stroke-width="0.9" stroke-linecap="round"/>
<path d="M144 324C137.97 324 136.896 321 137.396 318.75L178.5 315.75C180.75 315.25 184.95 313.5 183.75 310.5C193.5 315 191.25 323.25 185.25 324C180.45 324.6 177.847 322.75 177.146 321.75C175.896 322.5 172.796 324 170.396 324C167.996 324 165.396 323 164.396 322.5C163.146 323 160.046 324 157.646 324C155.246 324 152.146 323 150.896 322.5C149.25 323.25 147.75 324 144 324Z" fill="white" stroke="#292B2E" stroke-width="0.9" stroke-linejoin="round"/>
<path d="M71.3768 315C69.5768 315.6 69.6268 317.75 69.8768 318.75C82.6268 318.25 109.327 316.65 114.127 314.25C118.927 311.85 115.127 304.75 112.627 301.5C114.377 299.5 116.827 295.5 112.627 295.5C107.377 295.5 105.127 311.25 103.627 310.5C102.427 309.9 96.6269 309.75 93.8769 309.75C93.8769 308.5 93.4269 305.85 91.6269 305.25C89.3769 304.5 87.1269 304.5 87.1269 306C87.1269 307.2 85.1269 308.5 84.1269 309C80.6269 310.75 73.1768 314.4 71.3768 315Z" fill="#BFEBFF"/>
<path d="M73.627 314.25C74.377 314.5 77.227 314.85 82.627 314.25C88.027 313.65 91.877 311 93.127 309.75" stroke="#292B2E" stroke-width="0.9" stroke-linecap="round"/>
<path d="M76.6268 324C70.5968 324 69.5232 321 70.0232 318.75L111.127 315.75C113.377 315.25 117.577 313.5 116.377 310.5C126.127 315 123.877 323.25 117.877 324C113.077 324.6 110.474 322.75 109.773 321.75C108.523 322.5 105.423 324 103.023 324C100.623 324 98.0232 323 97.0232 322.5C95.7732 323 92.6732 324 90.2732 324C87.8732 324 84.7732 323 83.5232 322.5C81.8768 323.25 80.3768 324 76.6268 324Z" fill="white" stroke="#292B2E" stroke-width="0.9" stroke-linejoin="round"/>
<path d="M151.5 96.9727C146.7 96.9727 138.75 98.7502 136.5 99.7502L122.25 103.5C117.25 103.5 106.5 104.55 103.5 108.75C99.7498 114 98.2498 123 102.75 135.75C106.35 145.95 108.75 173 109.5 185.25L146.25 168L177 159.36C184.369 158.175 191.811 155.376 196.5 152.25C205.5 146.25 203.25 138.75 188.25 120C173.25 101.25 157.5 96.9727 151.5 96.9727Z" fill="white"/>
<path d="M177 129.75C171.38 130.312 168.287 130.453 164.25 131.12M177 159.36C184.369 158.175 191.811 155.376 196.5 152.25C205.5 146.25 203.25 138.75 188.25 120C173.25 101.25 157.5 96.9727 151.5 96.9727C146.7 96.9727 138.75 98.7502 136.5 99.7502L122.25 103.5C117.25 103.5 106.5 104.55 103.5 108.75C99.7498 114 98.2498 123 102.75 135.75C106.35 145.95 108.75 173 109.5 185.25L146.25 168L177 159.36ZM177 159.36C170.195 160.455 163.453 160.173 159 157.5C164.757 150.303 163.43 139.361 159.75 132C161.442 131.624 162.899 131.342 164.25 131.12M164.25 131.12C162.75 129.413 155.55 122.7 153.75 118.5" stroke="#292B2E" stroke-width="0.9" stroke-linecap="round"/>
<path d="M124.571 103.5C123.126 103.256 122.624 102.276 122.525 101.228L122.525 101.228C122.322 99.0833 122.22 98.0108 122.145 97.7467C122.021 97.3106 122.088 97.4688 121.862 97.0754C121.726 96.8371 121.481 96.5489 120.993 95.9723C118.922 93.5284 115.622 89.3699 112.922 84.7501C108.206 76.6805 106.806 70.1312 112.5 65.2502C117.75 60.7502 124.33 59.5679 130.417 61.6495C139.993 64.9247 139.554 74.3042 147 81.7501C156.75 91.5001 164.653 87.684 171.75 91.5001C181.264 96.6151 189.536 115.012 184.5 115.5C174.75 104.25 169.5 102 156 97.5001C152.388 96.296 146.25 97.5001 146.25 97.5001L124.571 103.5Z" fill="#292B2E"/>
<path d="M132.704 87.9327C132.704 93.75 135.954 97.6826 137.954 99.9326C134.203 110.973 122.5 107.892 120.75 103.892L120 92.6417C123.5 89.8917 132.704 84.9327 132.704 87.9327Z" fill="white" stroke="#292B2E" stroke-width="0.9" stroke-linecap="round"/>
<path d="M120.713 65.8334C120.713 65.8334 124.833 73.1976 129.463 75.5556C133.344 77.5321 140.547 77.5 140.547 77.5" stroke="#292B2E" stroke-width="0.9"/>
<path d="M108.5 85C109.077 91.0767 112.758 96.647 118 97C120.342 97.1577 122.233 95.4932 124.5 94L131.25 91.5007L137.25 72.0008L110.758 67.9244C107.932 73.8886 108.012 79.8578 108.5 85Z" fill="white"/>
<path d="M122.814 64.3285C122.814 64.3285 112.559 65.0772 111.75 66.7502C110.941 68.4232 108.799 72.7882 108.799 72.7882C114.789 72.7737 117.51 69.9886 117.51 69.9886C121.614 76.4251 131.63 78.4228 134.009 78.4085L143.052 79.5474L137.748 72.238L122.814 64.3285Z" fill="#292B2E"/>
<path d="M127.5 91.5008C130.554 89.4651 129 96.7507 120.75 100.501C120.75 100.501 120.85 97.8059 120 96.0008C122.25 95.2508 125.25 93.0008 127.5 91.5008Z" fill="#292B2E"/>
<path d="M129.661 80.4107C129.661 80.4107 131.497 76.7347 135.126 76.7057C138.548 76.6784 139.812 81.4937 135.372 86.0466C134.689 86.7461 133.371 87.7346 132.233 88.2463" stroke="#292B2E" stroke-width="0.789095" stroke-linecap="round"/>
<path d="M129.661 80.4103C129.661 80.4103 131.497 76.7343 135.126 76.7053C138.548 76.678 139.812 81.4933 135.372 86.0463C134.689 86.7457 133.371 87.7342 132.233 88.2459" fill="white"/>
<path d="M129.661 80.4103C129.661 80.4103 131.497 76.7343 135.126 76.7053C138.548 76.678 139.812 81.4933 135.372 86.0463C134.689 86.7457 133.371 87.7342 132.233 88.2459" stroke="#292B2E" stroke-width="0.789095" stroke-linecap="round"/>
<path d="M135.497 79.4441C135.497 79.4441 132.497 80.1519 131.922 83.9792" stroke="#292B2E" stroke-width="0.526064" stroke-linecap="round"/>
<path d="M110.758 67.9238C107.932 73.8881 108.012 79.8578 108.5 85C109.077 91.0767 112.5 96 117 96.5C122.218 97.0797 125.234 93.7434 127.5 92.2502" stroke="#292B2E" stroke-width="0.9" stroke-linecap="round"/>
<path d="M143.25 116.615C143.25 125.958 145.42 131.191 146.728 132.989C146.896 133.22 147.146 133.369 147.422 133.446L150.739 134.37C151.794 134.664 152.806 133.766 152.66 132.68C152.147 128.842 151.5 122.53 151.5 116.615C151.5 109.923 155.434 101.338 157.649 97.5387C157.991 96.9518 157.923 96.2035 157.326 95.8799C155.317 94.7911 151.361 94.1152 149.587 94.738C149.358 94.8186 149.18 94.9927 149.051 95.1994C146.997 98.5072 143.25 106.909 143.25 116.615Z" fill="#292B2E"/>
<ellipse cx="159.128" cy="148.708" rx="8.94791" ry="2.90856" transform="rotate(96.1474 159.128 148.708)" fill="#292B2E"/>
<path d="M140.25 149.25C146.817 148.156 155.546 150.721 160.065 152.509C160.753 152.78 161.552 152.543 161.879 151.88C164.87 145.824 162.787 137.474 160.963 133.052C160.703 132.424 160.036 132.087 159.363 132.188C153.409 133.087 145.414 133.011 141.348 132.813C140.693 132.781 140.089 133.165 139.851 133.777L139.825 133.843C136.884 141.4 133.384 150.394 140.25 149.25Z" fill="white" stroke="#292B2E" stroke-width="0.9"/>
<path d="M63 116.25L42 109.5L75.75 198L89.25 207.75L108 198L122.25 206.25L147.75 192L141 102.75L108 111L87.75 106.5L63 116.25Z" fill="#BFEBFF"/>
<path d="M63 116.25L78 168.75M89.25 207L83.25 186M90.75 129.75L104.25 191.25M123 205.5L118.476 177M108 111L113.238 144" stroke="#292B2E" stroke-width="0.9" stroke-linecap="round"/>
<path d="M55.4925 158.052C56.464 160.334 59.3346 161.052 61.68 160.863L59.7583 155.984C67.0194 150.043 65.007 149.031 61.7953 149.756C61.0486 149.924 60.251 150.218 59.5035 150.612C57.2281 151.813 55.6045 154.117 55.0806 155.674C54.6921 156.827 55.1823 157.323 55.4925 158.052Z" fill="white"/>
<path d="M59.7558 150.088C57.3911 151.102 55.9963 152.697 55.3487 154.206C54.1746 153.424 52.588 151.57 53.6638 149.419C53.0182 148.743 52.3289 147.292 53.1561 145.666C52.2186 144.199 51.8438 141.645 55.138 138.821C58.0791 136.3 60.419 136.181 61.079 136.841C62.4543 138.217 60.419 140.142 58.8843 141.676C60.9355 141.087 62.3145 141.47 62.6973 141.852C63.4647 142.62 62.6974 144.338 62.1091 145.154C63.0447 145.268 63.6878 145.598 63.8739 145.97C64.4621 147.147 62.6973 148.75 62.1091 149.419C61.3512 149.527 60.5326 149.755 59.7558 150.088Z" fill="white"/>
<path d="M59.7588 155.984C66.9183 150.734 65.3687 148.956 62.1091 149.419M55.3487 154.206C54.8686 155.325 54.7991 156.396 55.0496 157.147C55.726 159.176 59.1721 160.768 61.6172 161.168M55.3487 154.206C55.9963 152.697 57.3911 151.102 59.7558 150.088C60.5326 149.755 61.3512 149.527 62.1091 149.419M55.3487 154.206C54.1746 153.424 52.588 151.57 53.6638 149.419M62.1091 149.419C62.6973 148.75 64.4621 147.147 63.8739 145.97C63.6878 145.598 63.0447 145.268 62.1091 145.154M53.6638 149.419C53.9371 148.873 54.3822 148.307 55.0496 147.735C57.7113 145.454 60.3989 144.945 62.1091 145.154M53.6638 149.419C53.0182 148.743 52.3289 147.292 53.1561 145.666M62.1091 145.154C62.6974 144.338 63.4647 142.62 62.6973 141.852C62.3145 141.47 60.9355 141.087 58.8843 141.676M53.1561 145.666C53.4957 144.999 54.091 144.302 55.0498 143.617C56.4883 142.59 57.7831 141.993 58.8843 141.676M53.1561 145.666C52.2186 144.199 51.8438 141.645 55.138 138.821C58.0791 136.3 60.419 136.181 61.079 136.841C62.4543 138.217 60.419 140.142 58.8843 141.676" stroke="#292B2E" stroke-width="0.792128" stroke-linecap="round"/>
<path d="M119.256 89.4316C119.386 90.7697 118.81 93.1797 115.465 92.1156" stroke="#292B2E" stroke-width="0.681955" stroke-linecap="round"/>
<path d="M115.397 82.5249C115.155 83.3489 114.967 84.2298 113.537 85.2006C112.029 86.2239 113.944 87.4689 115.18 87.8323" stroke="#292B2E" stroke-width="0.681955" stroke-linecap="round"/>
<path d="M108.033 76.6215L108.095 76.3905L108.165 76.1821C108.216 76.0516 108.273 75.9246 108.336 75.8016C108.464 75.5557 108.618 75.3291 108.793 75.1267C109.159 74.6944 109.609 74.3713 110.104 74.1845C110.363 74.0812 110.633 74.0202 110.906 74.0033C111.183 73.9888 111.46 74.0224 111.728 74.1029C111.991 74.1802 112.24 74.3105 112.465 74.488C112.687 74.6595 112.876 74.8832 113.019 75.1448C113.106 75.3059 113.135 75.5007 113.1 75.6867C113.064 75.8726 112.967 76.0345 112.829 76.1368C112.775 76.1788 112.715 76.2095 112.651 76.2274L112.542 76.2591C112.321 76.3271 112.155 76.3543 111.973 76.395L111.527 76.5037C111.255 76.5762 111.023 76.6396 110.751 76.7166C110.48 76.7937 110.212 76.8933 109.898 77.0156L109.406 77.2149L109.138 77.3146C108.931 77.4084 108.706 77.4335 108.487 77.3871C108.373 77.3622 108.265 77.3064 108.173 77.224C108.113 77.1664 108.066 77.0925 108.036 77.0088C108.006 76.9251 107.995 76.8341 108.002 76.7438C108.011 76.7024 108.021 76.6616 108.033 76.6215Z" fill="#292B2E"/>
<path d="M123.311 78.3261L123.249 78.0951L123.179 77.8867C123.129 77.7562 123.072 77.6292 123.009 77.5062C122.88 77.2603 122.727 77.0337 122.551 76.8313C122.185 76.399 121.736 76.0758 121.241 75.8891C120.981 75.7858 120.711 75.7248 120.438 75.7079C120.161 75.6934 119.884 75.727 119.616 75.8075C119.353 75.8847 119.104 76.0151 118.879 76.1926C118.657 76.3641 118.469 76.5878 118.325 76.8494C118.238 77.0105 118.209 77.2053 118.244 77.3912C118.28 77.5772 118.377 77.739 118.515 77.8414C118.569 77.8834 118.63 77.9141 118.693 77.932L118.802 77.9637C119.023 78.0317 119.189 78.0588 119.372 78.0996L119.818 78.2083C120.089 78.2808 120.322 78.3442 120.593 78.4212C120.864 78.4982 121.132 78.5979 121.446 78.7202L121.938 78.9195L122.206 79.0192C122.413 79.113 122.639 79.1381 122.857 79.0917C122.972 79.0668 123.079 79.011 123.171 78.9286C123.231 78.871 123.278 78.7971 123.308 78.7134C123.338 78.6297 123.35 78.5387 123.342 78.4484C123.334 78.407 123.323 78.3662 123.311 78.3261Z" fill="#292B2E"/>
<ellipse cx="119.445" cy="82.5369" rx="1.17762" ry="1.70306" transform="rotate(-1.26872 119.445 82.5369)" fill="#292B2E"/>
<ellipse cx="110.92" cy="82.5484" rx="1.17762" ry="1.70306" transform="rotate(-1.26872 110.92 82.5484)" fill="#292B2E"/>
</svg>
