<svg width="18" height="16" viewBox="0 0 18 16" fill="none" xmlns="http://www.w3.org/2000/svg">
<path d="M6.1121 15.4646L4.93904 13.548L2.75956 13.0592C2.58648 13.0229 2.45106 12.9385 2.35331 12.806C2.25556 12.6735 2.2179 12.5207 2.24033 12.3477L2.43264 10.1057L0.950267 8.45184C0.835961 8.31509 0.778809 8.16445 0.778809 7.99992C0.778809 7.83539 0.835961 7.68475 0.950267 7.548L2.43264 5.89417L2.24033 3.65219C2.2179 3.47911 2.25556 3.32633 2.35331 3.19386C2.45106 3.06137 2.58648 2.97697 2.75956 2.94065L4.93904 2.45188L6.1121 0.535212C6.19864 0.398462 6.31804 0.30017 6.47029 0.240337C6.62252 0.180518 6.78091 0.182657 6.94543 0.246754L8.99991 1.13617L11.0544 0.246754C11.2189 0.182657 11.3773 0.180518 11.5295 0.240337C11.6818 0.30017 11.8012 0.398462 11.8877 0.535212L13.0608 2.45188L15.2403 2.94065C15.4134 2.97697 15.5488 3.06137 15.6465 3.19386C15.7443 3.32633 15.7819 3.47911 15.7595 3.65219L15.5672 5.89417L17.0496 7.548C17.1639 7.68475 17.221 7.83539 17.221 7.99992C17.221 8.16445 17.1639 8.31509 17.0496 8.45184L15.5672 10.1057L15.7595 12.3477C15.7819 12.5207 15.7443 12.6735 15.6465 12.806C15.5488 12.9385 15.4134 13.0229 15.2403 13.0592L13.0608 13.548L11.8877 15.4646C11.8012 15.6014 11.6818 15.6997 11.5295 15.7595C11.3773 15.8193 11.2189 15.8172 11.0544 15.7531L8.99991 14.8637L6.94543 15.7531C6.78091 15.8172 6.62252 15.8193 6.47029 15.7595C6.31804 15.6997 6.19864 15.6014 6.1121 15.4646ZM7.93741 9.17942L6.54316 7.798C6.42779 7.68263 6.30226 7.6236 6.16658 7.62092C6.0309 7.61825 5.90537 7.67462 5.79 7.79C5.66926 7.91073 5.60889 8.03973 5.60889 8.177C5.60889 8.31428 5.66926 8.44328 5.79 8.564L7.47268 10.2467C7.60943 10.3834 7.76434 10.4518 7.93741 10.4518C8.11048 10.4518 8.26539 10.3834 8.40214 10.2467L12.2098 6.439C12.3199 6.32898 12.3776 6.20131 12.3829 6.056C12.3883 5.91071 12.3306 5.78038 12.2098 5.665C12.0945 5.54962 11.9703 5.49325 11.8372 5.49592C11.7042 5.4986 11.5801 5.55763 11.4647 5.673L7.93741 9.17942Z" fill="#2065CE"/>
</svg>
