<svg width="59" height="20" viewBox="0 0 59 20" fill="none" xmlns="http://www.w3.org/2000/svg">
<g clip-path="url(#clip0_3193_13504)">
<path fill-rule="evenodd" clip-rule="evenodd" d="M29.2179 0.831036L25.3424 18.9477H20.6552L24.532 0.831036H29.2179ZM48.9357 12.5285L51.4031 5.72643L52.8233 12.5285H48.9357ZM54.1657 18.9477H58.5L54.7165 0.831036H50.7164C49.8167 0.831036 49.0581 1.35417 48.7213 2.15964L41.6891 18.9477H46.6091L47.5866 16.2414H53.5992L54.1657 18.9477ZM41.9326 13.0324C41.9536 8.25141 35.3213 7.98739 35.3668 5.85107C35.3811 5.20151 35.9999 4.51085 37.3544 4.33394C38.0249 4.24637 39.8771 4.17847 41.975 5.14432L42.7984 1.30279C41.6699 0.893579 40.2198 0.5 38.4136 0.5C33.7818 0.5 30.5206 2.96289 30.4947 6.48812C30.4638 9.09754 32.8217 10.5517 34.598 11.4193C36.4234 12.3069 37.0354 12.8765 37.0287 13.6704C37.0153 14.8864 35.5723 15.4225 34.2236 15.4435C31.8675 15.4801 30.4996 14.8064 29.41 14.299L28.5616 18.2687C29.6557 18.7717 31.6772 19.2095 33.7733 19.2314C38.6973 19.2314 41.9174 16.8003 41.9326 13.0324ZM22.5208 0.831036L14.9275 18.9477H9.9736L6.23705 4.4894C6.01011 3.59949 5.8131 3.27248 5.12333 2.89811C3.99709 2.28607 2.13641 1.7129 0.5 1.3564L0.610345 0.831036H8.58558C9.60147 0.831036 10.5159 1.50696 10.7465 2.67786L12.7202 13.162L17.5981 0.831036H22.5208Z" fill="url(#paint0_linear_3193_13504)"/>
</g>
<defs>
<linearGradient id="paint0_linear_3193_13504" x1="0.5" y1="9.86571" x2="58.5004" y2="9.86571" gradientUnits="userSpaceOnUse">
<stop stop-color="#231F5E"/>
<stop offset="1" stop-color="#024DA0"/>
</linearGradient>
<clipPath id="clip0_3193_13504">
<rect width="58" height="19" fill="white" transform="translate(0.5 0.5)"/>
</clipPath>
</defs>
</svg>
