<svg width="24" height="24" viewBox="0 0 24 24" fill="none" xmlns="http://www.w3.org/2000/svg">
<path fill-rule="evenodd" clip-rule="evenodd" d="M19.9982 12.4737C20.0117 12.1666 19.7641 11.8883 19.4082 11.892L19.3909 11.8918C19.0811 11.8842 18.7897 12.1548 18.786 12.5243L18.7716 13.967C18.7688 14.2459 18.5457 14.4705 18.2713 14.4706C17.9969 14.4707 17.7735 14.2464 17.7705 13.9675L17.7486 11.9736C17.7485 11.9641 17.7487 11.9547 17.7491 11.9453C17.7626 11.6382 17.515 11.3599 17.159 11.3636L17.1418 11.3634C16.8321 11.3558 16.5409 11.6261 16.5368 11.9952L16.5233 13.3537C16.5205 13.6347 16.2941 13.8601 16.0177 13.8573C15.7412 13.8545 15.5194 13.6244 15.5222 13.3434L15.5425 11.3066L15.543 11.2891C15.5564 10.9821 15.3088 10.7038 14.9529 10.7074L14.9356 10.7073C14.6258 10.6996 14.3344 10.9702 14.3307 11.3397L14.3172 12.6976C14.3144 12.9786 14.088 13.204 13.8115 13.2012C13.5351 13.1983 13.3132 12.9682 13.316 12.6873L13.3664 7.63773C13.3679 7.48813 13.2856 7.30003 13.187 7.19984C13.0806 7.09174 12.9352 7.01568 12.7561 7.01753C12.4023 7.02117 12.0954 7.33314 12.0918 7.6927L12.0321 13.6758C12.032 13.6857 12.0316 13.6957 12.031 13.7056C12.0027 14.1227 11.7147 14.4146 11.3867 14.5042C11.0517 14.5957 10.65 14.4814 10.4313 14.1069C10.4153 14.0794 10.4018 14.0505 10.3911 14.0204L9.73791 12.1866C9.66601 12.0775 9.55651 12.0174 9.41746 12.0162C9.14937 12.0342 8.96561 12.2744 9.00784 12.529L9.75632 16.5272C9.83737 16.8249 9.90543 17.0658 10.0013 17.2637L10.0019 17.2649L11.5006 20.3803C11.9452 21.3703 12.9408 21.9938 14.0478 21.9824L16.1772 21.9604C17.3455 21.9484 18.4112 21.1979 18.8727 20.0783L19.7281 17.9502C19.7305 17.9443 19.7329 17.9385 19.7355 17.9328C19.8734 17.6229 19.9505 17.2267 19.9542 16.8618L19.9978 12.4912L19.9982 12.4737ZM14.3461 9.80173C14.5327 9.72593 14.7369 9.68579 14.9513 9.68992C15.5655 9.68682 16.1071 10.0304 16.3722 10.5449C16.6042 10.4136 16.8717 10.3406 17.1575 10.3461C17.7409 10.3431 18.2587 10.653 18.5364 11.125C18.7871 10.9615 19.0853 10.8683 19.4066 10.8745C20.2963 10.87 21.0337 11.593 20.9988 12.5094L20.9553 16.8721C20.9505 17.3527 20.8526 17.8878 20.6516 18.3432L19.7972 20.4691C19.1887 21.9477 17.7741 22.9615 16.1873 22.9779L14.058 22.9998C12.5786 23.015 11.2113 22.1804 10.5925 20.8091L9.10308 17.7131C8.95945 17.4165 8.86807 17.0807 8.79171 16.7997L8.78588 16.7783C8.78225 16.7649 8.77916 16.7514 8.77661 16.7378L8.02216 12.7077C7.86945 11.8227 8.52587 11.0402 9.37951 10.9993C9.38567 10.999 9.39184 10.9988 9.39801 10.9987C9.91037 10.9935 10.372 11.2557 10.6276 11.7159C10.6413 11.7406 10.653 11.7663 10.6624 11.7929L11.0391 12.8504L11.0907 7.68239C11.0998 6.76895 11.8472 6.00934 12.746 6.00009C13.235 5.99505 13.6294 6.21044 13.895 6.48036C14.1683 6.7582 14.372 7.20359 14.3675 7.64805L14.3461 9.80173Z" fill="#292B2E"/>
<path d="M4.14286 8.83636C4.90476 9.61212 5.83333 10 6.92857 10H9V8.90909H6.92857C6.14286 8.90909 5.47024 8.62424 4.91071 8.05454C4.35119 7.48485 4.07143 6.8 4.07143 6C4.07143 5.2 4.35119 4.51515 4.91071 3.94545C5.47024 3.37576 6.14286 3.09091 6.92857 3.09091H14.0714C14.8571 3.09091 15.5298 3.37576 16.0893 3.94545C16.6488 4.51515 16.9286 5.2 16.9286 6C16.9286 6.8 16.6488 7.48485 16.0893 8.05454C16.0593 8.08509 16.029 8.11481 15.9983 8.14371C15.9967 8.04235 15.9994 8.17737 15.9983 8.14371L16.8571 8.83636C17.619 8.06061 18 7.11515 18 6C18 4.88485 17.619 3.93939 16.8571 3.16364C16.0952 2.38788 15.1667 2 14.0714 2H6.92857C5.83333 2 4.90476 2.38788 4.14286 3.16364C3.38095 3.93939 3 4.88485 3 6C3 7.11515 3.38095 8.06061 4.14286 8.83636Z" fill="#292B2E"/>
<path d="M8.32143 7.41818C7.94048 7.80606 7.47619 8 6.92857 8C6.38095 8 5.91667 7.80606 5.53571 7.41818C5.15476 7.0303 4.96429 6.55758 4.96429 6C4.96429 5.44242 5.15476 4.9697 5.53571 4.58182C5.91667 4.19394 6.38095 4 6.92857 4C7.47619 4 7.94048 4.19394 8.32143 4.58182C8.70238 4.9697 8.89286 5.44242 8.89286 6C8.89286 6.55758 8.70238 7.0303 8.32143 7.41818Z" fill="#292B2E"/>
</svg>
