<svg width="160" height="160" viewBox="0 0 160 160" fill="none" xmlns="http://www.w3.org/2000/svg">
<line x1="61.9729" y1="130.824" x2="58.5117" y2="139.13" stroke="#A2A2A2" stroke-width="1.2" stroke-miterlimit="10" stroke-linecap="round" stroke-linejoin="round"/>
<path d="M58.5119 144.162C61.1116 144.162 63.2191 142.054 63.2191 139.454C63.2191 136.855 61.1116 134.747 58.5119 134.747C55.9121 134.747 53.8046 136.855 53.8046 139.454C53.8046 142.054 55.9121 144.162 58.5119 144.162Z" fill="white" stroke="#A2A2A2" stroke-width="1.2" stroke-miterlimit="10" stroke-linecap="round" stroke-linejoin="round"/>
<path d="M98.9157 117.487L117.352 65.707H136.966L124.021 117.487H98.9157Z" fill="#A2A2A2" stroke="#A2A2A2" stroke-width="1.2" stroke-linejoin="round"/>
<path d="M110.291 117.487H41.2518L34.9755 130.824H129.12" stroke="#A2A2A2" stroke-width="1.2" stroke-miterlimit="10" stroke-linecap="round" stroke-linejoin="round"/>
<path d="M60.8653 117.487L54.589 130.824" stroke="#A2A2A2" stroke-width="1.2" stroke-miterlimit="10" stroke-linecap="round" stroke-linejoin="round"/>
<path d="M41.252 117.487L28.3071 65.7075H123.237L110.292 117.487H41.252Z" fill="white"/>
<path d="M28.3071 65.7075L41.252 117.487H110.292L123.237 65.7075H104.8M28.3071 65.7075L23.5999 48.8398H14.1854M28.3071 65.7075H56.9428" stroke="#A2A2A2" stroke-width="1.2" stroke-miterlimit="10" stroke-linecap="round" stroke-linejoin="round"/>
<path d="M51.0588 65.7075L46.3516 48.8398H36.9371" stroke="#A2A2A2" stroke-width="1.2" stroke-miterlimit="10" stroke-linecap="round" stroke-linejoin="round"/>
<line x1="43.1437" y1="130.824" x2="39.6826" y2="139.13" stroke="#A2A2A2" stroke-width="1.2" stroke-miterlimit="10" stroke-linecap="round" stroke-linejoin="round"/>
<line x1="103.554" y1="130.824" x2="100.093" y2="139.13" stroke="#A2A2A2" stroke-width="1.2" stroke-miterlimit="10" stroke-linecap="round" stroke-linejoin="round"/>
<line x1="123.167" y1="130.824" x2="119.706" y2="139.13" stroke="#A2A2A2" stroke-width="1.2" stroke-miterlimit="10" stroke-linecap="round" stroke-linejoin="round"/>
<path d="M39.6827 144.162C42.2824 144.162 44.39 142.054 44.39 139.454C44.39 136.855 42.2824 134.747 39.6827 134.747C37.083 134.747 34.9755 136.855 34.9755 139.454C34.9755 142.054 37.083 144.162 39.6827 144.162Z" fill="white" stroke="#A2A2A2" stroke-width="1.2" stroke-miterlimit="10" stroke-linecap="round" stroke-linejoin="round"/>
<path d="M100.093 144.162C102.692 144.162 104.8 142.054 104.8 139.454C104.8 136.855 102.692 134.747 100.093 134.747C97.4928 134.747 95.3853 136.855 95.3853 139.454C95.3853 142.054 97.4928 144.162 100.093 144.162Z" fill="white" stroke="#A2A2A2" stroke-width="1.2" stroke-miterlimit="10" stroke-linecap="round" stroke-linejoin="round"/>
<path d="M119.706 144.162C122.306 144.162 124.414 142.054 124.414 139.454C124.414 136.855 122.306 134.747 119.706 134.747C117.107 134.747 114.999 136.855 114.999 139.454C114.999 142.054 117.107 144.162 119.706 144.162Z" fill="white" stroke="#A2A2A2" stroke-width="1.2" stroke-miterlimit="10" stroke-linecap="round" stroke-linejoin="round"/>
<line x1="21.4543" y1="144.346" x2="139.505" y2="144.346" stroke="#A2A2A2" stroke-width="1.2" stroke-miterlimit="10" stroke-linecap="round" stroke-linejoin="round"/>
<g filter="url(#filter0_b_605_5362)">
<path d="M59.1691 15.5542C59.685 15.0161 60.3982 14.7119 61.1436 14.7119H106.772C108.283 14.7119 109.507 15.9366 109.507 17.4474V42.1904C109.507 43.7011 108.283 44.9259 106.772 44.9259H55.756C54.2452 44.9259 53.0205 43.7011 53.0205 42.1904V23.0665C53.0205 22.3609 53.2931 21.6826 53.7814 21.1733L59.1691 15.5542Z" stroke="#292B2E" stroke-width="1.2" stroke-linecap="round" stroke-linejoin="round" stroke-dasharray="6.84 6.84"/>
</g>
<path d="M65.5599 32.0857C65.5919 32.5132 65.7095 32.9086 65.9125 33.272C66.1263 33.6354 66.4149 33.9293 66.7782 34.1537C67.1416 34.3674 67.5531 34.4743 68.0126 34.4743C68.5684 34.4743 69.0333 34.3407 69.4074 34.0735C69.7921 33.7957 70.0486 33.4697 70.1769 33.0956L71.5235 33.5285C71.2884 34.1911 70.8716 34.7362 70.2731 35.1637C69.6746 35.5805 68.9211 35.7889 68.0126 35.7889C67.2431 35.7889 66.5538 35.6072 65.9446 35.2438C65.3461 34.8698 64.8758 34.3621 64.5338 33.7209C64.2025 33.0796 64.0369 32.3689 64.0369 31.5887C64.0369 30.8192 64.2079 30.1191 64.5499 29.4886C64.9026 28.8473 65.3782 28.345 65.9767 27.9816C66.5859 27.6076 67.2592 27.4205 67.9966 27.4205C68.7447 27.4205 69.3967 27.5915 69.9524 27.9335C70.5189 28.2649 70.9571 28.7351 71.267 29.3443C71.5769 29.9535 71.7319 30.6589 71.7319 31.4604V32.0857H65.5599ZM70.3212 30.8512C70.2784 30.2848 70.0486 29.7932 69.6318 29.3764C69.2257 28.9489 68.686 28.7351 68.0126 28.7351C67.3393 28.7351 66.7889 28.9382 66.3614 29.3443C65.9339 29.7504 65.6721 30.2527 65.5759 30.8512H70.3212ZM77.3341 35.7729C76.2226 35.7729 75.3035 35.5057 74.5767 34.9713C73.85 34.4262 73.353 33.6247 73.0858 32.5666L74.5927 32.1338C74.7851 32.8819 75.1004 33.4376 75.5386 33.801C75.9768 34.1537 76.5753 34.33 77.3341 34.33C78.0609 34.33 78.6487 34.1697 79.0975 33.8491C79.5571 33.5285 79.7869 33.0689 79.7869 32.4704C79.7869 32.0215 79.6212 31.6475 79.2899 31.3482C78.9693 31.0383 78.328 30.7925 77.3662 30.6108C76.0837 30.3863 75.1111 30.0176 74.4485 29.5046C73.7858 28.9809 73.4545 28.2595 73.4545 27.3404C73.4545 26.6991 73.6202 26.1327 73.9515 25.6411C74.2935 25.1494 74.7584 24.77 75.3462 24.5028C75.934 24.2357 76.5967 24.1021 77.3341 24.1021C78.3601 24.1021 79.1937 24.3692 79.835 24.9036C80.4869 25.438 80.9358 26.1915 81.1816 27.164L79.6907 27.5969C79.5304 26.9236 79.2632 26.4159 78.8891 26.0739C78.5151 25.7212 77.9967 25.5449 77.3341 25.5449C76.6501 25.5449 76.0997 25.7052 75.6829 26.0258C75.2661 26.3358 75.0577 26.7739 75.0577 27.3404C75.0577 27.8427 75.2607 28.2168 75.6668 28.4626C76.073 28.7084 76.7303 28.9168 77.6387 29.0878C78.9212 29.355 79.8671 29.7558 80.4762 30.2901C81.0854 30.8138 81.39 31.5406 81.39 32.4704C81.39 33.133 81.2083 33.7155 80.845 34.2178C80.4923 34.7094 80.006 35.0942 79.3861 35.3721C78.7769 35.6393 78.0929 35.7729 77.3341 35.7729ZM83.2907 24.3425H84.8939V35.5645H83.2907V24.3425ZM98.8076 35.5645H97.2205V27.3083L93.6936 35.5645H92.5072L89.0124 27.3404L88.9964 35.5645H87.4093V24.3425H89.2369L93.1164 33.4163L96.98 24.3425H98.8236L98.8076 35.5645Z" fill="#292B2E"/>
<path d="M82.0483 53.9395V78.2602M82.0483 78.2602L73.4184 69.4341M82.0483 78.2602L90.6783 69.4341" stroke="#292B2E" stroke-width="1.2" stroke-linecap="round" stroke-linejoin="round"/>
<defs>
<filter id="filter0_b_605_5362" x="-13.492" y="-51.8002" width="189.512" height="163.238" filterUnits="userSpaceOnUse" color-interpolation-filters="sRGB">
<feFlood flood-opacity="0" result="BackgroundImageFix"/>
<feGaussianBlur in="BackgroundImageFix" stdDeviation="32.9562"/>
<feComposite in2="SourceAlpha" operator="in" result="effect1_backgroundBlur_605_5362"/>
<feBlend mode="normal" in="SourceGraphic" in2="effect1_backgroundBlur_605_5362" result="shape"/>
</filter>
</defs>
</svg>
