<svg width="37" height="16" viewBox="0 0 37 16" fill="none" xmlns="http://www.w3.org/2000/svg">
<g clip-path="url(#clip0_1088_61650)">
<path d="M11.6002 4.12446C11.4638 4.24293 11.3262 4.36033 11.1914 4.48098C10.715 4.90815 10.3572 5.40489 10.2311 6.02446C10.1403 6.43138 10.1433 6.85209 10.24 7.25779C10.3367 7.66349 10.5247 8.04459 10.7913 8.375C11.0659 8.72772 11.3933 9.02065 11.829 9.19022C11.88 9.20978 11.9316 9.22717 11.9941 9.25C11.9368 9.3962 11.8875 9.54022 11.8261 9.68044C11.4712 10.4957 11.0097 11.25 10.3796 11.9043C10.2605 12.0253 10.1319 12.1376 9.99488 12.2402C9.53621 12.5935 9.0202 12.7293 8.43826 12.5663C8.14815 12.4859 7.86148 12.3957 7.57252 12.3114C7.27814 12.2171 6.9713 12.1622 6.6609 12.1484C6.27218 12.1397 5.91556 12.25 5.55435 12.375C5.28399 12.4761 5.00754 12.562 4.72645 12.6321C4.28326 12.7326 3.88192 12.6033 3.51498 12.3674C3.15387 12.1253 2.8429 11.8222 2.59763 11.4734C1.95855 10.6204 1.47859 9.66985 1.17861 8.66304C0.909425 7.76966 0.844722 6.83206 0.988837 5.91304C1.11841 5.09402 1.44063 4.35489 2.04723 3.74402C2.6779 3.11141 3.45478 2.85109 4.3641 2.93696C4.81704 2.97935 5.24934 3.1038 5.68278 3.22337C5.86339 3.27337 6.048 3.31087 6.2309 3.35489C6.48703 3.4096 6.75405 3.39701 7.00319 3.31848C7.36038 3.21956 7.71298 3.10706 8.06731 3.00761C8.5888 2.85286 9.14233 2.82151 9.67954 2.9163C10.3859 3.04565 10.9443 3.40543 11.4116 3.90978C11.4689 3.97283 11.5263 4.03696 11.5836 4.10109C11.5899 4.10839 11.5954 4.11621 11.6002 4.12446V4.12446Z" fill="#7E7E86"/>
<path d="M8.94386 0C8.95898 0.140284 8.96549 0.281283 8.96336 0.422283C8.91476 1.14644 8.59303 1.82989 8.0569 2.34783C7.81209 2.5913 7.5409 2.80489 7.20721 2.93043C6.92054 3.03913 6.62068 3.05978 6.31853 3.08098C6.31395 3.08098 6.30879 3.07609 6.3042 3.07391C6.3472 1.41033 7.23187 0.334239 8.94386 0Z" fill="#7E7E86"/>
<path d="M15.3726 1.9777C16.2935 1.83578 17.2254 1.76688 18.1584 1.77172C19.5918 1.77172 20.6433 2.08803 21.3118 2.65705C21.9287 3.16303 22.2957 3.93803 22.2957 4.88531C22.2957 5.84944 21.9952 6.60868 21.4282 7.16194C20.6593 7.93748 19.4089 8.33368 17.991 8.33368C17.5576 8.33368 17.1574 8.31792 16.8237 8.23911V12.5076H15.3726V1.9777ZM16.8237 7.1152C17.1402 7.19455 17.5409 7.2239 18.0243 7.2239C19.7752 7.2239 20.8428 6.41792 20.8428 4.94727C20.8428 3.5402 19.7924 2.86085 18.1911 2.86085C17.5576 2.86085 17.0737 2.90814 16.8237 2.96955V7.1152Z" fill="#7E7E86"/>
<path d="M27.5288 12.5065L27.4142 11.5418H27.3643C26.9136 12.1429 26.0456 12.6804 24.8955 12.6804C23.2615 12.6804 22.4272 11.5897 22.4272 10.4826C22.4272 8.63477 24.1622 7.62119 27.2806 7.63695V7.4788C27.2806 6.84673 27.0971 5.70814 25.4459 5.70814C24.6954 5.70814 23.9116 5.92988 23.3446 6.27771L23.0109 5.36086C23.6783 4.94945 24.6455 4.68097 25.6626 4.68097C28.1314 4.68097 28.7317 6.27771 28.7317 7.81086V10.6706C28.7317 11.3348 28.765 11.9831 28.8647 12.5049L27.5288 12.5065ZM27.3121 8.60162C25.7113 8.5701 23.8933 8.83858 23.8933 10.3244C23.8933 11.2255 24.5268 11.6527 25.2779 11.6527C26.3283 11.6527 26.9979 11.0201 27.2273 10.3723C27.279 10.2296 27.307 10.0802 27.3104 9.92934L27.3121 8.60162Z" fill="#7E7E86"/>
<path d="M30.6794 4.85541L32.447 9.3766C32.6305 9.88258 32.8306 10.4831 32.963 10.9418H32.9962C33.1465 10.4831 33.3133 9.89834 33.5123 9.34508L35.1159 4.85541H36.6668L34.4651 10.3092C33.4142 12.9337 32.6975 14.2766 31.6965 15.0994C30.9798 15.7005 30.2631 15.9375 29.8956 16.0005L29.5287 14.8309C29.9987 14.6831 30.4346 14.4516 30.813 14.1489C31.3456 13.7303 31.7681 13.1998 32.0468 12.5994C32.1139 12.457 32.1615 12.3467 32.1615 12.2674C32.1615 12.188 32.1282 12.0777 32.0611 11.9038L29.0786 4.85541H30.6794Z" fill="#7E7E86"/>
</g>
<defs>
<clipPath id="clip0_1088_61650">
<rect width="35.7547" height="16" fill="white" transform="translate(0.912109)"/>
</clipPath>
</defs>
</svg>
