<svg width="24" height="24" viewBox="0 0 24 24" fill="none" xmlns="http://www.w3.org/2000/svg">
<g id="Icons/interface / bolt">
<path id="vector" d="M10.4164 17.5376L15.1207 11.9015H11.4845L12.1436 6.74266L7.93922 12.8105H11.0982L10.4164 17.5376ZM9.53185 14.1741H6.76624C6.4609 14.1741 6.23714 14.0389 6.09495 13.7685C5.95278 13.4981 5.97026 13.2377 6.14741 12.9871L12.1033 4.39494C12.2257 4.22363 12.3819 4.1065 12.5718 4.04357C12.7618 3.98063 12.9593 3.98588 13.1645 4.05932C13.3696 4.13274 13.5196 4.25831 13.6146 4.43603C13.7096 4.61376 13.7448 4.80518 13.7204 5.01029L13.0368 10.5379H16.4283C16.7522 10.5379 16.9807 10.683 17.1135 10.9732C17.2464 11.2634 17.2073 11.5338 16.9964 11.7844L10.4111 19.672C10.2795 19.8282 10.1186 19.9293 9.92865 19.9753C9.73869 20.0214 9.55339 20.003 9.37274 19.9202C9.1921 19.8375 9.05196 19.7111 8.95233 19.5409C8.85269 19.3708 8.8151 19.1831 8.83957 18.978L9.53185 14.1741Z" fill="#292B2E"/>
</g>
</svg>
