<svg width="24" height="24" viewBox="0 0 24 24" fill="none" xmlns="http://www.w3.org/2000/svg">
<path d="M18.581 10.6286L18.3714 10.1524L17.8952 9.94286C17.7937 9.89206 17.7429 9.81587 17.7429 9.71429C17.7429 9.6127 17.7937 9.53651 17.8952 9.48571L18.3714 9.27619L18.581 8.8C18.6317 8.69841 18.7079 8.64762 18.8095 8.64762C18.9111 8.64762 18.9873 8.69841 19.0381 8.8L19.2476 9.27619L19.7238 9.48571C19.8254 9.53651 19.8762 9.6127 19.8762 9.71429C19.8762 9.81587 19.8254 9.89206 19.7238 9.94286L19.2476 10.1524L19.0381 10.6286C18.9873 10.7302 18.9111 10.781 18.8095 10.781C18.7079 10.781 18.6317 10.7302 18.581 10.6286ZM14.6762 14.0571L14.1429 12.8571L12.9429 12.3238C12.7905 12.2603 12.7143 12.1524 12.7143 12C12.7143 11.8476 12.7905 11.7397 12.9429 11.6762L14.1429 11.1429L14.6762 9.94286C14.7397 9.79048 14.8476 9.71429 15 9.71429C15.1524 9.71429 15.2603 9.79048 15.3238 9.94286L15.8571 11.1429L17.0571 11.6762C17.2095 11.7397 17.2857 11.8476 17.2857 12C17.2857 12.1524 17.2095 12.2603 17.0571 12.3238L15.8571 12.8571L15.3238 14.0571C15.2603 14.2095 15.1524 14.2857 15 14.2857C14.8476 14.2857 14.7397 14.2095 14.6762 14.0571ZM18.581 15.2L18.3714 14.7238L17.8952 14.5143C17.7937 14.4635 17.7429 14.3873 17.7429 14.2857C17.7429 14.1841 17.7937 14.1079 17.8952 14.0571L18.3714 13.8476L18.581 13.3714C18.6317 13.2698 18.7079 13.219 18.8095 13.219C18.9111 13.219 18.9873 13.2698 19.0381 13.3714L19.2476 13.8476L19.7238 14.0571C19.8254 14.1079 19.8762 14.1841 19.8762 14.2857C19.8762 14.3873 19.8254 14.4635 19.7238 14.5143L19.2476 14.7238L19.0381 15.2C18.9873 15.3016 18.9111 15.3524 18.8095 15.3524C18.7079 15.3524 18.6317 15.3016 18.581 15.2ZM15.7619 17.9048H8.14286V18.6286C8.14286 18.6921 8.16521 18.7462 8.2099 18.7909C8.2541 18.835 8.30794 18.8571 8.37143 18.8571H15.5333C15.5968 18.8571 15.6509 18.835 15.6956 18.7909C15.7398 18.7462 15.7619 18.6921 15.7619 18.6286V17.9048ZM15.7619 6.09524V5.37143C15.7619 5.30794 15.7398 5.25384 15.6956 5.20914C15.6509 5.16495 15.5968 5.14286 15.5333 5.14286H8.37143C8.30794 5.14286 8.2541 5.16495 8.2099 5.20914C8.16521 5.25384 8.14286 5.30794 8.14286 5.37143V6.09524H15.7619ZM8.37143 20C7.99048 20 7.66667 19.8667 7.4 19.6C7.13333 19.3333 7 19.0095 7 18.6286V5.37143C7 4.99048 7.13333 4.66667 7.4 4.4C7.66667 4.13333 7.99048 4 8.37143 4H15.5333C15.9143 4 16.2381 4.13333 16.5048 4.4C16.7714 4.66667 16.9048 4.99048 16.9048 5.37143V8.15238H15.7619V7.2381H8.14286V16.7619H15.7619V15.8476H16.9048V18.6286C16.9048 19.0095 16.7714 19.3333 16.5048 19.6C16.2381 19.8667 15.9143 20 15.5333 20H8.37143Z" fill="#292B2E"/>
</svg>
