<?xml version="1.0" encoding="utf-8"?> 
<svg width="69" height="67" viewBox="0 0 69 67" fill="none" xmlns="http://www.w3.org/2000/svg">
<mask id="mask0" mask-type="alpha" maskUnits="userSpaceOnUse" x="0" y="0" width="69" height="67">
<path fill-rule="evenodd" clip-rule="evenodd" d="M0 0H68.7426V66.0505H0V0Z" fill="white"/>
</mask>
<g mask="url(#mask0)">
<path fill-rule="evenodd" clip-rule="evenodd" d="M34.4637 5.269V7.69785C32.8153 7.41015 31.1227 7.25124 29.3932 7.25124C27.6637 7.25124 25.9716 7.41015 24.3226 7.69785V5.269H34.4637ZM22.5314 4.95741V0.311071H25.0272V4.95741H24.3226H24.0116H22.5314ZM33.7597 0.311071H36.255V4.95741H34.7753H34.4637H33.7597V0.311071ZM30.9524 4.95741H33.4482V0.311071H30.9524V4.95741ZM28.1455 4.95741H30.6413V0.311071H28.1455V4.95741ZM25.3382 4.95741H27.834V0.311071H25.3382V4.95741ZM0.311522 36.6509C0.311522 36.6239 0.313599 36.5979 0.313599 36.5709C0.314638 36.1263 0.32606 35.6844 0.347348 35.2445C0.354616 35.0851 0.368635 34.9272 0.379019 34.7683C0.398749 34.4583 0.420036 34.1483 0.449631 33.8408C0.466245 33.6679 0.487533 33.4965 0.507262 33.3246C0.541011 33.0286 0.577355 32.7331 0.61993 32.4397C0.643813 32.2756 0.670292 32.112 0.696772 31.949C0.747135 31.641 0.801651 31.3336 0.86136 31.0287C0.888877 30.889 0.916914 30.7498 0.94599 30.6107C1.01972 30.2632 1.09967 29.9184 1.18534 29.5757C1.20819 29.4843 1.22999 29.3934 1.25336 29.3025C3.66558 20.0696 10.5087 12.6101 19.3658 9.34564C19.4504 9.315 19.5366 9.28696 19.6223 9.25684C19.9359 9.14415 20.2516 9.03665 20.5703 8.93538C20.8107 8.85904 21.0532 8.78842 21.2967 8.71831C21.4603 8.67105 21.6238 8.62275 21.7879 8.57861C22.1046 8.49292 22.4239 8.41347 22.7448 8.33869C22.8372 8.31688 22.9296 8.29506 23.0225 8.27429C23.386 8.19328 23.752 8.11798 24.1212 8.05047C25.8325 7.73576 27.5926 7.56283 29.3932 7.56283C31.1943 7.56283 32.9544 7.73576 34.6657 8.05047C35.0343 8.11798 35.4004 8.19328 35.7638 8.27429C35.8573 8.29506 35.9497 8.31688 36.0421 8.33869C36.363 8.41347 36.6818 8.49292 36.9985 8.57861C37.1636 8.62275 37.3271 8.67105 37.4912 8.71883C37.7337 8.78842 37.9761 8.85904 38.216 8.93486C38.5353 9.03665 38.852 9.14467 39.1662 9.25736C39.2508 9.28696 39.3365 9.315 39.4206 9.34564C48.2798 12.6111 55.1249 20.0732 57.5351 29.3093C57.5569 29.3929 57.5766 29.477 57.5974 29.5606C57.6857 29.9111 57.7672 30.2643 57.8425 30.6195C57.8705 30.7519 57.897 30.8849 57.9229 31.0183C57.9842 31.3299 58.0403 31.6441 58.0917 31.9593C58.1171 32.1167 58.1426 32.2735 58.1654 32.4319C58.2095 32.7331 58.2469 33.0364 58.2812 33.3402C58.2999 33.5048 58.3206 33.6684 58.3362 33.833C58.3674 34.1524 58.3892 34.4734 58.4099 34.7953C58.4193 34.9433 58.4323 35.0903 58.4395 35.2383C58.4619 35.7067 58.4754 36.1772 58.4754 36.6509C58.4754 49.6826 49.8628 60.7405 38.0317 64.4292C37.1221 64.7127 36.1927 64.9532 35.2472 65.1469C34.3012 65.3411 33.3391 65.4891 32.3625 65.5888C31.3859 65.688 30.3958 65.7389 29.3932 65.7389C28.8922 65.7389 28.3942 65.7264 27.8989 65.7015C12.5549 64.9204 0.311522 52.1888 0.311522 36.6509ZM44.7315 7.75238V5.269H46.5233V0H36.5665H32.1766H22.2199V5.269H24.0116V7.75238C23.9929 7.75549 23.9753 7.76017 23.9571 7.7638C23.5942 7.83183 23.2344 7.90713 22.8767 7.98867C22.7713 8.01204 22.6664 8.03644 22.5615 8.06137C22.2567 8.13459 21.9535 8.21093 21.6524 8.29351C21.4727 8.3418 21.2941 8.39425 21.116 8.44619C20.8881 8.51318 20.6596 8.58017 20.4338 8.65287C20.1337 8.74791 19.8378 8.85021 19.5423 8.95512C19.4369 8.99251 19.3305 9.02782 19.2251 9.06625C10.1645 12.3909 3.3551 19.9724 0.950144 29.2319C0.927299 29.3191 0.90705 29.4069 0.884724 29.4947C0.796978 29.8452 0.714944 30.1973 0.640179 30.5525C0.610584 30.6917 0.583066 30.8319 0.555548 30.9716C0.495321 31.2806 0.439247 31.5917 0.388884 31.9038C0.361885 32.0684 0.335406 32.233 0.311522 32.3992C0.268429 32.6957 0.231565 32.9938 0.197298 33.2929C0.177568 33.4664 0.15628 33.6393 0.139666 33.8133C0.109552 34.1249 0.0882647 34.438 0.0680157 34.7522C0.0576317 34.9122 0.0436131 35.0706 0.0358251 35.231C0.0145377 35.6761 0.00311522 36.1232 0.00207682 36.573C0.00207682 36.5989 0 36.6249 0 36.6509C0 52.8094 13.1016 65.9622 29.2379 66.0463V66.0505H39.5052V66.0463C55.641 65.9622 68.7426 52.8094 68.7426 36.6509C68.7426 22.4615 58.6529 10.3292 44.7315 7.75238Z" fill="#292B2E"/>
</g>
<path fill-rule="evenodd" clip-rule="evenodd" d="M8.06584 37.1679H12.1409V36.8501H8.06584C8.15163 25.7643 17.1513 16.7646 28.237 16.6788V20.7539H28.5547V16.6788C39.6409 16.7646 48.6406 25.7643 48.7258 36.8501H44.6507V37.1679H48.7258C48.6406 48.2542 39.6409 57.2535 28.5547 57.3393V53.2641H28.237V57.3393C17.1513 57.2535 8.15163 48.2542 8.06584 37.1679ZM49.0478 37.009C49.0478 25.6213 39.7834 16.3573 28.3958 16.3573C17.0083 16.3573 7.74438 25.6213 7.74438 37.009C7.74438 48.3967 17.0083 57.6607 28.3958 57.6607C39.7834 57.6607 49.0478 48.3967 49.0478 37.009Z" fill="#292B2E"/>
<path fill-rule="evenodd" clip-rule="evenodd" d="M28.129 35.4407C27.8853 35.6856 27.7507 36.0112 27.7507 36.358C27.7507 36.7039 27.8853 37.0299 28.129 37.2748C28.3727 37.5197 28.6968 37.6544 29.0419 37.6544C29.3862 37.6544 29.7107 37.5197 29.9544 37.2748C30.1981 37.0299 30.3322 36.7039 30.3322 36.358C30.3322 36.0112 30.1981 35.6856 29.9544 35.4407C29.4666 34.9501 28.6159 34.9506 28.129 35.4407Z" fill="#292B2E"/>
<path fill-rule="evenodd" clip-rule="evenodd" d="M27.4173 45.0659C27.8508 44.6322 28.4281 44.3934 29.0415 44.3934C29.6548 44.3934 30.2321 44.6322 30.666 45.0659C31.5611 45.9611 31.5611 47.4179 30.666 48.313C30.2321 48.7468 29.6548 48.9856 29.0415 48.9856C28.4281 48.9856 27.8508 48.7468 27.4173 48.313C26.5218 47.4179 26.5218 45.9611 27.4173 45.0659ZM29.0415 49.271C29.7315 49.271 30.3801 49.0022 30.8673 48.5147C31.8747 47.5083 31.8747 45.8707 30.8673 44.8643C30.3801 44.3768 29.7315 44.108 29.0415 44.108C28.3515 44.108 27.7029 44.3768 27.2156 44.8643C26.2082 45.8707 26.2082 47.5083 27.2151 48.5147C27.7029 49.0022 28.3515 49.271 29.0415 49.271Z" fill="#292B2E"/>
<path fill-rule="evenodd" clip-rule="evenodd" d="M16.227 48.5327L25.8584 34.4713L39.9198 24.8394L30.2884 38.9008L16.227 48.5327ZM40.658 24.3213L40.4385 24.1017L25.6557 34.2275L15.4888 49.0514L15.7083 49.271L30.4911 39.1451L40.658 24.3213Z" fill="#292B2E"/>
</svg>
