<svg width="161" height="160" viewBox="0 0 161 160" fill="none" xmlns="http://www.w3.org/2000/svg">
<path d="M77.133 28H30.1998C26.9596 28 24.333 30.929 24.333 34.5417V126.125C24.333 129.738 26.9596 132.667 30.1998 132.667H77.133C80.3731 132.667 82.9997 129.738 82.9997 126.125V34.5417C82.9997 30.929 80.3731 28 77.133 28Z" fill="#292B2E" stroke="#292B2E" stroke-width="1.2" stroke-linecap="round" stroke-linejoin="round"/>
<path d="M71.7992 28H24.866C21.6259 28 18.9993 30.929 18.9993 34.5417V126.125C18.9993 129.738 21.6259 132.667 24.866 132.667H71.7992C75.0394 132.667 77.666 129.738 77.666 126.125V34.5417C77.666 30.929 75.0394 28 71.7992 28Z" fill="white" stroke="#292B2E" stroke-width="1.2" stroke-linecap="round" stroke-linejoin="round"/>
<path d="M41.6662 33.334H54.9995" stroke="#292B2E" stroke-width="1.2" stroke-linecap="round" stroke-linejoin="round"/>
<g filter="url(#filter0_b_605_5339)">
<path d="M106.123 67.4871C106.626 66.9626 107.321 66.666 108.048 66.666H146.333C147.806 66.666 149 67.8599 149 69.3327V89.6738C149 91.1465 147.806 92.3404 146.333 92.3404H103.666C102.193 92.3404 101 91.1465 101 89.6738V73.9029C101 73.2151 101.265 72.5538 101.741 72.0574L106.123 67.4871Z" fill="white"/>
<path d="M106.123 67.4871C106.626 66.9626 107.321 66.666 108.048 66.666H146.333C147.806 66.666 149 67.8599 149 69.3327V89.6738C149 91.1465 147.806 92.3404 146.333 92.3404H103.666C102.193 92.3404 101 91.1465 101 89.6738V73.9029C101 73.2151 101.265 72.5538 101.741 72.0574L106.123 67.4871Z" stroke="#292B2E" stroke-width="1.2" stroke-linecap="round" stroke-linejoin="round" stroke-dasharray="6.67 6.67"/>
</g>
<path d="M109.371 81.6468C109.402 82.0636 109.517 82.4491 109.715 82.8033C109.923 83.1575 110.204 83.444 110.558 83.6628C110.913 83.8712 111.314 83.9754 111.762 83.9754C112.304 83.9754 112.757 83.8452 113.121 83.5847C113.496 83.3138 113.747 82.996 113.872 82.6314L115.184 83.0533C114.955 83.6993 114.549 84.2306 113.965 84.6474C113.382 85.0537 112.647 85.2569 111.762 85.2569C111.012 85.2569 110.34 85.0798 109.746 84.7255C109.162 84.3609 108.704 83.866 108.371 83.2409C108.048 82.6158 107.886 81.9229 107.886 81.1624C107.886 80.4122 108.053 79.7298 108.386 79.1151C108.73 78.49 109.194 78.0003 109.777 77.6461C110.371 77.2814 111.027 77.0991 111.746 77.0991C112.475 77.0991 113.111 77.2658 113.653 77.5992C114.205 77.9222 114.632 78.3806 114.934 78.9745C115.236 79.5683 115.387 80.2559 115.387 81.0373V81.6468H109.371ZM114.012 80.4435C113.971 79.8913 113.747 79.412 113.34 79.0057C112.944 78.589 112.418 78.3806 111.762 78.3806C111.105 78.3806 110.569 78.5786 110.152 78.9745C109.735 79.3704 109.48 79.86 109.386 80.4435H114.012ZM120.849 85.2412C119.765 85.2412 118.869 84.9808 118.161 84.4599C117.452 83.9285 116.968 83.1471 116.707 82.1157L118.176 81.6937C118.364 82.423 118.671 82.9648 119.098 83.319C119.526 83.6628 120.109 83.8347 120.849 83.8347C121.557 83.8347 122.13 83.6785 122.568 83.3659C123.016 83.0533 123.24 82.6053 123.24 82.0219C123.24 81.5843 123.078 81.2197 122.755 80.9279C122.443 80.6258 121.818 80.3862 120.88 80.2091C119.63 79.9903 118.682 79.6308 118.036 79.1307C117.39 78.6202 117.067 77.917 117.067 77.021C117.067 76.3959 117.228 75.8437 117.551 75.3644C117.885 74.8852 118.338 74.5153 118.911 74.2548C119.484 73.9944 120.13 73.8641 120.849 73.8641C121.849 73.8641 122.662 74.1246 123.287 74.6455C123.922 75.1665 124.36 75.901 124.599 76.8491L123.146 77.271C122.99 76.6146 122.729 76.1198 122.365 75.7864C122 75.4426 121.495 75.2706 120.849 75.2706C120.182 75.2706 119.645 75.4269 119.239 75.7395C118.833 76.0416 118.63 76.4688 118.63 77.021C118.63 77.5106 118.827 77.8753 119.223 78.1149C119.619 78.3546 120.26 78.5577 121.146 78.7244C122.396 78.9849 123.318 79.3756 123.912 79.8965C124.506 80.407 124.803 81.1155 124.803 82.0219C124.803 82.6679 124.625 83.2357 124.271 83.7253C123.927 84.2046 123.453 84.5797 122.849 84.8506C122.255 85.111 121.588 85.2412 120.849 85.2412ZM126.655 74.0986H128.218V85.0381H126.655V74.0986ZM141.782 85.0381H140.235V76.9897L136.796 85.0381H135.64L132.233 77.021L132.218 85.0381H130.67V74.0986H132.452L136.234 82.9439L140 74.0986H141.797L141.782 85.0381Z" fill="#292B2E"/>
<path d="M85.8739 67.1964C85.2782 66.0215 84.4324 65.0004 83.3977 64.2069C82.363 63.4134 81.1652 62.8673 79.8909 62.6082C78.6166 62.349 77.2976 62.3833 76.0294 62.7084C74.7611 63.0336 73.5753 63.6415 72.5575 64.4883C72.2251 63.2838 71.648 62.1677 70.8636 61.212C70.0792 60.2564 69.1049 59.4823 68.0036 58.9399C66.9023 58.3975 65.6985 58.0988 64.4698 58.0631C63.2411 58.0273 62.015 58.2553 60.8704 58.7324C59.7259 59.2094 58.6884 59.9249 57.8251 60.8326C56.9617 61.7404 56.2915 62.8202 55.8579 64.0024C55.4242 65.1845 55.2367 66.4428 55.3075 67.6959C55.3783 68.9491 55.7057 70.1692 56.2687 71.2776L65.0248 88.5558L82.0692 79.3526C83.0967 78.7979 84.0102 78.0433 84.7575 77.1322C85.5048 76.221 86.0713 75.1711 86.4246 74.0422C86.7778 72.9134 86.9111 71.7278 86.8166 70.5532C86.7221 69.3786 86.4018 68.2379 85.8739 67.1964Z" fill="#FFCCB0"/>
<path d="M99.5574 73.5928C98.4251 72.9196 97.164 72.5102 95.8652 72.3941C94.5664 72.2781 93.2625 72.4584 92.0475 72.922C90.8326 73.3855 89.737 74.1208 88.8401 75.0745C87.9431 76.0283 87.2672 77.1767 86.8611 78.4369C85.9354 77.5977 84.8503 76.9642 83.6761 76.5771C82.5019 76.1901 81.2646 76.0582 80.044 76.1899C78.8235 76.3216 77.6468 76.714 76.5901 77.3418C75.5333 77.9695 74.6198 78.8187 73.9087 79.8345C73.1976 80.8503 72.7046 82.0102 72.4616 83.2391C72.2185 84.4681 72.2308 85.7389 72.4977 86.9695C72.7645 88.2001 73.28 89.3631 74.0108 90.3835C74.7417 91.4039 75.6716 92.259 76.7406 92.8936L93.3883 102.796L102.854 85.8965C103.425 84.8777 103.792 83.7513 103.935 82.5817C104.079 81.412 103.995 80.2219 103.689 79.0794C103.382 77.9369 102.86 76.8643 102.151 75.9229C101.442 74.9815 100.561 74.1897 99.5574 73.5928Z" fill="#FFCCB0"/>
<path d="M73.7318 89.9163C74.4475 90.9532 75.3659 91.8278 76.4278 92.4834L92.9639 102.714L102.76 85.9168C103.351 84.9043 103.739 83.7801 103.903 82.6086C104.068 81.4371 104.004 80.2412 103.717 79.0891C103.43 77.937 102.924 76.8513 102.229 75.894C101.534 74.9368 100.663 74.1267 99.6663 73.51C98.5416 72.8145 97.283 72.3815 95.9815 72.2424C94.6799 72.1032 93.3679 72.2614 92.1404 72.7054C90.9129 73.1495 89.8004 73.8683 88.8835 74.8099C87.9666 75.7515 87.268 76.8924 86.8385 78.1501C85.9239 77.2916 84.846 76.6368 83.6742 76.2278C82.5024 75.8188 81.2628 75.6647 80.0354 75.7756C78.8081 75.8865 77.6202 76.2598 76.5485 76.8714C75.4769 77.483 74.5452 78.3194 73.8137 79.3265C73.0822 80.3336 72.5671 81.4891 72.3017 82.7184C72.1799 83.2824 72.1119 83.8563 72.0978 84.4319" stroke="#292B2E" stroke-width="1.2" stroke-miterlimit="10" stroke-linecap="round" stroke-linejoin="round"/>
<path d="M86.0138 67.2401L86.549 66.9689L86.5489 66.9688L86.0138 67.2401ZM83.528 64.2391L83.1629 64.7153L83.528 64.2391ZM80.0077 62.6343L79.8882 63.2223L80.0077 62.6343ZM72.6461 64.5216L72.0678 64.6813C72.122 64.8777 72.2722 65.0332 72.4667 65.0942C72.6611 65.1551 72.8732 65.1132 73.0299 64.9829L72.6461 64.5216ZM70.9457 61.2328L70.4819 61.6134L70.4819 61.6134L70.9457 61.2328ZM68.0747 58.9519L68.3398 58.4136L68.0747 58.9519ZM64.5273 58.0717L64.5447 57.4719L64.5273 58.0717ZM60.914 58.7435L61.1449 59.2974L61.1449 59.2974L60.914 58.7435ZM57.8569 60.8519L58.2917 61.2654L58.2917 61.2654L57.8569 60.8519ZM55.8822 64.0338L56.4455 64.2405L55.8822 64.0338ZM56.2946 71.3371L56.8298 71.0658L56.8295 71.0653L56.2946 71.3371ZM65.0845 88.6819L64.5493 88.9531C64.6224 89.0975 64.7508 89.2061 64.9052 89.2545C65.0597 89.3028 65.2271 89.2867 65.3695 89.2098L65.0845 88.6819ZM86.9601 70.6099L87.5582 70.5618L87.5582 70.5618L86.9601 70.6099ZM79.8981 81.365C80.1896 81.2076 80.2984 80.8436 80.1409 80.552C79.9835 80.2604 79.6195 80.1517 79.3279 80.3091L79.8981 81.365ZM84.7598 76.4036L84.4093 76.8906L85.3834 77.5915L85.7338 77.1045L84.7598 76.4036ZM86.5489 66.9688C85.9107 65.7101 85.0039 64.6148 83.8932 63.763L83.1629 64.7153C84.1296 65.4566 84.9208 66.4113 85.4786 67.5115L86.5489 66.9688ZM83.8932 63.763C82.7824 62.9112 81.496 62.3247 80.1273 62.0463L79.8882 63.2223C81.0778 63.4642 82.1963 63.974 83.1629 64.7153L83.8932 63.763ZM80.1273 62.0463C78.7586 61.768 77.3427 61.805 75.9824 62.1537L76.2804 63.3161C77.4663 63.0121 78.6985 62.9803 79.8882 63.2223L80.1273 62.0463ZM75.9824 62.1537C74.6221 62.5025 73.3517 63.1541 72.2624 64.0604L73.0299 64.9829C73.984 64.1891 75.0944 63.6202 76.2804 63.3161L75.9824 62.1537ZM73.2245 64.362C72.8687 63.0729 72.2507 61.877 71.4095 60.8521L70.4819 61.6134C71.2155 62.5072 71.7561 63.5521 72.0678 64.6813L73.2245 64.362ZM71.4095 60.8521C70.5683 59.8271 69.5226 58.9962 68.3398 58.4136L67.8096 59.4902C68.8379 59.9966 69.7484 60.7197 70.4819 61.6134L71.4095 60.8521ZM68.3398 58.4136C67.157 57.8311 65.864 57.5103 64.5447 57.4719L64.5098 58.6714C65.6573 58.7048 66.7814 58.9837 67.8096 59.4902L68.3398 58.4136ZM64.5447 57.4719C63.2255 57.4335 61.91 57.6784 60.6832 58.1897L61.1449 59.2974C62.216 58.8509 63.3623 58.638 64.5098 58.6714L64.5447 57.4719ZM60.6832 58.1897C59.4565 58.701 58.3458 59.4674 57.4222 60.4384L58.2917 61.2654C59.1015 60.414 60.0737 59.7438 61.1449 59.2974L60.6832 58.1897ZM57.4222 60.4384C56.4986 61.4094 55.7823 62.5639 55.3189 63.8272L56.4455 64.2405C56.8527 63.1303 57.4818 62.1169 58.2917 61.2654L57.4222 60.4384ZM55.3189 63.8272C54.8555 65.0905 54.655 66.4355 54.7306 67.7754L55.9287 67.7078C55.8623 66.5319 56.0383 65.3506 56.4455 64.2405L55.3189 63.8272ZM54.7306 67.7754C54.8063 69.1154 55.1565 70.4214 55.7596 71.6088L56.8295 71.0653C56.3023 70.0274 55.9951 68.8837 55.9287 67.7078L54.7306 67.7754ZM55.7594 71.6083L64.5493 88.9531L65.6197 88.4106L56.8297 71.0658L55.7594 71.6083ZM87.1392 74.2916C87.5167 73.0853 87.6592 71.818 87.5582 70.5618L86.362 70.658C86.4507 71.7602 86.3257 72.8731 85.994 73.9332L87.1392 74.2916ZM87.5582 70.5618C87.4571 69.3056 87.1145 68.0847 86.549 66.9689L85.4786 67.5114C85.9729 68.4867 86.2734 69.5559 86.362 70.658L87.5582 70.5618ZM65.3695 89.2098L79.8981 81.365L79.3279 80.3091L64.7994 88.1539L65.3695 89.2098ZM85.7338 77.1045C86.3483 76.2505 86.8234 75.3004 87.1392 74.2916L85.994 73.9332C85.7165 74.8196 85.2991 75.654 84.7598 76.4036L85.7338 77.1045Z" fill="#292B2E"/>
<defs>
<filter id="filter0_b_605_5339" x="36.1456" y="1.81253" width="177.708" height="155.382" filterUnits="userSpaceOnUse" color-interpolation-filters="sRGB">
<feFlood flood-opacity="0" result="BackgroundImageFix"/>
<feGaussianBlur in="BackgroundImageFix" stdDeviation="32.1269"/>
<feComposite in2="SourceAlpha" operator="in" result="effect1_backgroundBlur_605_5339"/>
<feBlend mode="normal" in="SourceGraphic" in2="effect1_backgroundBlur_605_5339" result="shape"/>
</filter>
</defs>
</svg>
