<svg width="24" height="24" viewBox="0 0 24 24" fill="none" xmlns="http://www.w3.org/2000/svg">
<path d="M5.68421 16.6526V7.53684C5.68421 7.10175 5.83158 6.73684 6.12632 6.44211C6.42105 6.14737 6.77895 6 7.2 6H18.7368C18.9053 6 19.0526 6.05951 19.1789 6.17853C19.3053 6.29811 19.3684 6.44912 19.3684 6.63158C19.3684 6.81404 19.3053 6.96477 19.1789 7.08379C19.0526 7.20337 18.9053 7.26316 18.7368 7.26316H7.2C7.12982 7.26316 7.07032 7.28758 7.02147 7.33642C6.97207 7.38582 6.94737 7.45263 6.94737 7.53684V16.6526H10.8421C11.0947 16.6526 11.3159 16.7472 11.5057 16.9364C11.6949 17.1262 11.7895 17.3474 11.7895 17.6C11.7895 17.8667 11.6949 18.0912 11.5057 18.2737C11.3159 18.4561 11.0947 18.5474 10.8421 18.5474H4.94737C4.6807 18.5474 4.45614 18.4561 4.27368 18.2737C4.09123 18.0912 4 17.8667 4 17.6C4 17.3474 4.09123 17.1262 4.27368 16.9364C4.45614 16.7472 4.6807 16.6526 4.94737 16.6526H5.68421ZM14.8632 18.5474C14.6526 18.5474 14.4735 18.4772 14.3259 18.3368C14.1788 18.1965 14.1053 18.0211 14.1053 17.8105V10.0211C14.1053 9.81053 14.1788 9.63509 14.3259 9.49474C14.4735 9.35439 14.6526 9.28421 14.8632 9.28421H19.2632C19.4737 9.28421 19.6491 9.35439 19.7895 9.49474C19.9298 9.63509 20 9.81053 20 10.0211V17.8105C20 18.0211 19.9298 18.1965 19.7895 18.3368C19.6491 18.4772 19.4737 18.5474 19.2632 18.5474H14.8632ZM15.3684 16.6526H18.7368V10.5474H15.3684V16.6526Z" fill="#292B2E"/>
</svg>
