<svg width="38" height="18" viewBox="0 0 38 18" fill="none" xmlns="http://www.w3.org/2000/svg">
<path d="M14.656 3.344C13.5372 2.22494 12.1118 1.46278 10.5599 1.1539C9.00796 0.845021 7.3993 1.00331 5.93735 1.60874C4.4754 2.21417 3.22583 3.23955 2.34667 4.55519C1.46751 5.87084 0.99826 7.41765 0.99826 9C0.99826 10.5824 1.46751 12.1292 2.34667 13.4448C3.22583 14.7605 4.4754 15.7858 5.93735 16.3913C7.3993 16.9967 9.00796 17.155 10.5599 16.8461C12.1118 16.5372 13.5372 15.7751 14.656 14.656C16.4311 13.0461 17.9025 11.1304 19 9C20.0974 6.86964 21.5688 4.95386 23.344 3.344C24.4627 2.22494 25.8882 1.46278 27.4401 1.1539C28.992 0.845021 30.6006 1.00331 32.0626 1.60874C33.5245 2.21417 34.7741 3.23955 35.6533 4.55519C36.5324 5.87084 37.0017 7.41765 37.0017 9C37.0017 10.5824 36.5324 12.1292 35.6533 13.4448C34.7741 14.7605 33.5245 15.7858 32.0626 16.3913C30.6006 16.9967 28.992 17.155 27.4401 16.8461C25.8882 16.5372 24.4627 15.7751 23.344 14.656C21.5688 13.0461 20.0974 11.1304 19 9C17.9025 6.86964 16.4311 4.95386 14.656 3.344" stroke="#292B2E" stroke-width="1.5" stroke-linecap="round" stroke-linejoin="round"/>
</svg>
