<svg width="41" height="16" viewBox="0 0 41 16" fill="none" xmlns="http://www.w3.org/2000/svg">
<g clip-path="url(#clip0_1088_61649)">
<path d="M19.568 2.70345V6.49403H22.0675C22.3419 6.50105 22.6149 6.4548 22.8691 6.35819C23.1234 6.26159 23.3534 6.11674 23.5446 5.93281C23.825 5.66369 24.0139 5.32313 24.0875 4.95398C24.1611 4.58484 24.1162 4.20361 23.9583 3.85828C23.8004 3.51294 23.5366 3.21894 23.2002 3.01326C22.8637 2.80758 22.4697 2.69942 22.0675 2.70239H19.568V2.70345ZM19.568 7.82863V12.226H18.0728V1.37309H22.0391C22.5124 1.36398 22.9828 1.44234 23.4235 1.60365C23.8642 1.76497 24.2664 2.00605 24.6069 2.31304C24.9456 2.60621 25.2158 2.96154 25.4006 3.35677C25.5854 3.75201 25.6808 4.17862 25.6808 4.60988C25.6808 5.04114 25.5854 5.46775 25.4006 5.86298C25.2158 6.25821 24.9456 6.61355 24.6069 6.90672C23.9138 7.52416 23.0579 7.83252 22.0391 7.83182H19.568V7.82863Z" fill="#7E7E86"/>
<path d="M27.1953 9.95044C27.1943 10.1283 27.2388 10.3038 27.3251 10.4624C27.4115 10.6209 27.5372 10.7578 27.6918 10.8617C28.0227 11.1038 28.4328 11.2319 28.853 11.2246C29.4841 11.2238 30.0891 10.9896 30.5357 10.5732C30.7682 10.3816 30.9544 10.146 31.0819 9.88207C31.2095 9.61813 31.2754 9.33187 31.2753 9.04231C30.8095 8.69787 30.1592 8.52601 29.3245 8.52671C28.7186 8.52671 28.2122 8.66322 27.8055 8.93622C27.3987 9.20922 27.1953 9.5473 27.1953 9.95044ZM29.1268 4.55579C30.2327 4.55579 31.1038 4.83126 31.74 5.38222C32.3763 5.93318 32.6955 6.68854 32.6978 7.64829V12.2261H31.2731V11.1949H31.2072C30.5898 12.0436 29.7665 12.4679 28.7371 12.4679C27.86 12.4679 27.1238 12.2261 26.5341 11.7402C26.2505 11.5175 26.0238 11.2385 25.8705 10.9235C25.7172 10.6085 25.6411 10.2656 25.6479 9.91967C25.6479 9.153 25.9592 8.54192 26.5818 8.08644C27.2044 7.63097 28.0376 7.40358 29.0814 7.40429C29.9699 7.40429 30.7016 7.55564 31.2765 7.85835V7.54008C31.278 7.30417 31.2233 7.0709 31.1164 6.85714C31.0095 6.64338 30.8531 6.45449 30.6584 6.30414C30.2618 5.97117 29.7453 5.79008 29.212 5.79703C28.3789 5.79703 27.718 6.12556 27.2294 6.7826L25.9115 6.00921C26.6356 5.04026 27.7074 4.55579 29.1268 4.55579Z" fill="#7E7E86"/>
<path d="M40.912 4.79553L35.9208 15.5H34.3767L36.2298 11.755L32.9463 4.79553H34.5722L36.9456 10.1329H36.9774L39.2861 4.79553H40.912Z" fill="#7E7E86"/>
<path d="M13.5243 6.88019C13.5255 6.45358 13.4875 6.02766 13.4107 5.60712H7.10156V8.01429H10.7203C10.6465 8.39827 10.4901 8.76429 10.2604 9.09016C10.0308 9.41603 9.73264 9.69498 9.38413 9.91011V11.4707H11.5428C12.8051 10.3843 13.5323 8.7792 13.5323 6.88019" fill="#7E7E86"/>
<path d="M7.10257 12.9772C8.90794 12.9772 10.427 12.4244 11.5336 11.4707L9.37491 9.91013C8.77501 10.2878 8.00241 10.5074 7.10257 10.5074C5.35854 10.5074 3.87811 9.41045 3.3532 7.93262H1.12744V9.542C1.68474 10.5755 2.53849 11.4441 3.59352 12.051C4.64855 12.6579 5.86338 12.9793 7.10257 12.9793" fill="#7E7E86"/>
<path d="M3.34759 7.93259C3.06732 7.15808 3.06732 6.31903 3.34759 5.54452V3.93726H1.12637C0.65801 4.8063 0.414063 5.76567 0.414062 6.73855C0.414063 7.71144 0.65801 8.6708 1.12637 9.53985L3.34759 7.93259Z" fill="#7E7E86"/>
<path d="M7.10257 2.96964C8.05644 2.95504 8.97825 3.2911 9.66918 3.90535L11.5779 2.12411C10.3667 1.06327 8.7631 0.480893 7.10257 0.498815C5.86338 0.498807 4.64855 0.820181 3.59352 1.42711C2.53849 2.03403 1.68474 2.90265 1.12744 3.93611L3.34866 5.54337C3.87811 4.06448 5.35854 2.96858 7.09802 2.96858" fill="#7E7E86"/>
</g>
<defs>
<clipPath id="clip0_1088_61649">
<rect width="40.4977" height="15" fill="white" transform="translate(0.414551 0.5)"/>
</clipPath>
</defs>
</svg>
