<svg width="48" height="48" viewBox="0 0 48 48" fill="none" xmlns="http://www.w3.org/2000/svg">
<path d="M41 11.5L24.8531 22.4229C24.3391 22.7706 23.6641 22.7659 23.155 22.411L7.5 11.5" stroke="#292B2E" stroke-width="1.5" stroke-linejoin="round"/>
<path d="M33.4632 44.5049C33.2806 44.5049 33.1335 44.4389 33.0219 44.307C32.9103 44.1752 32.8748 44.0281 32.9154 43.8657L33.9197 36.8961H30.4806C30.2574 36.8961 30.1103 36.8099 30.0392 36.6374C29.9682 36.4649 29.9936 36.2874 30.1153 36.1048L35.898 25.3916C35.9589 25.2901 36.0502 25.2039 36.1719 25.1329C36.2937 25.0619 36.4154 25.0264 36.5372 25.0264C36.7198 25.0264 36.8669 25.0923 36.9785 25.2242C37.0901 25.3561 37.1256 25.5032 37.085 25.6655L36.1111 32.6047H39.4894C39.7126 32.6047 39.8647 32.691 39.9459 32.8634C40.0271 33.0359 40.0169 33.2236 39.9155 33.4265L34.1328 44.1397C34.0719 44.2411 33.9755 44.3273 33.8436 44.3984C33.7118 44.4694 33.5849 44.5049 33.4632 44.5049Z" fill="#292B2E"/>
<path d="M41.5 29.25V13C41.5 11.8954 40.6046 11 39.5 11H9C7.89543 11 7 11.8954 7 13V35.5C7 36.6046 7.89543 37.5 9 37.5H26.25" stroke="#292B2E" stroke-width="1.5" stroke-linejoin="round"/>
</svg>
