<svg width="161" height="160" viewBox="0 0 161 160" fill="none" xmlns="http://www.w3.org/2000/svg">
<path d="M106.267 28H59.3336C56.0935 28 53.4669 30.929 53.4669 34.5417V126.125C53.4669 129.738 56.0935 132.666 59.3336 132.666H106.267C109.507 132.666 112.133 129.738 112.133 126.125V34.5417C112.133 30.929 109.507 28 106.267 28Z" fill="#292B2E" stroke="#292B2E" stroke-width="1.2" stroke-linecap="round" stroke-linejoin="round"/>
<path d="M100.933 28H54.0001C50.7599 28 48.1333 30.929 48.1333 34.5417V126.125C48.1333 129.738 50.7599 132.666 54.0001 132.666H100.933C104.173 132.666 106.8 129.738 106.8 126.125V34.5417C106.8 30.929 104.173 28 100.933 28Z" fill="white" stroke="#292B2E" stroke-width="1.2" stroke-linecap="round" stroke-linejoin="round"/>
<rect x="59.4001" y="70.1996" width="38" height="19.6" rx="9.8" fill="#292B2E" stroke="#292B2E" stroke-width="1.2" stroke-linecap="round" stroke-linejoin="round"/>
<circle cx="87.6002" cy="79.9996" r="9.8" fill="#BFEBFF" stroke="#292B2E" stroke-width="1.2"/>
<path d="M70.8 33.334H84.1334" stroke="#292B2E" stroke-width="1.2" stroke-linecap="round" stroke-linejoin="round"/>
</svg>
