<svg width="36" height="33" viewBox="0 0 36 33" fill="none" xmlns="http://www.w3.org/2000/svg">
<path d="M9.7 15.45C10.1 15.45 10.45 15.3 10.75 15C11.05 14.7 11.2 14.35 11.2 13.95C11.2 13.5167 11.05 13.15 10.75 12.85C10.45 12.55 10.1 12.4 9.7 12.4C9.26667 12.4 8.9 12.55 8.6 12.85C8.3 13.15 8.15 13.5167 8.15 13.95C8.15 14.35 8.3 14.7 8.6 15C8.9 15.3 9.26667 15.45 9.7 15.45ZM18.05 15.45C18.4833 15.45 18.85 15.3 19.15 15C19.45 14.7 19.6 14.35 19.6 13.95C19.6 13.5167 19.45 13.15 19.15 12.85C18.85 12.55 18.4833 12.4 18.05 12.4C17.65 12.4 17.3 12.55 17 12.85C16.7 13.15 16.55 13.5167 16.55 13.95C16.55 14.35 16.7 14.7 17 15C17.3 15.3 17.65 15.45 18.05 15.45ZM26.3 15.45C26.7 15.45 27.0583 15.3 27.375 15C27.6917 14.7 27.85 14.35 27.85 13.95C27.85 13.5167 27.6917 13.15 27.375 12.85C27.0583 12.55 26.7 12.4 26.3 12.4C25.9 12.4 25.5417 12.55 25.225 12.85C24.9083 13.15 24.75 13.5167 24.75 13.95C24.75 14.35 24.9083 14.7 25.225 15C25.5417 15.3 25.9 15.45 26.3 15.45ZM0 30.8V2.75C0 1.98333 0.266667 1.33333 0.8 0.8C1.33333 0.266667 1.98333 0 2.75 0H33.25C34.0167 0 34.6667 0.266667 35.2 0.8C35.7333 1.33333 36 1.98333 36 2.75V25.25C36 26.0167 35.7333 26.6667 35.2 27.2C34.6667 27.7333 34.0167 28 33.25 28H6.15L2.35 31.8C1.91667 32.2333 1.41667 32.3333 0.85 32.1C0.283333 31.8667 0 31.4333 0 30.8ZM1.55 30.4L5.5 26.45H33.25C33.5833 26.45 33.8667 26.3333 34.1 26.1C34.3333 25.8667 34.45 25.5833 34.45 25.25V2.75C34.45 2.41667 34.3333 2.13333 34.1 1.9C33.8667 1.66667 33.5833 1.55 33.25 1.55H2.75C2.41667 1.55 2.13333 1.66667 1.9 1.9C1.66667 2.13333 1.55 2.41667 1.55 2.75V30.4ZM1.55 2.75V1.55V30.4V2.75Z" fill="#292B2E"/>
</svg>
