<svg width="36" height="28" viewBox="0 0 36 28" fill="none" xmlns="http://www.w3.org/2000/svg">
<path d="M-1.20206e-07 2.75C-8.66943e-08 1.98333 0.266666 1.33333 0.799999 0.799999C1.33333 0.266665 1.98333 -1.48692e-06 2.75 -1.4534e-06L23.95 -5.26722e-07C24.3167 -5.10695e-07 24.675 0.0749999 25.025 0.225C25.375 0.375 25.6833 0.583333 25.95 0.85L35.2 10.05C35.4333 10.3167 35.625 10.625 35.775 10.975C35.925 11.325 36 11.7 36 12.1L36 25.25C36 26.0167 35.7333 26.6667 35.2 27.2C34.6667 27.7333 34.0167 28 33.25 28L2.75 28C1.98333 28 1.33333 27.7333 0.799998 27.2C0.266665 26.6667 -1.13722e-06 26.0167 -1.10371e-06 25.25L-1.20206e-07 2.75ZM1.55 2.75L1.55 25.25C1.55 25.55 1.675 25.825 1.925 26.075C2.175 26.325 2.45 26.45 2.75 26.45L33.25 26.45C33.55 26.45 33.825 26.325 34.075 26.075C34.325 25.825 34.45 25.55 34.45 25.25L34.45 11.6L24.4 1.55L2.75 1.55C2.45 1.55 2.175 1.675 1.925 1.925C1.675 2.175 1.55 2.45 1.55 2.75ZM1.55 2.75L1.55 1.55L1.55 26.45L1.55 25.25L1.55 2.75Z" fill="#292B2E"/>
<path fill-rule="evenodd" clip-rule="evenodd" d="M16.0377 6.89551L11.4663 6.89551L11.4663 15.3241C11.4663 16.2906 10.6828 17.0741 9.71627 17.0741L6.54962 17.0741L6.54962 20.4198C6.54962 20.6825 6.76259 20.8955 7.02529 20.8955L16.0377 20.8955L16.0377 6.89551ZM7.02529 22.3955C5.93416 22.3955 5.04962 21.511 5.04962 20.4198L5.04962 7.37118C5.04962 6.28005 5.93416 5.39551 7.02529 5.39551L20.0739 5.39551C21.165 5.39551 22.0496 6.28005 22.0496 7.37118L22.0496 20.4198C22.0496 21.511 21.165 22.3955 20.0739 22.3955L7.02529 22.3955ZM17.5377 6.89551L20.0739 6.89551C20.3366 6.89551 20.5496 7.10847 20.5496 7.37118L20.5496 20.4198C20.5496 20.6825 20.3366 20.8955 20.0739 20.8955L17.5377 20.8955L17.5377 6.89551ZM6.54962 15.5741L6.54962 7.37118C6.54962 7.10847 6.76259 6.89551 7.02529 6.89551L9.96627 6.89551L9.96627 15.3241C9.96627 15.4622 9.85434 15.5741 9.71627 15.5741L6.54962 15.5741Z" fill="#292B2E"/>
</svg>
