<svg width="17" height="16" viewBox="0 0 17 16" fill="none" xmlns="http://www.w3.org/2000/svg">
<path d="M8.60526 15.559C8.43684 15.559 8.28947 15.4995 8.16316 15.3805C8.03684 15.2609 7.97368 15.1099 7.97368 14.9274C7.97368 14.745 8.03684 14.5939 8.16316 14.4744C8.28947 14.3553 8.43684 14.2958 8.60526 14.2958H14.1421C14.2123 14.2958 14.2721 14.2714 14.3215 14.2226C14.3703 14.1732 14.3947 14.1134 14.3947 14.0432V7.95899C14.3947 7.14496 14.2404 6.38005 13.9316 5.66426C13.6228 4.94847 13.2018 4.32391 12.6684 3.79057C12.1351 3.25724 11.5105 2.83619 10.7947 2.52742C10.0789 2.21864 9.31404 2.06426 8.5 2.06426C7.68597 2.06426 6.92105 2.21864 6.20526 2.52742C5.48947 2.83619 4.86491 3.25724 4.33158 3.79057C3.79825 4.32391 3.37719 4.94847 3.06842 5.66426C2.75965 6.38005 2.60526 7.14496 2.60526 7.95899V12.4432C2.60526 12.6116 2.54547 12.759 2.42589 12.8853C2.30688 13.0116 2.15614 13.0748 1.97368 13.0748C1.56667 13.0748 1.21944 12.9311 0.932 12.6436C0.644 12.3556 0.5 12.0081 0.5 11.6011V9.91689C0.5 9.63619 0.577193 9.37991 0.731579 9.14805C0.885965 8.91675 1.08947 8.72391 1.34211 8.56952L1.38421 7.47478C1.45439 6.50636 1.69663 5.61513 2.11095 4.8011C2.5247 3.98706 3.05439 3.28868 3.7 2.70594C4.34561 2.12377 5.07881 1.67128 5.89958 1.34847C6.72091 1.02566 7.58772 0.864258 8.5 0.864258C9.41228 0.864258 10.2825 1.02566 11.1105 1.34847C11.9386 1.67128 12.6718 2.12377 13.3101 2.70594C13.949 3.28868 14.4756 3.98342 14.8899 4.79015C15.3036 5.59745 15.5456 6.48531 15.6158 7.45373L15.6579 8.54847C15.9105 8.67478 16.114 8.84657 16.2684 9.06384C16.4228 9.28166 16.5 9.52391 16.5 9.79057V11.7274C16.5 11.98 16.4228 12.2153 16.2684 12.4331C16.114 12.6504 15.9105 12.8222 15.6579 12.9485V14.0432C15.6579 14.4643 15.5105 14.8222 15.2158 15.1169C14.9211 15.4116 14.5632 15.559 14.1421 15.559H8.60526ZM6.14211 9.72742C5.93158 9.72742 5.75249 9.65359 5.60484 9.50594C5.45775 9.35885 5.38421 9.18706 5.38421 8.99057C5.38421 8.78005 5.45775 8.60096 5.60484 8.45331C5.75249 8.30622 5.93158 8.23268 6.14211 8.23268C6.3386 8.23268 6.51039 8.30622 6.65747 8.45331C6.80512 8.60096 6.87895 8.78005 6.87895 8.99057C6.87895 9.18706 6.80512 9.35885 6.65747 9.50594C6.51039 9.65359 6.3386 9.72742 6.14211 9.72742ZM10.8579 9.72742C10.6614 9.72742 10.4896 9.65359 10.3425 9.50594C10.1949 9.35885 10.1211 9.18706 10.1211 8.99057C10.1211 8.78005 10.1949 8.60096 10.3425 8.45331C10.4896 8.30622 10.6614 8.23268 10.8579 8.23268C11.0684 8.23268 11.2475 8.30622 11.3952 8.45331C11.5422 8.60096 11.6158 8.78005 11.6158 8.99057C11.6158 9.18706 11.5422 9.35885 11.3952 9.50594C11.2475 9.65359 11.0684 9.72742 10.8579 9.72742ZM3.76316 8.35899C3.70702 7.58706 3.81593 6.88194 4.08989 6.24363C4.3633 5.60475 4.72793 5.06412 5.18379 4.62173C5.64021 4.17991 6.16316 3.8397 6.75263 3.6011C7.34211 3.3625 7.9386 3.24321 8.54211 3.24321C9.74912 3.24321 10.7911 3.62215 11.668 4.38005C12.5455 5.13794 13.0754 6.08531 13.2579 7.22215C12.0228 7.20812 10.9 6.87464 9.88947 6.22173C8.87895 5.56938 8.12105 4.72391 7.61579 3.68531C7.39123 4.75198 6.93874 5.69934 6.25832 6.52741C5.57733 7.35548 4.74561 7.96601 3.76316 8.35899Z" fill="#292B2E"/>
</svg>
