<svg width="79" height="24" viewBox="0 0 79 24" fill="none" xmlns="http://www.w3.org/2000/svg">
<path d="M7.38362 16.3288C6.9867 16.0734 6.55897 15.8696 6.11111 15.7236C5.66262 15.579 5.19399 15.506 4.72349 15.5079C4.43162 15.5047 4.13976 15.5387 3.85607 15.6079C3.61578 15.6645 3.38746 15.762 3.18051 15.8972C3.00312 16.013 2.85405 16.1677 2.74397 16.3501C2.63892 16.53 2.58482 16.7357 2.58797 16.9446C2.58042 17.1301 2.6276 17.3132 2.72321 17.4711C2.82259 17.6208 2.95658 17.7434 3.11257 17.829C3.30757 17.9372 3.51515 18.0183 3.7309 18.0711C4.00327 18.1403 4.2794 18.1951 4.55743 18.2341L5.21224 18.324C5.59217 18.3775 5.96706 18.4624 6.33441 18.5762C6.68289 18.6826 7.0125 18.8442 7.31129 19.0556C7.5956 19.2581 7.83148 19.5223 8.00194 19.8293C8.18436 20.1771 8.27368 20.5671 8.26173 20.9609C8.27116 21.4119 8.16549 21.8578 7.95539 22.256C7.75348 22.6303 7.47106 22.9542 7.1295 23.2033C6.76278 23.4694 6.35328 23.6669 5.91863 23.7877C5.44372 23.9229 4.95183 23.9902 4.45868 23.9877C4.12404 23.9858 3.79066 23.9581 3.46105 23.9034C3.1088 23.8499 2.76157 23.7688 2.4219 23.6612C2.09922 23.5524 1.78659 23.4172 1.48655 23.2562C1.18965 23.1027 0.912253 22.9133 0.660645 22.6932L1.48655 21.4559C1.66519 21.6194 1.86207 21.7603 2.07343 21.8767C2.56029 22.1466 3.08678 22.3353 3.63214 22.4347C3.90828 22.4869 4.18819 22.5133 4.46873 22.5139C4.75871 22.5177 5.04806 22.4875 5.33112 22.4246C5.57833 22.3699 5.81547 22.2755 6.03311 22.1453C6.22119 22.0333 6.38222 21.8805 6.50551 21.6981C6.62439 21.5194 6.68604 21.3081 6.68227 21.0923C6.68981 20.7281 6.48664 20.3929 6.16269 20.2343C5.65193 19.9934 5.10342 19.8437 4.54171 19.7921L3.80387 19.6871C3.45036 19.6374 3.1025 19.5544 2.76472 19.4399C2.44014 19.3317 2.1357 19.1675 1.86585 18.9555C1.59851 18.7448 1.38025 18.4769 1.22677 18.1712C1.05127 17.8189 0.961945 17.4289 0.966977 17.0339C0.9588 16.5892 1.06071 16.1501 1.26325 15.7551C1.45825 15.3833 1.73313 15.0613 2.0684 14.8128C2.42757 14.5486 2.83077 14.353 3.2585 14.2335C3.73153 14.0976 4.22153 14.0303 4.71343 14.0335C5.34874 14.0253 5.98216 14.1196 6.58854 14.3127C7.13956 14.4933 7.66353 14.7487 8.14787 15.0707L7.38362 16.3288ZM12.5535 17.066C12.9806 17.0616 13.4033 17.1477 13.7952 17.3182C14.1645 17.4799 14.4941 17.7208 14.762 18.024C15.0388 18.3429 15.252 18.7127 15.3904 19.1134C15.547 19.5651 15.6244 20.0406 15.6194 20.5187V20.7923V21.0558H10.7973C10.8319 21.3238 10.9168 21.583 11.047 21.8188C11.159 22.022 11.3093 22.2007 11.4886 22.3453C11.6603 22.4812 11.856 22.5831 12.0654 22.6454C12.2812 22.7095 12.5051 22.7416 12.7303 22.7404C13.0643 22.7378 13.3945 22.6756 13.7072 22.5561C14.0336 22.4321 14.3368 22.2541 14.606 22.0296L15.3074 23.0561C14.9407 23.3826 14.5104 23.6279 14.0449 23.777C13.5883 23.916 13.1134 23.9852 12.6366 23.9827C12.1786 23.9877 11.7232 23.9034 11.2961 23.7348C10.9061 23.577 10.552 23.3386 10.257 23.0347C9.95694 22.7234 9.72357 22.3529 9.57135 21.9453C9.4034 21.4911 9.32037 21.0093 9.32729 20.5243C9.32226 20.045 9.40277 19.5688 9.56632 19.1185C9.71288 18.7121 9.9387 18.3397 10.2312 18.024C10.5237 17.7164 10.8785 17.4755 11.2703 17.3182C11.6773 17.1484 12.1132 17.0609 12.5535 17.0603V17.066ZM12.5278 18.3448C12.2975 18.3404 12.0686 18.38 11.8522 18.4605C11.6578 18.5328 11.4811 18.6461 11.3326 18.792C11.186 18.9448 11.0684 19.1235 10.9848 19.3185C10.8904 19.5261 10.8262 19.7456 10.7923 19.9714H14.1594C14.1192 19.5267 13.9368 19.1071 13.6399 18.7763C13.343 18.4806 12.9385 18.3227 12.5227 18.3397L12.5278 18.3448ZM20.0565 17.066C20.5232 17.0616 20.9856 17.1509 21.4177 17.3289C21.8209 17.5025 22.1775 17.7717 22.4568 18.1133L21.5479 19.092C21.3384 18.8782 21.0963 18.7008 20.8308 18.5662C20.566 18.446 20.2785 18.3869 19.9892 18.3919C19.7281 18.3894 19.4702 18.4416 19.2306 18.5448C19.0016 18.6536 18.7985 18.8096 18.633 19.0027C18.4563 19.1946 18.3185 19.4204 18.2273 19.6663C18.0329 20.2192 18.0329 20.8237 18.2273 21.3766C18.3179 21.6245 18.4556 21.8522 18.633 22.0453C18.8041 22.2302 19.0111 22.3774 19.2407 22.4768C19.4803 22.5806 19.7388 22.6322 19.9992 22.6296C20.3056 22.6303 20.6075 22.5598 20.8824 22.4246C21.1453 22.3 21.3875 22.1346 21.5995 21.9346L22.4776 22.9511C22.1864 23.2933 21.8196 23.5619 21.4076 23.7348C20.9774 23.9141 20.5163 24.0034 20.0515 23.9984C19.5709 24.0053 19.0941 23.916 18.6487 23.7348C17.8298 23.4033 17.1875 22.736 16.8818 21.8981C16.556 21.0118 16.556 20.0362 16.8818 19.1505C17.1882 18.3215 17.8228 17.661 18.633 17.3289C19.0834 17.1446 19.5659 17.0534 20.0515 17.0603L20.0565 17.066ZM29.7466 21.0244C29.7591 21.4874 29.6704 21.9472 29.4868 22.3718C29.3314 22.7253 29.1012 23.0398 28.8118 23.2933C28.5294 23.5323 28.2029 23.7116 27.8501 23.8191C27.1254 24.0443 26.3511 24.0443 25.6265 23.8191C25.273 23.7116 24.944 23.5323 24.6603 23.2933C24.3691 23.0417 24.1382 22.7265 23.9847 22.3718C23.8048 21.9465 23.718 21.4867 23.73 21.0244V17.2339H25.1534V20.9187C25.1465 21.1923 25.1868 21.4653 25.273 21.7245C25.3453 21.9233 25.4604 22.1032 25.6107 22.251C25.7586 22.3913 25.9366 22.4938 26.1303 22.551C26.5373 22.6743 26.9707 22.6743 27.3777 22.551C27.572 22.4938 27.75 22.3913 27.8972 22.251C28.0476 22.1032 28.1627 21.9233 28.235 21.7245C28.3231 21.4653 28.3652 21.193 28.3596 20.9187V17.2339H29.783L29.7466 21.0244ZM34.9165 17.066C35.1133 17.0647 35.3096 17.0804 35.504 17.1131C35.6814 17.1421 35.8556 17.1893 36.0235 17.2553L35.6858 18.6763C35.5216 18.5932 35.3467 18.5328 35.1662 18.4976C34.9831 18.4574 34.797 18.4366 34.6101 18.4341C34.3969 18.4316 34.1849 18.4712 33.9868 18.5505C33.8006 18.6253 33.6333 18.7423 33.498 18.892C33.3565 19.0549 33.2489 19.2449 33.1816 19.4506C33.1017 19.6909 33.0628 19.9437 33.0672 20.1979V23.8141H31.6223V17.2339H33.0256V17.9762C33.2257 17.6742 33.5043 17.4333 33.8308 17.2817C34.1711 17.1301 34.5397 17.0553 34.9114 17.0603L34.9165 17.066ZM39.6712 17.066C40.0977 17.0616 40.5204 17.1477 40.9129 17.3182C41.2815 17.4799 41.6111 17.7208 41.8791 18.024C42.1653 18.3404 42.3873 18.7109 42.5339 19.1134C42.6905 19.5651 42.7679 20.0406 42.7622 20.5187V20.7923V21.0558H37.9094C37.9446 21.3238 38.0289 21.583 38.1591 21.8188C38.271 22.022 38.4214 22.2007 38.6006 22.3453C38.7724 22.4812 38.968 22.5831 39.1775 22.6454C39.3932 22.7095 39.6171 22.7416 39.8423 22.7404C40.1763 22.7378 40.5072 22.6756 40.8192 22.5561C41.1457 22.4321 41.4495 22.2541 41.7181 22.0296L42.4251 23.0511C42.0577 23.3776 41.6281 23.6229 41.162 23.772C40.7053 23.911 40.2311 23.9802 39.7543 23.977C39.2957 23.982 38.8409 23.8984 38.4138 23.7298C38.0232 23.5719 37.6691 23.3335 37.3747 23.0297C37.074 22.7183 36.8406 22.3472 36.6884 21.9402C36.5205 21.4861 36.4381 21.0036 36.4444 20.5187C36.4393 20.0393 36.5205 19.5632 36.6834 19.1134C36.8268 18.7077 37.0495 18.3353 37.3382 18.0183C37.6307 17.7107 37.9848 17.4704 38.3773 17.3132C38.7862 17.1446 39.224 17.0584 39.6656 17.0603L39.6712 17.066ZM39.6448 18.3448C39.4146 18.3404 39.1856 18.38 38.9692 18.4605C38.7749 18.5328 38.5981 18.6461 38.4497 18.792C38.3031 18.9448 38.1855 19.1235 38.1018 19.3185C38.0081 19.5261 37.9433 19.7456 37.9094 19.9714H41.2872C41.2469 19.5267 41.0645 19.1071 40.7676 18.7763C40.4682 18.4781 40.0593 18.3196 39.6398 18.3397L39.6448 18.3448ZM48.8468 14.002C49.2575 14.0007 49.6676 14.0467 50.0677 14.1391C50.4482 14.2266 50.8162 14.3605 51.1641 14.5392C51.4968 14.7097 51.8063 14.9242 52.0837 15.1758C52.3548 15.4198 52.5875 15.7041 52.775 16.018L51.4968 16.8817C51.2119 16.4558 50.8282 16.1067 50.3797 15.8658C49.8997 15.6104 49.3632 15.484 48.821 15.4972C48.3624 15.4922 47.907 15.5777 47.4805 15.7501C47.0899 15.9142 46.7358 16.1583 46.4414 16.4659C46.1363 16.7829 45.8979 17.1584 45.74 17.5711C45.4003 18.4875 45.4003 19.4971 45.74 20.4136C45.8979 20.8263 46.1363 21.2018 46.4414 21.5188C46.7358 21.8264 47.0899 22.0705 47.4805 22.2346C47.907 22.4063 48.3624 22.4925 48.821 22.4875C49.8758 22.5108 50.8716 21.9918 51.4654 21.1087L52.7127 22.0346C52.5095 22.3359 52.2686 22.6083 51.9956 22.8454C51.7277 23.0914 51.4308 23.304 51.1125 23.4769C50.7722 23.6499 50.413 23.7808 50.0419 23.8669C48.9744 24.106 47.8617 24.0217 46.8414 23.6248C45.6507 23.153 44.7091 22.1988 44.2436 20.9923C43.7561 19.7123 43.7561 18.2938 44.2436 17.0131C44.7091 15.8073 45.6507 14.8531 46.8414 14.3813C47.4793 14.1247 48.1605 13.9957 48.8468 14.002ZM57.2121 17.0446C57.6889 17.0389 58.1619 17.1282 58.6048 17.3081C59.0168 17.4742 59.3929 17.7214 59.7112 18.034C60.0251 18.346 60.2742 18.7184 60.444 19.1292C60.7962 20.0104 60.7962 20.9961 60.444 21.8767C60.2742 22.2881 60.0251 22.6598 59.7112 22.9718C59.3929 23.2851 59.0168 23.5317 58.6048 23.6984C57.709 24.0506 56.7152 24.0506 55.8201 23.6984C55.4068 23.5329 55.0307 23.2857 54.713 22.9718C54.396 22.6674 54.1418 22.3026 53.9651 21.8981C53.6122 21.0168 53.6122 20.0312 53.9651 19.1505C54.1337 18.7404 54.3809 18.368 54.6922 18.0554C55.0099 17.7415 55.3861 17.4943 55.7987 17.3289C56.2491 17.1446 56.7315 17.0534 57.2178 17.0603L57.2121 17.0446ZM57.2121 18.3976C56.9366 18.3945 56.663 18.4467 56.407 18.5505C56.1654 18.648 55.9459 18.7945 55.7628 18.982C55.5792 19.1726 55.4339 19.3977 55.3364 19.645C55.1288 20.196 55.1288 20.8049 55.3364 21.3559C55.4339 21.6031 55.5792 21.8289 55.7628 22.0189C55.9459 22.2057 56.1654 22.3529 56.407 22.451C56.9246 22.6561 57.4996 22.6561 58.0179 22.451C58.5085 22.256 58.8991 21.866 59.0985 21.3716C59.3061 20.8206 59.3061 20.2117 59.0985 19.6607C58.9998 19.4128 58.8532 19.187 58.667 18.9977C58.4815 18.8109 58.2607 18.6643 58.0179 18.5662C57.7631 18.463 57.4914 18.4108 57.2178 18.4133L57.2121 18.3976ZM64.9698 17.0446C65.7649 17.0138 66.526 17.3742 67.0116 18.0133V13.9077H68.43V23.8091H67.0116V23.019C66.7852 23.3121 66.4977 23.5512 66.17 23.7191C65.7963 23.9028 65.385 23.9934 64.9698 23.9827C64.103 23.9908 63.2714 23.6392 62.6682 23.009C62.3669 22.6888 62.1317 22.3114 61.9769 21.8981C61.6429 21.0024 61.6429 20.0142 61.9769 19.1185C62.1336 18.7109 62.3688 18.3391 62.6682 18.024C63.2714 17.3937 64.103 17.0414 64.9698 17.0502V17.0446ZM65.1409 18.3976C64.8585 18.3932 64.5786 18.4504 64.32 18.5662C64.0873 18.6719 63.8785 18.826 63.7074 19.0184C63.5375 19.2141 63.4067 19.4411 63.3224 19.6871C63.1419 20.2155 63.1419 20.7904 63.3224 21.3188C63.4067 21.5647 63.5375 21.7918 63.7074 21.9874C63.8785 22.1799 64.0873 22.334 64.32 22.4403C64.839 22.6592 65.4227 22.6592 65.9416 22.4403C66.1756 22.3378 66.3857 22.1874 66.5593 21.9981C66.7285 21.8163 66.8625 21.6037 66.9544 21.3716C67.1443 20.83 67.1443 20.2394 66.9544 19.6978C66.865 19.4525 66.7292 19.2267 66.5543 19.0342C66.3807 18.8455 66.17 18.6951 65.936 18.592C65.6863 18.4769 65.4158 18.4158 65.1409 18.4133V18.3976ZM73.1427 17.0446C73.5698 17.0408 73.9925 17.1264 74.3844 17.2974C74.7536 17.4591 75.0832 17.6994 75.3512 18.0026C75.6279 18.3215 75.8412 18.6914 75.9796 19.092C76.1362 19.5437 76.2135 20.0192 76.2085 20.4979V20.7715V21.0345H71.4129C71.4468 21.303 71.5311 21.5622 71.662 21.7981C71.7739 22.0006 71.9243 22.1799 72.1035 22.3246C72.2752 22.4604 72.4715 22.5623 72.6803 22.6246C72.8961 22.6888 73.1206 22.7209 73.3452 22.719C73.6792 22.7165 74.0101 22.6542 74.3221 22.5347C74.6485 22.4108 74.9524 22.2327 75.2209 22.0088L75.928 23.0297C75.5606 23.3562 75.131 23.6015 74.6655 23.7512C74.2089 23.8902 73.734 23.9594 73.2572 23.9563C72.7986 23.9613 72.3438 23.877 71.9167 23.7091C71.5261 23.5505 71.1726 23.3121 70.8776 23.009C70.5769 22.6976 70.3435 22.3265 70.1913 21.9189C70.024 21.4647 69.9409 20.9829 69.9472 20.4979C69.9422 20.0186 70.0234 19.5424 70.1863 19.092C70.3335 18.6857 70.5593 18.3133 70.8511 17.9975C71.1443 17.69 71.4984 17.4497 71.8909 17.2918C72.2897 17.1352 72.7149 17.0565 73.1427 17.0603V17.0446ZM76.8891 23.7933V23.4769H77.0187V23.409H76.6809V23.4769H76.8268V23.8091L76.8891 23.7933ZM77.5383 23.7933V23.3933H77.4345L77.315 23.6669L77.1954 23.3933H77.0917V23.7933H77.1646V23.4933L77.2734 23.7512H77.3464L77.4552 23.4933V23.7933H77.5383ZM73.1169 18.324C72.8867 18.3196 72.6577 18.3586 72.4413 18.4397C72.247 18.5115 72.0702 18.6247 71.9217 18.7712C71.7752 18.9241 71.6575 19.1021 71.5739 19.2977C71.4802 19.5053 71.4154 19.7248 71.3814 19.9507H74.7486C74.7115 19.4996 74.529 19.0744 74.229 18.7398C73.9271 18.4586 73.5257 18.3146 73.1169 18.3397V18.324Z" fill="#BBBBC1"/>
<path d="M12.0444 10.2486H10.4543V2.04746L7.58091 9.26484H5.90772L3.04505 2.12672V10.2486H1.44482V0.284319H3.88164L6.74432 7.40609L9.60196 0.284319H12.0388L12.0444 10.2486ZM20.4098 10.2486H18.9391V9.43279C18.7045 9.73724 18.4064 9.98507 18.0661 10.1593C17.6792 10.348 17.2534 10.4399 16.8244 10.4279C15.9249 10.4373 15.0606 10.0719 14.4341 9.41706C14.124 9.08997 13.8799 8.70313 13.7176 8.28042C13.3704 7.35073 13.3704 6.3248 13.7176 5.39574C13.8799 4.97241 14.124 4.58619 14.4341 4.25847C15.0606 3.60366 15.9249 3.2382 16.8244 3.24763C17.254 3.23631 17.6805 3.33003 18.0661 3.52188C18.4064 3.69864 18.7039 3.94836 18.9391 4.25344V3.43194H20.4098V10.2486ZM16.9961 4.65349C16.703 4.64846 16.4124 4.70759 16.1438 4.8271C15.9029 4.93718 15.6871 5.09632 15.5097 5.29572C15.3336 5.49889 15.1977 5.73478 15.1097 5.99016C14.9222 6.5393 14.9222 7.13624 15.1097 7.68537C15.199 7.94138 15.3367 8.17789 15.5154 8.38044C15.6921 8.57921 15.9079 8.73898 16.1488 8.84843C16.6879 9.07676 17.2936 9.07676 17.8327 8.84843C18.0742 8.74213 18.2919 8.58613 18.4718 8.39051C18.6529 8.19048 18.7938 7.95585 18.8876 7.7011C19.0838 7.13938 19.0838 6.52609 18.8876 5.96437C18.7938 5.70899 18.6529 5.47499 18.4718 5.27434C18.2919 5.07934 18.0742 4.92335 17.8327 4.81641C17.5685 4.70256 17.2829 4.6472 16.9961 4.65349ZM27.1485 5.13784C27.0258 5.06613 26.8994 5.00134 26.7692 4.94284C26.6006 4.86862 26.427 4.80509 26.2496 4.75351C26.0584 4.69501 25.8647 4.6472 25.6678 4.61135C25.4621 4.57298 25.2532 4.55348 25.0444 4.55348C24.7161 4.53461 24.389 4.61323 24.104 4.77992C23.8971 4.90195 23.77 5.12652 23.7713 5.36932C23.7675 5.47625 23.7989 5.58193 23.86 5.66936C23.9216 5.75302 24.0015 5.82158 24.0933 5.86939C24.2053 5.92663 24.3242 5.96941 24.4468 5.99583C24.5821 6.02728 24.7274 6.05558 24.8834 6.08011L25.5797 6.18516C26.1987 6.24995 26.7906 6.47514 27.2994 6.83808C27.7265 7.15888 27.9694 7.67342 27.9486 8.21186C27.9517 8.52448 27.8807 8.83333 27.741 9.11199C27.5951 9.38121 27.3907 9.61332 27.1434 9.7907C26.8535 10.0021 26.5276 10.1568 26.1823 10.2486C25.759 10.3631 25.3218 10.4185 24.8834 10.4122C24.7104 10.4122 24.5091 10.4015 24.2808 10.3807C24.0336 10.3568 23.7889 10.3147 23.548 10.2543C23.2781 10.1857 23.0139 10.0958 22.7579 9.9857C22.4868 9.8687 22.2302 9.71837 21.9943 9.53847L22.6749 8.42258C22.8007 8.52071 22.9328 8.61066 23.0699 8.69055C23.224 8.77924 23.3857 8.85346 23.553 8.91196C23.748 8.97989 23.9474 9.03085 24.1506 9.06481C24.3965 9.10507 24.645 9.12457 24.8934 9.12268C25.2872 9.1447 25.6803 9.06733 26.037 8.89623C26.271 8.78678 26.422 8.55153 26.4264 8.29049C26.4226 8.09235 26.3163 7.90993 26.1458 7.8118C25.8741 7.65832 25.5728 7.56523 25.2627 7.53818L24.5613 7.4432C23.9417 7.39225 23.3505 7.16203 22.8567 6.78021C22.4698 6.44872 22.2534 5.95619 22.2698 5.44291C22.2654 5.12652 22.3333 4.81326 22.4673 4.52706C22.5956 4.25595 22.7862 4.01944 23.0234 3.83765C23.2857 3.64077 23.5813 3.49421 23.8958 3.40552C24.2732 3.29921 24.6632 3.24763 25.0545 3.2533C25.5596 3.25015 26.0628 3.31368 26.5509 3.44263C26.9862 3.55208 27.402 3.72946 27.7825 3.96912L27.1485 5.13784ZM34.1218 4.77992H31.5239V7.74827C31.5233 7.94956 31.5567 8.14896 31.6221 8.3383C31.6699 8.48486 31.7479 8.61947 31.851 8.73269C31.9441 8.83459 32.0599 8.91196 32.1888 8.95914C32.3234 9.00883 32.4662 9.03399 32.6096 9.03273C32.8499 9.03085 33.0877 8.98493 33.311 8.89623C33.5393 8.81006 33.7589 8.70061 33.9658 8.56977L34.5476 9.75925C34.2614 9.95299 33.9545 10.114 33.6331 10.2386C33.2657 10.3763 32.8763 10.4443 32.4851 10.4386C31.8303 10.477 31.1881 10.243 30.7081 9.7907C30.2357 9.23528 30.0036 8.51065 30.0634 7.78035V4.78496H28.7279V3.43194H30.0634V1.36875H31.539V3.43194H34.1369L34.1218 4.77992ZM38.6419 3.24763C39.0848 3.24197 39.5232 3.33003 39.9308 3.50553C40.3132 3.67348 40.6554 3.9232 40.9335 4.23771C41.2216 4.56857 41.4436 4.95291 41.5883 5.36932C41.7493 5.83794 41.8286 6.33109 41.8216 6.82739V7.1117V7.3803H36.8184C36.8549 7.65769 36.943 7.92566 37.0782 8.16972C37.1965 8.37289 37.3512 8.55153 37.5355 8.69621C37.7135 8.83648 37.9161 8.94152 38.1331 9.00694C38.357 9.07425 38.5897 9.10759 38.8237 9.10696C39.1785 9.10759 39.5307 9.04343 39.8629 8.91699C40.1994 8.79433 40.5133 8.61632 40.7932 8.39051L41.526 9.44348C41.1448 9.78127 40.6988 10.036 40.2164 10.1908C39.7427 10.3361 39.2508 10.409 38.7564 10.4071C38.2733 10.4241 37.7915 10.3455 37.338 10.175C36.9279 10.0127 36.5561 9.76554 36.2466 9.44852C35.9346 9.1252 35.6925 8.74024 35.5346 8.31691C35.3603 7.84577 35.2742 7.34633 35.2805 6.84311C35.2742 6.34618 35.3566 5.85241 35.5245 5.38505C35.6767 4.96297 35.912 4.57612 36.2158 4.24777C36.5077 3.93326 36.8618 3.68417 37.2549 3.51623C37.6946 3.33381 38.1664 3.24449 38.6419 3.2533V3.24763ZM38.6161 4.57424C38.3765 4.56983 38.1387 4.61072 37.9148 4.69564C37.7198 4.77364 37.5424 4.89189 37.3952 5.04285C37.2443 5.19508 37.121 5.37372 37.031 5.56935C36.9285 5.78762 36.8568 6.01973 36.8184 6.25876H40.3101C40.2629 5.79517 40.066 5.35988 39.749 5.0221C39.4465 4.72331 39.0376 4.56229 38.6161 4.57424ZM46.9293 3.24763C47.1331 3.24638 47.3363 3.26273 47.5375 3.29544C47.7149 3.32626 47.8892 3.37595 48.0571 3.44263L47.7036 4.91642C47.5394 4.83214 47.3646 4.76986 47.184 4.73212C46.9941 4.69186 46.801 4.67048 46.6072 4.66922C46.3871 4.66733 46.1682 4.70822 45.9631 4.78999C45.765 4.86673 45.587 4.98939 45.4435 5.1479C45.2951 5.31648 45.1819 5.51337 45.1108 5.72723C45.0278 5.97632 44.9875 6.23799 44.9913 6.50092V10.2543H43.5206V3.41118H44.9755V4.17984C45.1819 3.87351 45.4656 3.63008 45.7964 3.47408C46.1493 3.3206 46.5299 3.24512 46.9136 3.2533L46.9293 3.24763ZM51.9539 3.24763C52.4382 3.2426 52.9188 3.33569 53.3673 3.52188C53.7944 3.69864 54.1724 3.97918 54.4687 4.33773L53.5283 5.35359C53.3101 5.13847 53.0591 4.96109 52.7855 4.8271C52.5106 4.70256 52.2131 4.63966 51.9124 4.6428C51.6425 4.64029 51.3758 4.69375 51.1274 4.80069C50.8877 4.90384 50.6719 5.05607 50.4939 5.24792C50.3115 5.44795 50.1706 5.68257 50.0782 5.93795C49.8756 6.51099 49.8756 7.13812 50.0782 7.71179C50.1706 7.96717 50.3121 8.20117 50.4939 8.4012C50.6719 8.59368 50.8877 8.7459 51.1274 8.84843C51.3758 8.95536 51.6425 9.00946 51.9124 9.00694C52.2244 9.00946 52.5339 8.94152 52.8163 8.80691C53.0899 8.67167 53.3403 8.49366 53.5592 8.28042L54.4637 9.30699C54.1611 9.66301 53.7799 9.9423 53.3516 10.1228C52.905 10.3084 52.4263 10.4015 51.9432 10.3964C51.4456 10.4034 50.9506 10.3103 50.4883 10.1228C49.6429 9.78127 48.9774 9.09564 48.6547 8.23262C48.3169 7.31425 48.3169 6.30342 48.6547 5.38505C48.9774 4.52266 49.6429 3.83702 50.4883 3.49547C50.9512 3.31871 51.4438 3.23694 51.9382 3.2533L51.9539 3.24763ZM62.278 10.2486H60.8074V9.43279C60.5727 9.73724 60.2746 9.98507 59.9349 10.1593C59.5481 10.348 59.1222 10.4399 58.6926 10.4279C57.7931 10.4373 56.9288 10.0719 56.3029 9.41706C55.9922 9.08997 55.7481 8.70313 55.5859 8.28042C55.2393 7.35073 55.2393 6.3248 55.5859 5.39574C55.7488 4.97241 55.9922 4.58619 56.3029 4.25847C56.9288 3.60366 57.7931 3.2382 58.6926 3.24763C59.1228 3.23631 59.5487 3.33003 59.9349 3.52188C60.2746 3.69864 60.5727 3.94836 60.8074 4.25344V3.43194H62.278V10.2486ZM58.8693 4.65349C58.5762 4.64846 58.2856 4.70759 58.0176 4.8271C57.7761 4.93718 57.5604 5.09632 57.3836 5.29572C57.2075 5.49889 57.0716 5.73478 56.9835 5.99016C56.7955 6.5393 56.7955 7.13624 56.9835 7.68537C57.0716 7.94075 57.2075 8.17663 57.3836 8.38044C57.5604 8.57921 57.7761 8.73898 58.0176 8.84843C58.5561 9.07614 59.1625 9.07614 59.7009 8.84843C59.9424 8.74213 60.1601 8.58613 60.34 8.39051C60.5218 8.19048 60.6633 7.95648 60.7558 7.7011C60.9533 7.13938 60.9533 6.52609 60.7558 5.96437C60.6633 5.70899 60.5218 5.47437 60.34 5.27434C60.1601 5.07934 59.9424 4.92335 59.7009 4.81641C59.4399 4.70445 59.1581 4.64846 58.875 4.65349H58.8693ZM67.853 3.2533C68.0568 3.25204 68.26 3.26776 68.4613 3.30047C68.6387 3.33192 68.8129 3.38099 68.9809 3.44766L68.6273 4.92209C68.4632 4.83717 68.2883 4.77553 68.1078 4.73778C67.9178 4.6969 67.7247 4.67614 67.531 4.67425C67.3108 4.67236 67.0919 4.71325 66.8868 4.79565C66.6887 4.87239 66.5107 4.99505 66.3673 5.15356C66.2188 5.32151 66.1056 5.51902 66.0345 5.73226C65.9515 5.98135 65.9112 6.24303 65.915 6.50596V10.2593H64.445V3.41621H65.915V4.18487C66.1213 3.87602 66.4069 3.63071 66.7415 3.47408C67.0938 3.3206 67.475 3.24512 67.8587 3.2533H67.853ZM72.6751 3.2533C73.1047 3.24134 73.5305 3.3357 73.9168 3.52692C74.2564 3.70367 74.5546 3.9534 74.7898 4.25847V0H76.2599V10.2486H74.7898V9.43279C74.5546 9.73724 74.2571 9.98507 73.9168 10.1593C73.5299 10.348 73.1041 10.4399 72.6751 10.4279C71.775 10.4373 70.9107 10.0719 70.2848 9.41706C69.9684 9.09123 69.7199 8.70438 69.552 8.28042C69.2054 7.35073 69.2054 6.3248 69.552 5.39574C69.7149 4.97241 69.959 4.58619 70.2691 4.25847C70.8956 3.60366 71.7592 3.2382 72.6594 3.24763L72.6751 3.2533ZM77.9746 9.62276C78.0337 9.62087 78.0916 9.63156 78.1463 9.6542C78.1985 9.67622 78.2463 9.7083 78.2866 9.74856C78.3262 9.78819 78.3577 9.83474 78.3803 9.88569C78.4256 9.99325 78.4256 10.1153 78.3803 10.2228C78.3577 10.2738 78.3262 10.3203 78.2866 10.3593C78.2463 10.3996 78.1985 10.4317 78.1463 10.4543C78.0922 10.4789 78.0337 10.4908 77.9746 10.4908C77.7997 10.4933 77.6406 10.3902 77.5695 10.2279C77.5236 10.1203 77.5236 9.99828 77.5695 9.89072C77.6142 9.78504 77.6978 9.70201 77.8035 9.65924C77.8588 9.63471 77.9192 9.62213 77.9803 9.62276H77.9746ZM77.9746 10.3964C78.0192 10.3971 78.0639 10.3876 78.1048 10.37C78.1438 10.3524 78.179 10.3273 78.2086 10.2964C78.3375 10.1631 78.3375 9.95047 78.2086 9.81712C78.179 9.7863 78.1438 9.76114 78.1048 9.74352C78.062 9.73472 78.0174 9.73472 77.9746 9.74352C77.9318 9.73535 77.8878 9.73535 77.845 9.74352C77.7513 9.78944 77.6846 9.87751 77.6638 9.98067C77.6437 10.0838 77.672 10.1908 77.7412 10.27C77.7708 10.3008 77.806 10.326 77.845 10.3436C77.8859 10.3694 77.9318 10.3851 77.9803 10.3908L77.9746 10.3964ZM77.9746 9.86996C78.0174 9.86744 78.0601 9.88065 78.0941 9.90707C78.1224 9.92971 78.1375 9.96494 78.1356 10.0014C78.1375 10.0329 78.1262 10.0637 78.1048 10.0857C78.079 10.1102 78.0463 10.1247 78.0111 10.1279L78.1413 10.2807H78.0369L77.9173 10.1279H77.8815V10.2807H77.7978V9.87499L77.9746 9.86996ZM77.8758 9.94355V10.0486H77.9746C77.9916 10.0536 78.0098 10.0536 78.0268 10.0486C78.0331 10.0354 78.0331 10.0203 78.0268 10.0071C78.0343 9.99388 78.0343 9.97752 78.0268 9.96494C78.0098 9.95991 77.9916 9.95991 77.9746 9.96494L77.8758 9.94355ZM72.8254 4.67991C72.5323 4.67488 72.2417 4.73401 71.9737 4.85352C71.7322 4.9636 71.5164 5.12274 71.3397 5.32214C71.1636 5.52531 71.0277 5.7612 70.9396 6.01658C70.7522 6.56572 70.7522 7.16266 70.9396 7.71179C71.0277 7.96717 71.1636 8.20305 71.3397 8.40686C71.5164 8.60563 71.7322 8.7654 71.9737 8.87485C72.5122 9.10255 73.1185 9.10255 73.657 8.87485C73.8985 8.76854 74.1162 8.61255 74.2961 8.41692C74.4955 8.20809 74.6496 7.959 74.7483 7.68537C74.9452 7.12366 74.9452 6.51036 74.7483 5.94802C74.6552 5.69326 74.5143 5.45864 74.3326 5.25861C74.1527 5.06361 73.935 4.90762 73.6935 4.80069C73.428 4.69249 73.1431 4.64217 72.8569 4.65349L72.8254 4.67991Z" fill="#96969D"/>
</svg>
