<svg width="24" height="24" viewBox="0 0 24 24" fill="none" xmlns="http://www.w3.org/2000/svg">
<g id="Icons/ecommerce / money-off">
<path id="vector" d="M14.2629 8.82122C14.0574 8.55183 13.8118 8.34079 13.5262 8.18811C13.2406 8.03541 12.9067 7.95907 12.5247 7.95907C12.253 7.95907 11.9773 8.00261 11.6974 8.08971C11.4176 8.17679 11.172 8.3347 10.9607 8.56345L9.9784 7.58115C10.1955 7.35241 10.478 7.15705 10.8257 6.99509C11.1735 6.83311 11.4983 6.73238 11.8002 6.69291V5.67923C11.8002 5.48649 11.8652 5.3251 11.9953 5.19506C12.1253 5.06502 12.2867 5 12.4794 5C12.6722 5 12.8336 5.06502 12.9636 5.19506C13.0937 5.3251 13.1587 5.48649 13.1587 5.67923V6.66504C13.6347 6.74167 14.0818 6.90858 14.4998 7.16576C14.9178 7.42294 15.2719 7.78028 15.5622 8.23776C15.6667 8.39685 15.683 8.56811 15.611 8.75155C15.539 8.93501 15.4095 9.0697 15.2226 9.15562C15.0635 9.21367 14.8983 9.21222 14.7271 9.15125C14.5558 9.0903 14.4011 8.98029 14.2629 8.82122ZM18.8575 20.8283L15.3602 17.331C15.1222 17.6213 14.7924 17.8628 14.3709 18.0556C13.9494 18.2483 13.5453 18.354 13.1587 18.3726V19.3862C13.1587 19.579 13.0937 19.7403 12.9636 19.8704C12.8336 20.0004 12.6722 20.0655 12.4794 20.0655C12.2867 20.0655 12.1253 20.0004 11.9953 19.8704C11.8652 19.7403 11.8002 19.579 11.8002 19.3862V18.3273C11.121 18.1787 10.5488 17.9043 10.0838 17.5043C9.61875 17.1043 9.24401 16.5908 8.95953 15.9638C8.87361 15.7955 8.87042 15.6164 8.94996 15.4265C9.02949 15.2367 9.16736 15.1035 9.36358 15.0268C9.53194 14.9595 9.70495 14.9609 9.8826 15.0312C10.0602 15.1014 10.1967 15.23 10.2919 15.4169C10.5125 15.8977 10.8187 16.2933 11.2106 16.6039C11.6025 16.9145 12.0858 17.0698 12.6606 17.0698C13.0136 17.0698 13.3338 17.0054 13.6211 16.8765C13.9085 16.7476 14.1608 16.5717 14.3779 16.3487L4.19255 6.16341C4.06716 6.038 4.00301 5.88038 4.00009 5.69055C3.9972 5.50071 4.06135 5.34019 4.19255 5.20898C4.32375 5.07778 4.48283 5.01218 4.66977 5.01218C4.85671 5.01218 5.01577 5.07778 5.14697 5.20898L19.8119 19.8739C19.8792 19.9412 19.9274 20.0147 19.9565 20.0942C19.9855 20.1738 20 20.2579 20 20.3468C20 20.4356 19.9855 20.5212 19.9565 20.6036C19.9274 20.6861 19.8792 20.761 19.8119 20.8283C19.6807 20.9595 19.5216 21.0251 19.3347 21.0251C19.1478 21.0251 18.9887 20.9595 18.8575 20.8283Z" fill="#292B2E"/>
</g>
</svg>
