<svg width="35" height="35" viewBox="0 0 35 35" fill="none" xmlns="http://www.w3.org/2000/svg">
<path d="M29.8409 12.3818C30.6409 10.5485 31.2576 8.84017 31.6909 7.25684C32.1243 5.6735 32.3242 4.23184 32.2909 2.93184C32.2909 2.76517 32.2409 2.63184 32.1409 2.53184C32.0409 2.43184 31.9076 2.38184 31.7409 2.38184H27.2409C27.0409 2.38184 26.8659 2.43184 26.7159 2.53184C26.5659 2.63184 26.4909 2.78184 26.4909 2.98184L25.4409 7.53184C25.4076 7.73184 25.4159 7.91517 25.4659 8.08184C25.5159 8.2485 25.5909 8.38184 25.6909 8.48184L29.8409 12.3818ZM4.09092 31.0818C5.25759 31.0818 6.66592 30.9152 8.31592 30.5818C9.96592 30.2485 11.4909 29.7152 12.8909 28.9818L8.84092 24.7818C8.70759 24.6485 8.58259 24.5652 8.46592 24.5318C8.34925 24.4985 8.20759 24.4985 8.04092 24.5318L4.14092 25.3318C3.94092 25.3652 3.79092 25.4485 3.69092 25.5818C3.59092 25.7152 3.54092 25.8818 3.54092 26.0818V30.5818C3.54092 30.7152 3.59092 30.8318 3.69092 30.9318C3.79092 31.0318 3.92425 31.0818 4.09092 31.0818ZM26.3409 20.3818L25.2409 19.2318C25.9076 18.4318 26.5242 17.6318 27.0909 16.8318C27.6576 16.0318 28.3242 15.0152 29.0909 13.7818L24.6909 9.68184C24.3243 9.3485 24.0909 8.95684 23.9909 8.50684C23.8909 8.05684 23.8909 7.58184 23.9909 7.08184L24.9409 2.73184C25.0743 2.13184 25.3409 1.66517 25.7409 1.33184C26.1409 0.998502 26.6243 0.831836 27.1909 0.831836H31.5909C32.2243 0.831836 32.7576 1.04017 33.1909 1.45684C33.6243 1.8735 33.8409 2.38184 33.8409 2.98184C33.8409 5.8485 33.1493 8.83184 31.7659 11.9318C30.3826 15.0318 28.5742 17.8485 26.3409 20.3818ZM4.34092 32.6318C3.74092 32.6318 3.19925 32.4152 2.71592 31.9818C2.23259 31.5485 1.99092 31.0152 1.99092 30.3818V26.1818C1.99092 25.5818 2.16592 25.0652 2.51592 24.6318C2.86592 24.1985 3.32425 23.9318 3.89092 23.8318L7.54092 23.0318C8.04092 22.8985 8.49925 22.9068 8.91592 23.0568C9.33259 23.2068 9.72425 23.4652 10.0909 23.8318L14.2409 28.2818C15.4076 27.7152 16.5993 26.9902 17.8159 26.1068C19.0326 25.2235 20.3409 24.1985 21.7409 23.0318L0.440918 1.68184C0.274251 1.5485 0.190918 1.38184 0.190918 1.18184C0.190918 0.981836 0.274251 0.798503 0.440918 0.631836C0.607585 0.465169 0.799252 0.381836 1.01592 0.381836C1.23258 0.381836 1.42425 0.465169 1.59092 0.631836L34.4909 33.5818C34.6576 33.7152 34.7409 33.8818 34.7409 34.0818C34.7409 34.2818 34.6409 34.4652 34.4409 34.6318C34.2743 34.7985 34.0993 34.8818 33.9159 34.8818C33.7326 34.8818 33.5409 34.8152 33.3409 34.6818L22.7909 24.1318C19.5576 26.9652 16.3993 29.0902 13.3159 30.5068C10.2326 31.9235 7.24092 32.6318 4.34092 32.6318Z" fill="#1C1B1F"/>
</svg>
