<svg width="66" height="16" viewBox="0 0 66 16" fill="none" xmlns="http://www.w3.org/2000/svg">
<g clip-path="url(#clip0_1088_61651)">
<path d="M12.4852 1.63146C11.7256 0.839283 10.3541 0.5 8.60035 0.5H3.51063C3.33703 0.500218 3.16918 0.557032 3.03715 0.660265C2.90512 0.763498 2.81753 0.906406 2.79008 1.06339L0.665825 13.374C0.655179 13.4315 0.658368 13.4904 0.675169 13.5466C0.69197 13.6028 0.721978 13.6549 0.763093 13.6994C0.804207 13.7439 0.855436 13.7796 0.913194 13.804C0.970953 13.8285 1.03385 13.8411 1.09747 13.8409H4.24137L5.03499 9.24507L5.0112 9.38826C5.03795 9.23168 5.12492 9.08901 5.25642 8.98598C5.38792 8.88296 5.5553 8.82637 5.72835 8.82642H7.22043C10.1553 8.82642 12.4512 7.73698 13.1225 4.57761C13.1429 4.48423 13.1598 4.39396 13.1751 4.30525C13.374 3.138 13.1751 2.34426 12.4852 1.62523" fill="#7E7E86"/>
<path d="M50.9574 7.48954C50.7654 8.64435 49.8018 8.64435 48.8705 8.64435H48.3403L48.7125 6.48726C48.7231 6.42417 48.7581 6.36667 48.8111 6.32524C48.8642 6.28381 48.9317 6.26122 49.0014 6.26159H49.2444C49.8783 6.26159 50.4782 6.26159 50.7875 6.59154C50.971 6.78919 51.0271 7.08334 50.9574 7.48954ZM50.5512 4.47491H47.0386C46.9221 4.47477 46.8093 4.51282 46.7208 4.58219C46.6323 4.65156 46.5738 4.74766 46.5559 4.8531L45.1352 13.1017C45.1283 13.1401 45.1306 13.1793 45.142 13.2168C45.1533 13.2543 45.1734 13.289 45.2009 13.3187C45.2284 13.3483 45.2626 13.3721 45.3012 13.3883C45.3397 13.4046 45.3817 13.413 45.4241 13.413H47.2306C47.3123 13.4139 47.3917 13.3878 47.4541 13.3395C47.5165 13.2912 47.5578 13.2239 47.5705 13.15L47.975 10.8154C47.9928 10.7104 48.0511 10.6147 48.1393 10.5456C48.2275 10.4765 48.3398 10.4387 48.4559 10.4388H49.569C51.8836 10.4388 53.2193 9.41162 53.5677 7.37904C53.7257 6.49037 53.5677 5.79158 53.1207 5.30133C52.6194 4.76439 51.734 4.47958 50.558 4.47958" fill="#BBBBC1"/>
<path d="M25.893 7.48951C25.7009 8.64432 24.7374 8.64432 23.8061 8.64432H23.2691L23.6412 6.48723C23.6518 6.42414 23.6869 6.36663 23.7399 6.32521C23.7929 6.28378 23.8604 6.26119 23.9301 6.26156H24.1732C24.807 6.26156 25.4069 6.26156 25.7162 6.5915C25.9015 6.78916 25.9558 7.08331 25.8862 7.48951H25.893ZM25.4817 4.47489H21.9741C21.8576 4.47474 21.7449 4.51279 21.6564 4.58216C21.5678 4.65153 21.5094 4.74763 21.4915 4.85307L20.0708 13.1017C20.0639 13.14 20.0662 13.1793 20.0775 13.2168C20.0889 13.2542 20.109 13.289 20.1365 13.3186C20.164 13.3482 20.1982 13.372 20.2367 13.3883C20.2753 13.4046 20.3172 13.413 20.3597 13.4129H22.037C22.1533 13.4131 22.2658 13.3753 22.3543 13.3062C22.4428 13.2372 22.5014 13.1415 22.5196 13.0363L22.9037 10.8092C22.9216 10.7039 22.9802 10.608 23.0687 10.5389C23.1573 10.4697 23.27 10.432 23.3863 10.4326H24.4977C26.8123 10.4326 28.1481 9.40537 28.4964 7.37279C28.6545 6.48412 28.4964 5.78532 28.0495 5.29507C27.5499 4.75814 26.6645 4.47333 25.4885 4.47333" fill="#7E7E86"/>
<path d="M33.6458 10.4512C33.5817 10.8672 33.3529 11.247 33.0029 11.5185C32.6529 11.79 32.2061 11.9341 31.7475 11.9235C31.5372 11.9433 31.3247 11.9159 31.1284 11.8437C30.9322 11.7716 30.758 11.6568 30.6209 11.5094C30.4838 11.3619 30.3879 11.1862 30.3414 10.9972C30.2949 10.8083 30.2992 10.6118 30.354 10.4248C30.4176 10.01 30.644 9.63064 30.9909 9.35766C31.3378 9.08468 31.7814 8.93676 32.2387 8.94159C32.4479 8.93145 32.657 8.96388 32.8509 9.03653C33.0449 9.10919 33.2188 9.22027 33.3603 9.3618C33.4921 9.51315 33.586 9.68918 33.6354 9.87744C33.6847 10.0657 33.6883 10.2616 33.6458 10.4512V10.4512ZM35.991 7.45217H34.3153C34.2456 7.4518 34.1781 7.47439 34.1251 7.51582C34.0721 7.55725 34.037 7.61475 34.0264 7.67784L33.9517 8.10895L33.8344 7.95331C33.4707 7.46929 32.6584 7.30743 31.8461 7.30743C29.987 7.30743 28.3997 8.59764 28.0904 10.4061C27.9307 11.3103 28.1584 12.1725 28.7175 12.7749C29.2273 13.3274 29.9632 13.553 30.8367 13.553C31.2697 13.5568 31.6991 13.4807 32.0993 13.3294C32.4996 13.1781 32.8625 12.9545 33.1666 12.6721L33.0901 13.1001C33.0834 13.1386 33.086 13.1779 33.0976 13.2154C33.1091 13.2528 33.1294 13.2875 33.157 13.3171C33.1846 13.3467 33.2189 13.3705 33.2576 13.3867C33.2962 13.403 33.3382 13.4114 33.3807 13.4114H34.8948C35.0111 13.4116 35.1236 13.3738 35.2121 13.3047C35.3006 13.2357 35.3593 13.1399 35.3775 13.0348L36.2884 7.75877C36.295 7.72032 36.2924 7.68101 36.2809 7.64355C36.2693 7.60609 36.249 7.57137 36.2214 7.54178C36.1938 7.51219 36.1595 7.48844 36.1209 7.47217C36.0823 7.45589 36.0403 7.44748 35.9978 7.4475" fill="#7E7E86"/>
<path d="M58.7104 10.4512C58.6463 10.8675 58.4172 11.2475 58.0668 11.519C57.7164 11.7906 57.2692 11.9345 56.8104 11.9235C56.6001 11.9429 56.3879 11.9152 56.1918 11.843C55.9958 11.7707 55.8218 11.656 55.6848 11.5086C55.5478 11.3613 55.4518 11.1857 55.4052 10.9969C55.3585 10.8081 55.3625 10.6118 55.4169 10.4248C55.4809 10.0099 55.7076 9.63049 56.0548 9.35753C56.4019 9.08457 56.8457 8.93672 57.3033 8.94159C57.5125 8.93167 57.7215 8.9642 57.9154 9.03684C58.1093 9.10948 58.2832 9.22044 58.4249 9.3618C58.5567 9.51315 58.6506 9.68918 58.6999 9.87744C58.7493 10.0657 58.7528 10.2616 58.7104 10.4512V10.4512ZM61.0555 7.45217H59.3731C59.3034 7.4518 59.2359 7.47439 59.1829 7.51582C59.1298 7.55725 59.0948 7.61475 59.0842 7.67784L59.0095 8.10895L58.8922 7.95331C58.5268 7.46929 57.7145 7.30743 56.9039 7.30743C55.0448 7.30743 53.4575 8.59764 53.1482 10.4061C52.9868 11.3103 53.2162 12.1725 53.7753 12.7749C54.2851 13.3274 55.021 13.553 55.8945 13.553C56.3273 13.5572 56.7566 13.4813 57.1566 13.33C57.5567 13.1786 57.9192 12.9549 58.2226 12.6721L58.1479 13.1001C58.1412 13.1386 58.1438 13.1779 58.1553 13.2154C58.1669 13.2528 58.1872 13.2875 58.2148 13.3171C58.2424 13.3467 58.2767 13.3705 58.3153 13.3867C58.3539 13.403 58.396 13.4114 58.4385 13.4114H59.9526C60.0689 13.4116 60.1814 13.3738 60.2699 13.3047C60.3584 13.2357 60.417 13.1399 60.4353 13.0348L61.3444 7.75877C61.3513 7.72041 61.349 7.68113 61.3377 7.64367C61.3264 7.6062 61.3062 7.57145 61.2787 7.54183C61.2513 7.5122 61.217 7.48842 61.1785 7.47213C61.1399 7.45584 61.098 7.44744 61.0555 7.4475" fill="#BBBBC1"/>
<path d="M44.9538 7.45215H43.2544C43.1746 7.45218 43.096 7.47006 43.0256 7.50424C42.9551 7.53842 42.8948 7.58785 42.8499 7.64825L40.5251 10.8014L39.5361 7.77743C39.5063 7.68512 39.4447 7.60414 39.3604 7.54662C39.2762 7.4891 39.1738 7.45814 39.0687 7.45838H37.4067C37.3601 7.45828 37.3141 7.4684 37.2727 7.48788C37.2312 7.50737 37.1954 7.53566 37.1683 7.57038C37.1412 7.60511 37.1235 7.64527 37.1168 7.68751C37.1101 7.72976 37.1145 7.77286 37.1297 7.81322L38.9905 12.82L37.2402 15.0829C37.2089 15.1229 37.1903 15.17 37.1864 15.2191C37.1826 15.2682 37.1935 15.3173 37.2181 15.361C37.2427 15.4048 37.2799 15.4415 37.3258 15.4671C37.3717 15.4927 37.4244 15.5062 37.4781 15.5062H39.169C39.2477 15.5062 39.3253 15.4888 39.3951 15.4555C39.4649 15.4221 39.5249 15.3739 39.57 15.3148L45.1917 7.87392C45.222 7.83355 45.2397 7.78638 45.2429 7.73748C45.2461 7.68859 45.2346 7.63982 45.2098 7.59643C45.185 7.55304 45.1477 7.51668 45.102 7.49125C45.0563 7.46583 45.0038 7.45231 44.9504 7.45215" fill="#7E7E86"/>
<path d="M63.0353 4.70214L61.5942 13.1064C61.5873 13.1447 61.5896 13.184 61.601 13.2215C61.6123 13.2589 61.6324 13.2937 61.6599 13.3233C61.6874 13.3529 61.7216 13.3767 61.7602 13.393C61.7987 13.4093 61.8407 13.4177 61.8831 13.4176H63.3327C63.449 13.4178 63.5615 13.38 63.65 13.311C63.7385 13.2419 63.7971 13.1462 63.8153 13.041L65.2377 4.79241C65.2444 4.75396 65.2418 4.71465 65.2303 4.67719C65.2187 4.63972 65.1984 4.605 65.1708 4.57542C65.1432 4.54583 65.1089 4.52208 65.0703 4.5058C65.0317 4.48953 64.9897 4.48111 64.9472 4.48114H63.3242C63.2544 4.48115 63.1868 4.50407 63.1338 4.54575C63.0808 4.58744 63.0459 4.64512 63.0353 4.70837" fill="#BBBBC1"/>
<path d="M12.4852 1.63146C11.7256 0.839283 10.3541 0.5 8.60035 0.5H3.51063C3.33703 0.500218 3.16918 0.557032 3.03715 0.660265C2.90512 0.763498 2.81753 0.906406 2.79008 1.06339L0.665825 13.374C0.655179 13.4315 0.658368 13.4904 0.675169 13.5466C0.69197 13.6028 0.721978 13.6549 0.763093 13.6994C0.804207 13.7439 0.855436 13.7796 0.913194 13.804C0.970953 13.8285 1.03385 13.8411 1.09747 13.8409H4.24137L5.03499 9.24507L5.0112 9.38826C5.03795 9.23168 5.12492 9.08901 5.25642 8.98598C5.38792 8.88296 5.5553 8.82637 5.72835 8.82642H7.22043C10.1553 8.82642 12.4512 7.73698 13.1225 4.57761C13.1429 4.48423 13.1598 4.39396 13.1751 4.30525C13.374 3.138 13.1751 2.34426 12.4852 1.62523" fill="#7E7E86"/>
<path d="M5.883 4.32704C5.89899 4.23341 5.93971 4.14478 6.0016 4.06883C6.0635 3.99289 6.14471 3.93194 6.23817 3.89127C6.32339 3.85323 6.41698 3.83353 6.51178 3.83368H10.5037C10.9439 3.83093 11.3838 3.86007 11.819 3.92083C11.9346 3.93795 12.0467 3.95819 12.1589 3.97998C12.2711 4.00176 12.373 4.02666 12.475 4.05468L12.6262 4.0967C12.8165 4.15417 13.0013 4.22601 13.1785 4.31148C13.3774 3.14422 13.1785 2.35049 12.4886 1.63146C11.729 0.839283 10.3592 0.5 8.60375 0.5H3.51063C3.33703 0.500218 3.16918 0.557031 3.03715 0.660265C2.90512 0.763498 2.81753 0.906406 2.79008 1.06339L0.665825 13.3725C0.655179 13.4299 0.658368 13.4888 0.675169 13.545C0.69197 13.6012 0.721978 13.6534 0.763093 13.6979C0.804207 13.7423 0.855436 13.778 0.913194 13.8025C0.970953 13.8269 1.03385 13.8395 1.09747 13.8394H4.24137L5.035 9.24507L5.883 4.32704Z" fill="#7E7E86"/>
<path d="M13.1765 4.31146C13.1612 4.40017 13.1443 4.49044 13.1239 4.58382C12.4441 7.74008 10.1567 8.83263 7.22182 8.83263H5.72805C5.55418 8.83286 5.38621 8.89038 5.25485 8.99468C5.12348 9.09899 5.03749 9.24311 5.0126 9.40069L4.24786 13.8425L4.03034 15.1016C4.02145 15.1515 4.02456 15.2027 4.03945 15.2515C4.05434 15.3002 4.08066 15.3455 4.11656 15.384C4.15247 15.4225 4.19711 15.4534 4.24737 15.4745C4.29763 15.4956 4.35231 15.5064 4.40761 15.5062H7.05698C7.20852 15.5061 7.35506 15.4565 7.47029 15.3664C7.58553 15.2763 7.66192 15.1515 7.68576 15.0144L7.71125 14.8899L8.21088 11.992L8.24317 11.8364C8.26701 11.6993 8.3434 11.5745 8.45863 11.4844C8.57387 11.3943 8.7204 11.3447 8.87194 11.3446H9.26961C11.8357 11.3446 13.8444 10.389 14.4324 7.62802C14.6771 6.47477 14.5497 5.5114 13.9022 4.83439C13.6966 4.62447 13.4506 4.45091 13.1765 4.32236" fill="#BBBBC1"/>
<path d="M12.4733 4.05467C12.3714 4.02666 12.266 4.00176 12.1572 3.97997C12.0485 3.95818 11.9363 3.93795 11.8173 3.92083C11.3821 3.86007 10.9423 3.83093 10.502 3.83367H6.51351C6.4187 3.83352 6.32512 3.85322 6.2399 3.89126C6.14644 3.93193 6.06523 3.99288 6.00333 4.06883C5.94143 4.14477 5.90072 4.23341 5.88472 4.32703L5.03502 9.25129L5.01123 9.39447C5.03761 9.23802 5.12424 9.09538 5.25546 8.99233C5.38668 8.88929 5.55382 8.83264 5.72668 8.83264H7.22046C10.1553 8.83264 12.4512 7.7432 13.1225 4.58383C13.1429 4.49045 13.1599 4.40018 13.1752 4.31147C12.9982 4.22588 12.8134 4.15454 12.6229 4.09825L12.4716 4.05467" fill="#96969D"/>
</g>
<defs>
<clipPath id="clip0_1088_61651">
<rect width="64.5774" height="15" fill="white" transform="translate(0.666992 0.5)"/>
</clipPath>
</defs>
</svg>
