<svg width="48" height="48" viewBox="0 0 48 48" fill="none" xmlns="http://www.w3.org/2000/svg">
<path d="M15.1607 40.595C14.5249 40.595 13.9736 40.3616 13.5069 39.895C13.0402 39.4283 12.8069 38.877 12.8069 38.2411V8.94875C12.8069 8.31289 13.0402 7.76162 13.5069 7.29494C13.9736 6.82829 14.5249 6.59497 15.1607 6.59497H30.8531C31.489 6.59497 32.0402 6.82831 32.5069 7.29499C32.9736 7.76167 33.2069 8.31293 33.2069 8.94879V13.65C33.2069 14.0111 32.9142 14.3038 32.5531 14.3038C32.192 14.3038 31.8992 14.0111 31.8992 13.65V11.5642H14.1146V35.6257H31.8992V33.54C31.8992 33.1788 32.192 32.8861 32.5531 32.8861C32.9142 32.8861 33.2069 33.1788 33.2069 33.5399V38.2412C33.2069 38.877 32.9736 39.4283 32.5069 39.895C32.0402 40.3616 31.489 40.595 30.8531 40.595H15.1607ZM14.1146 36.9334V38.2412C14.1146 38.5027 14.2235 38.7424 14.4415 38.9604C14.6594 39.1783 14.8992 39.2873 15.1607 39.2873H30.8531C31.1146 39.2873 31.3544 39.1783 31.5723 38.9604C31.7903 38.7424 31.8992 38.5027 31.8992 38.2412V36.9334H14.1146ZM14.1146 10.2565H31.8992V8.94879C31.8992 8.68727 31.7903 8.44753 31.5723 8.22956C31.3544 8.01162 31.1146 7.90265 30.8531 7.90265H15.1607C14.8992 7.90265 14.6594 8.01162 14.4415 8.22956C14.2235 8.44753 14.1146 8.68727 14.1146 8.94879V10.2565Z" fill="#292B2E"/>
<path d="M36.6811 18.5748L37.16 19.5601C37.2557 19.7477 37.3994 19.8416 37.5909 19.8416C37.7825 19.8416 37.9262 19.7477 38.0219 19.5601L38.5008 18.5748L39.5064 18.1057C39.698 18.0119 39.7938 17.8711 39.7938 17.6834C39.7938 17.4958 39.698 17.355 39.5064 17.2612L38.5008 16.792L38.0219 15.8068C37.9262 15.6192 37.7825 15.5253 37.5909 15.5253C37.3994 15.5253 37.2557 15.6192 37.16 15.8068L36.6811 16.792L35.6755 17.2612C35.4839 17.355 35.3881 17.4958 35.3881 17.6834C35.3881 17.8711 35.4839 18.0119 35.6755 18.1057L36.6811 18.5748Z" fill="#292B2E"/>
<path d="M26.0501 25.2369L27.3431 28.0049C27.4708 28.2864 27.6942 28.4271 28.0135 28.4271C28.3327 28.4271 28.5562 28.2864 28.6839 28.0049L29.9769 25.2369L32.8022 23.9701C33.0895 23.845 33.2332 23.6261 33.2332 23.3133C33.2332 23.0005 33.0895 22.7816 32.8022 22.6565L29.9769 21.3898L28.6839 18.6218C28.5562 18.3403 28.3327 18.1995 28.0135 18.1995C27.6942 18.1995 27.4708 18.3403 27.3431 18.6218L26.0501 21.3898L23.2247 22.6565C22.9374 22.7816 22.7938 23.0005 22.7938 23.3133C22.7938 23.6261 22.9374 23.845 23.2247 23.9701L26.0501 25.2369Z" fill="#292B2E"/>
<path d="M36.6811 29.8346L37.16 30.8198C37.2557 31.0075 37.3994 31.1013 37.5909 31.1013C37.7825 31.1013 37.9262 31.0075 38.0219 30.8198L38.5008 29.8346L39.5064 29.3654C39.698 29.2716 39.7938 29.1308 39.7938 28.9432C39.7938 28.7555 39.698 28.6148 39.5064 28.5209L38.5008 28.0518L38.0219 27.0666C37.9262 26.8789 37.7825 26.7851 37.5909 26.7851C37.3994 26.7851 37.2557 26.8789 37.16 27.0666L36.6811 28.0518L35.6755 28.5209C35.4839 28.6148 35.3881 28.7555 35.3881 28.9432C35.3881 29.1308 35.4839 29.2716 35.6755 29.3654L36.6811 29.8346Z" fill="#292B2E"/>
<path d="M14.1146 36.9334V38.2412C14.1146 38.5027 14.2235 38.7424 14.4415 38.9604C14.6594 39.1783 14.8992 39.2873 15.1607 39.2873H30.8531C31.1146 39.2873 31.3544 39.1783 31.5723 38.9604C31.7903 38.7424 31.8992 38.5027 31.8992 38.2412V36.9334H14.1146ZM14.1146 36.9334V39.2873M14.1146 10.2565H31.8992V8.94879C31.8992 8.68727 31.7903 8.44753 31.5723 8.22956C31.3544 8.01162 31.1146 7.90265 30.8531 7.90265H15.1607C14.8992 7.90265 14.6594 8.01162 14.4415 8.22956C14.2235 8.44753 14.1146 8.68727 14.1146 8.94879V10.2565ZM14.1146 10.2565V7.90265M15.1607 40.595C14.5249 40.595 13.9736 40.3616 13.5069 39.895C13.0402 39.4283 12.8069 38.877 12.8069 38.2411V8.94875C12.8069 8.31289 13.0402 7.76162 13.5069 7.29494C13.9736 6.82829 14.5249 6.59497 15.1607 6.59497H30.8531C31.489 6.59497 32.0402 6.82831 32.5069 7.29499C32.9736 7.76167 33.2069 8.31293 33.2069 8.94879V13.65C33.2069 14.0111 32.9142 14.3038 32.5531 14.3038V14.3038C32.192 14.3038 31.8992 14.0111 31.8992 13.65V11.5642H14.1146V35.6257H31.8992V33.54C31.8992 33.1788 32.192 32.8861 32.5531 32.8861V32.8861C32.9142 32.8861 33.2069 33.1788 33.2069 33.54V38.2412C33.2069 38.877 32.9736 39.4283 32.5069 39.895C32.0402 40.3616 31.489 40.595 30.8531 40.595H15.1607ZM37.16 19.5601L36.6811 18.5748L35.6755 18.1057C35.4839 18.0119 35.3881 17.8711 35.3881 17.6834C35.3881 17.4958 35.4839 17.355 35.6755 17.2612L36.6811 16.792L37.16 15.8068C37.2557 15.6192 37.3994 15.5253 37.5909 15.5253C37.7825 15.5253 37.9262 15.6192 38.0219 15.8068L38.5008 16.792L39.5064 17.2612C39.698 17.355 39.7938 17.4958 39.7938 17.6834C39.7938 17.8711 39.698 18.0119 39.5064 18.1057L38.5008 18.5748L38.0219 19.5601C37.9262 19.7477 37.7825 19.8416 37.5909 19.8416C37.3994 19.8416 37.2557 19.7477 37.16 19.5601ZM27.3431 28.0049L26.0501 25.2369L23.2247 23.9701C22.9374 23.845 22.7938 23.6261 22.7938 23.3133C22.7938 23.0005 22.9374 22.7816 23.2247 22.6565L26.0501 21.3898L27.3431 18.6218C27.4708 18.3403 27.6942 18.1995 28.0135 18.1995C28.3327 18.1995 28.5562 18.3403 28.6839 18.6218L29.9769 21.3898L32.8022 22.6565C33.0895 22.7816 33.2332 23.0005 33.2332 23.3133C33.2332 23.6261 33.0895 23.845 32.8022 23.9701L29.9769 25.2369L28.6839 28.0049C28.5562 28.2864 28.3327 28.4271 28.0135 28.4271C27.6942 28.4271 27.4708 28.2864 27.3431 28.0049ZM37.16 30.8198L36.6811 29.8346L35.6755 29.3654C35.4839 29.2716 35.3881 29.1308 35.3881 28.9432C35.3881 28.7555 35.4839 28.6148 35.6755 28.5209L36.6811 28.0518L37.16 27.0666C37.2557 26.8789 37.3994 26.7851 37.5909 26.7851C37.7825 26.7851 37.9262 26.8789 38.0219 27.0666L38.5008 28.0518L39.5064 28.5209C39.698 28.6148 39.7938 28.7555 39.7938 28.9432C39.7938 29.1308 39.698 29.2716 39.5064 29.3654L38.5008 29.8346L38.0219 30.8198C37.9262 31.0075 37.7825 31.1013 37.5909 31.1013C37.3994 31.1013 37.2557 31.0075 37.16 30.8198Z" stroke="#292B2E" stroke-width="0.31875"/>
</svg>
