<svg width="375" height="64" fill="none" xmlns="http://www.w3.org/2000/svg">
  <g opacity=".5" clip-path="url(#a)">
    <g clip-path="url(#b)">
      <path d="M313.447 63.0693c2.682-2.3616 6.203-3.7936 10.058-3.7936 3.855 0 7.414 1.4483 10.102 3.8335" stroke="#F8F8FB" stroke-width=".808333" stroke-miterlimit="10"/>
      <path d="M293.541 63.3865c-.485-.8537-1.402-1.4293-2.454-1.4293-1.053 0-1.969.5756-2.455 1.4293h4.909Z" fill="#F8F8FB"/>
      <path d="M279.131 63.3378c-.367-.7597-1.144-1.2832-2.044-1.2832-.573 0-1.096.2131-1.496.5641-.436-1.0126-1.443-1.7215-2.615-1.7215-1.173 0-2.137.6798-2.587 1.6586-.051-.0047-.104-.0074-.157-.0074-.615 0-1.157.3132-1.475.7894h10.374Zm24.769-.0318c-.246-.5202-.776-.88-1.389-.88-.614 0-1.144.3598-1.389.88h2.778Zm-77.923-.207c-.02-.0987-.031-.2015-.031-.3064 0-.8476.687-1.5356 1.536-1.5356.848 0 1.535.6873 1.535 1.5356 0 .113-.012.2232-.035.3288l-3.005-.0224Zm-18.754.1556c-.038-.1346-.059-.2767-.059-.4235 0-.8476.687-1.5355 1.536-1.5355.848 0 1.536.6873 1.536 1.5355 0 .1468-.021.2889-.06.4235h-2.953Zm-5.824 0c-.039-.1346-.06-.2767-.06-.4235 0-.8476.688-1.5355 1.536-1.5355.849 0 1.536.6873 1.536 1.5355 0 .1468-.021.2889-.06.4235h-2.952Z" fill="#F8FDFF"/>
      <path d="M203.846 63.2546c-.196-.3342-.309-.7231-.309-1.1385 0-1.2426 1.007-2.2499 2.25-2.2499s2.25 1.0073 2.25 2.2499c0 .4154-.113.8043-.309 1.1385h-3.882Z" fill="#F8FDFF"/>
      <path d="M188.527 63.2952v-3.6386" stroke="#fff" stroke-width=".808333" stroke-miterlimit="10"/>
      <path d="m190.228 60.9107-1.701-4.61-1.701 4.61h3.402Z" fill="#F8FDFF"/>
      <path d="M190.965 63.2952v-4.5377m2.121 1.564-2.121-5.7492-2.121 5.7492h4.242Zm91.256-1.5775c0 .9707.787 1.7574 1.758 1.7574s1.758-.7867 1.758-1.7574c0-.7597-1.077-2.4549-1.545-3.155-.101-.1515-.324-.1515-.425 0-.467.7001-1.544 2.3953-1.544 3.155h-.002Zm1.758-.0358v4.6357m-.015-3.7685-.434-.4336" stroke="#fff" stroke-width=".808333" stroke-miterlimit="10"/>
      <path d="M284.286 57.9275c-.25-.443-.521-.8625-.694-1.1209-.085-.1278-.273-.1278-.359 0-.394.5906-1.302 2.0193-1.302 2.6599 0 .8178.663 1.4814 1.482 1.4814.507 0 .954-.2544 1.221-.642m-1.221-.8699v3.9079" stroke="#fff" stroke-width=".808333" stroke-miterlimit="10"/>
      <path d="M299.438 58.744c0 .9707-.787 1.7574-1.758 1.7574s-1.758-.7867-1.758-1.7574c0-.7597 1.077-2.4549 1.545-3.155.101-.1515.324-.1515.425 0 .467.7001 1.544 2.3953 1.544 3.155h.002Z" fill="#F8FDFF"/>
      <path d="M297.68 58.7082v4.6357m.015-3.7685.434-.4336m1.365-1.2143c.25-.443.521-.8625.694-1.1209.085-.1278.273-.1278.358 0 .395.5906 1.303 2.0193 1.303 2.6599 0 .8178-.663 1.4814-1.482 1.4814-.507 0-.954-.2544-1.221-.642m1.221-.8699v3.9079" stroke="#fff" stroke-width=".808333" stroke-miterlimit="10"/>
      <path d="M284.848 22.9453h-.525v19.5293h.525V22.9453Zm-1.989 1.0377h-.525v18.4916h.525V23.983Zm-1.989 1.1899h-.525v17.301h.525v-17.301Zm-1.99 1.9407h-.525v19.6233h.525V27.1136Zm-1.99 4.6473h-.525v14.976h.525v-14.976Z" fill="#F8F8FB"/>
      <path d="M287.129 42.9258v-5.6592l-.435-.5412V34.928l.435-.5411V19.9858h-.199c-7.094 0-12.845 5.7499-12.845 12.8425v1.5586l.39.5411v1.7974l-.39.5412v9.7619m-3.739.2381V35.0072h-7.115l-4.838 2.8492v25.4212" stroke="#fff" stroke-width=".808333" stroke-miterlimit="10"/>
      <path d="M268.757 38.9462h-8.775v.5249h8.775v-.5249Zm0 1.9496h-8.775v.5249h8.775v-.5249Zm0 1.9495h-8.775v.5249h8.775v-.5249Zm0 1.9502h-8.775v.5249h8.775v-.5249Zm0 1.9496h-8.775v.5249h8.775v-.5249Zm-5.838 1.9495h-2.937v.5249h2.937v-.5249Zm0 1.9495h-2.937v.525h2.937v-.525Zm0 1.9503h-2.937v.5249h2.937v-.5249Z" fill="#F8F8FB"/>
      <path d="M254.507 62.4781h-9.767" stroke="#fff" stroke-width=".808333" stroke-miterlimit="10"/>
      <path d="M253.292 52.568h-.768v.7684h.768v-.7684Zm-2.027 0h-.768v.7684h.768v-.7684Zm-2.027 0h-.768v.7684h.768v-.7684Zm4.054 1.9218h-.768v.7684h.768v-.7684Zm-2.027 0h-.768v.7684h.768v-.7684Zm-2.027 0h-.768v.7684h.768v-.7684Zm2.027-3.8375h-.768v.7684h.768v-.7684Zm-2.027 0h-.768v.7684h.768v-.7684Zm4.054 5.7593h-.768v.7684h.768v-.7684Zm-2.027 0h-.768v.7684h.768v-.7684Zm-2.027 0h-.768v.7684h.768v-.7684Z" fill="#F8F8FB"/>
      <path d="M246.77 63.1484v-.6704h.485V48.8224h5.218l2.034 2.9426v10.713h.452v.7232m-10.219.0182v-.7414h.404V48.8651l2.034-.0427" stroke="#fff" stroke-width=".808333" stroke-miterlimit="10"/>
      <path d="m222.08 52.5761 2.999-2.8357 3.072 2.8357" stroke="#F8F8FB" stroke-width=".808333" stroke-miterlimit="10"/>
      <path d="M215.908 63.0456V52.6708l3.1-4.769 3.072 4.6743m6.071 0 2.998-4.6743 3.175 4.769v10.3234" stroke="#fff" stroke-width=".808333" stroke-linejoin="round"/>
      <path d="M232.516 54.4898h-.757v.7569h.757v-.7569Zm-1.367-2.8966c.209 0 .379-.1698.379-.3788 0-.209-.17-.3788-.379-.3788s-.379.1691-.379.3788c0 .2097.17.3788.379.3788Zm-.609 2.8966h-.757v.7569h.757v-.7569Zm-3.263 0h-.757v.7569h.757v-.7569Zm5.239 1.9752h-.757v.757h.757v-.757Zm-1.976 0h-.757v.757h.757v-.757Zm1.976 1.9746h-.757v.757h.757v-.757Zm-1.976 0h-.757v.757h.757v-.757Zm-10.214-3.9498h-.757v.7569h.757v-.7569Zm-1.366-2.8966c.209 0 .379-.1698.379-.3788 0-.209-.17-.3788-.379-.3788s-.379.1691-.379.3788c0 .2097.169.3788.379.3788Zm-.61 2.8966h-.757v.7569h.757v-.7569Zm1.976 1.9752h-.757v.757h.757v-.757Zm-1.976 0h-.757v.757h.757v-.757Zm1.976 1.9746h-.757v.757h.757v-.757Zm-1.976 0h-.757v.757h.757v-.757Z" fill="#F8F8FB"/>
      <path d="M229.937 49.7404h-9.663m14.05 2.8689-.614.2462-.614-.2462-.613.2462-.614-.2462-.613.2462-.615-.2462-.613.2462-.614-.2462-.614.2462-.613-.2462-.614.2462-.614-.2462-.613.2462-.614-.2462-.614.2462-.613-.2462-.615.2462-.613-.2462-.614.2462-.614-.2462-.614.2462-.614-.2462-.614.2462-.614-.2462-.613.2462-.615-.2462-.614.2462-.614-.2462-.614.2462-.615-.2462" stroke="#fff" stroke-width=".808333" stroke-miterlimit="10"/>
      <path d="M222.074 52.9495v10.1989m6.045-10.1989v7.6581" stroke="#F8F8FB" stroke-width=".808333" stroke-miterlimit="10"/>
      <path d="M227.959 23.774v-6.9364h10.542v6.7605m-7.53-7.1115V9.5502h4.559v6.8484m-2.899-7.1731V4.48694h1.239V9.1653m2.149 32.1133V24.0811h4.884v17.6365m-15.223-.0656V24.0811h4.884v17.3734m-6.594 7.4532v-6.6083h18.642v20.6901" stroke="#fff" stroke-width=".808333" stroke-miterlimit="10"/>
      <path d="M240.586 44.7015h-14.805v.5249h14.805v-.5249Zm0 1.9496h-14.805v.5249h14.805v-.5249Zm0 1.9495h-4.671v.5249h4.671v-.5249Z" fill="#F8F8FB"/>
      <path d="M235.325 18.5403h-.525v4.1216h.525v-4.1216Zm-1.832 0h-.525v19.2864h.525V18.5403Zm-1.832 0h-.525v4.1216h.525v-4.1216Z" fill="#F8FDFF"/>
      <path d="m257.566 14.3564 1.59 22.3223m-5.44 13.2396 2.58-35.5619m-1.651-7.74678-.388.68457m2.624.0203-.572-1.01469m-3.373 3.32478 1.322-2.33513.003-.00338 1.307 2.27086 1.309-2.26748 1.309 2.26748 1.31-2.26748 1.309 2.26748.909-1.57411m-12.326 4.02158h2.251l-.934-1.6168m3.553 1.6168-1.309-2.26752-1.31 2.26752h2.619Zm2.619 0-1.309-2.26752-1.31 2.26752h2.619Zm2.619 0-1.31-2.26752-1.309 2.26752h2.619Zm2.619 0-1.31-2.26752-1.309 2.26752h2.619Z" stroke="#F8F8FB" stroke-width=".808333" stroke-miterlimit="10"/>
      <path d="m263.424 9.73688-1.309 2.26752h2.295" stroke="#F8F8FB" stroke-width=".808333" stroke-miterlimit="10"/>
      <path d="M264.434 11.9881h-2.319l1.309 2.2675 1.079-1.8691m-5.007-.3984 1.309 2.2675 1.31-2.2675h-2.619Zm3.837-2.34863h-11.408" stroke="#F8F8FB" stroke-width=".808333" stroke-miterlimit="10"/>
      <path d="M264.708 16.1321h-5.574v.5249h5.574v-.5249Zm0 1.9502h-5.574v.5249h5.574v-.5249Zm0 1.9496h-5.574v.5249h5.574v-.5249Z" fill="#F8FDFF"/>
      <path d="M254.662 16.1321h-5.575v.5249h5.575v-.5249Zm0 1.9502h-5.575v.5249h5.575v-.5249Zm0 1.9496h-5.575v.5249h5.575v-.5249Z" fill="#F8F8FB"/>
      <path d="M249.12 14.0033c0-4.29551 3.483-7.7779 7.779-7.7779 4.296 0 7.78 3.48239 7.78 7.7779m-17.671 33.8985V33.2525l.913-.6765V14.3456h17.957V32.576l.748.6765v1.3083m-59.505.3937V29.852l13.531-7.3612v26.1524" stroke="#fff" stroke-width=".808333" stroke-miterlimit="10"/>
      <path d="M214.081 62.7777V38.928l-13.531-7.3619v30.6292" stroke="#fff" stroke-width=".808333" stroke-miterlimit="10"/>
      <path d="M196.764 52.3488V31.5661h3.786" stroke="#fff" stroke-width=".808333" stroke-miterlimit="10"/>
      <path d="M211.919 40.7321h-9.552v.5107h9.552v-.5107Zm0 1.8974h-9.552v.5107h9.552v-.5107Zm0 1.8975h-9.552v.5107h9.552v-.5107Zm0 1.8974h-9.552v.5108h9.552v-.5108Zm0 1.8975h-9.552v.5107h9.552v-.5107Zm0 1.8975h-9.552v.5107h9.552v-.5107Zm0 1.8974h-9.552v.5107h9.552v-.5107Zm0 1.8975h-9.552v.5107h9.552v-.5107Z" fill="#F8F8FB"/>
      <path d="M218.458 26.7578v11.4734m-1.524-10.7117v9.8546m-1.524-9.0929v8.4266m-1.524-7.6649v7.1887m-1.523-6.427v6.0461m-1.524-5.2844v4.9036m-1.524-4.1419v3.7611m64.517 15.6687h-8.19" stroke="#F8F8FB" stroke-width=".808333" stroke-miterlimit="10"/>
      <path d="M280.457 63.0693V50.7578l-3.353-3.0941-3.272 3.0941v9.5495" stroke="#fff" stroke-width=".808333" stroke-miterlimit="10"/>
      <path d="M277.104 47.6637h-8.19l-3.272 3.0941v11.9935" stroke="#fff" stroke-width=".808333" stroke-miterlimit="10"/>
      <path d="M278.688 52.6783h-.799v.7995h.799v-.7995Zm-1.442-1.8373c.221 0 .4-.179.4-.3998s-.179-.3998-.4-.3998c-.221 0-.4.179-.4.3998s.179.3998.4.3998Zm-.644 1.8373h-.799v.7995h.799v-.7995Zm2.086 2.0848h-.799v.7989h.799v-.7989Zm-2.086 0h-.799v.7989h.799v-.7989Zm2.086 2.0855h-.799v.7996h.799v-.7996Zm-2.086 0h-.799v.7996h.799v-.7996Z" fill="#F8F8FB"/>
      <path d="M272.219 52.6783h-.799v.7995h.799v-.7995Zm-2.085 0h-.799v.7995h.799v-.7995Zm-2.086 0h-.799v.7995h.799v-.7995Zm4.171 2.0848h-.799v.7989h.799v-.7989Zm-2.085 0h-.799v.7989h.799v-.7989Zm-2.086 0h-.799v.7989h.799v-.7989Zm4.171 2.0855h-.799v.7996h.799v-.7996Zm-2.085 0h-.799v.7996h.799v-.7996Zm-2.086 0h-.799v.7996h.799v-.7996Z" fill="#F8FDFF"/>
      <path d="M272.219 54.7631h-.799v.7989h.799v-.7989Z" fill="#F8F8FB"/>
      <path d="M272.219 54.7631h-.799v.7989h.799v-.7989Z" fill="#F8FDFF"/>
      <path d="M297.866 44.7786v-1.0735h-6.936v1.0201m-.265-1.0201h-2.806v1.0201" stroke="#F8F8FB" stroke-width=".808333" stroke-miterlimit="10"/>
      <path d="M297.986 46.4461h-.793v.7921h.793v-.7921Zm-2.067 0h-.792v.7921h.792v-.7921Zm-2.067 0h-.792v.7921h.792v-.7921Zm4.134 2.0659h-.793v.7921h.793v-.7921Zm-2.067 0h-.792v.7921h.792v-.7921Zm-2.067 0h-.792v.7921h.792v-.7921Zm4.134 2.0666h-.793v.7921h.793v-.7921Zm-2.067 0h-.792v.7921h.792v-.7921Zm-2.067 0h-.792v.7921h.792v-.7921Zm-2.06-4.1325h-.793v.7921h.793v-.7921Zm0 2.0659h-.793v.7921h.793v-.7921Zm0 2.0666h-.793v.7921h.793v-.7921Zm4.127 1.965h-.792v.7922h.792v-.7922Zm-2.067 0h-.792v.7922h.792v-.7922Zm0 2.0666h-.792v.7921h.792v-.7921Zm-2.06-2.0666h-.793v.7922h.793v-.7922Zm0 2.0666h-.793v.7921h.793v-.7921Zm0 2.0659h-.793v.7921h.793v-.7921Z" fill="#F8F8FB"/>
      <path d="M289.502 61.4755V44.7252h9.98v11.0383" stroke="#fff" stroke-width=".808333" stroke-linejoin="round"/>
      <path d="M285.269 54.8896v-8.8034l1.36-1.361h3.175" stroke="#fff" stroke-width=".808333" stroke-linejoin="round"/>
      <path d="M196.691 60.1646c.825 0 1.494-1.4416 1.494-3.2199 0-1.7784-.669-3.22-1.494-3.22s-1.494 1.4416-1.494 3.22c0 1.7783.669 3.2199 1.494 3.2199Zm.032 3.1983v-4.9328" stroke="#fff" stroke-width=".808333" stroke-miterlimit="10"/>
      <path d="M263.339 59.604c.44-1.0624-.065-2.2804-1.127-2.7205-1.063-.44-2.281.0645-2.721 1.1269-.44 1.0624.064 2.2803 1.127 2.7204 1.063.44 2.281-.0645 2.721-1.1268Z" fill="#F8FDFF"/>
      <path d="M261.384 63.3628V58.972m-22.07-2.898-.816-1.5166-.816 1.5166" stroke="#fff" stroke-width=".808333" stroke-miterlimit="10"/>
      <path d="m239.701 57.9979-1.203-2.2337-1.201 2.2337" stroke="#fff" stroke-width=".808333" stroke-miterlimit="10"/>
      <path d="m239.893 59.5639-1.395-2.5929-1.394 2.5929" stroke="#fff" stroke-width=".808333" stroke-miterlimit="10"/>
      <path d="m240.069 61.0311-1.571-2.9189-1.57 2.9189h3.141Z" fill="#F8FDFF"/>
      <path d="M238.498 63.2323v-8.6262" stroke="#fff" stroke-width=".808333" stroke-miterlimit="10"/>
      <path d="M297.291 28.0336c1.257-.5039 2.649-.6663 3.989-.4647.535.0805 1.233.14 1.467-.3484.069-.1461.077-.3152.138-.4654.207-.5087 1.102-.5628 1.275.042.055.1941.233.3389.433.3132.234-.0298.25-.2848.33-.4708.186-.4357.815-.5141 1.225-.2767.41.2374.409.6595.825.5506s.413-.9017.801-1.5369c.249-.4072.644-.8313 1.176-.5871.122.0561.228.1413.318.2401.522.5675.985 1.3441.838 2.1004-.184.9551-1.454 1.5903-2.963 1.5903-2.198.3065-8.972-.4275-13.58-.1136m32.166-9.7673c4.262.4978 6.52-.3173 9.773-.3254 1.008-.002 2.015-.0048 3.022-.0068 1.61-.004 3.223-.0074 4.827-.1387.176-.4119-.379-.7765-.826-.7637-.448.0122-.929.182-1.322-.0324-.222-.1218-.367-.3457-.551-.5216-.534-.5094-1.45-.5486-2.026-.0873-.158.1272-.321.2963-.523.2787-.134-.0121-.245-.1062-.341-.2015-.653-.6481-1.181-1.6005-2.097-1.6878-1.05-.1001-1.759 1.4578-2.001 1.4957-.243.0378-.708-.7151-1.465-.9721-.627-.2131-1.37.0216-1.809.5175-.063.0717-.127.1529-.218.1792-.188.0541-.347-.1386-.448-.3057-.442-.7286-.955-1.476-1.732-1.8258-.778-.3497-1.759-.0548-2.169.692-.332.6028-.199 1.8204-.755 1.8995-.557.0792-1.297-.7678-2.039-.4762-.741.2909-1.139 1.5356-1.748 1.5356" stroke="#F8F8FB" stroke-width=".808333" stroke-linejoin="round"/>
      <path d="M200.069 22.7289c.359-.8868 1.776-1.1967 2.548-.918.743.2693 1.531 1.0059 2.182.5568.18-.1245.296-.3207.459-.4661.661-.5885 1.716-.1265 2.371.4688.168.1535.341.3206.561.3761.388.0981.773-.1827 1.011-.504.238-.3213.403-.7035.707-.9632.724-.6197 2.062-.0542 2.13.8956.102 1.4259-1.248 2.2992-4.028 2.141-2.78-.159-5.483.3389-6.91.0791-.873-.159-1.482-.556-1.032-1.6675l.001.0014Zm131.265-9.1139c1.287 0 2.33-1.0427 2.33-2.329 0-1.28632-1.043-2.32906-2.33-2.32906-1.286 0-2.329 1.04274-2.329 2.32906 0 1.2863 1.043 2.329 2.329 2.329Z" stroke="#F8F8FB" stroke-width=".808333" stroke-miterlimit="10"/>
      <path d="M229.017 10.6379c-.282-.5351-1.098-.5242-1.592-.1765-.495.3483-.785.9098-1.171 1.3752-.385.4654-.984.8652-1.564.692-.34-.1015-.596-.3788-.917-.529-.738-.3443-1.735.1928-1.852.9978-.366-.7427-1.487-.9667-2.11-.4214m-2.877 1.2595c3.558-.1116 8.964.3416 11.185-.8374" stroke="#F8F8FB" stroke-width=".808333" stroke-linejoin="round"/>
      <path d="m341.146 11.6114-.397.397-.502-.5026m-22.79 1.47-.397.397-.503-.5026m12.268 9.7917-.239.2381-.476-.4762m-52.14-2.7424-.239.2382-.582-.5825m-19.111 38.0324h.651l.428-1.2278h-1.507l.428 1.2278Zm.325-.0088v5.8939m.226-4.6939h-.45m1.082-3.1327-.264.2645m-1.452-.2645.265.2645m.553-.3565v-.4106" stroke="#F8F8FB" stroke-width=".808333" stroke-miterlimit="10"/>
      <path d="M223.796 57.3695h.65l.428-1.2278h-1.507l.429 1.2278Zm.325-.0088v5.8939m.225-4.6939h-.45m1.083-3.1327-.265.2645m-1.452-.2645.265.2645m.553-.3565v-.4106" stroke="#fff" stroke-width=".808333" stroke-miterlimit="10"/>
      <path d="M283.584 12.3913c.117-.5202-.128-1.1019-.582-1.382-.454-.28-1.083-.2381-1.496.0995-.447.3659-.595.9727-.867 1.4827-.271.5101-.851.9836-1.38.7516-.287-.1252-.458-.4201-.709-.6054-.423-.3112-1.032-.2679-1.489-.0095-.457.2584-.785.6947-1.052 1.1459-.427-.6203-1.419-.7441-1.985-.2483-.275.2409-.544.6258-.899.5351-.129-.0331-.232-.1278-.34-.205-.72-.5154-1.881-.1954-2.237.6156m6.698.5818c3.687.0791 7.203-.8794 10.291-.7969m-6.93-.1008s.771-.2327 1.975-.4194" stroke="#F8F8FB" stroke-width=".808333" stroke-linejoin="round"/>
      <path d="M355.883 63.419c-.326-.6129-.971-1.0302-1.713-1.0302-.742 0-1.388.4173-1.713 1.0302h3.427-.001Zm29.464-42.5159h-11.149v1.2366h11.149v-1.2366Zm-10.625 2.9622h-.649v.6494h.649v-.6494Zm0 1.7635h-.649v.6494h.649v-.6494Zm0 1.7642h-.649v.6494h.649v-.6494Zm0 1.7636h-.649v.6494h.649v-.6494Zm10.664 6.8281H374.16v.4857h11.226v-.4857Zm0 1.8034H374.16v.4857h11.226v-.4857Zm0 1.8041H374.16v.4857h11.226v-.4857Zm0 1.8035H374.16v.4857h11.226v-.4857Z" fill="#F8FDFF"/>
      <path d="M372.64 45.2501v-3.3687l.259-.3153v-5.2662l-.448-.3152V22.1654h14.642v13.5298l-.416.4796v3.4174" stroke="#fff" stroke-width=".808333" stroke-miterlimit="10"/>
      <path d="M367.99 46.5563v-1.1006h8.65v1.1676" stroke="#F8F8FB" stroke-width=".808333" stroke-miterlimit="10"/>
      <path d="M368.856 48.2583h-.752v.7522h.752v-.7522Zm1.963 0h-.752v.7522h.752v-.7522Zm1.963 0h-.753v.7522h.753v-.7522Zm-3.926 1.9624h-.752v.7522h.752v-.7522Zm1.963 0h-.752v.7522h.752v-.7522Zm1.963 0h-.753v.7522h.753v-.7522Zm-3.926 1.9631h-.752v.7522h.752v-.7522Zm1.963 0h-.752v.7522h.752v-.7522Zm1.963 0h-.753v.7522h.753v-.7522Zm1.958-3.9255h-.753v.7522h.753v-.7522Zm0 1.9624h-.753v.7522h.753v-.7522Zm0 1.9631h-.753v.7522h.753v-.7522Z" fill="#F8FDFF"/>
      <path d="M376.162 63.1924V46.6233h-9.48v4.5106" stroke="#fff" stroke-width=".808333" stroke-linejoin="round"/>
      <path d="M343.976 63.4278v-3.6387" stroke="#fff" stroke-width=".808333" stroke-miterlimit="10"/>
      <path d="m345.677 61.0433-1.701-4.6101-1.701 4.6101h3.402Z" fill="#F8FDFF"/>
      <path d="M353.958 32.5956v-1.2805m14.297 1.2805v-1.2805" stroke="#F8F8FB" stroke-width=".808333" stroke-miterlimit="10"/>
      <path d="M355.018 31.4842c1.149-2.4569 3.453-4.1345 6.108-4.1345 2.656 0 4.96 1.677 6.109 4.1338" stroke="#fff" stroke-width=".808333" stroke-miterlimit="10"/>
      <path d="M353.958 31.8204h14.297m-13.538 2.58h1.125m1.157 0h1.126m1.156 0h1.126m1.157 0h1.126m1.156 0h1.127m1.156 0h1.126m-5.691 1.8217h1.126m1.156 0h1.127m1.156 0h1.126m-5.691 1.8217h1.126m1.156 0h1.127m1.156 0h1.126" stroke="#F8F8FB" stroke-width=".808333" stroke-miterlimit="10"/>
      <path d="M369.08 45.0553v-7.9619h-.41v-1.6939h.41v-2.8039h-15.876v2.8039h.373v1.6939h-.373v4.3022m13.624 13.4913-.949-1.7649-.95 1.7649" stroke="#fff" stroke-width=".808333" stroke-miterlimit="10"/>
      <path d="m367.277 57.1253-1.398-2.599-1.399 2.599" stroke="#fff" stroke-width=".808333" stroke-miterlimit="10"/>
      <path d="m367.502 58.9469-1.623-3.0169-1.623 3.0169" stroke="#fff" stroke-width=".808333" stroke-miterlimit="10"/>
      <path d="m367.706 60.6543-1.827-3.3958-1.827 3.3958h3.654Z" fill="#F8FDFF"/>
      <path d="M365.879 63.2154V53.1788m-60.244 1.7081-.949-1.7649-.95 1.7649" stroke="#fff" stroke-width=".808333" stroke-miterlimit="10"/>
      <path d="m306.084 57.1253-1.398-2.599-1.399 2.599" stroke="#fff" stroke-width=".808333" stroke-miterlimit="10"/>
      <path d="m306.309 58.9469-1.623-3.0169-1.623 3.0169m1.623 4.2685V53.1788m36.185 2.7762-.769-1.4287-.768 1.4287" stroke="#fff" stroke-width=".808333" stroke-miterlimit="10"/>
      <path d="m341.235 57.7679-1.133-2.1051-1.131 2.1051" stroke="#fff" stroke-width=".808333" stroke-miterlimit="10"/>
      <path d="m341.417 59.2425-1.315-2.4426-1.313 2.4426m1.313 1.2589v-5.9291m32.635 2.8533h.65l.429-1.2271h-1.507l.428 1.2271Zm.325-.0088v5.894m.225-4.6939h-.45m1.082-3.1321-.264.2645m-1.451-.2645.265.2645m.553-.3571v-.4106" stroke="#fff" stroke-width=".808333" stroke-miterlimit="10"/>
      <path d="M349.478 59.4915c.889 0 1.609-1.5519 1.609-3.4662 0-1.9143-.72-3.4661-1.609-3.4661-.888 0-1.608 1.5518-1.608 3.4661s.72 3.4662 1.608 3.4662Z" fill="#F8FDFF"/>
      <path d="M349.444 63.2905v-5.666m11.832 2.6239c.711 0 1.288-1.2429 1.288-2.7762 0-1.5332-.577-2.7762-1.288-2.7762-.712 0-1.289 1.243-1.289 2.7762 0 1.5333.577 2.7762 1.289 2.7762Zm-.028 3.042v-4.5377m-13.991-15.8032v-.9755h5.466v.9755m0-.9755h1.213v.9755" stroke="#fff" stroke-width=".808333" stroke-miterlimit="10"/>
      <path d="m345.004 56.8811 1.311-13.9316h5.508l1.783 18.9414m-1.783-18.9414h3.046l1.906 20.2429" stroke="#fff" stroke-width=".808333" stroke-miterlimit="10"/>
      <path d="M347.257 44.7144v6.8173m1.684-6.8173v6.8173m1.685-6.8173v6.8173" stroke="#F8F8FB" stroke-width=".808333" stroke-miterlimit="10"/>
      <path d="M350.111 24.4356c-.61-1.9915.712-3.4066 2.034-3.0549 1.322.3518 2.237 2.4461 2.237 2.7207 0 0 .712-1.4084 2.034-1.5328 1.322-.1245 1.729 1.3597 2.441 1.5328.712.1732 1.443-.6568 2.238-.6568 1.471 0 1.815 1.4571 3.094 1.3975m-16.568.5087c2.938-.0683 6.924.5446 9.061 0" stroke="#F8F8FB" stroke-width=".808333" stroke-linejoin="round"/>
      <path d="M307.26 63.3358H184m155.151-.0636c-.711 0-.711-.4059-1.422-.4059s-.711.4059-1.422.4059-.711-.4059-1.422-.4059-.711.4059-1.422.4059c-.712 0-.712-.4059-1.423-.4059-.711 0-.711.4059-1.422.4059s-.711-.4059-1.422-.4059-.711.4059-1.422.4059-.711-.4059-1.422-.4059-.711.4059-1.422.4059c-.712 0-.712-.4059-1.423-.4059-.711 0-.711.4059-1.422.4059s-.711-.4059-1.422-.4059-.711.4059-1.422.4059-.711-.4059-1.422-.4059-.711.4059-1.422.4059-.712-.4059-1.423-.4059c-.712 0-.711.4059-1.423.4059-.712 0-.711-.4059-1.423-.4059-.712 0-.711.4059-1.423.4059-.712 0-.711-.4059-1.423-.4059-.711 0-.711.4059-1.422.4059m-1.59.0791v-1.8758m34.513 1.8758v-1.8758m-.043.9133c-4.369 0-9.496-4.9165-17.235-4.9165-7.74 0-12.867 4.9165-17.235 4.9165" stroke="#fff" stroke-width=".808333" stroke-miterlimit="10"/>
      <path d="M340.74 61.1664c-4.369 0-9.496-4.9165-17.235-4.9165-7.74 0-12.867 4.9165-17.235 4.9165" stroke="#F8F8FB" stroke-width=".808333" stroke-miterlimit="10"/>
      <path d="M374.35 63.419c-.57-1.0708-1.696-1.8-2.994-1.8-1.297 0-2.424.7292-2.993 1.8h5.987Z" fill="#F8FDFF"/>
      <path d="M462.471 63.3358H340.106" stroke="#fff" stroke-width=".808333" stroke-miterlimit="10"/>
      <path d="M332.074 37.4458c1.654 0 2.995-1.3407 2.995-2.9946 0-1.6539-1.341-2.9947-2.995-2.9947-1.655 0-2.996 1.3408-2.996 2.9947s1.341 2.9946 2.996 2.9946Z" fill="#F8FDFF"/>
      <path d="M332.483 40.057h-.818l-.253-1.1879h1.324l-.253 1.1879Zm1.329-3.431-1.076 2.2431m-1.324 0-1.077-2.2431m1.039 0 .37 2.2431m1.003-2.2431-.37 2.2431" stroke="#fff" stroke-width=".808333" stroke-miterlimit="10"/>
      <path d="M293.06 42.4475c2.276-3.801 4.201-6.6265 4.926-6.6901 1.399-.1224 6.175 8.3238 9.582 14.7169m-.899 3.2511c2.23-2.7248 4.931-8.0958 6.779-8.2697 1.322-.1244 4.682 5.3494 8.164 9.8803m6.688.8936c2.322-3.5859 4.519-7.5702 5.849-7.5228 1.022.0365 2.693 2.3236 4.555 4.955m-1.175-3.7435c2.385-3.6806 7.735-15.4671 10.592-15.4671.849 0 2.272 1.6938 4.031 4.1994m-20.133 17.2462s.671-.7563 1.271-.6785c.6.0785.706.9863 1.306 1.0972m-24.707-.2015c.428-.4079.791-.7279 1.104-.7063.258.0176.945.6582 1.212.9545m-.312-1.246c.213-.2036.395-.3639.552-.3531.129.0088.472.3294.605.4769" stroke="#F8F8FB" stroke-width=".808333" stroke-linejoin="round"/>
      <path d="M262.913 55.0397c-.062.3714.117.7563.468.9396.353.1833.77.1089 1.04-.1549l-1.508-.7847Zm79.456-1.9306c-.062.3714.117.7563.469.9396.352.1833.77.1089 1.039-.1549l-1.508-.7847Zm-60.258.8598c-.062.3714.117.7563.469.9396.352.1833.77.1089 1.039-.1549l-1.508-.7847Z" fill="#F8FDFF"/>
      <path d="M342.374 50.1828c.243.14.557.1163.777-.0812.22-.1975.278-.508.164-.7644l-.941.8456Zm-149.288 2.3121c.243.14.557.1164.777-.0812.22-.1975.278-.508.164-.7643l-.941.8455Zm108.264 2.0639c.242.14.557.1163.777-.0812.22-.1975.277-.508.164-.7644l-.941.8456Z" fill="#F8F8FB"/>
      <path d="M210.352 58.0392c-.173.3869-.089.857.243 1.1574.331.3003.807.3382 1.176.1278l-1.419-1.2846v-.0006Z" fill="#F8FDFF"/>
      <path d="M205.787 58.4728c.137.1907.384.2814.621.207.235-.0744.387-.2909.389-.5256l-1.01.3179v.0007Z" fill="#F8F8FB"/>
      <path d="M202.082 58.073c.33.1806.753.1393 1.042-.1326.29-.2719.357-.6907.197-1.0316l-1.239 1.1642Z" fill="#F8FDFF"/>
    </g>
    <g clip-path="url(#c)">
      <path d="M34.9766 63.0693c2.6819-2.3616 6.2021-3.7936 10.0573-3.7936 3.8551 0 7.4146 1.4483 10.1026 3.8335" stroke="#F8F8FB" stroke-width=".808333" stroke-miterlimit="10"/>
      <path d="M15.0703 63.3865c-.4851-.8537-1.4025-1.4293-2.4546-1.4293s-1.9688.5756-2.4546 1.4293h4.9092Z" fill="#F8F8FB"/>
      <path d="M.6599 63.3378c-.366704-.7597-1.14342-1.2832-2.04327-1.2832-.57373 0-1.09673.2131-1.49658.5641-.43572-1.0126-1.44247-1.7215-2.61497-1.7215-1.17251 0-2.13663.6798-2.58656 1.6586-.05142-.0047-.10419-.0074-.15696-.0074-.61501 0-1.15695.3132-1.47494.7894H.6599Zm24.7688-.0318c-.2456-.5202-.7754-.88-1.389-.88-.6137 0-1.1434.3598-1.389.88h2.778Z" fill="#F8FDFF"/>
      <path d="M5.87158 58.744c0 .9707.78686 1.7574 1.75775 1.7574.97088 0 1.75775-.7867 1.75775-1.7574 0-.7597-1.07712-2.4549-1.54463-3.155-.10149-.1515-.32408-.1515-.42489 0-.46752.7001-1.54462 2.3953-1.54462 3.155h-.00136Zm1.75774-.0358v4.6357m-.01556-3.7685-.43368-.4336" stroke="#fff" stroke-width=".808333" stroke-miterlimit="10"/>
      <path d="M5.8154 57.9275c-.25033-.443-.52164-.8625-.69417-1.1209-.08524-.1278-.27334-.1278-.35858 0-.39445.5906-1.30241 2.0193-1.30241 2.6599 0 .8178.66304 1.4814 1.4817 1.4814.50676 0 .95398-.2544 1.22122-.642m-1.2212-.8699v3.9079" stroke="#fff" stroke-width=".808333" stroke-miterlimit="10"/>
      <path d="M20.9667 58.744c0 .9707-.7869 1.7574-1.7578 1.7574-.9708 0-1.7577-.7867-1.7577-1.7574 0-.7597 1.0771-2.4549 1.5446-3.155.1015-.1515.3241-.1515.4249 0 .4675.7001 1.5446 2.3953 1.5446 3.155h.0014Z" fill="#F8FDFF"/>
      <path d="M19.2089 58.7082v4.6357m.0156-3.7685.4337-.4336m1.3646-1.2143c.2504-.443.5217-.8625.6942-1.1209.0852-.1278.2733-.1278.3586 0 .3944.5906 1.3024 2.0193 1.3024 2.6599 0 .8178-.6631 1.4814-1.4817 1.4814-.5068 0-.954-.2544-1.2212-.642m1.2212-.8699v3.9079" stroke="#fff" stroke-width=".808333" stroke-miterlimit="10"/>
      <path d="M6.37765 22.9453h-.52502v19.5293h.52502V22.9453Zm-1.9898 1.0377h-.52503v18.4916h.52503V23.983Zm-1.98914 1.1899h-.52502v17.301h.52502v-17.301ZM.408905 27.1136h-.525024v19.6233h.525024V27.1136Z" fill="#F8F8FB"/>
      <path d="M8.65842 42.9258v-5.6592l-.43505-.5412V34.928l.43505-.5411V19.9858h-.1996c-7.09391 0-12.84481 5.7499-12.84481 12.8425v1.5586l.38971.5411v1.7974l-.38971.5412v9.7619M1.986 63.0693V50.7578l-3.35244-3.0941-3.2726 3.0941v9.5495" stroke="#fff" stroke-width=".808333" stroke-miterlimit="10"/>
      <path d="M.217406 52.6783h-.799041v.7995h.799041v-.7995Zm0 2.0848h-.799041v.7989h.799041v-.7989Zm0 2.0855h-.799041v.7996h.799041v-.7996Z" fill="#F8F8FB"/>
      <path d="M19.395 44.7786v-1.0735h-6.9363v1.0201m-.2645-1.0201H9.38773v1.0201" stroke="#F8F8FB" stroke-width=".808333" stroke-miterlimit="10"/>
      <path d="M19.5147 46.4461h-.7922v.7921h.7922v-.7921Zm-2.0662 0h-.7923v.7921h.7923v-.7921Zm-2.067 0h-.7923v.7921h.7923v-.7921Zm4.1332 2.0659h-.7922v.7921h.7922v-.7921Zm-2.0662 0h-.7923v.7921h.7923v-.7921Zm-2.067 0h-.7923v.7921h.7923v-.7921Zm4.1332 2.0666h-.7922v.7921h.7922v-.7921Zm-2.0662 0h-.7923v.7921h.7923v-.7921Zm-2.067 0h-.7923v.7921h.7923v-.7921Zm-2.0609-4.1325h-.7922v.7921h.7922v-.7921Zm0 2.0659h-.7922v.7921h.7922v-.7921Zm0 2.0666h-.7922v.7921h.7922v-.7921Zm4.1279 1.965h-.7923v.7922h.7923v-.7922Zm-2.067 0h-.7923v.7922h.7923v-.7922Zm0 2.0666h-.7923v.7921h.7923v-.7921Zm-2.0609-2.0666h-.7922v.7922h.7922v-.7922Zm0 2.0666h-.7922v.7921h.7922v-.7921Zm0 2.0659h-.7922v.7921h.7922v-.7921Z" fill="#F8F8FB"/>
      <path d="M11.0311 61.4755V44.7252h9.9802v11.0383" stroke="#fff" stroke-width=".808333" stroke-linejoin="round"/>
      <path d="M6.79779 54.8896v-8.8034l1.3606-1.361h3.17521" stroke="#fff" stroke-width=".808333" stroke-linejoin="round"/>
      <path d="M18.8206 28.0336c1.257-.5039 2.6488-.6663 3.9884-.4647.5352.0805 1.2334.14 1.4668-.3484.0697-.1461.0771-.3152.138-.4654.2077-.5087 1.1028-.5628 1.2754.042.0555.1941.2327.3389.433.3132.2341-.0298.2503-.2848.3295-.4708.186-.4357.8159-.5141 1.2253-.2767.41.2374.4093.6595.8254.5506s.4127-.9017.801-1.5369c.249-.4072.6435-.8313 1.1759-.5871.1218.0561.2274.1413.318.2401.5223.5675.9844 1.3441.8383 2.1004-.184.9551-1.4546 1.5903-2.9634 1.5903-2.1982.3065-8.9721-.4275-13.5803-.1136m32.1659-9.7673c4.2624.4978 6.5208-.3173 9.7738-.3254 1.0074-.002 2.0142-.0048 3.0216-.0068 1.6102-.004 3.2225-.0074 4.8274-.1387.1752-.4119-.3796-.7765-.8268-.7637-.4472.0122-.9289.182-1.3214-.0324-.2226-.1218-.3673-.3457-.5514-.5216-.5338-.5094-1.4499-.5486-2.0257-.0873-.1583.1272-.3206.2963-.5236.2787-.134-.0121-.2449-.1062-.341-.2015-.6529-.6481-1.1806-1.6005-2.0967-1.6878-1.0501-.1001-1.7584 1.4578-2.0007 1.4957-.2428.0378-.7077-.7151-1.4648-.9721-.6271-.2131-1.3707.0216-1.8091.5175-.0636.0717-.1272.1529-.2186.1792-.1874.0541-.3463-.1386-.4472-.3057-.4424-.7286-.9553-1.476-1.7327-1.8258-.7774-.3497-1.7584-.0548-2.1691.692-.3315.6028-.1989 1.8204-.755 1.8995-.5562.0792-1.297-.7678-2.0386-.4762-.7415.2909-1.1386 1.5356-1.7476 1.5356" stroke="#F8F8FB" stroke-width=".808333" stroke-linejoin="round"/>
      <path d="M52.8632 13.615c1.2865 0 2.3295-1.0427 2.3295-2.329 0-1.28632-1.043-2.32906-2.3295-2.32906s-2.3294 1.04274-2.3294 2.32906c0 1.2863 1.0429 2.329 2.3294 2.329Zm9.8124-2.0036-.3971.397-.5027-.5026m-22.7898 1.47-.3972.397-.5027-.5026m12.2677 9.7917-.2382.2381-.4763-.4762" stroke="#F8F8FB" stroke-width=".808333" stroke-miterlimit="10"/>
      <path d="M5.11312 12.3913c.11705-.5202-.12787-1.1019-.58185-1.382-.45399-.28-1.0832-.2381-1.49591.0995-.44722.3659-.5954.9727-.8667 1.4827-.27131.5101-.85182.9836-1.380898.7516-.286192-.1252-.457365-.4201-.7090513-.6054-.4221837-.3112-1.0317797-.2679-1.4884707-.0095-.45669.2584-.78482.6947-1.05207 1.1459-.42692-.6203-1.41879-.7441-1.98508-.2483-.27537.2409-.54396.6258-.89849.5351-.12923-.0331-.23207-.1278-.34032-.205-.72055-.5154-1.88156-.1954-2.23677.6156m6.69745.5818c3.68735.0791 7.20352-.8794 10.29074-.7969m-6.9295-.1008s.77062-.2327 1.97492-.4194" stroke="#F8F8FB" stroke-width=".808333" stroke-linejoin="round"/>
      <path d="M164.609 63.4082c-.333-.8422-1.153-1.4382-2.113-1.4382-.042 0-.084.0014-.125.0034-.368-1.6769-1.862-2.9331-3.649-2.9331-1.613 0-2.988 1.0221-3.512 2.4535-.405-.1982-.86-.3092-1.341-.3092-1.286 0-2.386.7942-2.837 1.9185-.358-.3471-.845-.5615-1.383-.5615-.681 0-1.282.343-1.64.8659h16.602l-.002.0007Zm10.04.0108c-.349-.6562-1.039-1.1026-1.834-1.1026-.795 0-1.485.4471-1.834 1.1026h3.668Zm-97.2369 0c-.3261-.6129-.9709-1.0302-1.7131-1.0302-.7422 0-1.3876.4173-1.7131 1.0302h3.4269-.0007Zm37.6689 0c-.326-.6129-.971-1.0302-1.713-1.0302-.742 0-1.388.4173-1.713 1.0302h3.427-.001Zm-6.292 0c-.326-.6129-.971-1.0302-1.713-1.0302-.742 0-1.388.4173-1.713 1.0302h3.426Z" fill="#F8FDFF"/>
      <path d="M113.367 63.3297c-.568-1.0688-1.693-1.7974-2.988-1.7974s-2.42.7279-2.988 1.7974h5.977-.001Z" fill="#F8FDFF"/>
      <path d="M121.563 3.26729V.0676575h.542V3.26729" stroke="#F8F8FB" stroke-width=".808333" stroke-miterlimit="10"/>
      <path d="M125.129 11.4253V7.94632h-10.927v3.47898m14.972 0V7.94632h-3.629" stroke="#fff" stroke-width=".808333" stroke-miterlimit="10"/>
      <path d="M111.179 12.4048v-.9795h20.8v.9795" stroke="#F8F8FB" stroke-width=".808333" stroke-miterlimit="10"/>
      <path d="m117.112 7.92199 2.27-4.65469 2.263 4.72031" stroke="#fff" stroke-width=".808333" stroke-linejoin="round"/>
      <path d="m126.933 7.98761-2.264-4.72031h-5.323m-8.506 10.255.339 1.0736v22.325m15.156-8.5977V14.5898l.339-1.0898m5.863-.0399-.34 1.1392v21.8089" stroke="#fff" stroke-width=".808333" stroke-miterlimit="10"/>
      <path d="m120.758 3.88556 1.644 3.33289m-.581-3.33289 1.644 3.33289m-.581-3.33289 1.644 3.33289m-.581-3.33289 1.645 3.33289m-12.691 8.59235h.842v-.8821m1.764.8821h.843v-.8821m-3.449 3.1279h.842v-.8821m1.764.8821h.843v-.8821" stroke="#F8F8FB" stroke-width=".808333" stroke-miterlimit="10"/>
      <path d="M133.009 12.4048h-22.693v.8443h22.693v-.8443Z" stroke="#fff" stroke-width=".808333" stroke-miterlimit="10"/>
      <path d="M111.179 11.4253v-.4511m20.8.4511v-.4511" stroke="#F8F8FB" stroke-width=".808333" stroke-miterlimit="10"/>
      <path d="M145.759 55.4673v-5.2202l2.2-3.1841h5.647v13.6651m2.285-1.4531V47.109l-2.202-.046" stroke="#fff" stroke-width=".808333" stroke-miterlimit="10"/>
      <path d="M147.905 51.1156h-.833v.8321h.833v-.8321Zm2.194 0h-.832v.8321h.832v-.8321Zm2.193 0h-.832v.8321h.832v-.8321Zm-4.387 2.0801h-.833v.8321h.833v-.8321Zm2.194 0h-.832v.8321h.832v-.8321Zm2.193 0h-.832v.8321h.832v-.8321Zm-2.193-4.1527h-.832v.832h.832v-.832Zm2.193 0h-.832v.832h.832v-.832Zm-4.387 6.2321h-.833v.8321h.833v-.8321Zm2.194 0h-.832v.8321h.832v-.8321Zm2.193 0h-.832v.8321h.832v-.8321Z" fill="#F8FDFF"/>
      <path d="M155.41 46.7004V35.2142h7.055l4.797 2.8249v25.2047" stroke="#fff" stroke-width=".808333" stroke-miterlimit="10"/>
      <path d="M162.364 35.2142h3.594l4.796 2.8249v16.657" stroke="#fff" stroke-width=".808333" stroke-miterlimit="10"/>
      <path d="M165.686 38.9956h-8.7v.5202h8.7v-.5202Zm0 1.9333h-8.7v.5202h8.7v-.5202Zm0 1.9326h-8.7v.5202h8.7v-.5202Zm0 1.9333h-8.7v.5202h8.7v-.5202Zm0 1.9333h-8.7v.5202h8.7v-.5202Zm0 1.9327h-8.7v.5202h8.7v-.5202Zm0 1.9333h-8.7v.5202h8.7v-.5202Zm0 1.9333h-8.7v.5202h8.7v-.5202Z" fill="#F8FDFF"/>
      <path d="M167.261 38.0391h3.493" stroke="#fff" stroke-width=".808333" stroke-miterlimit="10"/>
      <path d="M106.876 20.9031H95.727v1.2366h11.149v-1.2366Z" fill="#F8FDFF"/>
      <path d="M97.0917 20.8686V19.628h1.3227v1.2406" stroke="#fff" stroke-width=".808333" stroke-miterlimit="10"/>
      <path d="M96.2514 23.8653h-.6495v.6494h.6495v-.6494Zm3.5831 0h-.6495v.6494h.6495v-.6494Zm1.7915 0h-.649v.6494h.649v-.6494Zm1.792 0h-.65v.6494h.65v-.6494Zm3.583 0h-.65v.6494h.65v-.6494Zm-10.7496 1.7635h-.6495v.6494h.6495v-.6494Zm3.5831 0h-.6495v.6494h.6495v-.6494Zm1.7915 0h-.649v.6494h.649v-.6494Zm1.792 0h-.65v.6494h.65v-.6494Zm3.583 0h-.65v.6494h.65v-.6494ZM96.2514 27.393h-.6495v.6494h.6495v-.6494Zm3.5831 0h-.6495v.6494h.6495v-.6494Zm1.7915 0h-.649v.6494h.649v-.6494Zm1.792 0h-.65v.6494h.65v-.6494Zm3.583 0h-.65v.6494h.65v-.6494Zm-10.7496 1.7636h-.6495v.6494h.6495v-.6494Zm3.5831 0h-.6495v.6494h.6495v-.6494Zm1.7915 0h-.649v.6494h.649v-.6494Zm1.792 0h-.65v.6494h.65v-.6494Zm1.791 0h-.649v.6494h.649v-.6494Zm1.792 0h-.65v.6494h.65v-.6494Zm-7.1665 1.7635h-.6495v.6494h.6495v-.6494Zm1.7915 0h-.649v.6494h.649v-.6494Zm1.792 0h-.65v.6494h.65v-.6494Zm3.583 0h-.65v.6494h.65v-.6494Zm0 1.7635h-.65v.6494h.65v-.6494Zm-.086 3.3011H95.6892v.4857h11.2258v-.4857Zm0 1.8034H95.6892v.4857h11.2258v-.4857Zm0 1.8041H95.6892v.4857h11.2258v-.4857Zm0 1.8035H95.6892v.4857h11.2258v-.4857Z" fill="#F8FDFF"/>
      <path d="M94.1696 45.2501v-3.3687l.2584-.3153v-5.2662l-.4479-.3152V22.1654h14.6429v13.5298l-.417.4796v3.4174m13.171-10.6413v-5.0693h-4.195v5.0693" stroke="#fff" stroke-width=".808333" stroke-miterlimit="10"/>
      <path d="m118.118 23.866 1.163-2.2418 1.161 2.2851" stroke="#fff" stroke-width=".808333" stroke-linejoin="round"/>
      <path d="M124.693 37.0934v-8.1425h-10.827v8.1425m10.227-8.1425v-5.0693h-2.431" stroke="#fff" stroke-width=".808333" stroke-miterlimit="10"/>
      <path d="m123.157 23.9093-1.161-2.2851h-2.715m8.127 15.4692v-8.1425h-2.633" stroke="#fff" stroke-width=".808333" stroke-miterlimit="10"/>
      <path d="M123.492 30.2098h-8.468v.7441h8.468v-.7441Z" stroke="#F8F8FB" stroke-width=".808333" stroke-miterlimit="10"/>
      <path d="M125.239 46.9879v-6.4243l-3.065-3.0643-3.192 3.1908h-4.443l-3.193-3.1908-3.064 3.0643v19.9947m28.986-11.2535v-8.7412l-3.065-3.0643m-12.029 0h12.095m-22.923 0h9.628" stroke="#fff" stroke-width=".808333" stroke-miterlimit="10"/>
      <path d="M119.802 25.2947h-1.123v1.1222h1.123v-1.1222Z" fill="#F8FDFF"/>
      <path d="M125.239 40.5636h12.029" stroke="#fff" stroke-width=".808333" stroke-miterlimit="10"/>
      <path d="M123.27 43.5204h-13.267m13.267 1.5349h-13.267m13.267 1.5348h-13.267m3.863 1.5329h-3.863m3.863 1.5349h-3.863" stroke="#F8F8FB" stroke-width=".808333" stroke-miterlimit="10"/>
      <path d="M111.347 40.6536c.241 0 .437-.1957.437-.437s-.196-.437-.437-.437c-.242 0-.438.1957-.438.437s.196.437.438.437Zm10.827 0c.241 0 .437-.1957.437-.437s-.196-.437-.437-.437c-.242 0-.437.1957-.437.437s.195.437.437.437Z" fill="#F8F8FB"/>
      <path d="M89.5195 46.5563v-1.1006h8.6493v1.1676m0-1.1676h2.2102v1.1676" stroke="#F8F8FB" stroke-width=".808333" stroke-miterlimit="10"/>
      <path d="M90.3855 48.2583h-.7524v.7522h.7524v-.7522Zm1.9627 0h-.7523v.7522h.7523v-.7522Zm1.9628 0h-.7524v.7522h.7524v-.7522Zm-3.9255 1.9624h-.7524v.7522h.7524v-.7522Zm1.9627 0h-.7523v.7522h.7523v-.7522Zm1.9628 0h-.7524v.7522h.7524v-.7522Zm-3.9255 1.9631h-.7524v.7522h.7524v-.7522Zm1.9627 0h-.7523v.7522h.7523v-.7522Zm1.9628 0h-.7524v.7522h.7524v-.7522Zm1.958-3.9255h-.7524v.7522h.7524v-.7522Zm0 1.9624h-.7524v.7522h.7524v-.7522Zm0 1.9631h-.7524v.7522h.7524v-.7522Z" fill="#F8FDFF"/>
      <path d="M97.6912 63.1924V46.6233H88.211v4.5106" stroke="#fff" stroke-width=".808333" stroke-linejoin="round"/>
      <path d="M101.713 62.9042V47.916l-1.293-1.2927h-3.0164" stroke="#fff" stroke-width=".808333" stroke-linejoin="round"/>
      <path d="M65.5051 63.4278v-3.6387" stroke="#fff" stroke-width=".808333" stroke-miterlimit="10"/>
      <path d="m67.2066 61.0433-1.7015-4.6101-1.7009 4.6101h3.4024Z" fill="#F8FDFF"/>
      <path d="M179.546 63.3514v-3.6387" stroke="#fff" stroke-width=".808333" stroke-miterlimit="10"/>
      <path d="m177.845 60.9669 1.701-4.6101 1.701 4.6101h-3.402Z" fill="#F8FDFF"/>
      <path d="M177.108 63.3513v-4.5369m-2.121 1.5639 2.121-5.7491 2.121 5.7491h-4.242Zm-29.45-35.5395v-7.0284h-7.654v7.0284m4.604-7.255v-5.781h-1.554v5.781" stroke="#fff" stroke-width=".808333" stroke-miterlimit="10"/>
      <path d="M146.591 27.3477h-.627v1.9516h.627v-1.9516Zm-2.23 0h-.627v1.9516h.627v-1.9516Zm-2.231 0h-.627v1.9516h.627v-1.9516Zm-2.231 0h-.627v1.9516h.627v-1.9516Zm-2.23 0h-.627v1.9516h.627v-1.9516Z" fill="#F8F8FB"/>
      <path d="M146.591 30.9025h-.627v1.9516h.627v-1.9516Zm-2.23 0h-.627v1.9516h.627v-1.9516Zm-2.231 0h-.627v1.9516h.627v-1.9516Zm-2.231 0h-.627v1.9516h.627v-1.9516Z" fill="#F8FDFF"/>
      <path d="M146.591 34.4566h-.627v1.9516h.627v-1.9516Zm-2.23 0h-.627v1.9516h.627v-1.9516Zm2.23 3.5548h-.627v1.9515h.627v-1.9515Z" fill="#F8F8FB"/>
      <path d="M143.376 19.2539v5.5646m-1.615-5.5646v5.5646m-1.615-5.5646v5.5646m-5.408 12.6808v-8.2014l.487-.2705v-1.4355l-.487-.2706v-2.3696h13.945v2.3696l-.473.2706v1.4355l.473.2705v17.2666" stroke="#fff" stroke-width=".808333" stroke-miterlimit="10"/>
      <path d="M143.019 58.8008c0 .9707-.787 1.7575-1.758 1.7575s-1.757-.7868-1.757-1.7575c0-.7596 1.077-2.4548 1.544-3.155.102-.1515.324-.1515.425 0 .468.7002 1.545 2.3954 1.545 3.155h.001Z" fill="#F8FDFF"/>
      <path d="M141.261 58.765v4.6357m.015-3.7692.434-.4336m3.564-1.2135c.25-.4431.522-.8625.694-1.1209.086-.1279.274-.1279.359 0 .394.5905 1.302 2.0192 1.302 2.6598 0 .8178-.663 1.4814-1.481 1.4814-.507 0-.954-.2543-1.222-.6419m1.222-.8699v3.9078" stroke="#fff" stroke-width=".808333" stroke-miterlimit="10"/>
      <path d="M75.4873 32.5956v-1.2805m14.2967 1.2805v-1.2805" stroke="#F8F8FB" stroke-width=".808333" stroke-miterlimit="10"/>
      <path d="M76.5475 31.4842c1.1488-2.4569 3.4525-4.1345 6.1081-4.1345s4.9593 1.677 6.1081 4.1338" stroke="#fff" stroke-width=".808333" stroke-miterlimit="10"/>
      <path d="M75.4873 31.8204H89.784m-13.5383 2.58h1.1258m1.157 0h1.1258m1.1562 0h1.1259m1.1569 0h1.1259m1.1562 0h1.1265m1.1563 0h1.1258m-5.6907 1.8217h1.1259m1.1562 0h1.1265m1.1563 0h1.1258m-5.6907 1.8217h1.1259m1.1562 0h1.1265m1.1563 0h1.1258" stroke="#F8F8FB" stroke-width=".808333" stroke-miterlimit="10"/>
      <path d="M90.6087 45.0553v-7.9619h-.41v-1.6939h.41v-2.8039H74.7335v2.8039h.3728v1.6939h-.3728v4.3022" stroke="#fff" stroke-width=".808333" stroke-miterlimit="10"/>
      <path d="M116.438 60.9465c1.15 0 2.082-.9322 2.082-2.0821 0-1.1499-.932-2.0821-2.082-2.0821s-2.083.9322-2.083 2.0821c0 1.1499.933 2.0821 2.083 2.0821Z" fill="#F8FDFF"/>
      <path d="M116.407 63.4196v-4.3908" stroke="#fff" stroke-width=".808333" stroke-miterlimit="10"/>
      <path d="M170.754 60.3526c1.427 0 2.583-1.1563 2.583-2.5827s-1.156-2.5827-2.583-2.5827c-1.427 0-2.583 1.1563-2.583 2.5827s1.156 2.5827 2.583 2.5827Z" fill="#F8FDFF"/>
      <path d="M170.716 63.4197v-5.4455m-64.758-1.8433-.816-1.5166-.816 1.5166" stroke="#fff" stroke-width=".808333" stroke-miterlimit="10"/>
      <path d="m106.343 58.0547-1.201-2.2337-1.202 2.2337" stroke="#fff" stroke-width=".808333" stroke-miterlimit="10"/>
      <path d="m106.537 59.62-1.395-2.5928-1.395 2.5928" stroke="#fff" stroke-width=".808333" stroke-miterlimit="10"/>
      <path d="m106.712 61.0879-1.57-2.9189-1.571 2.9189h3.141Z" fill="#F8FDFF"/>
      <path d="M105.142 63.2891V54.663m-16.7849.2239-.9492-1.7649-.9493 1.7649" stroke="#fff" stroke-width=".808333" stroke-miterlimit="10"/>
      <path d="m88.8063 57.1253-1.3984-2.599-1.3985 2.599" stroke="#fff" stroke-width=".808333" stroke-miterlimit="10"/>
      <path d="M89.031 58.9469 87.4079 55.93l-1.6231 3.0169" stroke="#fff" stroke-width=".808333" stroke-miterlimit="10"/>
      <path d="m89.2353 60.6543-1.8274-3.3958-1.8268 3.3958h3.6542Z" fill="#F8FDFF"/>
      <path d="M87.4079 63.2154V53.1788m-60.2438 1.7081-.9492-1.7649-.9493 1.7649" stroke="#fff" stroke-width=".808333" stroke-miterlimit="10"/>
      <path d="m27.6134 57.1253-1.3985-2.599-1.3985 2.599" stroke="#fff" stroke-width=".808333" stroke-miterlimit="10"/>
      <path d="M27.838 58.9469 26.2149 55.93l-1.6231 3.0169m1.6231 4.2685V53.1788M62.4 55.955l-.7686-1.4286-.7686 1.4286" stroke="#fff" stroke-width=".808333" stroke-miterlimit="10"/>
      <path d="m62.764 57.7679-1.1326-2.1051-1.1319 2.1051" stroke="#fff" stroke-width=".808333" stroke-miterlimit="10"/>
      <path d="m62.946 59.2426-1.3146-2.4427-1.3139 2.4427m1.3139 1.2589v-5.9291" stroke="#fff" stroke-width=".808333" stroke-miterlimit="10"/>
      <path d="M149.084 24.993c.248-.6893.844-1.4388 1.571-1.5288.727-.09 1.461.3484 1.827.9822.367.6345.398 1.426.197 2.1302.034-.8165.824-1.5221 1.639-1.4659.815.0568 1.499.8652 1.42 1.6783.085-.5493.577-1.008 1.131-1.0533.554-.0453 1.191.3085 1.288.8557.166.9417-2.216 1.6032-3.593 1.0743-1.377-.5297-2.647.0717-3.839-.1854" stroke="#F8F8FB" stroke-width=".808333" stroke-linejoin="round"/>
      <path d="m103.521 8.97589-.397.39708-.503-.50328m52.09 11.42121-.583.5825-.582-.5825" stroke="#F8F8FB" stroke-width=".808333" stroke-miterlimit="10"/>
      <path d="M94.2663 57.4256h.6502l.4283-1.2271H93.838l.4283 1.2271Zm.3248-.0088v5.894m.2253-4.6939h-.4499m1.0821-3.1321-.2642.2645m-1.4512-.2645.2648.2645m.5532-.3571v-.4106" stroke="#fff" stroke-width=".808333" stroke-miterlimit="10"/>
      <path d="M143.623 57.4256h.65l.429-1.2271h-1.507l.428 1.2271Zm.325-.0088v5.894m.225-4.6939h-.45m1.083-3.1321-.265.2645m-1.451-.2645.265.2645m.553-.3571v-.4106m-8.469 7.3348h3.389m-16.595 0h13.576m-15.271 0h1.952" stroke="#F8F8FB" stroke-width=".808333" stroke-miterlimit="10"/>
      <path d="M123.699 53.354h-.858v.8578h.858v-.8578Zm.814-2.6239c.237 0 .429-.1921.429-.4289 0-.2369-.192-.4289-.429-.4289s-.429.192-.429.4289c0 .2368.192.4289.429.4289Zm1.673 2.6239h-.858v.8578h.858v-.8578Zm-2.487 2.5415h-.858v.8577h.858v-.8577Zm2.487 0h-.858v.8577h.858v-.8577Zm-2.487 2.5407h-.858v.8578h.858v-.8578Zm2.487 0h-.858v.8578h.858v-.8578Z" fill="#F8F8FB"/>
      <path d="M131.464 53.354h-.858v.8578h.858v-.8578Zm2.487 0h-.858v.8578h.858v-.8578Zm2.486 0h-.858v.8578h.858v-.8578Zm-4.973 2.5415h-.858v.8577h.858v-.8577Zm2.487 0h-.858v.8577h.858v-.8577Zm2.486 0h-.858v.8577h.858v-.8577Z" fill="#F8FDFF"/>
      <path d="m126.422 47.7794 3.267 3.0508m-1.645-3.0508 3.268 3.0508m-1.644-3.0508 3.267 3.0508m-1.644-3.0508 3.267 3.0508m-1.644-3.0508 3.268 3.0508" stroke="#F8F8FB" stroke-width=".808333" stroke-miterlimit="10"/>
      <path d="m138.163 51.1339-3.864-3.6529h-9.765m14.294 15.9732v-1.1378h-.626V51.7515" stroke="#fff" stroke-width=".808333" stroke-miterlimit="10"/>
      <path d="M129.152 63.3142v-.9978h-.715V51.7515h10.1v-.6176h-10.139l-3.864-3.6529-3.957 3.6529h-.406v.6176h.367v10.5649h-.849v1.1378" stroke="#fff" stroke-width=".808333" stroke-miterlimit="10"/>
      <path d="M71.0077 59.4915c.8882 0 1.6082-1.5519 1.6082-3.4662 0-1.9143-.72-3.4661-1.6082-3.4661-.8882 0-1.6083 1.5518-1.6083 3.4661s.7201 3.4662 1.6083 3.4662Z" fill="#F8FDFF"/>
      <path d="M70.9731 63.2905v-5.666m11.8313 2.6239c.7115 0 1.2882-1.2429 1.2882-2.7761 0-1.5333-.5767-2.7762-1.2882-2.7762-.7114 0-1.2882 1.2429-1.2882 2.7762 0 1.5332.5768 2.7761 1.2882 2.7761Zm-.0277 3.0421v-4.5377M68.7858 42.9495v-.9755h5.4667v.9755m0-.9755h1.2124v.9755" stroke="#fff" stroke-width=".808333" stroke-miterlimit="10"/>
      <path d="m66.5328 56.8811 1.3119-13.9316h5.5073l1.7834 18.9414M73.352 42.9495h3.0459l1.9066 20.2429" stroke="#fff" stroke-width=".808333" stroke-miterlimit="10"/>
      <path d="M68.7858 44.7144v6.8173m1.6846-6.8173v6.8173m1.6847-6.8173v6.8173" stroke="#F8F8FB" stroke-width=".808333" stroke-miterlimit="10"/>
      <path d="M71.6402 24.4356c-.6102-1.9915.7118-3.4066 2.0338-3.0549 1.3221.3518 2.2375 2.4461 2.2375 2.7207 0 0 .7117-1.4084 2.0338-1.5328 1.322-.1245 1.7286 1.3597 2.441 1.5328.7118.1732 1.4432-.6568 2.2375-.6568 1.4715 0 1.8152 1.4571 3.094 1.3975m-16.5673.5087c2.9376-.0683 6.924.5446 9.0607 0" stroke="#F8F8FB" stroke-width=".808333" stroke-linejoin="round"/>
      <path d="M28.7893 63.3358H-94.4708m155.1512-.0636c-.7111 0-.7111-.4059-1.4222-.4059s-.7111.4059-1.4221.4059c-.7111 0-.7111-.4059-1.4222-.4059s-.7111.4059-1.4222.4059c-.711 0-.711-.4059-1.4221-.4059s-.7111.4059-1.4222.4059-.7111-.4059-1.4222-.4059c-.711 0-.711.4059-1.4221.4059s-.7111-.4059-1.4222-.4059-.7111.4059-1.4222.4059c-.711 0-.711-.4059-1.4221-.4059s-.7111.4059-1.4222.4059-.7111-.4059-1.4221-.4059c-.7111 0-.7111.4059-1.4222.4059s-.7111-.4059-1.4222-.4059-.7111.4059-1.4221.4059c-.7111 0-.7111-.4059-1.4229-.4059-.7117 0-.7111.4059-1.4228.4059-.7118 0-.7111-.4059-1.4229-.4059-.7117 0-.711.4059-1.4228.4059-.7118 0-.7111-.4059-1.4228-.4059-.7118 0-.7111.4059-1.4229.4059m-1.5899.0791v-1.8758m34.5135 1.8758v-1.8758m-.0433.9133c-4.3687 0-9.4958-4.9165-17.2351-4.9165-7.7394 0-12.8665 4.9165-17.2351 4.9165" stroke="#fff" stroke-width=".808333" stroke-miterlimit="10"/>
      <path d="M62.269 61.1664c-4.3687 0-9.4958-4.9165-17.2351-4.9165-7.7394 0-12.8665 4.9165-17.2351 4.9165" stroke="#F8F8FB" stroke-width=".808333" stroke-miterlimit="10"/>
      <path d="M95.8793 63.419c-.5697-1.0708-1.6962-1.8-2.9939-1.8s-2.4242.7292-2.9932 1.8h5.9871Z" fill="#F8FDFF"/>
      <path d="M184 63.3358H61.635" stroke="#fff" stroke-width=".808333" stroke-miterlimit="10"/>
      <path d="M53.6027 37.4458c1.6542 0 2.9952-1.3407 2.9952-2.9946 0-1.6539-1.341-2.9947-2.9952-2.9947-1.6542 0-2.9952 1.3408-2.9952 2.9947s1.341 2.9946 2.9952 2.9946Z" fill="#F8FDFF"/>
      <path d="M54.012 40.057h-.818l-.253-1.1879h1.3241l-.2531 1.1879Zm1.3295-3.431-1.0764 2.2431m-1.3241 0-1.0764-2.2431m1.0385 0 .3701 2.2431m1.0034-2.2431-.3708 2.2431" stroke="#fff" stroke-width=".808333" stroke-miterlimit="10"/>
      <path d="M14.5893 42.4475c2.276-3.801 4.2008-6.6265 4.9254-6.6901 1.3999-.1224 6.1758 8.3238 9.5824 14.7169m-.8992 3.2511c2.23-2.7248 4.9309-8.0958 6.7793-8.2697 1.3221-.1244 4.6819 5.3494 8.1643 9.8803m6.6873.8936c2.3227-3.5859 4.5195-7.5702 5.8496-7.5228 1.0217.0365 2.6928 2.3236 4.5548 4.955m-1.1746-3.7435c2.3843-3.6806 7.7347-15.4671 10.5912-15.4671.8491 0 2.2726 1.6938 4.031 4.1994M53.5486 55.8968s.6705-.7563 1.2706-.6785c.6001.0785.7057.9863 1.3058 1.0972m-24.7066-.2015c.4276-.4079.7909-.7279 1.1035-.7063.2585.0176.9452.6582 1.2118.9545m-.3119-1.246c.2138-.2036.3951-.3639.5521-.3531.1292.0088.4722.3294.6055.4769" stroke="#F8F8FB" stroke-width=".808333" stroke-linejoin="round"/>
      <path d="M173.844 53.9825c.247.3449.695.5086 1.122.3747.426-.1346.699-.5263.703-.9497l-1.825.5756v-.0006Zm-10.967 4.8265c.137.1907.385.2814.621.207.235-.0744.387-.2909.389-.5256l-1.01.3179v.0007Zm-48.358-4.8611c.137.1908.384.2815.62.207.236-.0744.387-.2908.389-.5256l-1.009.318v.0006Zm26.238-.834c.136.1907.384.2814.62.207.235-.0744.387-.2909.389-.5256l-1.009.3179v.0007Zm19.503 3.364c-.062.3713.117.7563.468.9396.353.1833.77.1089 1.04-.1549l-1.508-.7847Zm-49.354 1.9489c-.062.3713.117.7562.469.9396.352.1833.77.1089 1.039-.155l-1.508-.7846Zm-47.0078-5.3177c-.0616.3714.117.7563.4688.9396.3525.1833.77.1089 1.0393-.1549l-1.5081-.7847Zm-60.25798.8598c-.06157.3714.11705.7563.46887.9396.35249.1833.76994.1089 1.03922-.1549l-1.50809-.7847Z" fill="#F8FDFF"/>
      <path d="M182.205 59.4272c-.089.2659-.001.5696.236.7455.238.1752.554.1691.782.0068l-1.018-.7516v-.0007Zm-76.763-7.6811c-.089.2658-.001.5696.236.7454.238.1752.554.1692.782.0068l-1.018-.7515v-.0007Zm-41.5391-1.5633c.2429.14.5575.1163.7774-.0812.2199-.1975.2774-.508.1637-.7644l-.9411.8456Zm-41.0242 4.376c.2429.14.5575.1163.7774-.0812.2199-.1975.2774-.508.1637-.7644l-.9411.8456Z" fill="#F8F8FB"/>
    </g>
  </g>
  <defs>
    <clipPath id="a">
      <path fill="#fff" transform="translate(-107)" d="M0 0h582v63.4542H0z"/>
    </clipPath>
    <clipPath id="b">
      <path fill="#fff" transform="translate(184)" d="M0 0h278.471v63.4542H0z"/>
    </clipPath>
    <clipPath id="c">
      <path fill="#fff" transform="translate(-94.4708)" d="M0 0h278.471v63.4542H0z"/>
    </clipPath>
  </defs>
</svg>
