<svg width="21" height="20" viewBox="0 0 21 20" fill="none" xmlns="http://www.w3.org/2000/svg">
<path d="M9.13124 10.8663L7.78461 9.52793C7.65214 9.39546 7.49285 9.32922 7.30674 9.32922C7.12063 9.32922 6.96134 9.39546 6.82887 9.52793C6.6964 9.66039 6.63291 9.81749 6.63837 9.99923C6.64385 10.181 6.71009 10.3353 6.83709 10.4623L8.56962 12.1948C8.72399 12.3492 8.91475 12.4264 9.14192 12.4264C9.36908 12.4264 9.55985 12.3492 9.71421 12.1948L13.2318 8.67723C13.3643 8.54476 13.4305 8.38547 13.4305 8.19936C13.4305 8.01325 13.3643 7.85396 13.2318 7.72149C13.0994 7.58902 12.9387 7.52416 12.7499 7.52689C12.561 7.52962 12.4031 7.59449 12.2761 7.72149L9.13124 10.8663ZM10.0279 18.0312C9.94249 18.0312 9.86832 18.0277 9.80537 18.0206C9.74242 18.0135 9.6781 17.9957 9.61242 17.9672C7.8684 17.3892 6.43421 16.2883 5.30984 14.6647C4.18547 13.0411 3.62329 11.2369 3.62329 9.25202V5.42733C3.62329 5.09013 3.72046 4.78085 3.91479 4.49949C4.10912 4.21811 4.36776 4.01886 4.69073 3.90172L9.46627 2.12977C9.6491 2.06409 9.8363 2.03125 10.0279 2.03125C10.2195 2.03125 10.4067 2.06409 10.5895 2.12977L15.365 3.90172C15.688 4.01886 15.9467 4.21811 16.141 4.49949C16.3353 4.78085 16.4325 5.09013 16.4325 5.42733V9.25202C16.4325 11.2369 15.8703 13.0411 14.7459 14.6647C13.6216 16.2883 12.1874 17.3892 10.4434 17.9672C10.4061 17.9814 10.2676 18.0028 10.0279 18.0312Z" fill="#8A9099"/>
</svg>
