<?xml version="1.0" encoding="utf-8"?>
<svg width="98" height="98" viewBox="0 0 98 98" fill="none" xmlns="http://www.w3.org/2000/svg">
<g clip-path="url(#clip0)" filter="url(#filter0_d)">
<g filter="url(#filter1_d)">
<path d="M91.9396 -12.7236L3.17749 -12.7236C-4.00221 -12.7236 -9.82251 -6.90334 -9.82251 0.276357V75.5214C-9.82251 82.7011 -4.00222 88.5214 3.17748 88.5214H91.9396C99.1193 88.5214 104.94 82.7011 104.94 75.5214V0.276367C104.94 -6.90333 99.1193 -12.7236 91.9396 -12.7236Z" fill="white"/>
<path d="M41.1479 14.701C41.4026 14.701 41.5936 14.51 41.5936 14.2554V14.701H41.1479Z" fill="black"/>
<path d="M43.7157 14.2554V13.0458C43.7157 12.7911 43.5247 12.6001 43.2701 12.6001H42.0604C41.8057 12.6001 41.6147 12.7911 41.6147 13.0458V14.7011H43.7369V14.2554H43.7157Z" fill="black"/>
<path d="M51.7163 14.701C51.971 14.701 52.162 14.51 52.162 14.2554V14.701H51.7163Z" fill="black"/>
<path d="M54.2843 14.2554V13.0458C54.2843 12.7911 54.0933 12.6001 53.8387 12.6001H52.629C52.3743 12.6001 52.1833 12.7911 52.1833 13.0458V14.7011H54.3055V14.2554H54.2843Z" fill="black"/>
<path d="M56.8309 12.6001H58.0406C58.2952 12.6001 58.4862 12.7911 58.4862 13.0458V14.2554C58.4862 14.5101 58.2952 14.7011 58.0406 14.7011H56.8309C56.5762 14.7011 56.3853 14.5101 56.3853 14.2554V13.0458C56.3853 12.7911 56.5975 12.6001 56.8309 12.6001Z" fill="black"/>
<path d="M41.148 14.7012H39.9383C39.6837 14.7012 39.4927 14.8922 39.4927 15.1468V16.3565C39.4927 16.6111 39.6837 16.8021 39.9383 16.8021H41.5936V14.7012H41.148Z" fill="black"/>
<path d="M43.7369 14.7012H41.6147V16.8234H43.7369V14.7012Z" fill="black"/>
<path d="M45.3711 16.8236C45.6258 16.8236 45.8168 16.6326 45.8168 16.3779V16.8236H45.3711Z" fill="black"/>
<path d="M44.1615 16.8236C43.9068 16.8236 43.7158 16.6326 43.7158 16.3779V16.8236H44.1615Z" fill="black"/>
<path d="M46.2835 14.7012C46.0289 14.7012 45.8379 14.8922 45.8379 15.1468V16.8234H47.9601V14.7012H46.2835Z" fill="black"/>
<path d="M50.0611 14.7012H47.939V16.8234H50.0611V14.7012Z" fill="black"/>
<path d="M52.1832 14.7012H50.061V16.8234H52.1832V14.7012Z" fill="black"/>
<path d="M54.2843 16.3777C54.2843 16.6324 54.0933 16.8234 53.8387 16.8234H52.1833V14.7012H54.3055V16.3777H54.2843Z" fill="black"/>
<path d="M41.6148 17.2689V16.8232H41.1692C41.4026 16.8232 41.6148 17.0142 41.6148 17.2689Z" fill="black"/>
<path d="M41.1479 18.9242C41.4026 18.9242 41.5936 18.7332 41.5936 18.4785V18.9242H41.1479Z" fill="black"/>
<path d="M43.7369 16.8232H41.6147V18.9454H43.7369V16.8232Z" fill="black"/>
<path d="M45.838 16.8232H43.7158V18.9454H45.838V16.8232Z" fill="black"/>
<path d="M47.9601 16.8232H45.8379V18.9454H47.9601V16.8232Z" fill="black"/>
<path d="M48.3846 16.8232H47.939V17.2689C47.939 17.0142 48.1512 16.8232 48.3846 16.8232Z" fill="black"/>
<path d="M41.148 18.9241H39.9383C39.6837 18.9241 39.4927 19.1151 39.4927 19.3697V20.5794C39.4927 20.834 39.6837 21.025 39.9383 21.025H41.5936V18.9028H41.148V18.9241Z" fill="black"/>
<path d="M43.7157 20.6008C43.7157 20.8555 43.5247 21.0465 43.2701 21.0465H41.6147V18.9243H43.7369V20.6008H43.7157Z" fill="black"/>
<path d="M44.1615 18.9243H43.7158V19.37C43.7158 19.1365 43.928 18.9243 44.1615 18.9243Z" fill="black"/>
<path d="M45.838 19.391V18.9453H45.3923C45.6258 18.9241 45.838 19.1363 45.838 19.391Z" fill="black"/>
<path d="M45.8379 20.6006C45.8379 20.8553 46.0289 21.0463 46.2835 21.0463H47.4932C47.7478 21.0463 47.9388 20.8553 47.9388 20.6006V18.9453H45.8167V20.6006H45.8379Z" fill="black"/>
<path d="M50.5067 18.9243H51.7163C51.971 18.9243 52.162 19.1153 52.162 19.37V20.5796C52.162 20.8343 51.971 21.0253 51.7163 21.0253H50.5067C50.252 21.0253 50.061 20.8343 50.061 20.5796V19.37C50.061 19.1365 50.252 18.9243 50.5067 18.9243Z" fill="black"/>
<path d="M54.7298 18.9241C54.4752 18.9241 54.2842 19.1151 54.2842 19.3697V21.025H56.4064V18.9028H54.7298V18.9241Z" fill="black"/>
<path d="M58.0405 18.9241C58.2952 18.9241 58.4862 19.1151 58.4862 19.3697V21.025H56.364V18.9028H58.0405V18.9241Z" fill="black"/>
<path d="M45.838 22.7017V21.492C45.838 21.2374 45.647 21.0464 45.3924 21.0464H44.1827C43.9281 21.0464 43.7371 21.2374 43.7371 21.492V23.1474H45.8592V22.7017H45.838Z" fill="black"/>
<path d="M48.3846 21.0464H49.5943C49.8489 21.0464 50.0399 21.2374 50.0399 21.492V22.7017C50.0399 22.9564 49.8489 23.1474 49.5943 23.1474H48.3846C48.13 23.1474 47.939 22.9564 47.939 22.7017V21.492C47.939 21.2374 48.1512 21.0464 48.3846 21.0464Z" fill="black"/>
<path d="M53.8174 23.1688C54.072 23.1688 54.263 22.9778 54.263 22.7231V23.1688H53.8174Z" fill="black"/>
<path d="M56.4064 21.0464H54.2842V23.1686H56.4064V21.0464Z" fill="black"/>
<path d="M58.5075 22.7019C58.5075 22.9566 58.3165 23.1476 58.0618 23.1476H56.4065V21.0254H58.5287V22.7019H58.5075Z" fill="black"/>
<path d="M41.6149 24.8242V23.6146C41.6149 23.3599 41.4239 23.1689 41.1692 23.1689H39.9596C39.7049 23.1689 39.5139 23.3599 39.5139 23.6146V25.2699H41.6361V24.8242H41.6149Z" fill="black"/>
<path d="M45.838 23.1689H43.7158V25.2911H45.838V23.1689Z" fill="black"/>
<path d="M51.7163 23.1687H50.5067C50.252 23.1687 50.061 23.3597 50.061 23.6143V24.824C50.061 25.0786 50.252 25.2696 50.5067 25.2696H52.162V23.1475H51.7163V23.1687Z" fill="black"/>
<path d="M54.2843 23.1685H52.1621V25.2906H54.2843V23.1685Z" fill="black"/>
<path d="M56.3851 24.824C56.3851 25.0786 56.1941 25.2696 55.9395 25.2696H54.2842V23.1475H56.4064V24.824H56.3851Z" fill="black"/>
<path d="M56.8309 23.1689H56.3853V23.6146C56.3853 23.3599 56.5975 23.1689 56.8309 23.1689Z" fill="black"/>
<path d="M39.4927 26.9248C39.4927 27.1795 39.6837 27.3705 39.9383 27.3705H41.148C41.4026 27.3705 41.5936 27.1795 41.5936 26.9248V25.2695H39.4714V26.9248H39.4927Z" fill="black"/>
<path d="M43.7158 26.9248C43.7158 27.1795 43.9068 27.3705 44.1615 27.3705H45.3711C45.6258 27.3705 45.8168 27.1795 45.8168 26.9248V25.2695H43.6946V26.9248H43.7158Z" fill="black"/>
<path d="M50.0609 26.9248V25.7152C50.0609 25.4605 49.8699 25.2695 49.6153 25.2695H48.4056C48.151 25.2695 47.96 25.4605 47.96 25.7152V27.3705H50.0821V26.9248H50.0609Z" fill="black"/>
<path d="M52.162 25.7152V25.2695H51.7163C51.971 25.2695 52.162 25.4605 52.162 25.7152Z" fill="black"/>
<path d="M52.1621 26.9248C52.1621 27.1795 52.3531 27.3705 52.6077 27.3705H53.8174C54.0721 27.3705 54.2631 27.1795 54.2631 26.9248V25.2695H52.1409V26.9248H52.1621Z" fill="black"/>
<path d="M54.7298 25.2695H54.2842V25.7152C54.2842 25.4605 54.4752 25.2695 54.7298 25.2695Z" fill="black"/>
<path d="M58.5075 26.9248V25.7152C58.5075 25.4605 58.3165 25.2695 58.0618 25.2695H56.8522C56.5975 25.2695 56.4065 25.4605 56.4065 25.7152V27.3705H58.5287V26.9248H58.5075Z" fill="black"/>
<path d="M50.0611 27.3916H47.939V29.5138H50.0611V27.3916Z" fill="black"/>
<path d="M50.5067 29.4925C50.252 29.4925 50.061 29.3015 50.061 29.0469V29.4925H50.5067Z" fill="black"/>
<path d="M56.3852 29.0469C56.3852 29.3016 56.5762 29.4926 56.8309 29.4926H58.0405C58.2952 29.4926 58.4862 29.3016 58.4862 29.0469V27.3916H56.364V29.0469H56.3852Z" fill="black"/>
<path d="M24.2552 29.4929H23.0455C22.7909 29.4929 22.5999 29.6839 22.5999 29.9386V31.1482C22.5999 31.4029 22.7909 31.5939 23.0455 31.5939H24.7008V29.4717H24.2552V29.4929Z" fill="black"/>
<path d="M26.8231 29.4927H24.7009V31.6149H26.8231V29.4927Z" fill="black"/>
<path d="M28.9454 29.4927H26.8232V31.6149H28.9454V29.4927Z" fill="black"/>
<path d="M31.0463 29.4927H28.9241V31.6149H31.0463V29.4927Z" fill="black"/>
<path d="M31.492 31.6151H32.7017C32.9564 31.6151 33.1474 31.4241 33.1474 31.1695V29.9598C33.1474 29.7052 32.9564 29.5142 32.7017 29.5142H31.0464V31.6363H31.492V31.6151Z" fill="black"/>
<path d="M36.9248 29.4929H35.7152C35.4605 29.4929 35.2695 29.6839 35.2695 29.9386V31.1482C35.2695 31.4029 35.4605 31.5939 35.7152 31.5939H37.3705V29.4717H36.9248V29.4929Z" fill="black"/>
<path d="M39.5138 29.4927H37.3916V31.6149H39.5138V29.4927Z" fill="black"/>
<path d="M41.6149 29.4927H39.4927V31.6149H41.6149V29.4927Z" fill="black"/>
<path d="M43.7369 29.4927H41.6147V31.6149H43.7369V29.4927Z" fill="black"/>
<path d="M44.1615 31.6151H45.3711C45.6258 31.6151 45.8168 31.4241 45.8168 31.1695V29.9598C45.8168 29.7052 45.6258 29.5142 45.3711 29.5142H43.7158V31.6364H44.1615V31.6151Z" fill="black"/>
<path d="M47.9389 31.1482C47.9389 31.4029 48.1299 31.5939 48.3846 31.5939H50.0399V29.4717H47.9177V31.1482H47.9389Z" fill="black"/>
<path d="M50.5067 31.6151H51.7163C51.971 31.6151 52.162 31.4241 52.162 31.1695V29.9598C52.162 29.7052 51.971 29.5142 51.7163 29.5142H50.061V31.6364H50.5067V31.6151Z" fill="black"/>
<path d="M56.3851 31.148V29.9383C56.3851 29.6837 56.1941 29.4927 55.9395 29.4927H54.7298C54.4752 29.4927 54.2842 29.6837 54.2842 29.9383V31.5936H56.4064V31.148H56.3851Z" fill="black"/>
<path d="M58.0405 31.6151C58.2952 31.6151 58.4862 31.4241 58.4862 31.1694V31.6151H58.0405Z" fill="black"/>
<path d="M56.8309 31.6151C56.5763 31.6151 56.3853 31.4241 56.3853 31.1694V31.6151H56.8309Z" fill="black"/>
<path d="M60.6083 31.148V29.9383C60.6083 29.6837 60.4173 29.4927 60.1626 29.4927H58.953C58.6983 29.4927 58.5073 29.6837 58.5073 29.9383V31.5936H60.6295V31.148H60.6083Z" fill="black"/>
<path d="M64.8314 31.148V29.9383C64.8314 29.6837 64.6404 29.4927 64.3858 29.4927H63.1761C62.9215 29.4927 62.7305 29.6837 62.7305 29.9383V31.5936H64.8527V31.148H64.8314Z" fill="black"/>
<path d="M65.2772 31.6151C65.0225 31.6151 64.8315 31.4241 64.8315 31.1694V31.6151H65.2772Z" fill="black"/>
<path d="M67.3993 29.4927H68.6089C68.8636 29.4927 69.0546 29.6837 69.0546 29.9383V31.148C69.0546 31.4026 68.8636 31.5936 68.6089 31.5936H67.3993C67.1446 31.5936 66.9536 31.4026 66.9536 31.148V29.9383C66.9536 29.7049 67.1446 29.4927 67.3993 29.4927Z" fill="black"/>
<path d="M71.6224 29.4927H72.8321C73.0867 29.4927 73.2777 29.6837 73.2777 29.9383V31.148C73.2777 31.4026 73.0867 31.5936 72.8321 31.5936H71.6224C71.3678 31.5936 71.1768 31.4026 71.1768 31.148V29.9383C71.1768 29.7049 71.3678 29.4927 71.6224 29.4927Z" fill="black"/>
<path d="M24.701 32.0604V31.6147H24.2554C24.51 31.6147 24.701 31.8057 24.701 32.0604Z" fill="black"/>
<path d="M24.7009 33.2701C24.7009 33.5247 24.8919 33.7157 25.1466 33.7157H26.3562C26.6109 33.7157 26.8019 33.5247 26.8019 33.2701V31.6147H24.7009V33.2701Z" fill="black"/>
<path d="M27.2689 31.6147H26.8232V32.0604C26.8232 31.8057 27.0142 31.6147 27.2689 31.6147Z" fill="black"/>
<path d="M37.3917 32.0604V31.6147H36.946C37.1795 31.6147 37.3917 31.8057 37.3917 32.0604Z" fill="black"/>
<path d="M37.3916 33.2703C37.3916 33.5249 37.5826 33.7159 37.8372 33.7159H39.4925V31.5938H37.3704V33.2703H37.3916Z" fill="black"/>
<path d="M41.6149 31.6147H39.4927V33.7369H41.6149V31.6147Z" fill="black"/>
<path d="M43.7369 31.6147H41.6147V33.7369H43.7369V31.6147Z" fill="black"/>
<path d="M44.1615 31.6147H43.7158V32.0604C43.7158 31.8057 43.928 31.6147 44.1615 31.6147Z" fill="black"/>
<path d="M53.8174 33.7162C54.072 33.7162 54.263 33.5252 54.263 33.2705V33.7162H53.8174Z" fill="black"/>
<path d="M56.4064 31.6147H54.2842V33.7369H56.4064V31.6147Z" fill="black"/>
<path d="M58.5075 31.6147H56.3853V33.7369H58.5075V31.6147Z" fill="black"/>
<path d="M60.6295 31.6147H58.5073V33.7369H60.6295V31.6147Z" fill="black"/>
<path d="M61.0541 33.7162C60.7994 33.7162 60.6084 33.5252 60.6084 33.2705V33.7162H61.0541Z" fill="black"/>
<path d="M62.7304 33.2703C62.7304 33.5249 62.9214 33.7159 63.1761 33.7159H64.8314V31.5938H62.7092V33.2703H62.7304Z" fill="black"/>
<path d="M66.5081 31.615C66.7627 31.615 66.9537 31.806 66.9537 32.0606V33.7159H64.8315V31.5938H66.5081V31.615Z" fill="black"/>
<path d="M73.7235 31.6147H74.9331C75.1878 31.6147 75.3788 31.8057 75.3788 32.0604V33.2701C75.3788 33.5247 75.1878 33.7157 74.9331 33.7157H73.7235C73.4688 33.7157 73.2778 33.5247 73.2778 33.2701V32.0604C73.2778 31.8057 73.4901 31.6147 73.7235 31.6147Z" fill="black"/>
<path d="M23.0455 33.7158H24.2552C24.5098 33.7158 24.7008 33.9068 24.7008 34.1615V35.3711C24.7008 35.6258 24.5098 35.8168 24.2552 35.8168H23.0455C22.7909 35.8168 22.5999 35.6258 22.5999 35.3711V34.1615C22.5999 33.928 22.7909 33.7158 23.0455 33.7158Z" fill="black"/>
<path d="M27.2689 33.716C27.0142 33.716 26.8232 33.907 26.8232 34.1617V35.817H28.9454V33.6948H27.2689V33.716Z" fill="black"/>
<path d="M31.0463 33.7158H28.9241V35.838H31.0463V33.7158Z" fill="black"/>
<path d="M31.492 35.8383H32.7017C32.9564 35.8383 33.1474 35.6473 33.1474 35.3926V34.183C33.1474 33.9283 32.9564 33.7373 32.7017 33.7373H31.0464V35.8595H31.492V35.8383Z" fill="black"/>
<path d="M35.7152 33.7158H36.9248C37.1795 33.7158 37.3705 33.9068 37.3705 34.1615V35.3711C37.3705 35.6258 37.1795 35.8168 36.9248 35.8168H35.7152C35.4605 35.8168 35.2695 35.6258 35.2695 35.3711V34.1615C35.2695 33.928 35.4605 33.7158 35.7152 33.7158Z" fill="black"/>
<path d="M39.4925 34.1615V33.7158H39.0469C39.3015 33.7158 39.4925 33.928 39.4925 34.1615Z" fill="black"/>
<path d="M41.6149 33.7158H39.4927V35.838H41.6149V33.7158Z" fill="black"/>
<path d="M43.7369 33.7158H41.6147V35.838H43.7369V33.7158Z" fill="black"/>
<path d="M45.3711 35.8382C45.6258 35.8382 45.8168 35.6472 45.8168 35.3926V35.8382H45.3711Z" fill="black"/>
<path d="M44.1615 35.8382C43.9068 35.8382 43.7158 35.6472 43.7158 35.3926V35.8382H44.1615Z" fill="black"/>
<path d="M46.2835 33.716C46.0289 33.716 45.8379 33.907 45.8379 34.1617V35.817H47.9601V33.6948H46.2835V33.716Z" fill="black"/>
<path d="M50.0611 33.7158H47.939V35.838H50.0611V33.7158Z" fill="black"/>
<path d="M52.1832 33.7158H50.061V35.838H52.1832V33.7158Z" fill="black"/>
<path d="M54.2843 33.7158H52.1621V35.838H54.2843V33.7158Z" fill="black"/>
<path d="M56.3851 35.3714C56.3851 35.626 56.1941 35.817 55.9395 35.817H54.2842V33.6948H56.4064V35.3714H56.3851Z" fill="black"/>
<path d="M56.8309 33.7158H56.3853V34.1615C56.3853 33.928 56.5975 33.7158 56.8309 33.7158Z" fill="black"/>
<path d="M58.5074 34.1615V33.7158H58.0618C58.2952 33.7158 58.5074 33.928 58.5074 34.1615Z" fill="black"/>
<path d="M58.0405 35.8382C58.2952 35.8382 58.4862 35.6472 58.4862 35.3926V35.8382H58.0405Z" fill="black"/>
<path d="M60.6295 33.7158H58.5073V35.838H60.6295V33.7158Z" fill="black"/>
<path d="M61.0541 35.8383H62.2637C62.5184 35.8383 62.7094 35.6473 62.7094 35.3926V34.183C62.7094 33.9283 62.5184 33.7373 62.2637 33.7373H60.6084V35.8595H61.0541V35.8383Z" fill="black"/>
<path d="M64.8314 34.1615V33.7158H64.3857C64.6404 33.7158 64.8314 33.928 64.8314 34.1615Z" fill="black"/>
<path d="M64.8315 35.3711C64.8315 35.6258 65.0225 35.8168 65.2772 35.8168H66.4868C66.7415 35.8168 66.9325 35.6258 66.9325 35.3711V33.7158H64.8103V35.3711H64.8315Z" fill="black"/>
<path d="M69.5003 33.7158H70.71C70.9646 33.7158 71.1556 33.9068 71.1556 34.1615V35.3711C71.1556 35.6258 70.9646 35.8168 70.71 35.8168H69.5003C69.2457 35.8168 69.0547 35.6258 69.0547 35.3711V34.1615C69.0547 33.928 69.2669 33.7158 69.5003 33.7158Z" fill="black"/>
<path d="M28.9454 35.8379H26.8232V37.9601H28.9454V35.8379Z" fill="black"/>
<path d="M29.391 35.8379H28.9453V36.2835C28.9241 36.0289 29.1363 35.8379 29.391 35.8379Z" fill="black"/>
<path d="M39.4927 37.4934C39.4927 37.7481 39.6837 37.9391 39.9383 37.9391H41.5936V35.8169H39.4714V37.4934H39.4927Z" fill="black"/>
<path d="M43.7369 35.8379H41.6147V37.9601H43.7369V35.8379Z" fill="black"/>
<path d="M45.838 35.8379H43.7158V37.9601H45.838V35.8379Z" fill="black"/>
<path d="M47.9601 35.8379H45.8379V37.9601H47.9601V35.8379Z" fill="black"/>
<path d="M48.3846 35.8379H47.939V36.2835C47.939 36.0289 48.1512 35.8379 48.3846 35.8379Z" fill="black"/>
<path d="M58.0406 35.8381H56.8309C56.5762 35.8381 56.3853 36.0291 56.3853 36.2838V37.4934C56.3853 37.7481 56.5762 37.9391 56.8309 37.9391H58.4862V35.8169H58.0406V35.8381Z" fill="black"/>
<path d="M60.6083 37.4934C60.6083 37.7481 60.4173 37.9391 60.1626 37.9391H58.5073V35.8169H60.6295V37.4934H60.6083Z" fill="black"/>
<path d="M61.0541 35.8379H60.6084V36.2835C60.6084 36.0289 60.8206 35.8379 61.0541 35.8379Z" fill="black"/>
<path d="M26.8232 39.5943C26.8232 39.8489 27.0142 40.0399 27.2689 40.0399H28.4785C28.7332 40.0399 28.9242 39.8489 28.9242 39.5943V37.939H26.8232V39.5943Z" fill="black"/>
<path d="M35.7152 37.939H36.9248C37.1795 37.939 37.3705 38.13 37.3705 38.3846V39.5943C37.3705 39.8489 37.1795 40.0399 36.9248 40.0399H35.7152C35.4605 40.0399 35.2695 39.8489 35.2695 39.5943V38.3846C35.2695 38.1512 35.4605 37.939 35.7152 37.939Z" fill="black"/>
<path d="M41.6148 38.3846V37.939H41.1692C41.4026 37.939 41.6148 38.1512 41.6148 38.3846Z" fill="black"/>
<path d="M41.6147 39.5943C41.6147 39.8489 41.8057 40.0399 42.0604 40.0399H43.27C43.5247 40.0399 43.7157 39.8489 43.7157 39.5943V37.939H41.5935V39.5943H41.6147Z" fill="black"/>
<path d="M44.1615 37.939H43.7158V38.3846C43.7158 38.1512 43.928 37.939 44.1615 37.939Z" fill="black"/>
<path d="M45.838 38.3846V37.939H45.3923C45.6258 37.939 45.838 38.1512 45.838 38.3846Z" fill="black"/>
<path d="M45.8379 39.5943C45.8379 39.8489 46.0289 40.0399 46.2835 40.0399H47.4932C47.7478 40.0399 47.9388 39.8489 47.9388 39.5943V37.939H45.8167V39.5943H45.8379Z" fill="black"/>
<path d="M50.5067 37.939H51.7163C51.971 37.939 52.162 38.13 52.162 38.3846V39.5943C52.162 39.8489 51.971 40.0399 51.7163 40.0399H50.5067C50.252 40.0399 50.061 39.8489 50.061 39.5943V38.3846C50.061 38.1512 50.252 37.939 50.5067 37.939Z" fill="black"/>
<path d="M54.7298 37.939H55.9395C56.1941 37.939 56.3851 38.13 56.3851 38.3846V39.5943C56.3851 39.8489 56.1941 40.0399 55.9395 40.0399H54.7298C54.4752 40.0399 54.2842 39.8489 54.2842 39.5943V38.3846C54.2842 38.1512 54.4752 37.939 54.7298 37.939Z" fill="black"/>
<path d="M60.1626 40.0614C60.4173 40.0614 60.6083 39.8704 60.6083 39.6157V40.0614H60.1626Z" fill="black"/>
<path d="M61.0541 37.9392C60.7994 37.9392 60.6084 38.1302 60.6084 38.3849V40.0402H62.7306V37.918H61.0541V37.9392Z" fill="black"/>
<path d="M64.8527 37.939H62.7305V40.0611H64.8527V37.939Z" fill="black"/>
<path d="M66.9537 37.939H64.8315V40.0611H66.9537V37.939Z" fill="black"/>
<path d="M67.3993 40.0614H68.6089C68.8636 40.0614 69.0546 39.8704 69.0546 39.6158V38.4061C69.0546 38.1514 68.8636 37.9604 68.6089 37.9604H66.9536V40.0826H67.3993V40.0614Z" fill="black"/>
<path d="M72.8321 37.9392H71.6224C71.3678 37.9392 71.1768 38.1302 71.1768 38.3849V39.5945C71.1768 39.8492 71.3678 40.0402 71.6224 40.0402H73.2777V37.918H72.8321V37.9392Z" fill="black"/>
<path d="M73.7235 40.0614H74.9331C75.1878 40.0614 75.3788 39.8704 75.3788 39.6157V38.4061C75.3788 38.1514 75.1878 37.9604 74.9331 37.9604H73.2778V40.0826H73.7235V40.0614Z" fill="black"/>
<path d="M24.7008 41.7163V40.5067C24.7008 40.252 24.5098 40.061 24.2552 40.061H23.0455C22.7909 40.061 22.5999 40.252 22.5999 40.5067V42.162H24.722V41.7163H24.7008Z" fill="black"/>
<path d="M28.4785 42.1625C28.7332 42.1625 28.9242 41.9715 28.9242 41.7168V42.1625H28.4785Z" fill="black"/>
<path d="M31.0463 41.7163V40.5067C31.0463 40.252 30.8553 40.061 30.6006 40.061H29.391C29.1363 40.061 28.9453 40.252 28.9453 40.5067V42.162H31.0675V41.7163H31.0463Z" fill="black"/>
<path d="M31.492 42.1625C31.2374 42.1625 31.0464 41.9715 31.0464 41.7168V42.1625H31.492Z" fill="black"/>
<path d="M36.9248 42.162C37.1795 42.162 37.3705 41.971 37.3705 41.7163V42.162H36.9248Z" fill="black"/>
<path d="M39.4926 41.7163V40.5067C39.4926 40.252 39.3016 40.061 39.0469 40.061H37.8373C37.5826 40.061 37.3916 40.252 37.3916 40.5067V42.162H39.5138V41.7163H39.4926Z" fill="black"/>
<path d="M44.1615 40.061H45.3711C45.6258 40.061 45.8168 40.252 45.8168 40.5067V41.7163C45.8168 41.971 45.6258 42.162 45.3711 42.162H44.1615C43.9068 42.162 43.7158 41.971 43.7158 41.7163V40.5067C43.7158 40.252 43.928 40.061 44.1615 40.061Z" fill="black"/>
<path d="M48.3846 40.061H49.5943C49.8489 40.061 50.0399 40.252 50.0399 40.5067V41.7163C50.0399 41.971 49.8489 42.162 49.5943 42.162H48.3846C48.13 42.162 47.939 41.971 47.939 41.7163V40.5067C47.939 40.252 48.1512 40.061 48.3846 40.061Z" fill="black"/>
<path d="M51.7163 42.162C51.971 42.162 52.162 41.971 52.162 41.7163V42.162H51.7163Z" fill="black"/>
<path d="M54.2843 41.7163V40.5067C54.2843 40.252 54.0933 40.061 53.8387 40.061H52.629C52.3743 40.061 52.1833 40.252 52.1833 40.5067V42.162H54.3055V41.7163H54.2843Z" fill="black"/>
<path d="M58.0406 40.0613H56.8309C56.5762 40.0613 56.3853 40.2523 56.3853 40.5069V41.7166C56.3853 41.9712 56.5762 42.1622 56.8309 42.1622H58.4862V40.04H58.0406V40.0613Z" fill="black"/>
<path d="M60.6295 40.061H58.5073V42.1832H60.6295V40.061Z" fill="black"/>
<path d="M62.7306 40.061H60.6084V42.1832H62.7306V40.061Z" fill="black"/>
<path d="M64.8527 40.061H62.7305V42.1832H64.8527V40.061Z" fill="black"/>
<path d="M66.9537 40.061H64.8315V42.1832H66.9537V40.061Z" fill="black"/>
<path d="M67.3993 40.061H66.9536V40.5067C66.9536 40.252 67.1446 40.061 67.3993 40.061Z" fill="black"/>
<path d="M24.722 42.1621H22.5999V44.2843H24.722V42.1621Z" fill="black"/>
<path d="M27.2689 42.1623C27.0142 42.1623 26.8232 42.3533 26.8232 42.608V44.2633H28.9454V42.1411H27.2689V42.1623Z" fill="black"/>
<path d="M31.0465 42.1621H28.9243V44.2843H31.0465V42.1621Z" fill="black"/>
<path d="M33.1686 42.1621H31.0464V44.2843H33.1686V42.1621Z" fill="black"/>
<path d="M35.2906 42.1621H33.1685V44.2843H35.2906V42.1621Z" fill="black"/>
<path d="M37.3917 42.1621H35.2695V44.2843H37.3917V42.1621Z" fill="black"/>
<path d="M39.5138 42.1621H37.3916V44.2843H39.5138V42.1621Z" fill="black"/>
<path d="M41.1479 44.2845C41.4026 44.2845 41.5936 44.0935 41.5936 43.8389V44.2845H41.1479Z" fill="black"/>
<path d="M39.9383 44.2845C39.6837 44.2845 39.4927 44.0935 39.4927 43.8389V44.2845H39.9383Z" fill="black"/>
<path d="M43.7157 43.8174V42.6078C43.7157 42.3531 43.5247 42.1621 43.2701 42.1621H42.0604C41.8057 42.1621 41.6147 42.3531 41.6147 42.6078V44.2631H43.7369V43.8174H43.7157Z" fill="black"/>
<path d="M51.7163 42.1623H50.5067C50.252 42.1623 50.061 42.3533 50.061 42.608V43.8176C50.061 44.0723 50.252 44.2633 50.5067 44.2633H52.162V42.1411H51.7163V42.1623Z" fill="black"/>
<path d="M54.2843 42.1621H52.1621V44.2843H54.2843V42.1621Z" fill="black"/>
<path d="M58.5074 42.6078V42.1621H58.0618C58.2952 42.1621 58.5074 42.3743 58.5074 42.6078Z" fill="black"/>
<path d="M60.6295 42.1621H58.5073V44.2843H60.6295V42.1621Z" fill="black"/>
<path d="M62.7306 43.8176C62.7306 44.0723 62.5396 44.2633 62.2849 44.2633H60.6296V42.1411H62.7518V43.8176H62.7306Z" fill="black"/>
<path d="M63.1761 42.1621H62.7305V42.6078C62.7305 42.3743 62.9215 42.1621 63.1761 42.1621Z" fill="black"/>
<path d="M64.8314 42.6078V42.1621H64.3857C64.6404 42.1621 64.8314 42.3743 64.8314 42.6078Z" fill="black"/>
<path d="M64.8315 43.8174C64.8315 44.0721 65.0225 44.2631 65.2772 44.2631H66.4868C66.7415 44.2631 66.9325 44.0721 66.9325 43.8174V42.1621H64.8103V43.8174H64.8315Z" fill="black"/>
<path d="M70.7312 42.1623H69.5216C69.2669 42.1623 69.0759 42.3533 69.0759 42.608V43.8176C69.0759 44.0723 69.2669 44.2633 69.5216 44.2633H71.1769V42.1411H70.7312V42.1623Z" fill="black"/>
<path d="M73.2989 42.1621H71.1768V44.2843H73.2989V42.1621Z" fill="black"/>
<path d="M74.9544 42.1623C75.209 42.1623 75.4 42.3533 75.4 42.608V44.2633H73.2778V42.1411H74.9544V42.1623Z" fill="black"/>
<path d="M24.722 44.2842H22.5999V46.4064H24.722V44.2842Z" fill="black"/>
<path d="M26.8232 45.9395C26.8232 46.1941 27.0142 46.3851 27.2689 46.3851H28.4785C28.7332 46.3851 28.9242 46.1941 28.9242 45.9395V44.2842H26.8232V45.9395Z" fill="black"/>
<path d="M29.391 44.2842H28.9453V44.7298C28.9241 44.4752 29.1363 44.2842 29.391 44.2842Z" fill="black"/>
<path d="M37.3917 44.7298V44.2842H36.946C37.1795 44.2842 37.3917 44.4752 37.3917 44.7298Z" fill="black"/>
<path d="M36.9248 46.3856C37.1795 46.3856 37.3705 46.1946 37.3705 45.9399V46.3856H36.9248Z" fill="black"/>
<path d="M39.5138 44.2842H37.3916V46.4064H39.5138V44.2842Z" fill="black"/>
<path d="M41.6149 44.2842H39.4927V46.4064H41.6149V44.2842Z" fill="black"/>
<path d="M43.7369 44.2842H41.6147V46.4064H43.7369V44.2842Z" fill="black"/>
<path d="M44.1615 46.3856C43.9068 46.3856 43.7158 46.1946 43.7158 45.9399V46.3856H44.1615Z" fill="black"/>
<path d="M50.0609 45.9395V44.7298C50.0609 44.4752 49.8699 44.2842 49.6153 44.2842H48.4056C48.151 44.2842 47.96 44.4752 47.96 44.7298V46.3851H50.0821V45.9395H50.0609Z" fill="black"/>
<path d="M52.162 44.7298V44.2842H51.7163C51.971 44.2842 52.162 44.4752 52.162 44.7298Z" fill="black"/>
<path d="M54.2843 44.2842H52.1621V46.4064H54.2843V44.2842Z" fill="black"/>
<path d="M54.7301 46.3856C54.4754 46.3856 54.2844 46.1946 54.2844 45.9399V46.3856H54.7301Z" fill="black"/>
<path d="M58.0405 46.3856C58.2952 46.3856 58.4862 46.1946 58.4862 45.9399V46.3856H58.0405Z" fill="black"/>
<path d="M60.6295 44.2842H58.5073V46.4064H60.6295V44.2842Z" fill="black"/>
<path d="M61.0541 44.2842H60.6084V44.7298C60.6084 44.4752 60.8206 44.2842 61.0541 44.2842Z" fill="black"/>
<path d="M61.0541 46.3856C60.7994 46.3856 60.6084 46.1946 60.6084 45.9399V46.3856H61.0541Z" fill="black"/>
<path d="M71.1769 44.7298V44.2842H70.7312C70.9646 44.2842 71.1769 44.4752 71.1769 44.7298Z" fill="black"/>
<path d="M71.177 45.9397C71.177 46.1944 71.368 46.3854 71.6226 46.3854H73.278V44.2632H71.1558V45.9397H71.177Z" fill="black"/>
<path d="M75.4 44.2842H73.2778V46.4064H75.4V44.2842Z" fill="black"/>
<path d="M22.6001 48.0406C22.6001 48.2952 22.7911 48.4862 23.0457 48.4862H24.2554C24.51 48.4862 24.701 48.2952 24.701 48.0406V46.3853H22.5789V48.0406H22.6001Z" fill="black"/>
<path d="M31.492 46.3853H32.7017C32.9564 46.3853 33.1474 46.5762 33.1474 46.8309V48.0406C33.1474 48.2952 32.9564 48.4862 32.7017 48.4862H31.492C31.2374 48.4862 31.0464 48.2952 31.0464 48.0406V46.8309C31.0464 46.5975 31.2374 46.3853 31.492 46.3853Z" fill="black"/>
<path d="M36.9248 46.3855H35.7152C35.4605 46.3855 35.2695 46.5765 35.2695 46.8311V48.0408C35.2695 48.2954 35.4605 48.4864 35.7152 48.4864H37.3705V46.3643H36.9248V46.3855Z" fill="black"/>
<path d="M39.4926 48.0408C39.4926 48.2954 39.3016 48.4864 39.0469 48.4864H37.3916V46.3643H39.5138V48.0408H39.4926Z" fill="black"/>
<path d="M39.9383 46.3853H39.4927V46.8309C39.4927 46.5975 39.7049 46.3853 39.9383 46.3853Z" fill="black"/>
<path d="M41.6148 46.8309V46.3853H41.1692C41.4026 46.3853 41.6148 46.5975 41.6148 46.8309Z" fill="black"/>
<path d="M41.1479 48.5077C41.4026 48.5077 41.5936 48.3167 41.5936 48.062V48.5077H41.1479Z" fill="black"/>
<path d="M43.7369 46.3853H41.6147V48.5075H43.7369V46.3853Z" fill="black"/>
<path d="M44.1615 48.5077H45.3711C45.6258 48.5077 45.8168 48.3167 45.8168 48.062V46.8524C45.8168 46.5977 45.6258 46.4067 45.3711 46.4067H43.7158V48.5289H44.1615V48.5077Z" fill="black"/>
<path d="M47.9389 48.0406C47.9389 48.2952 48.1299 48.4862 48.3846 48.4862H49.5943C49.8489 48.4862 50.0399 48.2952 50.0399 48.0406V46.3853H47.9177V48.0406H47.9389Z" fill="black"/>
<path d="M54.2843 46.3853H52.1621V48.5075H54.2843V46.3853Z" fill="black"/>
<path d="M56.4064 46.3853H54.2842V48.5075H56.4064V46.3853Z" fill="black"/>
<path d="M58.5075 46.3853H56.3853V48.5075H58.5075V46.3853Z" fill="black"/>
<path d="M60.6295 46.3853H58.5073V48.5075H60.6295V46.3853Z" fill="black"/>
<path d="M62.7306 46.3853H60.6084V48.5075H62.7306V46.3853Z" fill="black"/>
<path d="M64.8526 46.3853H62.7305V48.5075H64.8526V46.3853Z" fill="black"/>
<path d="M66.9537 46.3853H64.8315V48.5075H66.9537V46.3853Z" fill="black"/>
<path d="M67.3993 48.5077H68.6089C68.8636 48.5077 69.0546 48.3167 69.0546 48.062V46.8524C69.0546 46.5977 68.8636 46.4067 68.6089 46.4067H66.9536V48.5289H67.3993V48.5077Z" fill="black"/>
<path d="M73.2777 46.8309V46.3853H72.832C73.0867 46.3853 73.2777 46.5975 73.2777 46.8309Z" fill="black"/>
<path d="M75.4 46.3853H73.2778V48.5075H75.4V46.3853Z" fill="black"/>
<path d="M39.9383 48.5076C39.6837 48.5076 39.4927 48.6985 39.4927 48.9532V50.6085H41.6149V48.4863H39.9383V48.5076Z" fill="black"/>
<path d="M43.7157 50.1629C43.7157 50.4175 43.5247 50.6085 43.2701 50.6085H41.6147V48.4863H43.7369V50.1629H43.7157Z" fill="black"/>
<path d="M44.1615 48.5073H43.7158V48.953C43.7158 48.6983 43.928 48.5073 44.1615 48.5073Z" fill="black"/>
<path d="M54.2843 48.5073H52.1621V50.6295H54.2843V48.5073Z" fill="black"/>
<path d="M54.7301 48.5073H54.2844V48.953C54.2844 48.6983 54.4754 48.5073 54.7301 48.5073Z" fill="black"/>
<path d="M56.3854 48.953V48.5073H55.9397C56.1944 48.5073 56.3854 48.6983 56.3854 48.953Z" fill="black"/>
<path d="M58.5075 48.5073H56.3853V50.6295H58.5075V48.5073Z" fill="black"/>
<path d="M58.953 48.5073H58.5073V48.953C58.5073 48.6983 58.6983 48.5073 58.953 48.5073Z" fill="black"/>
<path d="M64.8314 48.953V48.5073H64.3857C64.6404 48.5073 64.8314 48.6983 64.8314 48.953Z" fill="black"/>
<path d="M66.9537 48.5073H64.8315V50.6295H66.9537V48.5073Z" fill="black"/>
<path d="M67.3993 48.5073H66.9536V48.953C66.9536 48.6983 67.1446 48.5073 67.3993 48.5073Z" fill="black"/>
<path d="M72.832 50.6083C73.0867 50.6083 73.2777 50.4173 73.2777 50.1626V50.6083H72.832Z" fill="black"/>
<path d="M75.4 48.5073H73.2778V50.6295H75.4V48.5073Z" fill="black"/>
<path d="M39.4927 52.2637C39.4927 52.5184 39.6837 52.7094 39.9383 52.7094H41.148C41.4026 52.7094 41.5936 52.5184 41.5936 52.2637V50.6084H39.4714V52.2637H39.4927Z" fill="black"/>
<path d="M42.0604 50.6084H41.6147V51.0541C41.6147 50.8206 41.8057 50.6084 42.0604 50.6084Z" fill="black"/>
<path d="M46.2835 50.6086C46.0289 50.6086 45.8379 50.7996 45.8379 51.0543V52.7096H47.9601V50.5874H46.2835V50.6086Z" fill="black"/>
<path d="M48.3846 52.7308H49.5943C49.8489 52.7308 50.0399 52.5398 50.0399 52.2852V51.0755C50.0399 50.8209 49.8489 50.6299 49.5943 50.6299H47.939V52.7521H48.3846V52.7308Z" fill="black"/>
<path d="M52.1621 52.2637C52.1621 52.5184 52.3531 52.7094 52.6077 52.7094H53.8174C54.0721 52.7094 54.2631 52.5184 54.2631 52.2637V50.6084H52.1409V52.2637H52.1621Z" fill="black"/>
<path d="M58.5075 50.6084H56.3853V52.7306H58.5075V50.6084Z" fill="black"/>
<path d="M61.0541 50.6084H62.2637C62.5184 50.6084 62.7094 50.7994 62.7094 51.0541V52.2637C62.7094 52.5184 62.5184 52.7094 62.2637 52.7094H61.0541C60.7994 52.7094 60.6084 52.5184 60.6084 52.2637V51.0541C60.6084 50.8206 60.8206 50.6084 61.0541 50.6084Z" fill="black"/>
<path d="M66.9537 50.6084H64.8315V52.7306H66.9537V50.6084Z" fill="black"/>
<path d="M67.3993 52.7308C67.1446 52.7308 66.9536 52.5398 66.9536 52.2852V52.7308H67.3993Z" fill="black"/>
<path d="M70.7312 50.6086H69.5216C69.2669 50.6086 69.0759 50.7996 69.0759 51.0543V52.2639C69.0759 52.5186 69.2669 52.7096 69.5216 52.7096H71.1769V50.5874H70.7312V50.6086Z" fill="black"/>
<path d="M73.2989 50.6084H71.1768V52.7306H73.2989V50.6084Z" fill="black"/>
<path d="M75.4 52.2639C75.4 52.5186 75.209 52.7096 74.9544 52.7096H73.2991V50.5874H75.4213V52.2639H75.4Z" fill="black"/>
<path d="M42.0604 52.7305H43.2701C43.5247 52.7305 43.7157 52.9215 43.7157 53.1761V54.3858C43.7157 54.6404 43.5247 54.8314 43.2701 54.8314H42.0604C41.8057 54.8314 41.6147 54.6404 41.6147 54.3858V53.1761C41.6147 52.9215 41.8057 52.7305 42.0604 52.7305Z" fill="black"/>
<path d="M45.3711 54.8319C45.6258 54.8319 45.8167 54.6409 45.8167 54.3862V54.8319H45.3711Z" fill="black"/>
<path d="M47.9601 52.7305H45.8379V54.8527H47.9601V52.7305Z" fill="black"/>
<path d="M48.3846 52.7305H47.939V53.1761C47.939 52.9215 48.1512 52.7305 48.3846 52.7305Z" fill="black"/>
<path d="M48.3846 54.8319C48.13 54.8319 47.939 54.6409 47.939 54.3862V54.8319H48.3846Z" fill="black"/>
<path d="M50.5067 52.7305H51.7163C51.971 52.7305 52.162 52.9215 52.162 53.1761V54.3858C52.162 54.6404 51.971 54.8314 51.7163 54.8314H50.5067C50.252 54.8314 50.061 54.6404 50.061 54.3858V53.1761C50.061 52.9215 50.252 52.7305 50.5067 52.7305Z" fill="black"/>
<path d="M58.5075 52.7305H56.3853V54.8527H58.5075V52.7305Z" fill="black"/>
<path d="M58.953 54.8319C58.6983 54.8319 58.5073 54.6409 58.5073 54.3862V54.8319H58.953Z" fill="black"/>
<path d="M64.3857 54.8319C64.6404 54.8319 64.8314 54.6409 64.8314 54.3862V54.8319H64.3857Z" fill="black"/>
<path d="M66.9537 52.7305H64.8315V54.8527H66.9537V52.7305Z" fill="black"/>
<path d="M68.6091 52.7307C68.8638 52.7307 69.0548 52.9217 69.0548 53.1764V54.8317H66.9326V52.7095H68.6091V52.7307Z" fill="black"/>
<path d="M41.6149 56.5083V55.2987C41.6149 55.044 41.4239 54.853 41.1692 54.853H39.9596C39.7049 54.853 39.5139 55.044 39.5139 55.2987V56.954H41.6361V56.5083H41.6149Z" fill="black"/>
<path d="M45.3711 54.8318H44.1615C43.9068 54.8318 43.7158 55.0228 43.7158 55.2774V56.4871C43.7158 56.7417 43.9068 56.9327 44.1615 56.9327H45.8168V54.8105H45.3711V54.8318Z" fill="black"/>
<path d="M47.9601 54.8315H45.8379V56.9537H47.9601V54.8315Z" fill="black"/>
<path d="M49.5943 54.8318C49.8489 54.8318 50.0399 55.0228 50.0399 55.2774V56.9327H47.9177V54.8105H49.5943V54.8318Z" fill="black"/>
<path d="M52.6078 54.8315H53.8174C54.0721 54.8315 54.2631 55.0225 54.2631 55.2772V56.4868C54.2631 56.7415 54.0721 56.9325 53.8174 56.9325H52.6078C52.3531 56.9325 52.1621 56.7415 52.1621 56.4868V55.2772C52.1621 55.0438 52.3743 54.8315 52.6078 54.8315Z" fill="black"/>
<path d="M55.9397 56.954C56.1944 56.954 56.3854 56.763 56.3854 56.5083V56.954H55.9397Z" fill="black"/>
<path d="M58.5075 54.8315H56.3853V56.9537H58.5075V54.8315Z" fill="black"/>
<path d="M60.6295 54.8315H58.5073V56.9537H60.6295V54.8315Z" fill="black"/>
<path d="M62.7306 54.8315H60.6084V56.9537H62.7306V54.8315Z" fill="black"/>
<path d="M64.8527 54.8315H62.7305V56.9537H64.8527V54.8315Z" fill="black"/>
<path d="M66.9537 54.8315H64.8315V56.9537H66.9537V54.8315Z" fill="black"/>
<path d="M69.0546 56.5081C69.0546 56.7627 68.8636 56.9537 68.6089 56.9537H66.9536V54.8315H69.0758V56.5081H69.0546Z" fill="black"/>
<path d="M41.6149 56.9536H39.4927V59.0758H41.6149V56.9536Z" fill="black"/>
<path d="M42.0604 59.055C41.8057 59.055 41.6147 58.864 41.6147 58.6094V59.055H42.0604Z" fill="black"/>
<path d="M47.9391 57.3993V56.9536H47.4934C47.7481 56.9536 47.9391 57.1446 47.9391 57.3993Z" fill="black"/>
<path d="M50.0611 56.9536H47.939V59.0758H50.0611V56.9536Z" fill="black"/>
<path d="M55.9395 56.9538H54.7298C54.4752 56.9538 54.2842 57.1448 54.2842 57.3995V58.6091C54.2842 58.8638 54.4752 59.0548 54.7298 59.0548H56.3851V56.9326H55.9395V56.9538Z" fill="black"/>
<path d="M58.5075 58.6091C58.5075 58.8638 58.3165 59.0548 58.0618 59.0548H56.4065V56.9326H58.5287V58.6091H58.5075Z" fill="black"/>
<path d="M58.953 56.9541H58.5073V57.3998C58.5073 57.1451 58.6983 56.9541 58.953 56.9541Z" fill="black"/>
<path d="M60.6083 57.3993V56.9536H60.1626C60.4173 56.9536 60.6083 57.1446 60.6083 57.3993Z" fill="black"/>
<path d="M60.6084 58.6089C60.6084 58.8636 60.7994 59.0546 61.054 59.0546H62.2637C62.5183 59.0546 62.7093 58.8636 62.7093 58.6089V56.9536H60.5872V58.6089H60.6084Z" fill="black"/>
<path d="M63.1761 56.9536H62.7305V57.3993C62.7305 57.1446 62.9215 56.9536 63.1761 56.9536Z" fill="black"/>
<path d="M64.8314 57.3993V56.9536H64.3857C64.6404 56.9536 64.8314 57.1446 64.8314 57.3993Z" fill="black"/>
<path d="M66.9537 56.9536H64.8315V59.0758H66.9537V56.9536Z" fill="black"/>
<path d="M67.3993 56.9536H66.9536V57.3993C66.9536 57.1446 67.1446 56.9536 67.3993 56.9536Z" fill="black"/>
<path d="M72.8321 56.9538H71.6224C71.3678 56.9538 71.1768 57.1448 71.1768 57.3995V58.6091C71.1768 58.8638 71.3678 59.0548 71.6224 59.0548H73.2777V56.9326H72.8321V56.9538Z" fill="black"/>
<path d="M74.9544 56.9538C75.209 56.9538 75.4 57.1448 75.4 57.3995V59.0548H73.2778V56.9326H74.9544V56.9538Z" fill="black"/>
<path d="M41.6149 59.0547H39.4927V61.1769H41.6149V59.0547Z" fill="black"/>
<path d="M43.7369 59.0547H41.6147V61.1769H43.7369V59.0547Z" fill="black"/>
<path d="M44.1615 61.1771H45.3711C45.6258 61.1771 45.8168 60.9861 45.8168 60.7315V59.5218C45.8168 59.2672 45.6258 59.0762 45.3711 59.0762H43.7158V61.1983H44.1615V61.1771Z" fill="black"/>
<path d="M50.0611 59.0547H47.939V61.1769H50.0611V59.0547Z" fill="black"/>
<path d="M51.7163 61.1771C51.971 61.1771 52.162 60.9861 52.162 60.7314V61.1771H51.7163Z" fill="black"/>
<path d="M50.5067 61.1771C50.252 61.1771 50.061 60.9861 50.061 60.7314V61.1771H50.5067Z" fill="black"/>
<path d="M54.2843 60.7315V59.5218C54.2843 59.2672 54.0933 59.0762 53.8387 59.0762H52.629C52.3743 59.0762 52.1833 59.2672 52.1833 59.5218V61.1771H54.3055V60.7315H54.2843Z" fill="black"/>
<path d="M64.3857 61.1771C64.6404 61.1771 64.8314 60.9861 64.8314 60.7314V61.1771H64.3857Z" fill="black"/>
<path d="M66.9537 59.0547H64.8315V61.1769H66.9537V59.0547Z" fill="black"/>
<path d="M67.3993 61.1771C67.1446 61.1771 66.9536 60.9861 66.9536 60.7314V61.1771H67.3993Z" fill="black"/>
<path d="M69.5003 59.0547H70.71C70.9646 59.0547 71.1556 59.2457 71.1556 59.5003V60.71C71.1556 60.9646 70.9646 61.1556 70.71 61.1556H69.5003C69.2457 61.1556 69.0547 60.9646 69.0547 60.71V59.5003C69.0547 59.2669 69.2669 59.0547 69.5003 59.0547Z" fill="black"/>
<path d="M73.2777 59.5004V59.0547H72.832C73.0867 59.0547 73.2777 59.2669 73.2777 59.5004Z" fill="black"/>
<path d="M73.2778 60.7312C73.2778 60.9859 73.4688 61.1769 73.7235 61.1769H74.9331C75.1878 61.1769 75.3788 60.9859 75.3788 60.7312V59.0547H73.2566V60.7312H73.2778Z" fill="black"/>
<path d="M41.6149 61.1768H39.4927V63.299H41.6149V61.1768Z" fill="black"/>
<path d="M42.0604 61.1768H41.6147V61.6224C41.6147 61.3678 41.8057 61.1768 42.0604 61.1768Z" fill="black"/>
<path d="M50.0611 61.1768H47.939V63.299H50.0611V61.1768Z" fill="black"/>
<path d="M52.1832 61.1768H50.061V63.299H52.1832V61.1768Z" fill="black"/>
<path d="M54.2843 62.8323C54.2843 63.087 54.0933 63.278 53.8386 63.278H52.1833V61.1558H54.3055V62.8323H54.2843Z" fill="black"/>
<path d="M58.0406 61.177H56.8309C56.5762 61.177 56.3853 61.368 56.3853 61.6226V62.8323C56.3853 63.087 56.5762 63.278 56.8309 63.278H58.4862V61.1558H58.0406V61.177Z" fill="black"/>
<path d="M60.6295 61.1768H58.5073V63.299H60.6295V61.1768Z" fill="black"/>
<path d="M62.7306 61.1768H60.6084V63.299H62.7306V61.1768Z" fill="black"/>
<path d="M64.8527 61.1772H62.7305V63.2994H64.8527V61.1772Z" fill="black"/>
<path d="M66.9537 61.1768H64.8315V63.299H66.9537V61.1768Z" fill="black"/>
<path d="M67.3993 63.2777H68.6089C68.8636 63.2777 69.0546 63.0867 69.0546 62.8321V61.6224C69.0546 61.3678 68.8636 61.1768 68.6089 61.1768H66.9536V63.299H67.3993V63.2777Z" fill="black"/>
<path d="M70.7312 63.2777C70.9859 63.2777 71.1769 63.0867 71.1769 62.832V63.2777H70.7312Z" fill="black"/>
<path d="M73.2777 62.8321V61.6224C73.2777 61.3678 73.0867 61.1768 72.8321 61.1768H71.6224C71.3678 61.1768 71.1768 61.3678 71.1768 61.6224V63.2777H73.2989V62.8321H73.2777Z" fill="black"/>
<path d="M73.7235 63.2777C73.4688 63.2777 73.2778 63.0867 73.2778 62.832V63.2777H73.7235Z" fill="black"/>
<path d="M39.4927 64.9546C39.4927 65.2093 39.6837 65.4003 39.9383 65.4003H41.148C41.4026 65.4003 41.5936 65.2093 41.5936 64.9546V63.2993H39.4714V64.9546H39.4927Z" fill="black"/>
<path d="M44.1615 63.2778H45.3711C45.6258 63.2778 45.8168 63.4688 45.8168 63.7235V64.9331C45.8168 65.1878 45.6258 65.3788 45.3711 65.3788H44.1615C43.9068 65.3788 43.7158 65.1878 43.7158 64.9331V63.7235C43.7158 63.4901 43.928 63.2778 44.1615 63.2778Z" fill="black"/>
<path d="M47.9389 64.9544C47.9389 65.209 48.1299 65.4 48.3846 65.4H50.0399V63.2778H47.9177V64.9544H47.9389Z" fill="black"/>
<path d="M52.162 64.9544C52.162 65.209 51.971 65.4 51.7164 65.4H50.061V63.2778H52.1832V64.9544H52.162Z" fill="black"/>
<path d="M52.6078 63.2778H52.1621V63.7235C52.1621 63.49 52.3743 63.2778 52.6078 63.2778Z" fill="black"/>
<path d="M54.7298 63.2778H55.9395C56.1941 63.2778 56.3851 63.4688 56.3851 63.7235V64.9331C56.3851 65.1878 56.1941 65.3788 55.9395 65.3788H54.7298C54.4752 65.3788 54.2842 65.1878 54.2842 64.9331V63.7235C54.2842 63.4901 54.4752 63.2778 54.7298 63.2778Z" fill="black"/>
<path d="M70.7312 63.2781H69.5216C69.2669 63.2781 69.0759 63.4691 69.0759 63.7237V64.9334C69.0759 65.188 69.2669 65.379 69.5216 65.379H71.1769V63.2568H70.7312V63.2781Z" fill="black"/>
<path d="M73.299 63.2778H71.1768V65.4H73.299V63.2778Z" fill="black"/>
<path d="M73.7235 65.4H74.9331C75.1878 65.4 75.3788 65.209 75.3788 64.9544V63.7235C75.3788 63.4688 75.1878 63.2778 74.9331 63.2778H73.2778V65.4H73.7235Z" fill="black"/>
<path d="M23.0455 12.6001C22.7909 12.6001 22.5999 12.8123 22.5999 13.0458V14.7011V16.8232V18.9454V21.0676V23.1898V25.312V26.9673C22.5999 27.222 22.7909 27.413 23.0455 27.413H36.9246C37.1793 27.413 37.3703 27.222 37.3703 26.9673V25.312V23.1898V21.0676V18.9454V16.8232V14.7011V13.0458C37.3703 12.7911 37.1793 12.6001 36.9246 12.6001H23.0455ZM35.2693 16.8232V18.9454V21.0676V23.1898V25.0361C35.2693 25.1847 35.1632 25.2908 35.0146 25.2908H24.9767C24.8281 25.2908 24.722 25.1847 24.722 25.0361V23.1898V21.0676V18.9454V16.8232V14.9769C24.722 14.8284 24.8281 14.7223 24.9767 14.7223H35.0146C35.1632 14.7223 35.2693 14.8284 35.2693 14.9769V16.8232Z" fill="black"/>
<path d="M33.1686 21.0464V18.9242V17.2689C33.1686 17.0142 32.9776 16.8232 32.7229 16.8232H27.2689C27.0142 16.8232 26.8232 17.0142 26.8232 17.2689V18.9242V21.0464V22.7017C26.8232 22.9564 27.0142 23.1474 27.2689 23.1474H32.7017C32.9564 23.1474 33.1474 22.9564 33.1474 22.7017V21.0464H33.1686Z" fill="black"/>
<path d="M61.0541 12.6001C60.7994 12.6001 60.6084 12.8123 60.6084 13.0458V14.7011V16.8232V18.9454V21.0676V23.1898V25.312V26.9673C60.6084 27.222 60.7994 27.413 61.0541 27.413H74.9332C75.1878 27.413 75.3788 27.222 75.3788 26.9673V25.312V23.1898V21.0676V18.9454V16.8232V14.7011V13.0458C75.3788 12.7911 75.1878 12.6001 74.9332 12.6001H61.0541ZM73.2778 16.8232V18.9454V21.0676V23.1898V25.0361C73.2778 25.1847 73.1717 25.2908 73.0232 25.2908H62.9852C62.8367 25.2908 62.7306 25.1847 62.7306 25.0361V23.1898V21.0676V18.9454V16.8232V14.9769C62.7306 14.8284 62.8367 14.7223 62.9852 14.7223H73.0232C73.1717 14.7223 73.2778 14.8284 73.2778 14.9769V16.8232Z" fill="black"/>
<path d="M71.1769 21.0464V18.9242V17.2689C71.1769 17.0142 70.9859 16.8232 70.7312 16.8232H65.2984C65.0438 16.8232 64.8528 17.0142 64.8528 17.2689V18.9242V21.0464V22.7017C64.8528 22.9564 65.0438 23.1474 65.2984 23.1474H70.7312C70.9859 23.1474 71.1769 22.9564 71.1769 22.7017V21.0464Z" fill="black"/>
<path d="M23.0455 50.6084C22.7909 50.6084 22.5999 50.8206 22.5999 51.0541V52.7094V54.8316V56.9537V59.0759V61.1981V63.3203V64.9756C22.5999 65.2303 22.7909 65.4213 23.0455 65.4213H36.9246C37.1793 65.4213 37.3703 65.2303 37.3703 64.9756V63.3203V61.1981V59.0759V56.9537V54.8316V52.7094V51.0541C37.3703 50.7994 37.1793 50.6084 36.9246 50.6084H23.0455ZM35.2693 54.8316V56.9537V59.0759V61.1981V63.0444C35.2693 63.193 35.1632 63.2991 35.0146 63.2991H24.9767C24.8281 63.2991 24.722 63.193 24.722 63.0444V61.1769V59.0547V56.9325V54.8103V52.964C24.722 52.8155 24.8281 52.7094 24.9767 52.7094H35.0146C35.1632 52.7094 35.2693 52.8155 35.2693 52.964V54.8316Z" fill="black"/>
<path d="M33.158 59.0547C33.1638 59.0547 33.1686 59.0499 33.1686 59.0441V56.9325V55.2772C33.1686 55.0225 32.9776 54.8315 32.7229 54.8315H27.2689C27.0142 54.8315 26.8232 55.0225 26.8232 55.2772V56.9325V59.0547V60.71C26.8232 60.9647 27.0142 61.1557 27.2689 61.1557H32.7017C32.9564 61.1557 33.1474 60.9647 33.1474 60.71V59.0653C33.1474 59.0594 33.1521 59.0547 33.158 59.0547Z" fill="black"/>
</g>
</g>
<defs>
<filter id="filter0_d" x="0" y="0" width="98" height="98" filterUnits="userSpaceOnUse" color-interpolation-filters="sRGB">
<feFlood flood-opacity="0" result="BackgroundImageFix"/>
<feColorMatrix in="SourceAlpha" type="matrix" values="0 0 0 0 0 0 0 0 0 0 0 0 0 0 0 0 0 0 127 0"/>
<feOffset dy="10"/>
<feGaussianBlur stdDeviation="8"/>
<feColorMatrix type="matrix" values="0 0 0 0 0 0 0 0 0 0 0 0 0 0 0 0 0 0 0.05 0"/>
<feBlend mode="normal" in2="BackgroundImageFix" result="effect1_dropShadow"/>
<feBlend mode="normal" in="SourceGraphic" in2="effect1_dropShadow" result="shape"/>
</filter>
<filter id="filter1_d" x="-33.8225" y="-21.7236" width="162.762" height="149.245" filterUnits="userSpaceOnUse" color-interpolation-filters="sRGB">
<feFlood flood-opacity="0" result="BackgroundImageFix"/>
<feColorMatrix in="SourceAlpha" type="matrix" values="0 0 0 0 0 0 0 0 0 0 0 0 0 0 0 0 0 0 127 0"/>
<feOffset dy="15"/>
<feGaussianBlur stdDeviation="12"/>
<feColorMatrix type="matrix" values="0 0 0 0 0 0 0 0 0 0 0 0 0 0 0 0 0 0 0.12 0"/>
<feBlend mode="normal" in2="BackgroundImageFix" result="effect1_dropShadow"/>
<feBlend mode="normal" in="SourceGraphic" in2="effect1_dropShadow" result="shape"/>
</filter>
<clipPath id="clip0">
<rect width="66" height="66" fill="white" transform="translate(16 6)"/>
</clipPath>
</defs>
</svg>
