<svg width="360" height="203" viewBox="0 0 360 203" fill="none" xmlns="http://www.w3.org/2000/svg">
<circle cx="319.747" cy="75.108" r="29.3612" transform="rotate(30 319.747 75.108)" fill="white" stroke="#292B2E" stroke-width="1.42253" stroke-linecap="round" stroke-linejoin="round"/>
<path d="M317.987 79.4277C317.594 79.4277 317.26 79.2905 316.984 79.0161C316.71 78.7406 316.573 78.4065 316.573 78.0138V72.9865C316.573 72.5938 316.71 72.2597 316.984 71.9842C317.26 71.7098 317.594 71.5726 317.987 71.5726H323.014C323.407 71.5726 323.741 71.7098 324.016 71.9842C324.291 72.2597 324.428 72.5938 324.428 72.9865V78.0138C324.428 78.4065 324.291 78.7406 324.016 79.0161C323.741 79.2905 323.407 79.4277 323.014 79.4277H317.987ZM317.358 88.5003C317.018 88.5003 316.737 88.3887 316.515 88.1656C316.291 87.9436 316.18 87.6624 316.18 87.322V85.7117H313.116C312.331 85.7117 311.663 85.4368 311.113 84.8869C310.564 84.3371 310.289 83.6694 310.289 82.8839V79.8204H308.678C308.338 79.8204 308.057 79.7089 307.835 79.4858C307.612 79.2638 307.5 78.9826 307.5 78.6422C307.5 78.3018 307.612 78.02 307.835 77.797C308.057 77.5749 308.338 77.4639 308.678 77.4639H310.289V73.5364H308.678C308.338 73.5364 308.057 73.4248 307.835 73.2018C307.612 72.9797 307.5 72.6985 307.5 72.3581C307.5 72.0177 307.612 71.736 307.835 71.5129C308.057 71.2909 308.338 71.1799 308.678 71.1799H310.289V68.1164C310.289 67.3309 310.564 66.6632 311.113 66.1133C311.663 65.5635 312.331 65.2886 313.116 65.2886H316.18V63.6783C316.18 63.3379 316.291 63.0562 316.515 62.8331C316.737 62.611 317.018 62.5 317.358 62.5C317.699 62.5 317.98 62.611 318.203 62.8331C318.425 63.0562 318.536 63.3379 318.536 63.6783V65.2886H322.464V63.6783C322.464 63.3379 322.576 63.0562 322.799 62.8331C323.021 62.611 323.302 62.5 323.642 62.5C323.983 62.5 324.264 62.611 324.487 62.8331C324.709 63.0562 324.82 63.3379 324.82 63.6783V65.2886H327.884C328.669 65.2886 329.337 65.5635 329.887 66.1133C330.437 66.6632 330.712 67.3309 330.712 68.1164V71.1799H332.322C332.662 71.1799 332.944 71.2909 333.166 71.5129C333.389 71.736 333.5 72.0177 333.5 72.3581C333.5 72.6985 333.389 72.9797 333.166 73.2018C332.944 73.4248 332.662 73.5364 332.322 73.5364H330.712V77.4639H332.322C332.662 77.4639 332.944 77.5749 333.166 77.797C333.389 78.02 333.5 78.3018 333.5 78.6422C333.5 78.9826 333.389 79.2638 333.166 79.4858C332.944 79.7089 332.662 79.8204 332.322 79.8204H330.712V82.8839C330.712 83.6694 330.437 84.3371 329.887 84.8869C329.337 85.4368 328.669 85.7117 327.884 85.7117H324.82V87.322C324.82 87.6624 324.709 87.9436 324.487 88.1656C324.264 88.3887 323.983 88.5003 323.642 88.5003C323.302 88.5003 323.021 88.3887 322.799 88.1656C322.576 87.9436 322.464 87.6624 322.464 87.322V85.7117H318.536V87.322C318.536 87.6624 318.425 87.9436 318.203 88.1656C317.98 88.3887 317.699 88.5003 317.358 88.5003ZM313.116 83.3552H327.884C327.989 83.3552 328.093 83.3028 328.198 83.1981C328.303 83.0934 328.355 82.9886 328.355 82.8839V68.1164C328.355 68.0117 328.303 67.9069 328.198 67.8022C328.093 67.6974 327.989 67.6451 327.884 67.6451H313.116C313.012 67.6451 312.907 67.6974 312.802 67.8022C312.697 67.9069 312.645 68.0117 312.645 68.1164V82.8839C312.645 82.9886 312.697 83.0934 312.802 83.1981C312.907 83.3028 313.012 83.3552 313.116 83.3552ZM318.929 77.0712H322.071V73.9291H318.929V77.0712Z" fill="#292B2E"/>
<path d="M299.754 198.153V76.6649C299.754 75.9008 299.408 75.1778 298.814 74.6976L207.921 1.2736C207 0.529302 205.685 0.524214 204.758 1.26136L112.397 74.6974C111.793 75.1772 111.442 75.906 111.442 76.6769V198.153C111.442 199.725 112.715 200.998 114.287 200.998H296.909C298.48 200.998 299.754 199.725 299.754 198.153Z" fill="#292B2E" stroke="#292B2E" stroke-width="1.42253" stroke-miterlimit="10" stroke-linecap="round" stroke-linejoin="round"/>
<path d="M111.441 76.6237L298.455 76.6237V157.144L111.441 157.144V76.6237Z" fill="#292B2E" stroke="#292B2E" stroke-width="1.42253"/>
<path d="M262.352 26.2266L262.352 124.684C262.352 126.71 260.71 128.352 258.685 128.352L154.004 128.352C151.978 128.352 150.336 126.71 150.336 124.684L150.336 107.548L150.336 26.2266C150.336 24.201 151.978 22.5588 154.004 22.5588L258.685 22.5588C260.71 22.5588 262.352 24.201 262.352 26.2266Z" fill="white" stroke="#292B2E" stroke-width="1.42253" stroke-linecap="round" stroke-linejoin="round"/>
<rect x="184.88" y="70.8414" width="17.725" height="17.725" rx="2.1338" stroke="#292B2E" stroke-width="1.42253"/>
<rect x="209.223" y="70.8414" width="17.725" height="17.725" rx="2.1338" stroke="#292B2E" stroke-width="1.42253"/>
<rect x="184.88" y="92.5865" width="17.725" height="17.725" rx="2.1338" stroke="#292B2E" stroke-width="1.42253"/>
<path fill-rule="evenodd" clip-rule="evenodd" d="M213.298 91.875H208.512V96.6619H213.298V91.875ZM218.086 96.6617H213.299V101.449H218.086V96.6617ZM208.512 101.449H213.299V106.236H208.512V101.449ZM222.873 91.875H218.086V96.6619H222.873V101.449H227.66V96.6617H222.873V91.875ZM218.086 106.236H213.299V111.023H218.086V106.236ZM218.086 101.449H222.873V106.236H227.66V111.023H222.873V106.236H218.086V101.449Z" fill="#292B2E"/>
<line x1="216.523" y1="147.733" x2="172.828" y2="147.733" stroke="#292B2E" stroke-width="1.42253" stroke-linecap="round" stroke-linejoin="round"/>
<line x1="216.523" y1="132.175" x2="172.828" y2="132.175" stroke="#292B2E" stroke-width="1.42253" stroke-linecap="round" stroke-linejoin="round"/>
<line x1="0.711265" y1="-0.711265" x2="45.9622" y2="-0.711265" transform="matrix(1 1.74846e-07 1.74846e-07 -1 197.009 41.2149)" stroke="#292B2E" stroke-width="1.42253" stroke-linecap="round" stroke-linejoin="round"/>
<line x1="242.363" y1="55.058" x2="172.288" y2="55.5695" stroke="#292B2E" stroke-width="1.42253" stroke-linecap="round" stroke-linejoin="round"/>
<line x1="242.972" y1="147.733" x2="230.392" y2="147.733" stroke="#292B2E" stroke-width="1.42253" stroke-linecap="round" stroke-linejoin="round"/>
<line x1="242.972" y1="132.175" x2="230.392" y2="132.175" stroke="#292B2E" stroke-width="1.42253" stroke-linecap="round" stroke-linejoin="round"/>
<line x1="0.711265" y1="-0.711265" x2="13.2908" y2="-0.711265" transform="matrix(1 1.74846e-07 1.74846e-07 -1 172.117 41.2149)" stroke="#292B2E" stroke-width="1.42253" stroke-linecap="round" stroke-linejoin="round"/>
<path d="M111.442 75.4556C124.978 75.4556 138.052 80.3852 148.219 89.323L203.233 137.687L111.442 199.918" fill="#DCF4FF"/>
<path d="M111.442 75.4556L111.442 199.918L203.233 137.687L148.219 89.323C138.052 80.3852 124.978 75.4556 111.442 75.4556V75.4556Z" stroke="#292B2E" stroke-width="1.42253" stroke-miterlimit="10" stroke-linecap="round" stroke-linejoin="round"/>
<path d="M299.691 75.4556C286.155 75.4556 273.081 80.3852 262.914 89.323L207.9 137.687L299.691 199.918" fill="#DCF4FF"/>
<path d="M299.691 75.4556L299.691 199.918L207.9 137.687L262.914 89.323C273.081 80.3852 286.155 75.4556 299.691 75.4556V75.4556Z" stroke="#292B2E" stroke-width="1.42253" stroke-miterlimit="10" stroke-linecap="round" stroke-linejoin="round"/>
<path d="M120.42 164.502L197.535 123.091C202.57 120.387 208.625 120.387 213.66 123.091L290.775 164.502C296.304 167.472 299.754 173.24 299.754 179.516L299.754 199.155C299.754 200.726 298.48 202 296.909 202L114.287 202C112.715 202 111.442 200.726 111.442 199.155L111.442 179.516C111.442 173.24 114.891 167.472 120.42 164.502Z" fill="#DCF4FF" stroke="#292B2E" stroke-width="1.42253" stroke-miterlimit="10" stroke-linecap="round" stroke-linejoin="round"/>
<line x1="19.7471" y1="107.401" x2="75.2258" y2="107.401" stroke="#292B2E" stroke-width="1.42253" stroke-linecap="round"/>
<line x1="1.25423" y1="141.542" x2="92.2962" y2="141.542" stroke="#292B2E" stroke-width="1.42253" stroke-linecap="round"/>
<line x1="41.0851" y1="177.105" x2="75.2258" y2="177.105" stroke="#292B2E" stroke-width="1.42253" stroke-linecap="round"/>
<path d="M89.1641 61.7952C100.457 58.052 106.554 45.7919 102.781 34.4116C99.0092 23.0312 86.7965 16.84 75.5037 20.5832C64.2108 24.3264 58.1142 36.5865 61.8864 47.9669C65.6586 59.3473 77.8712 65.5384 89.1641 61.7952Z" fill="white" stroke="#292B2E" stroke-width="1.42253" stroke-linecap="round" stroke-linejoin="round"/>
<path d="M73.1125 50.7139C76.0757 54.1209 81.4644 55.7999 86.6114 54.0938C91.7585 52.3878 95.0774 47.8225 95.4189 43.3201" fill="white"/>
<path d="M73.1125 50.7139L95.4189 43.3201C95.0774 47.8225 91.7585 52.3878 86.6114 54.0938C81.4644 55.7999 76.0757 54.1209 73.1125 50.7139Z" stroke="#292B2E" stroke-width="1.42253" stroke-linecap="round" stroke-linejoin="round"/>
<path d="M76.549 38.9485C75.9166 38.573 75.2315 38.3353 74.5338 38.2492C73.8361 38.1631 73.1399 38.2304 72.4859 38.4472C71.8319 38.664 71.2333 39.0258 70.7252 39.5116C70.217 39.9974 69.8096 40.5973 69.5266 41.2762" stroke="#292B2E" stroke-width="1.42253" stroke-linecap="round" stroke-linejoin="round"/>
<path d="M92.6587 33.6087C92.0263 33.2332 91.3411 32.9954 90.6434 32.9094C89.9458 32.8233 89.2495 32.8906 88.5956 33.1074C87.9416 33.3242 87.343 33.686 86.8349 34.1718C86.3267 34.6576 85.9193 35.2575 85.6363 35.9364" stroke="#292B2E" stroke-width="1.42253" stroke-linecap="round" stroke-linejoin="round"/>
</svg>
