<svg width="41" height="40" viewBox="0 0 41 40" fill="none" xmlns="http://www.w3.org/2000/svg">
<path d="M32.2836 1.45201C22.6395 -0.673405 12.6463 -0.43866 6.27134 1.98014C6.00559 2.08097 5.87271 2.13139 5.16426 2.6201C4.89501 2.80584 3.88709 3.73158 3.67545 3.98752C3.11859 4.66093 3.10754 4.6831 3.08545 4.72743C0.0783714 10.7605 -0.40109 23.8903 1.33742 31.9695C1.52188 32.8267 1.61411 33.2553 2.24251 34.3329C2.56392 34.8841 3.62765 36.102 4.12169 36.4844C5.0876 37.2321 5.59578 37.4001 6.61214 37.736C15.422 40.6475 25.1767 40.338 31.8772 39.1011C33.1297 38.8699 33.756 38.7542 34.8501 38.0936C35.4457 37.734 36.6217 36.6389 37.0344 36.0596C37.7927 34.9953 37.9582 34.4295 38.2891 33.2979C40.1521 26.9262 41.2899 17.1891 39.2486 8.28848C38.9081 6.80346 38.7378 6.06095 38.0143 4.92568C37.5841 4.25048 36.5202 3.16121 35.8683 2.72832C34.7721 2.00045 33.9426 1.81764 32.2836 1.45201Z" fill="#DCF4FF"/>
</svg>
