<svg width="24" height="24" viewBox="0 0 24 24" fill="none" xmlns="http://www.w3.org/2000/svg">
<path d="M12 16C12.1825 16 12.3335 15.9405 12.4531 15.8215C12.5721 15.7019 12.6316 15.5509 12.6316 15.3684V11.7684C12.6316 11.6 12.5721 11.456 12.4531 11.3364C12.3335 11.2174 12.1825 11.1579 12 11.1579C11.8175 11.1579 11.6668 11.2174 11.5478 11.3364C11.4282 11.456 11.3684 11.607 11.3684 11.7895V15.3895C11.3684 15.5579 11.4282 15.7019 11.5478 15.8215C11.6668 15.9405 11.8175 16 12 16ZM12 9.72632C12.1965 9.72632 12.3579 9.65951 12.4842 9.5259C12.6105 9.39284 12.6737 9.22807 12.6737 9.03158C12.6737 8.84912 12.6105 8.69109 12.4842 8.55747C12.3579 8.42442 12.1965 8.35789 12 8.35789C11.8035 8.35789 11.6421 8.42442 11.5158 8.55747C11.3895 8.69109 11.3263 8.84912 11.3263 9.03158C11.3263 9.22807 11.3895 9.39284 11.5158 9.5259C11.6421 9.65951 11.8035 9.72632 12 9.72632ZM12 20C10.8912 20 9.84926 19.7895 8.87411 19.3684C7.89839 18.9474 7.05263 18.3789 6.33684 17.6632C5.62105 16.9474 5.05263 16.1016 4.63158 15.1259C4.21053 14.1507 4 13.1088 4 12C4 10.8912 4.21053 9.84898 4.63158 8.87326C5.05263 7.89811 5.62105 7.05263 6.33684 6.33684C7.05263 5.62105 7.89839 5.05263 8.87411 4.63158C9.84926 4.21053 10.8912 4 12 4C13.1088 4 14.151 4.21053 15.1267 4.63158C16.1019 5.05263 16.9474 5.62105 17.6632 6.33684C18.3789 7.05263 18.9474 7.89811 19.3684 8.87326C19.7895 9.84898 20 10.8912 20 12C20 13.1088 19.7895 14.1507 19.3684 15.1259C18.9474 16.1016 18.3789 16.9474 17.6632 17.6632C16.9474 18.3789 16.1019 18.9474 15.1267 19.3684C14.151 19.7895 13.1088 20 12 20ZM12 18.7368C13.8667 18.7368 15.4563 18.0808 16.7688 16.7688C18.0808 15.4563 18.7368 13.8667 18.7368 12C18.7368 10.1333 18.0808 8.54372 16.7688 7.23116C15.4563 5.91916 13.8667 5.26316 12 5.26316C10.1333 5.26316 8.544 5.91916 7.232 7.23116C5.91944 8.54372 5.26316 10.1333 5.26316 12C5.26316 13.8667 5.91944 15.4563 7.232 16.7688C8.544 18.0808 10.1333 18.7368 12 18.7368Z" fill="#292B2E"/>
</svg>
