<svg width="25" height="24" viewBox="0 0 25 24" fill="none" xmlns="http://www.w3.org/2000/svg">
<path fill-rule="evenodd" clip-rule="evenodd" d="M8.53246 8.08368C7.68861 7.91573 6.81391 8.0018 6.01898 8.331C5.22405 8.6602 4.5446 9.21774 4.06657 9.93312C3.58853 10.6485 3.33337 11.4896 3.33337 12.35C3.33337 13.2104 3.58853 14.0514 4.06657 14.7668C4.5446 15.4822 5.22405 16.0397 6.01898 16.3689C6.81391 16.6981 7.68861 16.7842 8.53246 16.6162C9.37114 16.4493 10.1419 16.0389 10.7485 15.4365C11.3514 14.8881 11.8834 14.2685 12.3334 13.5923C12.7834 14.2685 13.3154 14.8881 13.9182 15.4365C14.5249 16.0389 15.2956 16.4493 16.1343 16.6162C16.9781 16.7842 17.8528 16.6981 18.6478 16.3689C19.4427 16.0397 20.1221 15.4822 20.6002 14.7668C21.0782 14.0514 21.3334 13.2104 21.3334 12.35C21.3334 11.4896 21.0782 10.6485 20.6002 9.93312C20.1221 9.21774 19.4427 8.6602 18.6478 8.331C17.8528 8.0018 16.9781 7.91573 16.1343 8.08368C15.2956 8.25061 14.5248 8.661 13.9182 9.2634C13.3154 9.8118 12.7833 10.4314 12.3334 11.1076C11.8834 10.4314 11.3514 9.8118 10.7485 9.26339C10.1419 8.66099 9.37114 8.2506 8.53246 8.08368ZM6.50151 9.49617C7.06597 9.26241 7.68708 9.2013 8.28628 9.32056C8.88447 9.43962 9.434 9.7331 9.86562 10.164L9.86563 10.164L9.87894 10.177L9.87904 10.1771L9.89259 10.1897L9.89258 10.1897C10.5798 10.8133 11.1618 11.5429 11.6171 12.35C11.1613 13.158 10.5784 13.8883 9.89014 14.5125L9.89014 14.5125C9.88252 14.5194 9.87507 14.5265 9.8678 14.5338C9.43585 14.9658 8.88548 15.2601 8.28628 15.3794C7.68708 15.4986 7.06597 15.4375 6.50151 15.2038C5.93705 14.97 5.45458 14.5741 5.11514 14.0661C4.77569 13.5581 4.59451 12.9609 4.59451 12.35C4.59451 11.739 4.77569 11.1418 5.11514 10.6338C5.45458 10.1258 5.93705 9.72993 6.50151 9.49617ZM16.3805 9.32056C16.9797 9.2013 17.6008 9.26241 18.1652 9.49617C18.7297 9.72993 19.2122 10.1258 19.5516 10.6338C19.8911 11.1418 20.0722 11.739 20.0722 12.35C20.0722 12.9609 19.8911 13.5581 19.5516 14.0661C19.2122 14.5741 18.7297 14.97 18.1652 15.2038C17.6008 15.4375 16.9797 15.4986 16.3805 15.3794C15.7813 15.2601 15.2309 14.9658 14.799 14.5338C14.7917 14.5265 14.7842 14.5194 14.7766 14.5125C14.0883 13.8883 13.5054 13.158 13.0497 12.35C13.5054 11.5419 14.0883 10.8116 14.7766 10.1875C14.7842 10.1805 14.7917 10.1734 14.799 10.1662L14.6818 10.0491L14.799 10.1662C15.2309 9.73409 15.7813 9.43982 16.3805 9.32056Z" fill="#292B2E"/>
</svg>
