<svg width="36" height="36" viewBox="0 0 36 36" fill="none" xmlns="http://www.w3.org/2000/svg">
<path d="M8.85 14.3C8.98333 14.4667 9.15833 14.55 9.375 14.55C9.59167 14.55 9.76667 14.4667 9.9 14.3L11.6 12.6L13.3 14.3C13.4 14.4333 13.5667 14.5083 13.8 14.525C14.0333 14.5417 14.2333 14.4667 14.4 14.3C14.5667 14.1333 14.65 13.95 14.65 13.75C14.65 13.55 14.5667 13.3667 14.4 13.2L12.55 11.35C12.4167 11.2167 12.2667 11.1167 12.1 11.05C11.9333 10.9833 11.75 10.95 11.55 10.95C11.3833 10.95 11.225 10.9833 11.075 11.05C10.925 11.1167 10.7833 11.2167 10.65 11.35L8.8 13.2C8.66667 13.3333 8.59167 13.5083 8.575 13.725C8.55833 13.9417 8.65 14.1333 8.85 14.3ZM21.65 14.3C21.7833 14.4667 21.9583 14.55 22.175 14.55C22.3917 14.55 22.5833 14.4667 22.75 14.3L24.45 12.6L26.1 14.3C26.2333 14.4333 26.4083 14.5083 26.625 14.525C26.8417 14.5417 27.0333 14.4667 27.2 14.3C27.3667 14.1333 27.45 13.95 27.45 13.75C27.45 13.55 27.3667 13.3667 27.2 13.2L25.4 11.35C25.2667 11.2167 25.1167 11.1167 24.95 11.05C24.7833 10.9833 24.6167 10.95 24.45 10.95C24.25 10.95 24.0667 10.9833 23.9 11.05C23.7333 11.1167 23.5833 11.2167 23.45 11.35L21.65 13.2C21.4833 13.3333 21.4 13.5083 21.4 13.725C21.4 13.9417 21.4833 14.1333 21.65 14.3ZM18 36C15.5 36 13.1667 35.525 11 34.575C8.83333 33.625 6.93333 32.3333 5.3 30.7C3.66667 29.0667 2.375 27.1667 1.425 25C0.475 22.8333 0 20.5 0 18C0 15.5 0.475 13.1583 1.425 10.975C2.375 8.79167 3.66667 6.89167 5.3 5.275C6.93333 3.65833 8.83333 2.375 11 1.425C13.1667 0.475 15.5 0 18 0C20.5 0 22.8417 0.475 25.025 1.425C27.2083 2.375 29.1083 3.65833 30.725 5.275C32.3417 6.89167 33.625 8.79167 34.575 10.975C35.525 13.1583 36 15.5 36 18C36 20.5 35.525 22.8333 34.575 25C33.625 27.1667 32.3417 29.0667 30.725 30.7C29.1083 32.3333 27.2083 33.625 25.025 34.575C22.8417 35.525 20.5 36 18 36ZM18 34.45C22.5667 34.45 26.45 32.8417 29.65 29.625C32.85 26.4083 34.45 22.5333 34.45 18C34.45 13.4333 32.85 9.55 29.65 6.35C26.45 3.15 22.5667 1.55 18 1.55C13.4667 1.55 9.59167 3.15 6.375 6.35C3.15833 9.55 1.55 13.4333 1.55 18C1.55 22.5333 3.15833 26.4083 6.375 29.625C9.59167 32.8417 13.4667 34.45 18 34.45ZM18 27.75C19.5 27.75 21 27.3917 22.5 26.675C24 25.9583 25.2333 24.8333 26.2 23.3C26.4 23 26.425 22.7333 26.275 22.5C26.125 22.2667 25.8667 22.15 25.5 22.15H10.45C10.1167 22.15 9.875 22.2667 9.725 22.5C9.575 22.7333 9.6 23 9.8 23.3C10.8 24.8333 12.0417 25.9583 13.525 26.675C15.0083 27.3917 16.5 27.75 18 27.75Z" fill="#292B2E"/>
</svg>
