<svg width="56" height="24" viewBox="0 0 56 24" fill="none" xmlns="http://www.w3.org/2000/svg">
<path fill-rule="evenodd" clip-rule="evenodd" d="M22.5101 12.8093L19.7209 20.3318L19.4233 18.8036C18.7283 16.9293 17.2241 14.9626 15.4727 14.166L18.0247 23.8259L21.0418 23.8246L25.5279 12.8093H22.5101Z" fill="#96969D"/>
<path fill-rule="evenodd" clip-rule="evenodd" d="M24.9014 23.8372L26.6847 12.7986H29.535L27.7504 23.8372H24.9014Z" fill="#96969D"/>
<path fill-rule="evenodd" clip-rule="evenodd" d="M38.0901 13.0704C37.5267 12.8478 36.6384 12.606 35.5361 12.606C32.7163 12.606 30.7357 14.1049 30.7184 16.2483C30.7005 17.8356 32.135 18.7212 33.2133 19.2488C34.3262 19.7889 34.6976 20.1351 34.6943 20.6181C34.6837 21.3576 33.804 21.6945 32.9868 21.6945C31.8473 21.6945 31.24 21.5284 30.3058 21.1178L29.9358 20.9417L29.5371 23.412C30.2042 23.7196 31.4347 23.986 32.7143 24C35.7062 24 37.6529 22.5184 37.6762 20.2301C37.6881 18.971 36.9267 18.0176 35.281 17.2309C34.2877 16.7193 33.6731 16.3798 33.6824 15.8616C33.6831 15.4031 34.1973 14.9121 35.3149 14.9121C36.2484 14.8969 36.9201 15.1108 37.4483 15.3367L37.7021 15.4636L38.0901 13.0704ZM45.4 12.8099H43.1981C42.5151 12.8099 42.0035 13.0046 41.7025 13.7262L37.4715 23.8405H40.4647C40.4647 23.8405 40.9544 22.4792 41.0654 22.1808C41.3916 22.1808 44.2991 22.1875 44.7143 22.1875C44.802 22.5722 45.0612 23.8405 45.0612 23.8405H47.7075L45.4 12.8099ZM41.8853 19.9232C42.1218 19.2893 43.0207 16.8376 43.0207 16.8376C43.0028 16.8675 43.2546 16.1991 43.3995 15.7858L43.5895 16.7373C43.5895 16.7373 44.137 19.3717 44.2512 19.9232H41.8853Z" fill="#96969D"/>
<path fill-rule="evenodd" clip-rule="evenodd" d="M17.1334 12.8032H12.5363L12.5098 12.9932C16.0837 13.9075 18.4417 16.1519 19.4237 18.8062L18.4244 13.7334C18.253 13.0351 17.7527 12.8278 17.1334 12.8032Z" fill="#BBBBC1"/>
<path fill-rule="evenodd" clip-rule="evenodd" d="M3.91473 10.1363H2.09689L0 0.685015L2.00919 0.349487L3.44366 7.74575L7.09727 0.447153H9.02673L3.91473 10.1363Z" fill="#96969D"/>
<path fill-rule="evenodd" clip-rule="evenodd" d="M13.3659 7.04611H9.03195C8.91369 8.36032 9.52428 8.93372 10.5588 8.93372C11.4258 8.93372 12.1886 8.61214 13.0091 8.09456L13.0025 9.40877C12.1979 9.9124 11.2677 10.234 10.1767 10.234C8.2898 10.234 7.04336 9.15763 7.41743 6.72454C7.75561 4.52998 9.2738 3.20181 11.0358 3.20181C13.063 3.20181 13.7373 4.72532 13.4423 6.64082C13.4211 6.78102 13.3812 6.94844 13.3659 7.04611ZM10.8152 4.36188C10.1442 4.36188 9.51698 4.89341 9.22131 5.99767H11.9055C11.9547 4.94922 11.6258 4.36188 10.8152 4.36188ZM16.191 6.22158L15.595 10.0944H13.9174L14.9565 3.34134H16.383L16.3837 4.69741C16.9518 3.91473 17.7238 3.25762 18.7809 3.20181L18.7909 4.86551C17.7311 4.93527 16.7784 5.49471 16.191 6.22158ZM18.7689 10.0944L19.8081 3.34134H21.4857L20.4466 10.0944H18.7689ZM20.8353 2.20918C20.2758 2.20918 19.8891 1.81717 19.9749 1.2584C20.0632 0.685009 20.5728 0.279717 21.1323 0.279717C21.6778 0.279717 22.0625 0.685009 21.9741 1.2584C21.8877 1.81717 21.3808 2.20918 20.8353 2.20918ZM26.132 1.4956C25.5586 1.4956 25.2124 1.74741 25.1201 2.3487L24.9673 3.34134H26.2536L26.2522 4.71136H24.756L23.9275 10.0944H22.2638L23.093 4.71136H22.1136L22.3249 3.34134H23.3029L23.4816 2.18061C23.7122 0.68501 24.7487 0.125571 26.1327 0.125571C26.427 0.125571 26.6462 0.154146 26.8097 0.181387L26.8223 1.55207C26.6589 1.52417 26.4117 1.4956 26.132 1.4956ZM26.1499 10.0944L27.1897 3.34134H28.8674L27.8282 10.0944H26.1499ZM28.2169 2.20918C27.6575 2.20918 27.2708 1.81717 27.3565 1.2584C27.4449 0.685009 27.9545 0.279717 28.5139 0.279717C29.0587 0.279717 29.4441 0.685009 29.3557 1.2584C29.27 1.81717 28.7624 2.20918 28.2169 2.20918ZM35.372 7.04611H31.038C30.9191 8.36032 31.5304 8.93372 32.5648 8.93372C33.4319 8.93372 34.194 8.61214 35.0152 8.09456L35.0079 9.40877C34.204 9.9124 33.2731 10.234 32.1828 10.234C30.2952 10.234 29.0494 9.15763 29.4235 6.72454C29.7617 4.52998 31.2799 3.20181 33.0412 3.20181C35.069 3.20181 35.7427 4.72532 35.4484 6.64082C35.4265 6.78102 35.3866 6.94844 35.372 7.04611ZM32.8213 4.36188C32.1496 4.36188 31.5231 4.89341 31.2274 5.99767H33.9116C33.9608 4.94922 33.6319 4.36188 32.8213 4.36188ZM40.3412 10.0944L40.3458 9.15762C39.7817 9.73101 39.0475 10.234 38.1107 10.234C36.6982 10.234 35.7281 9.18553 36.0783 6.90659C36.4656 4.38978 38.0217 3.27157 39.5877 3.27157C40.2309 3.27157 40.7312 3.3832 41.1152 3.52339L41.6162 0.265767L43.335 0L41.7816 10.0944H40.3412ZM40.9019 4.90737C40.5126 4.71136 40.2063 4.61369 39.6329 4.61369C38.7519 4.61369 37.9991 5.32661 37.7712 6.80892C37.5692 8.12247 38.0336 8.73772 38.7745 8.73772C39.3897 8.73772 39.9206 8.37494 40.4541 7.81551L40.9019 4.90737ZM46.9209 10.1576C46.1269 10.1576 45.4791 10.0307 44.8765 9.81872L45.98 2.64968L47.2816 2.4477L46.8046 5.55118C47.1846 5.21233 47.7135 4.87348 48.3593 4.87348C49.4397 4.87348 50.1632 5.67808 49.8988 7.3936C49.6091 9.27855 48.4464 10.1576 46.9209 10.1576ZM47.8583 5.99568C47.4344 5.99568 47.0092 6.28137 46.6332 6.66341L46.2757 8.98222C46.5262 9.07723 46.6996 9.11975 47.0597 9.11975C47.8643 9.11975 48.4271 8.63274 48.6058 7.46802C48.758 6.48269 48.4304 5.99568 47.8583 5.99568ZM52.8926 10.3695C52.2435 11.6299 51.601 12.0219 50.6163 12.0219C50.3938 12.0219 50.2702 12 50.1585 11.9688L50.1499 10.9203C50.3134 10.9628 50.4881 10.9941 50.7319 10.9941C51.1027 10.9941 51.4249 10.8253 51.6409 10.4546L51.8096 10.1157L50.7319 5.07413L52.082 4.90537L52.7072 8.54769L54.4008 4.97912H55.6606L52.8926 10.3695Z" fill="#96969D"/>
</svg>
