<svg width="24" height="24" viewBox="0 0 24 24" fill="none" xmlns="http://www.w3.org/2000/svg">
<path d="M7.57236 20.2975C7.25443 20.2975 6.9788 20.1808 6.74546 19.9475C6.51212 19.7141 6.39545 19.4385 6.39545 19.1206V4.47437C6.39545 4.15645 6.51212 3.88081 6.74546 3.64747C6.9788 3.41415 7.25443 3.29749 7.57236 3.29749H15.4186C15.7365 3.29749 16.0121 3.41416 16.2455 3.64749C16.4788 3.88083 16.5955 4.15647 16.5955 4.47439V6.825C16.5955 7.00555 16.4491 7.15192 16.2686 7.15192V7.15192C16.088 7.15192 15.9417 7.00555 15.9417 6.825V5.7821H7.04929V17.8129H15.9417V16.77C15.9417 16.5894 16.088 16.4431 16.2686 16.4431V16.4431C16.4491 16.4431 16.5955 16.5894 16.5955 16.77V19.1206C16.5955 19.4385 16.4788 19.7141 16.2455 19.9475C16.0121 20.1808 15.7365 20.2975 15.4186 20.2975H7.57236ZM7.04929 18.4667V19.1206C7.04929 19.2513 7.10378 19.3712 7.21275 19.4802C7.32173 19.5892 7.4416 19.6436 7.57236 19.6436H15.4186C15.5493 19.6436 15.6692 19.5892 15.7782 19.4802C15.8872 19.3712 15.9417 19.2513 15.9417 19.1206V18.4667H7.04929ZM14.853 13.6691L19.5836 8.93853C19.6457 8.87643 19.7209 8.84265 19.8092 8.83719C19.8974 8.83175 19.9781 8.86553 20.0511 8.93853C20.1241 9.01155 20.1606 9.09029 20.1606 9.17475C20.1606 9.25921 20.1241 9.33794 20.0511 9.41094L15.2666 14.1955C15.148 14.3121 15.0096 14.3704 14.8515 14.3704C14.6934 14.3704 14.556 14.3121 14.4394 14.1955L12.0627 11.8187C12.0006 11.7566 11.9676 11.6814 11.9638 11.5932C11.96 11.5049 11.9946 11.4243 12.0676 11.3512C12.1406 11.2782 12.2185 11.2417 12.3013 11.2417C12.3842 11.2417 12.4621 11.2782 12.5351 11.3512L14.853 13.6691ZM7.04929 5.12826H15.9417V4.47439C15.9417 4.34364 15.8872 4.22377 15.7782 4.11478C15.6692 4.00581 15.5493 3.95133 15.4186 3.95133H7.57236C7.4416 3.95133 7.32173 4.00581 7.21275 4.11478C7.10378 4.22377 7.04929 4.34364 7.04929 4.47439V5.12826Z" fill="#292B2E"/>
<path d="M7.04929 18.4667V19.1206C7.04929 19.2513 7.10378 19.3712 7.21275 19.4802C7.32173 19.5892 7.4416 19.6436 7.57236 19.6436H15.4186C15.5493 19.6436 15.6692 19.5892 15.7782 19.4802C15.8872 19.3712 15.9417 19.2513 15.9417 19.1206V18.4667H7.04929ZM7.04929 18.4667V19.6436M7.04929 5.12826H15.9417V4.47439C15.9417 4.34364 15.8872 4.22377 15.7782 4.11478C15.6692 4.00581 15.5493 3.95133 15.4186 3.95133H7.57236C7.4416 3.95133 7.32173 4.00581 7.21275 4.11478C7.10378 4.22377 7.04929 4.34364 7.04929 4.47439V5.12826ZM7.04929 5.12826V3.95133M7.57236 20.2975C7.25443 20.2975 6.9788 20.1808 6.74546 19.9475C6.51212 19.7141 6.39545 19.4385 6.39545 19.1206V4.47437C6.39545 4.15645 6.51212 3.88081 6.74546 3.64747C6.9788 3.41415 7.25443 3.29749 7.57236 3.29749H15.4186C15.7365 3.29749 16.0121 3.41416 16.2455 3.64749C16.4788 3.88083 16.5955 4.15647 16.5955 4.47439V6.825C16.5955 7.00555 16.4491 7.15192 16.2686 7.15192V7.15192C16.088 7.15192 15.9417 7.00555 15.9417 6.825V5.7821H7.04929V17.8129H15.9417V16.77C15.9417 16.5894 16.088 16.4431 16.2686 16.4431V16.4431C16.4491 16.4431 16.5955 16.5894 16.5955 16.77V19.1206C16.5955 19.4385 16.4788 19.7141 16.2455 19.9475C16.0121 20.1808 15.7365 20.2975 15.4186 20.2975H7.57236ZM14.853 13.6691L19.5836 8.93853C19.6457 8.87643 19.7209 8.84265 19.8092 8.83719C19.8974 8.83175 19.9781 8.86553 20.0511 8.93853C20.1241 9.01155 20.1606 9.09029 20.1606 9.17475C20.1606 9.25921 20.1241 9.33794 20.0511 9.41094L15.2666 14.1955C15.148 14.3121 15.0096 14.3704 14.8515 14.3704C14.6934 14.3704 14.556 14.3121 14.4394 14.1955L12.0627 11.8187C12.0006 11.7566 11.9676 11.6814 11.9638 11.5932C11.96 11.5049 11.9946 11.4243 12.0676 11.3512C12.1406 11.2782 12.2185 11.2417 12.3013 11.2417C12.3842 11.2417 12.4621 11.2782 12.5351 11.3512L14.853 13.6691Z" stroke="#292B2E" stroke-width="0.318751"/>
</svg>
